<svg id="my-svg" width="100%" xmlns="http://www.w3.org/2000/svg" xmlns:xlink="http://www.w3.org/1999/xlink" class="erDiagram" style="max-width: 487.939px; background-color: white;" viewBox="0 0 487.93878173828125 1124.5" role="graphics-document document" aria-roledescription="er"><rect x="0" y="0" width="487.93878173828125" height="1124.5" fill="white"/><style>#my-svg{font-family:"trebuchet ms",verdana,arial,sans-serif;font-size:16px;fill:#333;}@keyframes edge-animation-frame{from{stroke-dashoffset:0;}}@keyframes dash{to{stroke-dashoffset:0;}}#my-svg .edge-animation-slow{stroke-dasharray:9,5!important;stroke-dashoffset:900;animation:dash 50s linear infinite;stroke-linecap:round;}#my-svg .edge-animation-fast{stroke-dasharray:9,5!important;stroke-dashoffset:900;animation:dash 20s linear infinite;stroke-linecap:round;}#my-svg .error-icon{fill:#552222;}#my-svg .error-text{fill:#552222;stroke:#552222;}#my-svg .edge-thickness-normal{stroke-width:1px;}#my-svg .edge-thickness-thick{stroke-width:3.5px;}#my-svg .edge-pattern-solid{stroke-dasharray:0;}#my-svg .edge-thickness-invisible{stroke-width:0;fill:none;}#my-svg .edge-pattern-dashed{stroke-dasharray:3;}#my-svg .edge-pattern-dotted{stroke-dasharray:2;}#my-svg .marker{fill:#333333;stroke:#333333;}#my-svg .marker.cross{stroke:#333333;}#my-svg svg{font-family:"trebuchet ms",verdana,arial,sans-serif;font-size:16px;}#my-svg p{margin:0;}#my-svg .entityBox{fill:#ECECFF;stroke:#9370DB;}#my-svg .relationshipLabelBox{fill:hsl(80, 100%, 96.2745098039%);opacity:0.7;background-color:hsl(80, 100%, 96.2745098039%);}#my-svg .relationshipLabelBox rect{opacity:0.5;}#my-svg .labelBkg{background-color:rgba(248.6666666666, 255, 235.9999999999, 0.5);}#my-svg .edgeLabel{background-color:rgba(232,232,232, 0.8);}#my-svg .edgeLabel .label rect{fill:rgba(232,232,232, 0.8);}#my-svg .edgeLabel .label text{fill:#333;}#my-svg .edgeLabel .label{fill:#9370DB;font-size:14px;}#my-svg .label{font-family:"trebuchet ms",verdana,arial,sans-serif;color:#333;}#my-svg .edge-pattern-dashed{stroke-dasharray:8,8;}#my-svg .node rect,#my-svg .node circle,#my-svg .node ellipse,#my-svg .node polygon{fill:#ECECFF;stroke:#9370DB;stroke-width:1px;}#my-svg .relationshipLine{stroke:#333333;stroke-width:1px;fill:none;}#my-svg .marker{fill:none!important;stroke:#333333!important;stroke-width:1;}#my-svg [data-look=neo].labelBkg{background-color:rgba(248.6666666666, 255, 235.9999999999, 0.5);}#my-svg .node .neo-node{stroke:#9370DB;}#my-svg [data-look="neo"].node rect,#my-svg [data-look="neo"].cluster rect,#my-svg [data-look="neo"].node polygon{stroke:#9370DB;filter:drop-shadow(1px 2px 2px rgba(185, 185, 185, 1));}#my-svg [data-look="neo"].node path{stroke:#9370DB;stroke-width:1px;}#my-svg [data-look="neo"].node .outer-path{filter:drop-shadow(1px 2px 2px rgba(185, 185, 185, 1));}#my-svg [data-look="neo"].node .neo-line path{stroke:#9370DB;filter:none;}#my-svg [data-look="neo"].node circle{stroke:#9370DB;filter:drop-shadow(1px 2px 2px rgba(185, 185, 185, 1));}#my-svg [data-look="neo"].node circle .state-start{fill:#000000;}#my-svg [data-look="neo"].icon-shape .icon{fill:#9370DB;filter:drop-shadow(1px 2px 2px rgba(185, 185, 185, 1));}#my-svg [data-look="neo"].icon-shape .icon-neo path{stroke:#9370DB;filter:drop-shadow(1px 2px 2px rgba(185, 185, 185, 1));}#my-svg :root{--mermaid-font-family:"trebuchet ms",verdana,arial,sans-serif;}</style><g><defs><marker id="my-svg_er-onlyOneStart" class="marker onlyOne er" refX="0" refY="9" markerWidth="18" markerHeight="18" orient="auto"><path d="M9,0 L9,18 M15,0 L15,18"/></marker></defs><defs><marker id="my-svg_er-onlyOneEnd" class="marker onlyOne er" refX="18" refY="9" markerWidth="18" markerHeight="18" orient="auto"><path d="M3,0 L3,18 M9,0 L9,18"/></marker></defs><defs><marker id="my-svg_er-zeroOrOneStart" class="marker zeroOrOne er" refX="0" refY="9" markerWidth="30" markerHeight="18" orient="auto"><circle fill="white" cx="21" cy="9" r="6"/><path d="M9,0 L9,18"/></marker></defs><defs><marker id="my-svg_er-zeroOrOneEnd" class="marker zeroOrOne er" refX="30" refY="9" markerWidth="30" markerHeight="18" orient="auto"><circle fill="white" cx="9" cy="9" r="6"/><path d="M21,0 L21,18"/></marker></defs><defs><marker id="my-svg_er-oneOrMoreStart" class="marker oneOrMore er" refX="18" refY="18" markerWidth="45" markerHeight="36" orient="auto"><path d="M0,18 Q 18,0 36,18 Q 18,36 0,18 M42,9 L42,27"/></marker></defs><defs><marker id="my-svg_er-oneOrMoreEnd" class="marker oneOrMore er" refX="27" refY="18" markerWidth="45" markerHeight="36" orient="auto"><path d="M3,9 L3,27 M9,18 Q27,0 45,18 Q27,36 9,18"/></marker></defs><defs><marker id="my-svg_er-zeroOrMoreStart" class="marker zeroOrMore er" refX="18" refY="18" markerWidth="57" markerHeight="36" orient="auto"><circle fill="white" cx="48" cy="18" r="6"/><path d="M0,18 Q18,0 36,18 Q18,36 0,18"/></marker></defs><defs><marker id="my-svg_er-zeroOrMoreEnd" class="marker zeroOrMore er" refX="39" refY="18" markerWidth="57" markerHeight="36" orient="auto"><circle fill="white" cx="9" cy="18" r="6"/><path d="M21,18 Q39,0 57,18 Q39,36 21,18"/></marker></defs><g class="root"><g class="clusters"/><g class="edgePaths"><path d="M300.81,211.75L307.649,220.583C314.489,229.417,328.168,247.083,335.007,264.75C341.847,282.417,341.847,300.083,341.847,308.917L341.847,317.75" id="my-svg-id_entity-traditions-0_entity-texts-1_0" class="edge-thickness-normal edge-pattern-solid relationshipLine" style="undefined;;;undefined" data-edge="true" data-et="edge" data-id="id_entity-traditions-0_entity-texts-1_0" data-points="W3sieCI6MzAwLjgwOTU1NjM5NjA5MDMsInkiOjIxMS43NX0seyJ4IjozNDEuODQ2NTg4MTM0NzY1NiwieSI6MjY0Ljc1fSx7IngiOjM0MS44NDY1ODgxMzQ3NjU2LCJ5IjozMTcuNzV9XQ==" data-look="classic" marker-start="url(#my-svg_er-onlyOneStart)" marker-end="url(#my-svg_er-zeroOrMoreEnd)"/><path d="M143.049,211.75L136.21,220.583C129.37,229.417,115.691,247.083,108.852,288.521C102.012,329.958,102.012,395.167,102.012,460.375C102.012,525.583,102.012,590.792,106.138,632.229C110.264,673.667,118.515,691.333,122.641,700.167L126.766,709" id="my-svg-id_entity-traditions-0_entity-chunks-2_1" class="edge-thickness-normal edge-pattern-solid relationshipLine" style="undefined;;;undefined" data-edge="true" data-et="edge" data-id="id_entity-traditions-0_entity-chunks-2_1" data-points="W3sieCI6MTQzLjA0OTI2OTI4NzUwMzQ4LCJ5IjoyMTEuNzV9LHsieCI6MTAyLjAxMjIzNzU0ODgyODEyLCJ5IjoyNjQuNzV9LHsieCI6MTAyLjAxMjIzNzU0ODgyODEyLCJ5Ijo0NjAuMzc1fSx7IngiOjEwMi4wMTIyMzc1NDg4MjgxMiwieSI6NjU2fSx7IngiOjEyNi43NjYzMTg1MjQ1OTE4OCwieSI6NzA5fV0=" data-look="classic" marker-start="url(#my-svg_er-onlyOneStart)" marker-end="url(#my-svg_er-zeroOrMoreEnd)"/><path d="M341.847,603L341.847,611.833C341.847,620.667,341.847,638.333,337.721,656C333.595,673.667,325.344,691.333,321.218,700.167L317.093,709" id="my-svg-id_entity-texts-1_entity-chunks-2_2" class="edge-thickness-normal edge-pattern-solid relationshipLine" style="undefined;;;undefined" data-edge="true" data-et="edge" data-id="id_entity-texts-1_entity-chunks-2_2" data-points="W3sieCI6MzQxLjg0NjU4ODEzNDc2NTYsInkiOjYwM30seyJ4IjozNDEuODQ2NTg4MTM0NzY1NiwieSI6NjU2fSx7IngiOjMxNy4wOTI1MDcxNTkwMDE4NSwieSI6NzA5fV0=" data-look="classic" marker-start="url(#my-svg_er-onlyOneStart)" marker-end="url(#my-svg_er-zeroOrMoreEnd)"/></g><g class="edgeLabels"><g class="edgeLabel" transform="translate(341.8465881347656, 264.75)"><g class="label" data-id="id_entity-traditions-0_entity-texts-1_0" transform="translate(0, -8.500000953674316)"><g><rect class="background" style="" x="-34.2421875" y="-3" width="68.484375" height="26"/><text xml:space="preserve" y="-10.1" text-anchor="middle" style=""><tspan class="text-outer-tspan row" x="0" y="-0.1em" dy="1.1em" text-anchor="middle"><tspan font-style="normal" class="text-inner-tspan" font-weight="normal">tradition</tspan></tspan></text></g></g></g><g class="edgeLabel" transform="translate(102.01223754882812, 460.375)"><g class="label" data-id="id_entity-traditions-0_entity-chunks-2_1" transform="translate(0, -8.500000953674316)"><g><rect class="background" style="" x="-34.2421875" y="-3" width="68.484375" height="26"/><text xml:space="preserve" y="-10.1" text-anchor="middle" style=""><tspan class="text-outer-tspan row" x="0" y="-0.1em" dy="1.1em" text-anchor="middle"><tspan font-style="normal" class="text-inner-tspan" font-weight="normal">tradition</tspan></tspan></text></g></g></g><g class="edgeLabel" transform="translate(341.8465881347656, 656)"><g class="label" data-id="id_entity-texts-1_entity-chunks-2_2" transform="translate(0, -8.500000953674316)"><g><rect class="background" style="" x="-26.8984375" y="-3" width="53.796875" height="26"/><text xml:space="preserve" y="-10.1" text-anchor="middle" style=""><tspan class="text-outer-tspan row" x="0" y="-0.1em" dy="1.1em" text-anchor="middle"><tspan font-style="normal" class="text-inner-tspan" font-weight="normal">text_id</tspan></tspan></text></g></g></g></g><g class="nodes"><g class="node default" id="my-svg-entity-traditions-0" data-look="classic" transform="translate(221.92941284179688, 109.875)"><g class="outer-path" style=""><path d="M-162.45528411865234 -101.875 L162.45528411865234 -101.875 L162.45528411865234 101.875 L-162.45528411865234 101.875" stroke="none" stroke-width="0" fill="#ECECFF"/><path d="M-162.45528411865234 -101.875 C-55.431423505327416 -101.875, 51.59243710799751 -101.875, 162.45528411865234 -101.875 M-162.45528411865234 -101.875 C-62.58731398461401 -101.875, 37.28065614942432 -101.875, 162.45528411865234 -101.875 M162.45528411865234 -101.875 C162.45528411865234 -27.161050089250494, 162.45528411865234 47.55289982149901, 162.45528411865234 101.875 M162.45528411865234 -101.875 C162.45528411865234 -31.328658735936244, 162.45528411865234 39.21768252812751, 162.45528411865234 101.875 M162.45528411865234 101.875 C82.19415322326265 101.875, 1.9330223278729477 101.875, -162.45528411865234 101.875 M162.45528411865234 101.875 C45.16014599763878 101.875, -72.13499212337479 101.875, -162.45528411865234 101.875 M-162.45528411865234 101.875 C-162.45528411865234 27.688363337475096, -162.45528411865234 -46.49827332504981, -162.45528411865234 -101.875 M-162.45528411865234 101.875 C-162.45528411865234 56.35693631558309, -162.45528411865234 10.838872631166183, -162.45528411865234 -101.875" stroke="#9370DB" stroke-width="1.3" fill="none" stroke-dasharray="0 0"/></g><g style="" class="row-rect-odd"><path d="M-162.45528411865234 -61.125 L162.45528411865234 -61.125 L162.45528411865234 -20.375 L-162.45528411865234 -20.375" stroke="none" stroke-width="0" fill="hsl(240, 100%, 100%)"/><path d="M-162.45528411865234 -61.125 C-56.08746921412606 -61.125, 50.280345690400225 -61.125, 162.45528411865234 -61.125 M-162.45528411865234 -61.125 C-64.79952010192159 -61.125, 32.85624391480917 -61.125, 162.45528411865234 -61.125 M162.45528411865234 -61.125 C162.45528411865234 -52.645930625925715, 162.45528411865234 -44.16686125185142, 162.45528411865234 -20.375 M162.45528411865234 -61.125 C162.45528411865234 -45.60273683654431, 162.45528411865234 -30.080473673088612, 162.45528411865234 -20.375 M162.45528411865234 -20.375 C46.75280890899914 -20.375, -68.94966630065406 -20.375, -162.45528411865234 -20.375 M162.45528411865234 -20.375 C83.62091599104068 -20.375, 4.786547863429007 -20.375, -162.45528411865234 -20.375 M-162.45528411865234 -20.375 C-162.45528411865234 -32.57352167653074, -162.45528411865234 -44.77204335306148, -162.45528411865234 -61.125 M-162.45528411865234 -20.375 C-162.45528411865234 -33.03603808007047, -162.45528411865234 -45.69707616014094, -162.45528411865234 -61.125" stroke="#9370DB" stroke-width="1.3" fill="none" stroke-dasharray="0 0"/></g><g style="" class="row-rect-even"><path d="M-162.45528411865234 -20.375 L162.45528411865234 -20.375 L162.45528411865234 20.375 L-162.45528411865234 20.375" stroke="none" stroke-width="0" fill="hsl(240, 100%, 97.2745098039%)"/><path d="M-162.45528411865234 -20.375 C-81.55509939019979 -20.375, -0.6549146617472275 -20.375, 162.45528411865234 -20.375 M-162.45528411865234 -20.375 C-34.75209194790321 -20.375, 92.95110022284592 -20.375, 162.45528411865234 -20.375 M162.45528411865234 -20.375 C162.45528411865234 -10.491490518303914, 162.45528411865234 -0.6079810366078284, 162.45528411865234 20.375 M162.45528411865234 -20.375 C162.45528411865234 -10.25368650415889, 162.45528411865234 -0.13237300831778143, 162.45528411865234 20.375 M162.45528411865234 20.375 C97.11245850091167 20.375, 31.769632883171 20.375, -162.45528411865234 20.375 M162.45528411865234 20.375 C47.95694149051545 20.375, -66.54140113762145 20.375, -162.45528411865234 20.375 M-162.45528411865234 20.375 C-162.45528411865234 8.005479950915632, -162.45528411865234 -4.364040098168736, -162.45528411865234 -20.375 M-162.45528411865234 20.375 C-162.45528411865234 4.509326948675016, -162.45528411865234 -11.356346102649969, -162.45528411865234 -20.375" stroke="#9370DB" stroke-width="1.3" fill="none" stroke-dasharray="0 0"/></g><g style="" class="row-rect-odd"><path d="M-162.45528411865234 20.375 L162.45528411865234 20.375 L162.45528411865234 61.125 L-162.45528411865234 61.125" stroke="none" stroke-width="0" fill="hsl(240, 100%, 100%)"/><path d="M-162.45528411865234 20.375 C-66.85543998764504 20.375, 28.74440414336226 20.375, 162.45528411865234 20.375 M-162.45528411865234 20.375 C-48.00990668775346 20.375, 66.43547074314543 20.375, 162.45528411865234 20.375 M162.45528411865234 20.375 C162.45528411865234 35.19473576688409, 162.45528411865234 50.01447153376817, 162.45528411865234 61.125 M162.45528411865234 20.375 C162.45528411865234 32.30022369043189, 162.45528411865234 44.225447380863784, 162.45528411865234 61.125 M162.45528411865234 61.125 C36.425005060899636 61.125, -89.60527399685307 61.125, -162.45528411865234 61.125 M162.45528411865234 61.125 C60.982379805297526 61.125, -40.49052450805729 61.125, -162.45528411865234 61.125 M-162.45528411865234 61.125 C-162.45528411865234 49.084616188867884, -162.45528411865234 37.04423237773577, -162.45528411865234 20.375 M-162.45528411865234 61.125 C-162.45528411865234 48.19110907355242, -162.45528411865234 35.25721814710484, -162.45528411865234 20.375" stroke="#9370DB" stroke-width="1.3" fill="none" stroke-dasharray="0 0"/></g><g style="" class="row-rect-even"><path d="M-162.45528411865234 61.125 L162.45528411865234 61.125 L162.45528411865234 101.875 L-162.45528411865234 101.875" stroke="none" stroke-width="0" fill="hsl(240, 100%, 97.2745098039%)"/><path d="M-162.45528411865234 61.125 C-79.07108340548533 61.125, 4.3131173076816935 61.125, 162.45528411865234 61.125 M-162.45528411865234 61.125 C-72.98872706952334 61.125, 16.477829979605673 61.125, 162.45528411865234 61.125 M162.45528411865234 61.125 C162.45528411865234 74.25136465277464, 162.45528411865234 87.37772930554928, 162.45528411865234 101.875 M162.45528411865234 61.125 C162.45528411865234 71.49404920107376, 162.45528411865234 81.86309840214754, 162.45528411865234 101.875 M162.45528411865234 101.875 C55.76592399033996 101.875, -50.92343613797243 101.875, -162.45528411865234 101.875 M162.45528411865234 101.875 C86.4436320423533 101.875, 10.431979966054257 101.875, -162.45528411865234 101.875 M-162.45528411865234 101.875 C-162.45528411865234 90.51396394789036, -162.45528411865234 79.15292789578072, -162.45528411865234 61.125 M-162.45528411865234 101.875 C-162.45528411865234 89.73848307800314, -162.45528411865234 77.60196615600627, -162.45528411865234 61.125" stroke="#9370DB" stroke-width="1.3" fill="none" stroke-dasharray="0 0"/></g><g class="label name" transform="translate(-36.078125, -92.5)" style=""><g><rect class="background" style="stroke: none"/></g><text xml:space="preserve" y="-10.1" style=""><tspan class="text-outer-tspan row" x="0" y="-0.1em" dy="1.1em"><tspan font-style="normal" class="text-inner-tspan" font-weight="normal">traditions</tspan></tspan></text></g><g class="label attribute-type" transform="translate(-149.95528411865234, -51.75)" style=""><g><rect class="background" style="stroke: none"/></g><text xml:space="preserve" y="-10.1" style=""><tspan class="text-outer-tspan row" x="0" y="-0.1em" dy="1.1em"><tspan font-style="normal" class="text-inner-tspan" font-weight="normal">TEXT</tspan></tspan></text></g><g class="label attribute-name" transform="translate(-88.78723907470703, -51.75)" style=""><g><rect class="background" style="stroke: none"/></g><text xml:space="preserve" y="-10.1" style=""><tspan class="text-outer-tspan row" x="0" y="-0.1em" dy="1.1em"><tspan font-style="normal" class="text-inner-tspan" font-weight="normal">id</tspan></tspan></text></g><g class="label attribute-keys" transform="translate(20.47838592529297, -51.75)" style=""><g><rect class="background" style="stroke: none"/></g><text xml:space="preserve" y="-10.1" style=""><tspan class="text-outer-tspan row" x="0" y="-0.1em" dy="1.1em"><tspan font-style="normal" class="text-inner-tspan" font-weight="normal">PK</tspan></tspan></text></g><g class="label attribute-comment" transform="translate(65.15840911865234, -51.75)" style=""><g><rect class="background" style="stroke: none"/></g><text xml:space="preserve" y="-10.1" style=""><tspan class="text-outer-tspan row" x="0" y="-0.1em" dy="1.1em"/></text></g><g class="label attribute-type" transform="translate(-149.95528411865234, -11)" style=""><g><rect class="background" style="stroke: none"/></g><text xml:space="preserve" y="-10.1" style=""><tspan class="text-outer-tspan row" x="0" y="-0.1em" dy="1.1em"><tspan font-style="normal" class="text-inner-tspan" font-weight="normal">TEXT</tspan></tspan></text></g><g class="label attribute-name" transform="translate(-88.78723907470703, -11)" style=""><g><rect class="background" style="stroke: none"/></g><text xml:space="preserve" y="-10.1" style=""><tspan class="text-outer-tspan row" x="0" y="-0.1em" dy="1.1em"><tspan font-style="normal" class="text-inner-tspan" font-weight="normal">label</tspan></tspan></text></g><g class="label attribute-keys" transform="translate(20.47838592529297, -11)" style=""><g><rect class="background" style="stroke: none"/></g><text xml:space="preserve" y="-10.1" style=""><tspan class="text-outer-tspan row" x="0" y="-0.1em" dy="1.1em"/></text></g><g class="label attribute-comment" transform="translate(65.15840911865234, -11)" style=""><g><rect class="background" style="stroke: none"/></g><text xml:space="preserve" y="-10.1" style=""><tspan class="text-outer-tspan row" x="0" y="-0.1em" dy="1.1em"/></text></g><g class="label attribute-type" transform="translate(-149.95528411865234, 29.75)" style=""><g><rect class="background" style="stroke: none"/></g><text xml:space="preserve" y="-10.1" style=""><tspan class="text-outer-tspan row" x="0" y="-0.1em" dy="1.1em"><tspan font-style="normal" class="text-inner-tspan" font-weight="normal">TEXT</tspan></tspan></text></g><g class="label attribute-name" transform="translate(-88.78723907470703, 29.75)" style=""><g><rect class="background" style="stroke: none"/></g><text xml:space="preserve" y="-10.1" style=""><tspan class="text-outer-tspan row" x="0" y="-0.1em" dy="1.1em"><tspan font-style="normal" class="text-inner-tspan" font-weight="normal">description</tspan></tspan></text></g><g class="label attribute-keys" transform="translate(20.47838592529297, 29.75)" style=""><g><rect class="background" style="stroke: none"/></g><text xml:space="preserve" y="-10.1" style=""><tspan class="text-outer-tspan row" x="0" y="-0.1em" dy="1.1em"/></text></g><g class="label attribute-comment" transform="translate(65.15840911865234, 29.75)" style=""><g><rect class="background" style="stroke: none"/></g><text xml:space="preserve" y="-10.1" style=""><tspan class="text-outer-tspan row" x="0" y="-0.1em" dy="1.1em"/></text></g><g class="label attribute-type" transform="translate(-149.95528411865234, 70.5)" style=""><g><rect class="background" style="stroke: none"/></g><text xml:space="preserve" y="-10.1" style=""><tspan class="text-outer-tspan row" x="0" y="-0.1em" dy="1.1em"><tspan font-style="normal" class="text-inner-tspan" font-weight="normal">TEXT</tspan></tspan></text></g><g class="label attribute-name" transform="translate(-88.78723907470703, 70.5)" style=""><g><rect class="background" style="stroke: none"/></g><text xml:space="preserve" y="-10.1" style=""><tspan class="text-outer-tspan row" x="0" y="-0.1em" dy="1.1em"><tspan font-style="normal" class="text-inner-tspan" font-weight="normal">color</tspan></tspan></text></g><g class="label attribute-keys" transform="translate(20.47838592529297, 70.5)" style=""><g><rect class="background" style="stroke: none"/></g><text xml:space="preserve" y="-10.1" style=""><tspan class="text-outer-tspan row" x="0" y="-0.1em" dy="1.1em"/></text></g><g class="label attribute-comment" transform="translate(65.15840911865234, 70.5)" style=""><g><rect class="background" style="stroke: none"/></g><text xml:space="preserve" y="-10.1" style=""><tspan class="text-outer-tspan row" x="0" y="-0.1em" dy="1.1em"><tspan font-style="normal" class="text-inner-tspan" font-weight="normal">UI</tspan><tspan font-style="normal" class="text-inner-tspan" font-weight="normal"> theming</tspan></tspan></text></g><g class="divider"><path d="M-162.45528411865234 -61.12505 L-162.45528411865234 -61.12495 L162.45528411865234 -61.12495 L162.45528411865234 -61.12505" stroke="none" stroke-width="0" fill="#ECECFF" fill-rule="evenodd"/><path d="M-162.45528411865234 -61.12505 C-162.45528411865234 -61.125025444979165, -162.45528411865234 -61.12500088995832, -162.45528411865234 -61.12495 M-162.45528411865234 -61.12505 C-162.45528411865234 -61.12501548347491, -162.45528411865234 -61.12498096694982, -162.45528411865234 -61.12495 M-162.45528411865234 -61.12495 C-71.82502184003938 -61.12495, 18.805240438573577 -61.12495, 162.45528411865234 -61.12495 M-162.45528411865234 -61.12495 C-89.94868819071348 -61.12495, -17.442092262774622 -61.12495, 162.45528411865234 -61.12495 M162.45528411865234 -61.12495 C162.45528411865234 -61.12498678058792, 162.45528411865234 -61.12502356117583, 162.45528411865234 -61.12505 M162.45528411865234 -61.12495 C162.45528411865234 -61.12497357726061, 162.45528411865234 -61.124997154521225, 162.45528411865234 -61.12505 M162.45528411865234 -61.12505 C83.03203501969335 -61.12505, 3.6087859207343627 -61.12505, -162.45528411865234 -61.12505 M162.45528411865234 -61.12505 C53.205850406783185 -61.12505, -56.043583305085974 -61.12505, -162.45528411865234 -61.12505" stroke="#9370DB" stroke-width="1.3" fill="none" stroke-dasharray="0 0"/></g><g class="divider"><path d="M-101.28728907470703 -61.125 L-101.28718907470703 -61.125 L-101.28718907470703 101.875 L-101.28728907470703 101.875" stroke="none" stroke-width="0" fill="#ECECFF" fill-rule="evenodd"/><path d="M-101.28728907470703 -61.125 C-101.28725139901388 -61.125, -101.28721372332075 -61.125, -101.28718907470703 -61.125 M-101.28728907470703 -61.125 C-101.2872518395408 -61.125, -101.28721460437457 -61.125, -101.28718907470703 -61.125 M-101.28718907470703 -61.125 C-101.28718907470703 -6.185291214050999, -101.28718907470703 48.754417571898, -101.28718907470703 101.875 M-101.28718907470703 -61.125 C-101.28718907470703 -6.495114125414119, -101.28718907470703 48.13477174917176, -101.28718907470703 101.875 M-101.28718907470703 101.875 C-101.28721344646223 101.875, -101.28723781821742 101.875, -101.28728907470703 101.875 M-101.28718907470703 101.875 C-101.2872278824849 101.875, -101.28726669026278 101.875, -101.28728907470703 101.875 M-101.28728907470703 101.875 C-101.28728907470703 38.56387803534009, -101.28728907470703 -24.747243929319822, -101.28728907470703 -61.125 M-101.28728907470703 101.875 C-101.28728907470703 66.97820672501587, -101.28728907470703 32.08141345003175, -101.28728907470703 -61.125" stroke="#9370DB" stroke-width="1.3" fill="none" stroke-dasharray="0 0"/></g><g class="divider"><path d="M7.978335925292969 -61.125 L7.978435925292969 -61.125 L7.978435925292969 101.875 L7.978335925292969 101.875" stroke="none" stroke-width="0" fill="#ECECFF" fill-rule="evenodd"/><path d="M7.978335925292969 -61.125 C7.9783681427089865 -61.125, 7.978400360125004 -61.125, 7.978435925292969 -61.125 M7.978335925292969 -61.125 C7.978371182618328 -61.125, 7.978406439943687 -61.125, 7.978435925292969 -61.125 M7.978435925292969 -61.125 C7.978435925292969 -5.825082658811567, 7.978435925292969 49.474834682376866, 7.978435925292969 101.875 M7.978435925292969 -61.125 C7.978435925292969 -28.338371866200795, 7.978435925292969 4.44825626759841, 7.978435925292969 101.875 M7.978435925292969 101.875 C7.978408433584221 101.875, 7.978380941875473 101.875, 7.978335925292969 101.875 M7.978435925292969 101.875 C7.978396672378836 101.875, 7.978357419464705 101.875, 7.978335925292969 101.875 M7.978335925292969 101.875 C7.978335925292969 58.07838876598032, 7.978335925292969 14.281777531960643, 7.978335925292969 -61.125 M7.978335925292969 101.875 C7.978335925292969 48.7954719505879, 7.978335925292969 -4.284056098824195, 7.978335925292969 -61.125" stroke="#9370DB" stroke-width="1.3" fill="none" stroke-dasharray="0 0"/></g><g class="divider"><path d="M52.65835911865234 -61.125 L52.658459118652345 -61.125 L52.658459118652345 101.875 L52.65835911865234 101.875" stroke="none" stroke-width="0" fill="#ECECFF" fill-rule="evenodd"/><path d="M52.65835911865234 -61.125 C52.658396307136506 -61.125, 52.65843349562066 -61.125, 52.658459118652345 -61.125 M52.65835911865234 -61.125 C52.6583822377186 -61.125, 52.65840535678485 -61.125, 52.658459118652345 -61.125 M52.658459118652345 -61.125 C52.658459118652345 -7.2774094983512825, 52.658459118652345 46.570181003297435, 52.658459118652345 101.875 M52.658459118652345 -61.125 C52.658459118652345 -14.501199834336, 52.658459118652345 32.122600331328, 52.658459118652345 101.875 M52.658459118652345 101.875 C52.65842764005024 101.875, 52.65839616144813 101.875, 52.65835911865234 101.875 M52.658459118652345 101.875 C52.65842137966838 101.875, 52.65838364068443 101.875, 52.65835911865234 101.875 M52.65835911865234 101.875 C52.65835911865234 38.00751717197845, 52.65835911865234 -25.8599656560431, 52.65835911865234 -61.125 M52.65835911865234 101.875 C52.65835911865234 68.63848308160942, 52.65835911865234 35.401966163218844, 52.65835911865234 -61.125" stroke="#9370DB" stroke-width="1.3" fill="none" stroke-dasharray="0 0"/></g><g class="divider"><path d="M-162.45528411865234 -61.12505 L-162.45528411865234 -61.12495 L162.45528411865234 -61.12495 L162.45528411865234 -61.12505" stroke="none" stroke-width="0" fill="#ECECFF" fill-rule="evenodd"/><path d="M-162.45528411865234 -61.12505 C-162.45528411865234 -61.12501471597102, -162.45528411865234 -61.124979431942045, -162.45528411865234 -61.12495 M-162.45528411865234 -61.12505 C-162.45528411865234 -61.12502624870564, -162.45528411865234 -61.12500249741128, -162.45528411865234 -61.12495 M-162.45528411865234 -61.12495 C-45.10864303173295 -61.12495, 72.23799805518644 -61.12495, 162.45528411865234 -61.12495 M-162.45528411865234 -61.12495 C-59.884825764478876 -61.12495, 42.68563258969459 -61.12495, 162.45528411865234 -61.12495 M162.45528411865234 -61.12495 C162.45528411865234 -61.12497979600078, 162.45528411865234 -61.125009592001554, 162.45528411865234 -61.12505 M162.45528411865234 -61.12495 C162.45528411865234 -61.124972141331185, 162.45528411865234 -61.12499428266237, 162.45528411865234 -61.12505 M162.45528411865234 -61.12505 C44.799753509553824 -61.12505, -72.8557770995447 -61.12505, -162.45528411865234 -61.12505 M162.45528411865234 -61.12505 C35.106510412461674 -61.12505, -92.242263293729 -61.12505, -162.45528411865234 -61.12505" stroke="#9370DB" stroke-width="1.3" fill="none" stroke-dasharray="0 0"/></g></g><g class="node default" id="my-svg-entity-texts-1" data-look="classic" transform="translate(341.8465881347656, 460.375)"><g class="outer-path" style=""><path d="M-125.5921630859375 -142.625 L125.5921630859375 -142.625 L125.5921630859375 142.625 L-125.5921630859375 142.625" stroke="none" stroke-width="0" fill="#ECECFF"/><path d="M-125.5921630859375 -142.625 C-66.0267734365753 -142.625, -6.461383787213094 -142.625, 125.5921630859375 -142.625 M-125.5921630859375 -142.625 C-26.423694784432243 -142.625, 72.74477351707301 -142.625, 125.5921630859375 -142.625 M125.5921630859375 -142.625 C125.5921630859375 -49.25456836300563, 125.5921630859375 44.11586327398874, 125.5921630859375 142.625 M125.5921630859375 -142.625 C125.5921630859375 -29.486520332634214, 125.5921630859375 83.65195933473157, 125.5921630859375 142.625 M125.5921630859375 142.625 C39.232689396544686 142.625, -47.12678429284813 142.625, -125.5921630859375 142.625 M125.5921630859375 142.625 C72.51116636109745 142.625, 19.43016963625739 142.625, -125.5921630859375 142.625 M-125.5921630859375 142.625 C-125.5921630859375 43.6217297334323, -125.5921630859375 -55.38154053313539, -125.5921630859375 -142.625 M-125.5921630859375 142.625 C-125.5921630859375 44.252191568588046, -125.5921630859375 -54.12061686282391, -125.5921630859375 -142.625" stroke="#9370DB" stroke-width="1.3" fill="none" stroke-dasharray="0 0"/></g><g style="" class="row-rect-odd"><path d="M-125.5921630859375 -101.875 L125.5921630859375 -101.875 L125.5921630859375 -61.125 L-125.5921630859375 -61.125" stroke="none" stroke-width="0" fill="hsl(240, 100%, 100%)"/><path d="M-125.5921630859375 -101.875 C-34.924123548982195 -101.875, 55.74391598797311 -101.875, 125.5921630859375 -101.875 M-125.5921630859375 -101.875 C-30.94033644868469 -101.875, 63.71149018856812 -101.875, 125.5921630859375 -101.875 M125.5921630859375 -101.875 C125.5921630859375 -91.03708283106397, 125.5921630859375 -80.19916566212794, 125.5921630859375 -61.125 M125.5921630859375 -101.875 C125.5921630859375 -89.86599816049464, 125.5921630859375 -77.85699632098928, 125.5921630859375 -61.125 M125.5921630859375 -61.125 C70.13912070541775 -61.125, 14.686078324897991 -61.125, -125.5921630859375 -61.125 M125.5921630859375 -61.125 C48.36258430949988 -61.125, -28.86699446693774 -61.125, -125.5921630859375 -61.125 M-125.5921630859375 -61.125 C-125.5921630859375 -74.90859447969532, -125.5921630859375 -88.69218895939065, -125.5921630859375 -101.875 M-125.5921630859375 -61.125 C-125.5921630859375 -74.6158384994712, -125.5921630859375 -88.10667699894239, -125.5921630859375 -101.875" stroke="#9370DB" stroke-width="1.3" fill="none" stroke-dasharray="0 0"/></g><g style="" class="row-rect-even"><path d="M-125.5921630859375 -61.125 L125.5921630859375 -61.125 L125.5921630859375 -20.375 L-125.5921630859375 -20.375" stroke="none" stroke-width="0" fill="hsl(240, 100%, 97.2745098039%)"/><path d="M-125.5921630859375 -61.125 C-63.2864787617031 -61.125, -0.9807944374687025 -61.125, 125.5921630859375 -61.125 M-125.5921630859375 -61.125 C-69.48176554080612 -61.125, -13.371367995674731 -61.125, 125.5921630859375 -61.125 M125.5921630859375 -61.125 C125.5921630859375 -45.231829386890986, 125.5921630859375 -29.338658773781976, 125.5921630859375 -20.375 M125.5921630859375 -61.125 C125.5921630859375 -50.758444182139925, 125.5921630859375 -40.39188836427986, 125.5921630859375 -20.375 M125.5921630859375 -20.375 C28.3585943810714 -20.375, -68.8749743237947 -20.375, -125.5921630859375 -20.375 M125.5921630859375 -20.375 C67.3572696547846 -20.375, 9.122376223631704 -20.375, -125.5921630859375 -20.375 M-125.5921630859375 -20.375 C-125.5921630859375 -34.43343202514561, -125.5921630859375 -48.49186405029123, -125.5921630859375 -61.125 M-125.5921630859375 -20.375 C-125.5921630859375 -35.38377324031738, -125.5921630859375 -50.392546480634756, -125.5921630859375 -61.125" stroke="#9370DB" stroke-width="1.3" fill="none" stroke-dasharray="0 0"/></g><g style="" class="row-rect-odd"><path d="M-125.5921630859375 -20.375 L125.5921630859375 -20.375 L125.5921630859375 20.375 L-125.5921630859375 20.375" stroke="none" stroke-width="0" fill="hsl(240, 100%, 100%)"/><path d="M-125.5921630859375 -20.375 C-75.16951351194729 -20.375, -24.74686393795706 -20.375, 125.5921630859375 -20.375 M-125.5921630859375 -20.375 C-25.72943565950399 -20.375, 74.13329176692952 -20.375, 125.5921630859375 -20.375 M125.5921630859375 -20.375 C125.5921630859375 -6.800819630857115, 125.5921630859375 6.773360738285771, 125.5921630859375 20.375 M125.5921630859375 -20.375 C125.5921630859375 -4.6498898364883114, 125.5921630859375 11.075220327023377, 125.5921630859375 20.375 M125.5921630859375 20.375 C37.069866221308885 20.375, -51.45243064331973 20.375, -125.5921630859375 20.375 M125.5921630859375 20.375 C57.88953184228754 20.375, -9.813099401362422 20.375, -125.5921630859375 20.375 M-125.5921630859375 20.375 C-125.5921630859375 5.026247796985759, -125.5921630859375 -10.322504406028482, -125.5921630859375 -20.375 M-125.5921630859375 20.375 C-125.5921630859375 9.12556519847871, -125.5921630859375 -2.1238696030425785, -125.5921630859375 -20.375" stroke="#9370DB" stroke-width="1.3" fill="none" stroke-dasharray="0 0"/></g><g style="" class="row-rect-even"><path d="M-125.5921630859375 20.375 L125.5921630859375 20.375 L125.5921630859375 61.125 L-125.5921630859375 61.125" stroke="none" stroke-width="0" fill="hsl(240, 100%, 97.2745098039%)"/><path d="M-125.5921630859375 20.375 C-27.014185970225142 20.375, 71.56379114548722 20.375, 125.5921630859375 20.375 M-125.5921630859375 20.375 C-72.2693791651815 20.375, -18.94659524442551 20.375, 125.5921630859375 20.375 M125.5921630859375 20.375 C125.5921630859375 36.00665742141581, 125.5921630859375 51.63831484283162, 125.5921630859375 61.125 M125.5921630859375 20.375 C125.5921630859375 32.80866628178957, 125.5921630859375 45.24233256357914, 125.5921630859375 61.125 M125.5921630859375 61.125 C60.162728752788226 61.125, -5.266705580361048 61.125, -125.5921630859375 61.125 M125.5921630859375 61.125 C55.8457717903337 61.125, -13.9006195052701 61.125, -125.5921630859375 61.125 M-125.5921630859375 61.125 C-125.5921630859375 52.71562453292663, -125.5921630859375 44.306249065853265, -125.5921630859375 20.375 M-125.5921630859375 61.125 C-125.5921630859375 46.29396543659935, -125.5921630859375 31.462930873198705, -125.5921630859375 20.375" stroke="#9370DB" stroke-width="1.3" fill="none" stroke-dasharray="0 0"/></g><g style="" class="row-rect-odd"><path d="M-125.5921630859375 61.125 L125.5921630859375 61.125 L125.5921630859375 101.875 L-125.5921630859375 101.875" stroke="none" stroke-width="0" fill="hsl(240, 100%, 100%)"/><path d="M-125.5921630859375 61.125 C-65.22463169534055 61.125, -4.8571003047435966 61.125, 125.5921630859375 61.125 M-125.5921630859375 61.125 C-70.5681931851696 61.125, -15.544223284401696 61.125, 125.5921630859375 61.125 M125.5921630859375 61.125 C125.5921630859375 76.51736252604744, 125.5921630859375 91.90972505209487, 125.5921630859375 101.875 M125.5921630859375 61.125 C125.5921630859375 72.5043490146487, 125.5921630859375 83.88369802929738, 125.5921630859375 101.875 M125.5921630859375 101.875 C56.85507666075547 101.875, -11.882009764426556 101.875, -125.5921630859375 101.875 M125.5921630859375 101.875 C36.09510397296515 101.875, -53.4019551400072 101.875, -125.5921630859375 101.875 M-125.5921630859375 101.875 C-125.5921630859375 92.71976161368734, -125.5921630859375 83.56452322737469, -125.5921630859375 61.125 M-125.5921630859375 101.875 C-125.5921630859375 87.28126287802557, -125.5921630859375 72.68752575605114, -125.5921630859375 61.125" stroke="#9370DB" stroke-width="1.3" fill="none" stroke-dasharray="0 0"/></g><g style="" class="row-rect-even"><path d="M-125.5921630859375 101.875 L125.5921630859375 101.875 L125.5921630859375 142.625 L-125.5921630859375 142.625" stroke="none" stroke-width="0" fill="hsl(240, 100%, 97.2745098039%)"/><path d="M-125.5921630859375 101.875 C-68.23392035005887 101.875, -10.875677614180248 101.875, 125.5921630859375 101.875 M-125.5921630859375 101.875 C-69.54227126914876 101.875, -13.492379452360026 101.875, 125.5921630859375 101.875 M125.5921630859375 101.875 C125.5921630859375 113.13748527509054, 125.5921630859375 124.3999705501811, 125.5921630859375 142.625 M125.5921630859375 101.875 C125.5921630859375 116.01006525051906, 125.5921630859375 130.14513050103812, 125.5921630859375 142.625 M125.5921630859375 142.625 C67.10049310817267 142.625, 8.608823130407842 142.625, -125.5921630859375 142.625 M125.5921630859375 142.625 C45.825658229819794 142.625, -33.94084662629791 142.625, -125.5921630859375 142.625 M-125.5921630859375 142.625 C-125.5921630859375 130.6513137170037, -125.5921630859375 118.6776274340074, -125.5921630859375 101.875 M-125.5921630859375 142.625 C-125.5921630859375 131.73074226248437, -125.5921630859375 120.83648452496877, -125.5921630859375 101.875" stroke="#9370DB" stroke-width="1.3" fill="none" stroke-dasharray="0 0"/></g><g class="label name" transform="translate(-18.1953125, -133.25)" style=""><g><rect class="background" style="stroke: none"/></g><text xml:space="preserve" y="-10.1" style=""><tspan class="text-outer-tspan row" x="0" y="-0.1em" dy="1.1em"><tspan font-style="normal" class="text-inner-tspan" font-weight="normal">texts</tspan></tspan></text></g><g class="label attribute-type" transform="translate(-113.0921630859375, -92.5)" style=""><g><rect class="background" style="stroke: none"/></g><text xml:space="preserve" y="-10.1" style=""><tspan class="text-outer-tspan row" x="0" y="-0.1em" dy="1.1em"><tspan font-style="normal" class="text-inner-tspan" font-weight="normal">TEXT</tspan></tspan></text></g><g class="label attribute-name" transform="translate(-51.92411804199219, -92.5)" style=""><g><rect class="background" style="stroke: none"/></g><text xml:space="preserve" y="-10.1" style=""><tspan class="text-outer-tspan row" x="0" y="-0.1em" dy="1.1em"><tspan font-style="normal" class="text-inner-tspan" font-weight="normal">id</tspan></tspan></text></g><g class="label attribute-keys" transform="translate(93.41213989257812, -92.5)" style=""><g><rect class="background" style="stroke: none"/></g><text xml:space="preserve" y="-10.1" style=""><tspan class="text-outer-tspan row" x="0" y="-0.1em" dy="1.1em"><tspan font-style="normal" class="text-inner-tspan" font-weight="normal">PK</tspan></tspan></text></g><g class="label attribute-comment" transform="translate(138.0921630859375, -92.5)" style=""><g><rect class="background" style="stroke: none"/></g><text xml:space="preserve" y="-10.1" style=""><tspan class="text-outer-tspan row" x="0" y="-0.1em" dy="1.1em"/></text></g><g class="label attribute-type" transform="translate(-113.0921630859375, -51.75)" style=""><g><rect class="background" style="stroke: none"/></g><text xml:space="preserve" y="-10.1" style=""><tspan class="text-outer-tspan row" x="0" y="-0.1em" dy="1.1em"><tspan font-style="normal" class="text-inner-tspan" font-weight="normal">TEXT</tspan></tspan></text></g><g class="label attribute-name" transform="translate(-51.92411804199219, -51.75)" style=""><g><rect class="background" style="stroke: none"/></g><text xml:space="preserve" y="-10.1" style=""><tspan class="text-outer-tspan row" x="0" y="-0.1em" dy="1.1em"><tspan font-style="normal" class="text-inner-tspan" font-weight="normal">tradition</tspan></tspan></text></g><g class="label attribute-keys" transform="translate(93.41213989257812, -51.75)" style=""><g><rect class="background" style="stroke: none"/></g><text xml:space="preserve" y="-10.1" style=""><tspan class="text-outer-tspan row" x="0" y="-0.1em" dy="1.1em"><tspan font-style="normal" class="text-inner-tspan" font-weight="normal">FK</tspan></tspan></text></g><g class="label attribute-comment" transform="translate(138.0921630859375, -51.75)" style=""><g><rect class="background" style="stroke: none"/></g><text xml:space="preserve" y="-10.1" style=""><tspan class="text-outer-tspan row" x="0" y="-0.1em" dy="1.1em"/></text></g><g class="label attribute-type" transform="translate(-113.0921630859375, -11)" style=""><g><rect class="background" style="stroke: none"/></g><text xml:space="preserve" y="-10.1" style=""><tspan class="text-outer-tspan row" x="0" y="-0.1em" dy="1.1em"><tspan font-style="normal" class="text-inner-tspan" font-weight="normal">TEXT</tspan></tspan></text></g><g class="label attribute-name" transform="translate(-51.92411804199219, -11)" style=""><g><rect class="background" style="stroke: none"/></g><text xml:space="preserve" y="-10.1" style=""><tspan class="text-outer-tspan row" x="0" y="-0.1em" dy="1.1em"><tspan font-style="normal" class="text-inner-tspan" font-weight="normal">label</tspan></tspan></text></g><g class="label attribute-keys" transform="translate(93.41213989257812, -11)" style=""><g><rect class="background" style="stroke: none"/></g><text xml:space="preserve" y="-10.1" style=""><tspan class="text-outer-tspan row" x="0" y="-0.1em" dy="1.1em"/></text></g><g class="label attribute-comment" transform="translate(138.0921630859375, -11)" style=""><g><rect class="background" style="stroke: none"/></g><text xml:space="preserve" y="-10.1" style=""><tspan class="text-outer-tspan row" x="0" y="-0.1em" dy="1.1em"/></text></g><g class="label attribute-type" transform="translate(-113.0921630859375, 29.75)" style=""><g><rect class="background" style="stroke: none"/></g><text xml:space="preserve" y="-10.1" style=""><tspan class="text-outer-tspan row" x="0" y="-0.1em" dy="1.1em"><tspan font-style="normal" class="text-inner-tspan" font-weight="normal">TEXT</tspan></tspan></text></g><g class="label attribute-name" transform="translate(-51.92411804199219, 29.75)" style=""><g><rect class="background" style="stroke: none"/></g><text xml:space="preserve" y="-10.1" style=""><tspan class="text-outer-tspan row" x="0" y="-0.1em" dy="1.1em"><tspan font-style="normal" class="text-inner-tspan" font-weight="normal">translator</tspan></tspan></text></g><g class="label attribute-keys" transform="translate(93.41213989257812, 29.75)" style=""><g><rect class="background" style="stroke: none"/></g><text xml:space="preserve" y="-10.1" style=""><tspan class="text-outer-tspan row" x="0" y="-0.1em" dy="1.1em"/></text></g><g class="label attribute-comment" transform="translate(138.0921630859375, 29.75)" style=""><g><rect class="background" style="stroke: none"/></g><text xml:space="preserve" y="-10.1" style=""><tspan class="text-outer-tspan row" x="0" y="-0.1em" dy="1.1em"/></text></g><g class="label attribute-type" transform="translate(-113.0921630859375, 70.5)" style=""><g><rect class="background" style="stroke: none"/></g><text xml:space="preserve" y="-10.1" style=""><tspan class="text-outer-tspan row" x="0" y="-0.1em" dy="1.1em"><tspan font-style="normal" class="text-inner-tspan" font-weight="normal">TEXT</tspan></tspan></text></g><g class="label attribute-name" transform="translate(-51.92411804199219, 70.5)" style=""><g><rect class="background" style="stroke: none"/></g><text xml:space="preserve" y="-10.1" style=""><tspan class="text-outer-tspan row" x="0" y="-0.1em" dy="1.1em"><tspan font-style="normal" class="text-inner-tspan" font-weight="normal">source_url</tspan></tspan></text></g><g class="label attribute-keys" transform="translate(93.41213989257812, 70.5)" style=""><g><rect class="background" style="stroke: none"/></g><text xml:space="preserve" y="-10.1" style=""><tspan class="text-outer-tspan row" x="0" y="-0.1em" dy="1.1em"/></text></g><g class="label attribute-comment" transform="translate(138.0921630859375, 70.5)" style=""><g><rect class="background" style="stroke: none"/></g><text xml:space="preserve" y="-10.1" style=""><tspan class="text-outer-tspan row" x="0" y="-0.1em" dy="1.1em"/></text></g><g class="label attribute-type" transform="translate(-113.0921630859375, 111.25)" style=""><g><rect class="background" style="stroke: none"/></g><text xml:space="preserve" y="-10.1" style=""><tspan class="text-outer-tspan row" x="0" y="-0.1em" dy="1.1em"><tspan font-style="normal" class="text-inner-tspan" font-weight="normal">TEXT</tspan></tspan></text></g><g class="label attribute-name" transform="translate(-51.92411804199219, 111.25)" style=""><g><rect class="background" style="stroke: none"/></g><text xml:space="preserve" y="-10.1" style=""><tspan class="text-outer-tspan row" x="0" y="-0.1em" dy="1.1em"><tspan font-style="normal" class="text-inner-tspan" font-weight="normal">sections_format</tspan></tspan></text></g><g class="label attribute-keys" transform="translate(93.41213989257812, 111.25)" style=""><g><rect class="background" style="stroke: none"/></g><text xml:space="preserve" y="-10.1" style=""><tspan class="text-outer-tspan row" x="0" y="-0.1em" dy="1.1em"/></text></g><g class="label attribute-comment" transform="translate(138.0921630859375, 111.25)" style=""><g><rect class="background" style="stroke: none"/></g><text xml:space="preserve" y="-10.1" style=""><tspan class="text-outer-tspan row" x="0" y="-0.1em" dy="1.1em"/></text></g><g class="divider"><path d="M-125.5921630859375 -101.87505 L-125.5921630859375 -101.87495 L125.5921630859375 -101.87495 L125.5921630859375 -101.87505" stroke="none" stroke-width="0" fill="#ECECFF" fill-rule="evenodd"/><path d="M-125.5921630859375 -101.87505 C-125.5921630859375 -101.87501202673774, -125.5921630859375 -101.87497405347546, -125.5921630859375 -101.87495 M-125.5921630859375 -101.87505 C-125.5921630859375 -101.87502185479953, -125.5921630859375 -101.87499370959904, -125.5921630859375 -101.87495 M-125.5921630859375 -101.87495 C-74.4940457252217 -101.87495, -23.395928364505906 -101.87495, 125.5921630859375 -101.87495 M-125.5921630859375 -101.87495 C-28.397834104049963 -101.87495, 68.79649487783757 -101.87495, 125.5921630859375 -101.87495 M125.5921630859375 -101.87495 C125.5921630859375 -101.8749814220986, 125.5921630859375 -101.8750128441972, 125.5921630859375 -101.87505 M125.5921630859375 -101.87495 C125.5921630859375 -101.8749773033244, 125.5921630859375 -101.8750046066488, 125.5921630859375 -101.87505 M125.5921630859375 -101.87505 C39.05522986034637 -101.87505, -47.481703365244755 -101.87505, -125.5921630859375 -101.87505 M125.5921630859375 -101.87505 C62.92080227229558 -101.87505, 0.24944145865366352 -101.87505, -125.5921630859375 -101.87505" stroke="#9370DB" stroke-width="1.3" fill="none" stroke-dasharray="0 0"/></g><g class="divider"><path d="M-64.42416804199219 -101.875 L-64.42406804199219 -101.875 L-64.42406804199219 142.625 L-64.42416804199219 142.625" stroke="none" stroke-width="0" fill="#ECECFF" fill-rule="evenodd"/><path d="M-64.42416804199219 -101.875 C-64.42412997111894 -101.875, -64.4240919002457 -101.875, -64.42406804199219 -101.875 M-64.42416804199219 -101.875 C-64.42413497146751 -101.875, -64.42410190094283 -101.875, -64.42406804199219 -101.875 M-64.42406804199219 -101.875 C-64.42406804199219 -44.88885293608653, -64.42406804199219 12.097294127826942, -64.42406804199219 142.625 M-64.42406804199219 -101.875 C-64.42406804199219 -34.70005170207823, -64.42406804199219 32.474896595843546, -64.42406804199219 142.625 M-64.42406804199219 142.625 C-64.4240977679333 142.625, -64.42412749387441 142.625, -64.42416804199219 142.625 M-64.42406804199219 142.625 C-64.42409117382132 142.625, -64.42411430565046 142.625, -64.42416804199219 142.625 M-64.42416804199219 142.625 C-64.42416804199219 58.69708722749792, -64.42416804199219 -25.230825545004166, -64.42416804199219 -101.875 M-64.42416804199219 142.625 C-64.42416804199219 76.61855772417509, -64.42416804199219 10.612115448350181, -64.42416804199219 -101.875" stroke="#9370DB" stroke-width="1.3" fill="none" stroke-dasharray="0 0"/></g><g class="divider"><path d="M80.91208989257812 -101.875 L80.91218989257813 -101.875 L80.91218989257813 142.625 L80.91208989257812 142.625" stroke="none" stroke-width="0" fill="#ECECFF" fill-rule="evenodd"/><path d="M80.91208989257812 -101.875 C80.91212602208329 -101.875, 80.91216215158845 -101.875, 80.91218989257813 -101.875 M80.91208989257812 -101.875 C80.91212867479963 -101.875, 80.91216745702114 -101.875, 80.91218989257813 -101.875 M80.91218989257813 -101.875 C80.91218989257813 -39.96260300454542, 80.91218989257813 21.949793990909157, 80.91218989257813 142.625 M80.91218989257813 -101.875 C80.91218989257813 -41.11621431846086, 80.91218989257813 19.642571363078275, 80.91218989257813 142.625 M80.91218989257813 142.625 C80.91215074350436 142.625, 80.91211159443058 142.625, 80.91208989257812 142.625 M80.91218989257813 142.625 C80.91216292016767 142.625, 80.91213594775722 142.625, 80.91208989257812 142.625 M80.91208989257812 142.625 C80.91208989257812 77.5772607404449, 80.91208989257812 12.529521480889798, 80.91208989257812 -101.875 M80.91208989257812 142.625 C80.91208989257812 87.3201658417851, 80.91208989257812 32.015331683570196, 80.91208989257812 -101.875" stroke="#9370DB" stroke-width="1.3" fill="none" stroke-dasharray="0 0"/></g><g class="divider"><path d="M-125.5921630859375 -101.87505 L-125.5921630859375 -101.87495 L125.5921630859375 -101.87495 L125.5921630859375 -101.87505" stroke="none" stroke-width="0" fill="#ECECFF" fill-rule="evenodd"/><path d="M-125.5921630859375 -101.87505 C-125.5921630859375 -101.87502715005407, -125.5921630859375 -101.87500430010813, -125.5921630859375 -101.87495 M-125.5921630859375 -101.87505 C-125.5921630859375 -101.87501032684217, -125.5921630859375 -101.87497065368436, -125.5921630859375 -101.87495 M-125.5921630859375 -101.87495 C-34.78807818085373 -101.87495, 56.01600672423004 -101.87495, 125.5921630859375 -101.87495 M-125.5921630859375 -101.87495 C-62.785317210798354 -101.87495, 0.021528664340792147 -101.87495, 125.5921630859375 -101.87495 M125.5921630859375 -101.87495 C125.5921630859375 -101.87497984845108, 125.5921630859375 -101.87500969690215, 125.5921630859375 -101.87505 M125.5921630859375 -101.87495 C125.5921630859375 -101.8749709120281, 125.5921630859375 -101.87499182405621, 125.5921630859375 -101.87505 M125.5921630859375 -101.87505 C59.22124447487781 -101.87505, -7.149674136181886 -101.87505, -125.5921630859375 -101.87505 M125.5921630859375 -101.87505 C34.29399669267953 -101.87505, -57.004169700578444 -101.87505, -125.5921630859375 -101.87505" stroke="#9370DB" stroke-width="1.3" fill="none" stroke-dasharray="0 0"/></g></g><g class="node default" id="my-svg-entity-chunks-2" data-look="classic" transform="translate(221.92941284179688, 912.75)"><g class="outer-path" style=""><path d="M-213.92941284179688 -203.75 L213.92941284179688 -203.75 L213.92941284179688 203.75 L-213.92941284179688 203.75" stroke="none" stroke-width="0" fill="#ECECFF"/><path d="M-213.92941284179688 -203.75 C-93.46763488376838 -203.75, 26.99414307426011 -203.75, 213.92941284179688 -203.75 M-213.92941284179688 -203.75 C-103.62562644201735 -203.75, 6.678159957762176 -203.75, 213.92941284179688 -203.75 M213.92941284179688 -203.75 C213.92941284179688 -60.864913513758864, 213.92941284179688 82.02017297248227, 213.92941284179688 203.75 M213.92941284179688 -203.75 C213.92941284179688 -115.00156311107655, 213.92941284179688 -26.2531262221531, 213.92941284179688 203.75 M213.92941284179688 203.75 C76.02008347749549 203.75, -61.889245886805895 203.75, -213.92941284179688 203.75 M213.92941284179688 203.75 C89.13116218280322 203.75, -35.66708847619043 203.75, -213.92941284179688 203.75 M-213.92941284179688 203.75 C-213.92941284179688 68.33352357542844, -213.92941284179688 -67.08295284914311, -213.92941284179688 -203.75 M-213.92941284179688 203.75 C-213.92941284179688 42.410726822627254, -213.92941284179688 -118.92854635474549, -213.92941284179688 -203.75" stroke="#9370DB" stroke-width="1.3" fill="none" stroke-dasharray="0 0"/></g><g style="" class="row-rect-odd"><path d="M-213.92941284179688 -163 L213.92941284179688 -163 L213.92941284179688 -122.25 L-213.92941284179688 -122.25" stroke="none" stroke-width="0" fill="hsl(240, 100%, 100%)"/><path d="M-213.92941284179688 -163 C-93.28677976628194 -163, 27.355853309232998 -163, 213.92941284179688 -163 M-213.92941284179688 -163 C-124.18263090361565 -163, -34.43584896543442 -163, 213.92941284179688 -163 M213.92941284179688 -163 C213.92941284179688 -150.37276288304406, 213.92941284179688 -137.7455257660881, 213.92941284179688 -122.25 M213.92941284179688 -163 C213.92941284179688 -151.51772039400797, 213.92941284179688 -140.03544078801596, 213.92941284179688 -122.25 M213.92941284179688 -122.25 C88.29103415439684 -122.25, -37.347344533003195 -122.25, -213.92941284179688 -122.25 M213.92941284179688 -122.25 C73.61054489465334 -122.25, -66.70832305249019 -122.25, -213.92941284179688 -122.25 M-213.92941284179688 -122.25 C-213.92941284179688 -133.87468419797128, -213.92941284179688 -145.49936839594255, -213.92941284179688 -163 M-213.92941284179688 -122.25 C-213.92941284179688 -137.18790610210576, -213.92941284179688 -152.1258122042115, -213.92941284179688 -163" stroke="#9370DB" stroke-width="1.3" fill="none" stroke-dasharray="0 0"/></g><g style="" class="row-rect-even"><path d="M-213.92941284179688 -122.25 L213.92941284179688 -122.25 L213.92941284179688 -81.5 L-213.92941284179688 -81.5" stroke="none" stroke-width="0" fill="hsl(240, 100%, 97.2745098039%)"/><path d="M-213.92941284179688 -122.25 C-91.45293786195047 -122.25, 31.023537117895927 -122.25, 213.92941284179688 -122.25 M-213.92941284179688 -122.25 C-103.0097633175416 -122.25, 7.909886206713679 -122.25, 213.92941284179688 -122.25 M213.92941284179688 -122.25 C213.92941284179688 -108.25336683835442, 213.92941284179688 -94.25673367670886, 213.92941284179688 -81.5 M213.92941284179688 -122.25 C213.92941284179688 -111.32553241650177, 213.92941284179688 -100.40106483300356, 213.92941284179688 -81.5 M213.92941284179688 -81.5 C56.88199139604208 -81.5, -100.16543004971271 -81.5, -213.92941284179688 -81.5 M213.92941284179688 -81.5 C83.14746665324148 -81.5, -47.634479535313915 -81.5, -213.92941284179688 -81.5 M-213.92941284179688 -81.5 C-213.92941284179688 -93.94964249374799, -213.92941284179688 -106.39928498749596, -213.92941284179688 -122.25 M-213.92941284179688 -81.5 C-213.92941284179688 -97.10811839262877, -213.92941284179688 -112.71623678525754, -213.92941284179688 -122.25" stroke="#9370DB" stroke-width="1.3" fill="none" stroke-dasharray="0 0"/></g><g style="" class="row-rect-odd"><path d="M-213.92941284179688 -81.5 L213.92941284179688 -81.5 L213.92941284179688 -40.75 L-213.92941284179688 -40.75" stroke="none" stroke-width="0" fill="hsl(240, 100%, 100%)"/><path d="M-213.92941284179688 -81.5 C-59.52708501951855 -81.5, 94.87524280275977 -81.5, 213.92941284179688 -81.5 M-213.92941284179688 -81.5 C-106.79579436790772 -81.5, 0.33782410598143997 -81.5, 213.92941284179688 -81.5 M213.92941284179688 -81.5 C213.92941284179688 -70.12968993941202, 213.92941284179688 -58.75937987882403, 213.92941284179688 -40.75 M213.92941284179688 -81.5 C213.92941284179688 -68.97307500311395, 213.92941284179688 -56.44615000622788, 213.92941284179688 -40.75 M213.92941284179688 -40.75 C82.71790835741737 -40.75, -48.49359612696213 -40.75, -213.92941284179688 -40.75 M213.92941284179688 -40.75 C89.77433389459266 -40.75, -34.38074505261156 -40.75, -213.92941284179688 -40.75 M-213.92941284179688 -40.75 C-213.92941284179688 -55.06690023316842, -213.92941284179688 -69.38380046633684, -213.92941284179688 -81.5 M-213.92941284179688 -40.75 C-213.92941284179688 -50.24412307906581, -213.92941284179688 -59.738246158131616, -213.92941284179688 -81.5" stroke="#9370DB" stroke-width="1.3" fill="none" stroke-dasharray="0 0"/></g><g style="" class="row-rect-even"><path d="M-213.92941284179688 -40.75 L213.92941284179688 -40.75 L213.92941284179688 0 L-213.92941284179688 0" stroke="none" stroke-width="0" fill="hsl(240, 100%, 97.2745098039%)"/><path d="M-213.92941284179688 -40.75 C-62.45022662645795 -40.75, 89.02895958888098 -40.75, 213.92941284179688 -40.75 M-213.92941284179688 -40.75 C-85.90445876396907 -40.75, 42.120495313858726 -40.75, 213.92941284179688 -40.75 M213.92941284179688 -40.75 C213.92941284179688 -30.489757795622594, 213.92941284179688 -20.229515591245185, 213.92941284179688 0 M213.92941284179688 -40.75 C213.92941284179688 -27.387242004974688, 213.92941284179688 -14.024484009949372, 213.92941284179688 0 M213.92941284179688 0 C71.69080201403685 0, -70.54780881372318 0, -213.92941284179688 0 M213.92941284179688 0 C111.94761194728295 0, 9.965811052769027 0, -213.92941284179688 0 M-213.92941284179688 0 C-213.92941284179688 -14.998048831169077, -213.92941284179688 -29.996097662338155, -213.92941284179688 -40.75 M-213.92941284179688 0 C-213.92941284179688 -8.272708937855139, -213.92941284179688 -16.545417875710278, -213.92941284179688 -40.75" stroke="#9370DB" stroke-width="1.3" fill="none" stroke-dasharray="0 0"/></g><g style="" class="row-rect-odd"><path d="M-213.92941284179688 0 L213.92941284179688 0 L213.92941284179688 40.75 L-213.92941284179688 40.75" stroke="none" stroke-width="0" fill="hsl(240, 100%, 100%)"/><path d="M-213.92941284179688 0 C-109.9807927605835 0, -6.03217267937012 0, 213.92941284179688 0 M-213.92941284179688 0 C-81.48787296688064 0, 50.953666908035586 0, 213.92941284179688 0 M213.92941284179688 0 C213.92941284179688 15.049801708000501, 213.92941284179688 30.099603416001003, 213.92941284179688 40.75 M213.92941284179688 0 C213.92941284179688 15.844941196499251, 213.92941284179688 31.689882392998502, 213.92941284179688 40.75 M213.92941284179688 40.75 C61.534370904850675 40.75, -90.86067103209552 40.75, -213.92941284179688 40.75 M213.92941284179688 40.75 C69.92387320685995 40.75, -74.08166642807697 40.75, -213.92941284179688 40.75 M-213.92941284179688 40.75 C-213.92941284179688 27.956340536378974, -213.92941284179688 15.162681072757945, -213.92941284179688 0 M-213.92941284179688 40.75 C-213.92941284179688 25.095565561246318, -213.92941284179688 9.441131122492635, -213.92941284179688 0" stroke="#9370DB" stroke-width="1.3" fill="none" stroke-dasharray="0 0"/></g><g style="" class="row-rect-even"><path d="M-213.92941284179688 40.75 L213.92941284179688 40.75 L213.92941284179688 81.5 L-213.92941284179688 81.5" stroke="none" stroke-width="0" fill="hsl(240, 100%, 97.2745098039%)"/><path d="M-213.92941284179688 40.75 C-79.68790065542333 40.75, 54.55361153095021 40.75, 213.92941284179688 40.75 M-213.92941284179688 40.75 C-73.0898801264606 40.75, 67.74965258887568 40.75, 213.92941284179688 40.75 M213.92941284179688 40.75 C213.92941284179688 50.72229032685426, 213.92941284179688 60.69458065370851, 213.92941284179688 81.5 M213.92941284179688 40.75 C213.92941284179688 49.021283476546245, 213.92941284179688 57.29256695309249, 213.92941284179688 81.5 M213.92941284179688 81.5 C117.36369317319469 81.5, 20.797973504592505 81.5, -213.92941284179688 81.5 M213.92941284179688 81.5 C76.95096718452652 81.5, -60.02747847274384 81.5, -213.92941284179688 81.5 M-213.92941284179688 81.5 C-213.92941284179688 70.6983447729277, -213.92941284179688 59.896689545855395, -213.92941284179688 40.75 M-213.92941284179688 81.5 C-213.92941284179688 69.89589111390102, -213.92941284179688 58.29178222780204, -213.92941284179688 40.75" stroke="#9370DB" stroke-width="1.3" fill="none" stroke-dasharray="0 0"/></g><g style="" class="row-rect-odd"><path d="M-213.92941284179688 81.5 L213.92941284179688 81.5 L213.92941284179688 122.25 L-213.92941284179688 122.25" stroke="none" stroke-width="0" fill="hsl(240, 100%, 100%)"/><path d="M-213.92941284179688 81.5 C-108.84724721241263 81.5, -3.765081583028376 81.5, 213.92941284179688 81.5 M-213.92941284179688 81.5 C-46.32770775283774 81.5, 121.2739973361214 81.5, 213.92941284179688 81.5 M213.92941284179688 81.5 C213.92941284179688 90.58297395159478, 213.92941284179688 99.66594790318956, 213.92941284179688 122.25 M213.92941284179688 81.5 C213.92941284179688 90.76209044583817, 213.92941284179688 100.02418089167634, 213.92941284179688 122.25 M213.92941284179688 122.25 C112.04893257326403 122.25, 10.168452304731176 122.25, -213.92941284179688 122.25 M213.92941284179688 122.25 C89.35556968063179 122.25, -35.2182734805333 122.25, -213.92941284179688 122.25 M-213.92941284179688 122.25 C-213.92941284179688 110.73160026659914, -213.92941284179688 99.2132005331983, -213.92941284179688 81.5 M-213.92941284179688 122.25 C-213.92941284179688 106.90128404704053, -213.92941284179688 91.55256809408105, -213.92941284179688 81.5" stroke="#9370DB" stroke-width="1.3" fill="none" stroke-dasharray="0 0"/></g><g style="" class="row-rect-even"><path d="M-213.92941284179688 122.25 L213.92941284179688 122.25 L213.92941284179688 163 L-213.92941284179688 163" stroke="none" stroke-width="0" fill="hsl(240, 100%, 97.2745098039%)"/><path d="M-213.92941284179688 122.25 C-121.55472485089753 122.25, -29.180036859998182 122.25, 213.92941284179688 122.25 M-213.92941284179688 122.25 C-48.19607663477555 122.25, 117.53725957224577 122.25, 213.92941284179688 122.25 M213.92941284179688 122.25 C213.92941284179688 132.6336835353594, 213.92941284179688 143.01736707071885, 213.92941284179688 163 M213.92941284179688 122.25 C213.92941284179688 138.52138688738685, 213.92941284179688 154.7927737747737, 213.92941284179688 163 M213.92941284179688 163 C65.99703620038892 163, -81.93534044101904 163, -213.92941284179688 163 M213.92941284179688 163 C82.19824915541176 163, -49.53291453097336 163, -213.92941284179688 163 M-213.92941284179688 163 C-213.92941284179688 151.43425274355374, -213.92941284179688 139.86850548710748, -213.92941284179688 122.25 M-213.92941284179688 163 C-213.92941284179688 148.98449126758084, -213.92941284179688 134.96898253516167, -213.92941284179688 122.25" stroke="#9370DB" stroke-width="1.3" fill="none" stroke-dasharray="0 0"/></g><g style="" class="row-rect-odd"><path d="M-213.92941284179688 163 L213.92941284179688 163 L213.92941284179688 203.75 L-213.92941284179688 203.75" stroke="none" stroke-width="0" fill="hsl(240, 100%, 100%)"/><path d="M-213.92941284179688 163 C-78.47850808709876 163, 56.972396667599355 163, 213.92941284179688 163 M-213.92941284179688 163 C-96.50041741987529 163, 20.928578002046294 163, 213.92941284179688 163 M213.92941284179688 163 C213.92941284179688 177.1012155154431, 213.92941284179688 191.2024310308862, 213.92941284179688 203.75 M213.92941284179688 163 C213.92941284179688 175.3301306109907, 213.92941284179688 187.66026122198141, 213.92941284179688 203.75 M213.92941284179688 203.75 C83.00723046074685 203.75, -47.91495192030317 203.75, -213.92941284179688 203.75 M213.92941284179688 203.75 C88.64395028465495 203.75, -36.64151227248698 203.75, -213.92941284179688 203.75 M-213.92941284179688 203.75 C-213.92941284179688 189.11860026639658, -213.92941284179688 174.48720053279317, -213.92941284179688 163 M-213.92941284179688 203.75 C-213.92941284179688 195.45959668528246, -213.92941284179688 187.16919337056493, -213.92941284179688 163" stroke="#9370DB" stroke-width="1.3" fill="none" stroke-dasharray="0 0"/></g><g class="label name" transform="translate(-26.78125, -194.375)" style=""><g><rect class="background" style="stroke: none"/></g><text xml:space="preserve" y="-10.1" style=""><tspan class="text-outer-tspan row" x="0" y="-0.1em" dy="1.1em"><tspan font-style="normal" class="text-inner-tspan" font-weight="normal">chunks</tspan></tspan></text></g><g class="label attribute-type" transform="translate(-201.42941284179688, -153.625)" style=""><g><rect class="background" style="stroke: none"/></g><text xml:space="preserve" y="-10.1" style=""><tspan class="text-outer-tspan row" x="0" y="-0.1em" dy="1.1em"><tspan font-style="normal" class="text-inner-tspan" font-weight="normal">TEXT</tspan></tspan></text></g><g class="label attribute-name" transform="translate(-82.22628784179688, -153.625)" style=""><g><rect class="background" style="stroke: none"/></g><text xml:space="preserve" y="-10.1" style=""><tspan class="text-outer-tspan row" x="0" y="-0.1em" dy="1.1em"><tspan font-style="normal" class="text-inner-tspan" font-weight="normal">id</tspan></tspan></text></g><g class="label attribute-keys" transform="translate(38.211212158203125, -153.625)" style=""><g><rect class="background" style="stroke: none"/></g><text xml:space="preserve" y="-10.1" style=""><tspan class="text-outer-tspan row" x="0" y="-0.1em" dy="1.1em"><tspan font-style="normal" class="text-inner-tspan" font-weight="normal">PK</tspan></tspan></text></g><g class="label attribute-comment" transform="translate(82.8912353515625, -153.625)" style=""><g><rect class="background" style="stroke: none"/></g><text xml:space="preserve" y="-10.1" style=""><tspan class="text-outer-tspan row" x="0" y="-0.1em" dy="1.1em"/></text></g><g class="label attribute-type" transform="translate(-201.42941284179688, -112.875)" style=""><g><rect class="background" style="stroke: none"/></g><text xml:space="preserve" y="-10.1" style=""><tspan class="text-outer-tspan row" x="0" y="-0.1em" dy="1.1em"><tspan font-style="normal" class="text-inner-tspan" font-weight="normal">TEXT</tspan></tspan></text></g><g class="label attribute-name" transform="translate(-82.22628784179688, -112.875)" style=""><g><rect class="background" style="stroke: none"/></g><text xml:space="preserve" y="-10.1" style=""><tspan class="text-outer-tspan row" x="0" y="-0.1em" dy="1.1em"><tspan font-style="normal" class="text-inner-tspan" font-weight="normal">text_id</tspan></tspan></text></g><g class="label attribute-keys" transform="translate(38.211212158203125, -112.875)" style=""><g><rect class="background" style="stroke: none"/></g><text xml:space="preserve" y="-10.1" style=""><tspan class="text-outer-tspan row" x="0" y="-0.1em" dy="1.1em"><tspan font-style="normal" class="text-inner-tspan" font-weight="normal">FK</tspan></tspan></text></g><g class="label attribute-comment" transform="translate(82.8912353515625, -112.875)" style=""><g><rect class="background" style="stroke: none"/></g><text xml:space="preserve" y="-10.1" style=""><tspan class="text-outer-tspan row" x="0" y="-0.1em" dy="1.1em"/></text></g><g class="label attribute-type" transform="translate(-201.42941284179688, -72.125)" style=""><g><rect class="background" style="stroke: none"/></g><text xml:space="preserve" y="-10.1" style=""><tspan class="text-outer-tspan row" x="0" y="-0.1em" dy="1.1em"><tspan font-style="normal" class="text-inner-tspan" font-weight="normal">TEXT</tspan></tspan></text></g><g class="label attribute-name" transform="translate(-82.22628784179688, -72.125)" style=""><g><rect class="background" style="stroke: none"/></g><text xml:space="preserve" y="-10.1" style=""><tspan class="text-outer-tspan row" x="0" y="-0.1em" dy="1.1em"><tspan font-style="normal" class="text-inner-tspan" font-weight="normal">tradition</tspan></tspan></text></g><g class="label attribute-keys" transform="translate(38.211212158203125, -72.125)" style=""><g><rect class="background" style="stroke: none"/></g><text xml:space="preserve" y="-10.1" style=""><tspan class="text-outer-tspan row" x="0" y="-0.1em" dy="1.1em"><tspan font-style="normal" class="text-inner-tspan" font-weight="normal">FK</tspan></tspan></text></g><g class="label attribute-comment" transform="translate(82.8912353515625, -72.125)" style=""><g><rect class="background" style="stroke: none"/></g><text xml:space="preserve" y="-10.1" style=""><tspan class="text-outer-tspan row" x="0" y="-0.1em" dy="1.1em"/></text></g><g class="label attribute-type" transform="translate(-201.42941284179688, -31.375)" style=""><g><rect class="background" style="stroke: none"/></g><text xml:space="preserve" y="-10.1" style=""><tspan class="text-outer-tspan row" x="0" y="-0.1em" dy="1.1em"><tspan font-style="normal" class="text-inner-tspan" font-weight="normal">TEXT</tspan></tspan></text></g><g class="label attribute-name" transform="translate(-82.22628784179688, -31.375)" style=""><g><rect class="background" style="stroke: none"/></g><text xml:space="preserve" y="-10.1" style=""><tspan class="text-outer-tspan row" x="0" y="-0.1em" dy="1.1em"><tspan font-style="normal" class="text-inner-tspan" font-weight="normal">text_name</tspan></tspan></text></g><g class="label attribute-keys" transform="translate(38.211212158203125, -31.375)" style=""><g><rect class="background" style="stroke: none"/></g><text xml:space="preserve" y="-10.1" style=""><tspan class="text-outer-tspan row" x="0" y="-0.1em" dy="1.1em"/></text></g><g class="label attribute-comment" transform="translate(82.8912353515625, -31.375)" style=""><g><rect class="background" style="stroke: none"/></g><text xml:space="preserve" y="-10.1" style=""><tspan class="text-outer-tspan row" x="0" y="-0.1em" dy="1.1em"><tspan font-style="normal" class="text-inner-tspan" font-weight="normal">denormalised</tspan></tspan></text></g><g class="label attribute-type" transform="translate(-201.42941284179688, 9.375)" style=""><g><rect class="background" style="stroke: none"/></g><text xml:space="preserve" y="-10.1" style=""><tspan class="text-outer-tspan row" x="0" y="-0.1em" dy="1.1em"><tspan font-style="normal" class="text-inner-tspan" font-weight="normal">TEXT</tspan></tspan></text></g><g class="label attribute-name" transform="translate(-82.22628784179688, 9.375)" style=""><g><rect class="background" style="stroke: none"/></g><text xml:space="preserve" y="-10.1" style=""><tspan class="text-outer-tspan row" x="0" y="-0.1em" dy="1.1em"><tspan font-style="normal" class="text-inner-tspan" font-weight="normal">section</tspan></tspan></text></g><g class="label attribute-keys" transform="translate(38.211212158203125, 9.375)" style=""><g><rect class="background" style="stroke: none"/></g><text xml:space="preserve" y="-10.1" style=""><tspan class="text-outer-tspan row" x="0" y="-0.1em" dy="1.1em"/></text></g><g class="label attribute-comment" transform="translate(82.8912353515625, 9.375)" style=""><g><rect class="background" style="stroke: none"/></g><text xml:space="preserve" y="-10.1" style=""><tspan class="text-outer-tspan row" x="0" y="-0.1em" dy="1.1em"/></text></g><g class="label attribute-type" transform="translate(-201.42941284179688, 50.125)" style=""><g><rect class="background" style="stroke: none"/></g><text xml:space="preserve" y="-10.1" style=""><tspan class="text-outer-tspan row" x="0" y="-0.1em" dy="1.1em"><tspan font-style="normal" class="text-inner-tspan" font-weight="normal">TEXT_ARRAY</tspan></tspan></text></g><g class="label attribute-name" transform="translate(-82.22628784179688, 50.125)" style=""><g><rect class="background" style="stroke: none"/></g><text xml:space="preserve" y="-10.1" style=""><tspan class="text-outer-tspan row" x="0" y="-0.1em" dy="1.1em"><tspan font-style="normal" class="text-inner-tspan" font-weight="normal">section_path</tspan></tspan></text></g><g class="label attribute-keys" transform="translate(38.211212158203125, 50.125)" style=""><g><rect class="background" style="stroke: none"/></g><text xml:space="preserve" y="-10.1" style=""><tspan class="text-outer-tspan row" x="0" y="-0.1em" dy="1.1em"/></text></g><g class="label attribute-comment" transform="translate(82.8912353515625, 50.125)" style=""><g><rect class="background" style="stroke: none"/></g><text xml:space="preserve" y="-10.1" style=""><tspan class="text-outer-tspan row" x="0" y="-0.1em" dy="1.1em"/></text></g><g class="label attribute-type" transform="translate(-201.42941284179688, 90.875)" style=""><g><rect class="background" style="stroke: none"/></g><text xml:space="preserve" y="-10.1" style=""><tspan class="text-outer-tspan row" x="0" y="-0.1em" dy="1.1em"><tspan font-style="normal" class="text-inner-tspan" font-weight="normal">TEXT</tspan></tspan></text></g><g class="label attribute-name" transform="translate(-82.22628784179688, 90.875)" style=""><g><rect class="background" style="stroke: none"/></g><text xml:space="preserve" y="-10.1" style=""><tspan class="text-outer-tspan row" x="0" y="-0.1em" dy="1.1em"><tspan font-style="normal" class="text-inner-tspan" font-weight="normal">body</tspan></tspan></text></g><g class="label attribute-keys" transform="translate(38.211212158203125, 90.875)" style=""><g><rect class="background" style="stroke: none"/></g><text xml:space="preserve" y="-10.1" style=""><tspan class="text-outer-tspan row" x="0" y="-0.1em" dy="1.1em"/></text></g><g class="label attribute-comment" transform="translate(82.8912353515625, 90.875)" style=""><g><rect class="background" style="stroke: none"/></g><text xml:space="preserve" y="-10.1" style=""><tspan class="text-outer-tspan row" x="0" y="-0.1em" dy="1.1em"/></text></g><g class="label attribute-type" transform="translate(-201.42941284179688, 131.625)" style=""><g><rect class="background" style="stroke: none"/></g><text xml:space="preserve" y="-10.1" style=""><tspan class="text-outer-tspan row" x="0" y="-0.1em" dy="1.1em"><tspan font-style="normal" class="text-inner-tspan" font-weight="normal">INTEGER</tspan></tspan></text></g><g class="label attribute-name" transform="translate(-82.22628784179688, 131.625)" style=""><g><rect class="background" style="stroke: none"/></g><text xml:space="preserve" y="-10.1" style=""><tspan class="text-outer-tspan row" x="0" y="-0.1em" dy="1.1em"><tspan font-style="normal" class="text-inner-tspan" font-weight="normal">token_count</tspan></tspan></text></g><g class="label attribute-keys" transform="translate(38.211212158203125, 131.625)" style=""><g><rect class="background" style="stroke: none"/></g><text xml:space="preserve" y="-10.1" style=""><tspan class="text-outer-tspan row" x="0" y="-0.1em" dy="1.1em"/></text></g><g class="label attribute-comment" transform="translate(82.8912353515625, 131.625)" style=""><g><rect class="background" style="stroke: none"/></g><text xml:space="preserve" y="-10.1" style=""><tspan class="text-outer-tspan row" x="0" y="-0.1em" dy="1.1em"/></text></g><g class="label attribute-type" transform="translate(-201.42941284179688, 172.375)" style=""><g><rect class="background" style="stroke: none"/></g><text xml:space="preserve" y="-10.1" style=""><tspan class="text-outer-tspan row" x="0" y="-0.1em" dy="1.1em"><tspan font-style="normal" class="text-inner-tspan" font-weight="normal">VECTOR_768</tspan></tspan></text></g><g class="label attribute-name" transform="translate(-82.22628784179688, 172.375)" style=""><g><rect class="background" style="stroke: none"/></g><text xml:space="preserve" y="-10.1" style=""><tspan class="text-outer-tspan row" x="0" y="-0.1em" dy="1.1em"><tspan font-style="normal" class="text-inner-tspan" font-weight="normal">embedding</tspan></tspan></text></g><g class="label attribute-keys" transform="translate(38.211212158203125, 172.375)" style=""><g><rect class="background" style="stroke: none"/></g><text xml:space="preserve" y="-10.1" style=""><tspan class="text-outer-tspan row" x="0" y="-0.1em" dy="1.1em"/></text></g><g class="label attribute-comment" transform="translate(82.8912353515625, 172.375)" style=""><g><rect class="background" style="stroke: none"/></g><text xml:space="preserve" y="-10.1" style=""><tspan class="text-outer-tspan row" x="0" y="-0.1em" dy="1.1em"><tspan font-style="normal" class="text-inner-tspan" font-weight="normal">pgvector</tspan><tspan font-style="normal" class="text-inner-tspan" font-weight="normal"> HNSW</tspan></tspan></text></g><g class="divider"><path d="M-213.92941284179688 -163.00005 L-213.92941284179688 -162.99995 L213.92941284179688 -162.99995 L213.92941284179688 -163.00005" stroke="none" stroke-width="0" fill="#ECECFF" fill-rule="evenodd"/><path d="M-213.92941284179688 -163.00005 C-213.92941284179688 -163.0000102434074, -213.92941284179688 -162.99997048681476, -213.92941284179688 -162.99995 M-213.92941284179688 -163.00005 C-213.92941284179688 -163.0000123591309, -213.92941284179688 -162.99997471826177, -213.92941284179688 -162.99995 M-213.92941284179688 -162.99995 C-116.37649771392061 -162.99995, -18.823582586044353 -162.99995, 213.92941284179688 -162.99995 M-213.92941284179688 -162.99995 C-82.86819868513041 -162.99995, 48.19301547153606 -162.99995, 213.92941284179688 -162.99995 M213.92941284179688 -162.99995 C213.92941284179688 -162.99997376911455, 213.92941284179688 -162.99999753822908, 213.92941284179688 -163.00005 M213.92941284179688 -162.99995 C213.92941284179688 -162.99997749891438, 213.92941284179688 -163.0000049978287, 213.92941284179688 -163.00005 M213.92941284179688 -163.00005 C90.52357196032075 -163.00005, -32.88226892115537 -163.00005, -213.92941284179688 -163.00005 M213.92941284179688 -163.00005 C83.9961352979289 -163.00005, -45.93714224593907 -163.00005, -213.92941284179688 -163.00005" stroke="#9370DB" stroke-width="1.3" fill="none" stroke-dasharray="0 0"/></g><g class="divider"><path d="M-94.72633784179688 -163 L-94.72623784179687 -163 L-94.72623784179687 203.75 L-94.72633784179688 203.75" stroke="none" stroke-width="0" fill="#ECECFF" fill-rule="evenodd"/><path d="M-94.72633784179688 -163 C-94.72630816754388 -163, -94.72627849329086 -163, -94.72623784179687 -163 M-94.72633784179688 -163 C-94.72631295252314 -163, -94.72628806324941 -163, -94.72623784179687 -163 M-94.72623784179687 -163 C-94.72623784179687 -73.83788372368923, -94.72623784179687 15.324232552621538, -94.72623784179687 203.75 M-94.72623784179687 -163 C-94.72623784179687 -83.05897618996934, -94.72623784179687 -3.1179523799386857, -94.72623784179687 203.75 M-94.72623784179687 203.75 C-94.72626551562155 203.75, -94.72629318944622 203.75, -94.72633784179688 203.75 M-94.72623784179687 203.75 C-94.72627508986743 203.75, -94.726312337938 203.75, -94.72633784179688 203.75 M-94.72633784179688 203.75 C-94.72633784179688 71.86032575536413, -94.72633784179688 -60.02934848927174, -94.72633784179688 -163 M-94.72633784179688 203.75 C-94.72633784179688 125.7665435554105, -94.72633784179688 47.783087110820986, -94.72633784179688 -163" stroke="#9370DB" stroke-width="1.3" fill="none" stroke-dasharray="0 0"/></g><g class="divider"><path d="M25.711162158203123 -163 L25.711262158203127 -163 L25.711262158203127 203.75 L25.711162158203123 203.75" stroke="none" stroke-width="0" fill="#ECECFF" fill-rule="evenodd"/><path d="M25.711162158203123 -163 C25.71119836000254 -163, 25.711234561801955 -163, 25.711262158203127 -163 M25.711162158203123 -163 C25.711195824635205 -163, 25.711229491067286 -163, 25.711262158203127 -163 M25.711262158203127 -163 C25.711262158203127 -59.96635851933547, 25.711262158203127 43.067282961329056, 25.711262158203127 203.75 M25.711262158203127 -163 C25.711262158203127 -47.44768889177837, 25.711262158203127 68.10462221644326, 25.711262158203127 203.75 M25.711262158203127 203.75 C25.711229528745807 203.75, 25.71119689928849 203.75, 25.711162158203123 203.75 M25.711262158203127 203.75 C25.711236802417524 203.75, 25.71121144663192 203.75, 25.711162158203123 203.75 M25.711162158203123 203.75 C25.711162158203123 124.5180044502605, 25.711162158203123 45.28600890052101, 25.711162158203123 -163 M25.711162158203123 203.75 C25.711162158203123 84.48685899455079, 25.711162158203123 -34.77628201089843, 25.711162158203123 -163" stroke="#9370DB" stroke-width="1.3" fill="none" stroke-dasharray="0 0"/></g><g class="divider"><path d="M70.3911853515625 -163 L70.3912853515625 -163 L70.3912853515625 203.75 L70.3911853515625 203.75" stroke="none" stroke-width="0" fill="#ECECFF" fill-rule="evenodd"/><path d="M70.3911853515625 -163 C70.39120773802176 -163, 70.39123012448104 -163, 70.3912853515625 -163 M70.3911853515625 -163 C70.39122172673132 -163, 70.39125810190014 -163, 70.3912853515625 -163 M70.3912853515625 -163 C70.3912853515625 -85.08992317853556, 70.3912853515625 -7.1798463570711135, 70.3912853515625 203.75 M70.3912853515625 -163 C70.3912853515625 -64.51303483669814, 70.3912853515625 33.97393032660372, 70.3912853515625 203.75 M70.3912853515625 203.75 C70.39126012378178 203.75, 70.39123489600105 203.75, 70.3911853515625 203.75 M70.3912853515625 203.75 C70.39125170646714 203.75, 70.39121806137177 203.75, 70.3911853515625 203.75 M70.3911853515625 203.75 C70.3911853515625 122.75575850227928, 70.3911853515625 41.761517004558556, 70.3911853515625 -163 M70.3911853515625 203.75 C70.3911853515625 126.54665729079825, 70.3911853515625 49.3433145815965, 70.3911853515625 -163" stroke="#9370DB" stroke-width="1.3" fill="none" stroke-dasharray="0 0"/></g><g class="divider"><path d="M-213.92941284179688 -163.00005 L-213.92941284179688 -162.99995 L213.92941284179688 -162.99995 L213.92941284179688 -163.00005" stroke="none" stroke-width="0" fill="#ECECFF" fill-rule="evenodd"/><path d="M-213.92941284179688 -163.00005 C-213.92941284179688 -163.00002825798717, -213.92941284179688 -163.00000651597432, -213.92941284179688 -162.99995 M-213.92941284179688 -163.00005 C-213.92941284179688 -163.0000226851372, -213.92941284179688 -162.9999953702744, -213.92941284179688 -162.99995 M-213.92941284179688 -162.99995 C-65.82097768878947 -162.99995, 82.28745746421794 -162.99995, 213.92941284179688 -162.99995 M-213.92941284179688 -162.99995 C-119.1737134026359 -162.99995, -24.41801396347492 -162.99995, 213.92941284179688 -162.99995 M213.92941284179688 -162.99995 C213.92941284179688 -162.99998147140846, 213.92941284179688 -163.0000129428169, 213.92941284179688 -163.00005 M213.92941284179688 -162.99995 C213.92941284179688 -162.99997897719118, 213.92941284179688 -163.0000079543823, 213.92941284179688 -163.00005 M213.92941284179688 -163.00005 C98.2973398642377 -163.00005, -17.334733113321477 -163.00005, -213.92941284179688 -163.00005 M213.92941284179688 -163.00005 C90.42783896265128 -163.00005, -33.07373491649432 -163.00005, -213.92941284179688 -163.00005" stroke="#9370DB" stroke-width="1.3" fill="none" stroke-dasharray="0 0"/></g></g></g></g></g><defs><filter id="my-svg-drop-shadow" height="130%" width="130%"><feDropShadow dx="4" dy="4" stdDeviation="0" flood-opacity="0.06" flood-color="#000000"/></filter></defs><defs><filter id="my-svg-drop-shadow-small" height="150%" width="150%"><feDropShadow dx="2" dy="2" stdDeviation="0" flood-opacity="0.06" flood-color="#000000"/></filter></defs></svg>