<svg id="my-svg" width="100%" xmlns="http://www.w3.org/2000/svg" xmlns:xlink="http://www.w3.org/1999/xlink" class="erDiagram" style="max-width: 1038.59px; background-color: white;" viewBox="0 0 1038.593017578125 915.2000122070312" role="graphics-document document" aria-roledescription="er"><style>#my-svg{font-family:"trebuchet ms",verdana,arial,sans-serif;font-size:16px;fill:#333;}@keyframes edge-animation-frame{from{stroke-dashoffset:0;}}@keyframes dash{to{stroke-dashoffset:0;}}#my-svg .edge-animation-slow{stroke-dasharray:9,5!important;stroke-dashoffset:900;animation:dash 50s linear infinite;stroke-linecap:round;}#my-svg .edge-animation-fast{stroke-dasharray:9,5!important;stroke-dashoffset:900;animation:dash 20s linear infinite;stroke-linecap:round;}#my-svg .error-icon{fill:#552222;}#my-svg .error-text{fill:#552222;stroke:#552222;}#my-svg .edge-thickness-normal{stroke-width:1px;}#my-svg .edge-thickness-thick{stroke-width:3.5px;}#my-svg .edge-pattern-solid{stroke-dasharray:0;}#my-svg .edge-thickness-invisible{stroke-width:0;fill:none;}#my-svg .edge-pattern-dashed{stroke-dasharray:3;}#my-svg .edge-pattern-dotted{stroke-dasharray:2;}#my-svg .marker{fill:#333333;stroke:#333333;}#my-svg .marker.cross{stroke:#333333;}#my-svg svg{font-family:"trebuchet ms",verdana,arial,sans-serif;font-size:16px;}#my-svg p{margin:0;}#my-svg .entityBox{fill:#ECECFF;stroke:#9370DB;}#my-svg .relationshipLabelBox{fill:hsl(80, 100%, 96.2745098039%);opacity:0.7;background-color:hsl(80, 100%, 96.2745098039%);}#my-svg .relationshipLabelBox rect{opacity:0.5;}#my-svg .labelBkg{background-color:rgba(248.6666666666, 255, 235.9999999999, 0.5);}#my-svg .edgeLabel{background-color:rgba(232,232,232, 0.8);}#my-svg .edgeLabel .label rect{fill:rgba(232,232,232, 0.8);}#my-svg .edgeLabel .label text{fill:#333;}#my-svg .edgeLabel .label{fill:#9370DB;font-size:14px;}#my-svg .label{font-family:"trebuchet ms",verdana,arial,sans-serif;color:#333;}#my-svg .edge-pattern-dashed{stroke-dasharray:8,8;}#my-svg .node rect,#my-svg .node circle,#my-svg .node ellipse,#my-svg .node polygon{fill:#ECECFF;stroke:#9370DB;stroke-width:1px;}#my-svg .relationshipLine{stroke:#333333;stroke-width:1px;fill:none;}#my-svg .marker{fill:none!important;stroke:#333333!important;stroke-width:1;}#my-svg [data-look=neo].labelBkg{background-color:rgba(248.6666666666, 255, 235.9999999999, 0.5);}#my-svg .node .neo-node{stroke:#9370DB;}#my-svg [data-look="neo"].node rect,#my-svg [data-look="neo"].cluster rect,#my-svg [data-look="neo"].node polygon{stroke:#9370DB;filter:drop-shadow(1px 2px 2px rgba(185, 185, 185, 1));}#my-svg [data-look="neo"].node path{stroke:#9370DB;stroke-width:1px;}#my-svg [data-look="neo"].node .outer-path{filter:drop-shadow(1px 2px 2px rgba(185, 185, 185, 1));}#my-svg [data-look="neo"].node .neo-line path{stroke:#9370DB;filter:none;}#my-svg [data-look="neo"].node circle{stroke:#9370DB;filter:drop-shadow(1px 2px 2px rgba(185, 185, 185, 1));}#my-svg [data-look="neo"].node circle .state-start{fill:#000000;}#my-svg [data-look="neo"].icon-shape .icon{fill:#9370DB;filter:drop-shadow(1px 2px 2px rgba(185, 185, 185, 1));}#my-svg [data-look="neo"].icon-shape .icon-neo path{stroke:#9370DB;filter:drop-shadow(1px 2px 2px rgba(185, 185, 185, 1));}#my-svg :root{--mermaid-font-family:"trebuchet ms",verdana,arial,sans-serif;}</style><g><defs><marker id="my-svg_er-onlyOneStart" class="marker onlyOne er" refX="0" refY="9" markerWidth="18" markerHeight="18" orient="auto"><path d="M9,0 L9,18 M15,0 L15,18"/></marker></defs><defs><marker id="my-svg_er-onlyOneEnd" class="marker onlyOne er" refX="18" refY="9" markerWidth="18" markerHeight="18" orient="auto"><path d="M3,0 L3,18 M9,0 L9,18"/></marker></defs><defs><marker id="my-svg_er-zeroOrOneStart" class="marker zeroOrOne er" refX="0" refY="9" markerWidth="30" markerHeight="18" orient="auto"><circle fill="white" cx="21" cy="9" r="6"/><path d="M9,0 L9,18"/></marker></defs><defs><marker id="my-svg_er-zeroOrOneEnd" class="marker zeroOrOne er" refX="30" refY="9" markerWidth="30" markerHeight="18" orient="auto"><circle fill="white" cx="9" cy="9" r="6"/><path d="M21,0 L21,18"/></marker></defs><defs><marker id="my-svg_er-oneOrMoreStart" class="marker oneOrMore er" refX="18" refY="18" markerWidth="45" markerHeight="36" orient="auto"><path d="M0,18 Q 18,0 36,18 Q 18,36 0,18 M42,9 L42,27"/></marker></defs><defs><marker id="my-svg_er-oneOrMoreEnd" class="marker oneOrMore er" refX="27" refY="18" markerWidth="45" markerHeight="36" orient="auto"><path d="M3,9 L3,27 M9,18 Q27,0 45,18 Q27,36 9,18"/></marker></defs><defs><marker id="my-svg_er-zeroOrMoreStart" class="marker zeroOrMore er" refX="18" refY="18" markerWidth="57" markerHeight="36" orient="auto"><circle fill="white" cx="48" cy="18" r="6"/><path d="M0,18 Q18,0 36,18 Q18,36 0,18"/></marker></defs><defs><marker id="my-svg_er-zeroOrMoreEnd" class="marker zeroOrMore er" refX="39" refY="18" markerWidth="57" markerHeight="36" orient="auto"><circle fill="white" cx="9" cy="18" r="6"/><path d="M21,18 Q39,0 57,18 Q39,36 21,18"/></marker></defs><g class="root"><g class="clusters"/><g class="edgePaths"><path d="M871.084,252.5L886.175,262.8C901.265,273.1,931.446,293.7,946.537,334.667C961.627,375.633,961.627,436.967,961.627,467.633L961.627,498.3" id="my-svg-entity-concept_families-1-cyclic-special-1" class="edge-thickness-normal edge-pattern-solid relationshipLine" style="undefined;;;undefined" data-edge="true" data-et="edge" data-id="entity-concept_families-1-cyclic-special-1" data-points="W3sieCI6ODcxLjA4NDQ5NTg4OTE4NzYsInkiOjI1Mi41fSx7IngiOjk2MS42Mjc0NzAzOTgzMjE3LCJ5IjozMTQuMjk5OTk5MjM3MDYwNTV9LHsieCI6OTYxLjYyNzQ3MDM5ODMyMTcsInkiOjQ5OC4yOTk5OTg0NzMzNzYwNH1d" data-look="classic" marker-start="url(#my-svg_er-onlyOneStart)"/><path d="M961.627,498.4L961.627,529.067C961.627,559.733,961.627,621.067,954.229,675.608C946.831,730.15,932.035,777.9,924.636,801.775L917.238,825.65" id="my-svg-entity-concept_families-1-cyclic-special-mid" class="edge-thickness-normal edge-pattern-solid relationshipLine" style="undefined;;;undefined" data-edge="true" data-et="edge" data-id="entity-concept_families-1-cyclic-special-mid" data-points="W3sieCI6OTYxLjYyNzQ3MDM5ODMyMTcsInkiOjQ5OC4zOTk5OTg0NzQ4NjYxNX0seyJ4Ijo5NjEuNjI3NDcwMzk4MzIxNywieSI6NjgyLjM5OTk5NzcxMTE4MTZ9LHsieCI6OTE3LjIzODE5MDMyNjk5MDUsInkiOjgyNS42NDk5OTY5NDc0OTcxfV0=" data-look="classic"/><path d="M917.207,825.65L909.809,801.775C902.411,777.9,887.614,730.15,880.216,675.6C872.818,621.05,872.818,559.7,872.818,498.35C872.818,437,872.818,375.65,862.697,334.675C852.577,293.7,832.336,273.1,822.216,262.8L812.095,252.5" id="my-svg-entity-concept_families-1-cyclic-special-2" class="edge-thickness-normal edge-pattern-solid relationshipLine" style="undefined;;;undefined" data-edge="true" data-et="edge" data-id="entity-concept_families-1-cyclic-special-2" data-points="W3sieCI6OTE3LjIwNzIwMzA0NTMzNjUsInkiOjgyNS42NDk5OTY5NDc0OTcxfSx7IngiOjg3Mi44MTc5MjI5NzQwMDUzLCJ5Ijo2ODIuMzk5OTk3NzExMTgxNn0seyJ4Ijo4NzIuODE3OTIyOTc0MDA1MywieSI6NDk4LjM0OTk5ODQ3NDEyMTF9LHsieCI6ODcyLjgxNzkyMjk3NDAwNTMsInkiOjMxNC4yOTk5OTkyMzcwNjA1NX0seyJ4Ijo4MTIuMDk1MjY4OTUyODc3NCwieSI6MjUyLjV9XQ==" data-look="classic" marker-end="url(#my-svg_er-zeroOrMoreEnd)"/><path d="M581.355,252.5L572.035,262.8C562.714,273.1,544.074,293.7,534.753,314.3C525.433,334.9,525.433,355.5,525.433,365.8L525.433,376.1" id="my-svg-id_entity-concept_families-1_entity-concepts-0_1" class="edge-thickness-normal edge-pattern-solid relationshipLine" style="undefined;;;undefined" data-edge="true" data-et="edge" data-id="id_entity-concept_families-1_entity-concepts-0_1" data-points="W3sieCI6NTgxLjM1NDgwMjEwMjkwODksInkiOjI1Mi41fSx7IngiOjUyNS40MzMxOTcwMjE0ODQ0LCJ5IjozMTQuMjk5OTk5MjM3MDYwNTV9LHsieCI6NTI1LjQzMzE5NzAyMTQ4NDQsInkiOjM3Ni4wOTk5OTg0NzQxMjExfV0=" data-look="classic" marker-start="url(#my-svg_er-onlyOneStart)" marker-end="url(#my-svg_er-zeroOrMoreEnd)"/><path d="M394.77,620.6L383.761,630.9C372.753,641.2,350.735,661.8,326.481,682.4C302.226,703,275.736,723.6,262.49,733.9L249.245,744.2" id="my-svg-id_entity-concepts-0_entity-concept_family_membership-2_2" class="edge-thickness-normal edge-pattern-solid relationshipLine" style="undefined;;;undefined" data-edge="true" data-et="edge" data-id="id_entity-concepts-0_entity-concept_family_membership-2_2" data-points="W3sieCI6Mzk0Ljc3MDE3MjU1OTkzNzYsInkiOjYyMC41OTk5OTg0NzQxMjExfSx7IngiOjMyOC43MTcyMDg4NjIzMDQ3LCJ5Ijo2ODIuMzk5OTk3NzExMTgxNn0seyJ4IjoyNDkuMjQ1MDgxODkzMTk0MDMsInkiOjc0NC4xOTk5OTY5NDgyNDIyfV0=" data-look="classic" marker-start="url(#my-svg_er-onlyOneStart)" marker-end="url(#my-svg_er-zeroOrMoreEnd)"/><path d="M454.587,205.75L397.703,223.841C340.818,241.933,227.049,278.117,170.164,326.883C113.279,375.65,113.279,437,113.279,498.35C113.279,559.7,113.279,621.05,115.519,662.025C117.759,703,122.238,723.6,124.478,733.9L126.718,744.2" id="my-svg-id_entity-concept_families-1_entity-concept_family_membership-2_3" class="edge-thickness-normal edge-pattern-solid relationshipLine" style="undefined;;;undefined" data-edge="true" data-et="edge" data-id="id_entity-concept_families-1_entity-concept_family_membership-2_3" data-points="W3sieCI6NDU0LjU4NzI5NTUzMjIyNjU2LCJ5IjoyMDUuNzQ5NzM2NDEyODc3Nn0seyJ4IjoxMTMuMjc5NDQ5NDYyODkwNjIsInkiOjMxNC4yOTk5OTkyMzcwNjA1NX0seyJ4IjoxMTMuMjc5NDQ5NDYyODkwNjIsInkiOjQ5OC4zNDk5OTg0NzQxMjExfSx7IngiOjExMy4yNzk0NDk0NjI4OTA2MiwieSI6NjgyLjM5OTk5NzcxMTE4MTZ9LHsieCI6MTI2LjcxNzY3NDQ2NDQ5MDM0LCJ5Ijo3NDQuMTk5OTk2OTQ4MjQyMn1d" data-look="classic" marker-start="url(#my-svg_er-onlyOneStart)" marker-end="url(#my-svg_er-zeroOrMoreEnd)"/><path d="M560.185,620.6L563.113,630.9C566.041,641.2,571.898,661.8,574.826,685.796C577.754,709.792,577.754,737.183,577.754,750.879L577.754,764.575" id="my-svg-id_entity-concepts-0_entity-concept_aliases-3_4" class="edge-thickness-normal edge-pattern-solid relationshipLine" style="undefined;;;undefined" data-edge="true" data-et="edge" data-id="id_entity-concepts-0_entity-concept_aliases-3_4" data-points="W3sieCI6NTYwLjE4NTQ4Mjk3NDQyNTksInkiOjYyMC41OTk5OTg0NzQxMjExfSx7IngiOjU3Ny43NTM1MDk1MjE0ODQ0LCJ5Ijo2ODIuMzk5OTk3NzExMTgxNn0seyJ4Ijo1NzcuNzUzNTA5NTIxNDg0NCwieSI6NzY0LjU3NDk5Njk0ODI0MjJ9XQ==" data-look="classic" marker-start="url(#my-svg_er-onlyOneStart)" marker-end="url(#my-svg_er-zeroOrMoreEnd)"/></g><g class="edgeLabels"><g class="edgeLabel"><g class="label" data-id="entity-concept_families-1-cyclic-special-1" transform="translate(0, 0)"><text y="-10.1" text-anchor="middle"><tspan class="text-outer-tspan row" x="0" y="-0.1em" dy="1.1em" text-anchor="middle"/></text></g></g><g><rect class="background" style="stroke: none"/></g><g class="edgeLabel" transform="translate(961.6274703983217, 682.3999977111816)"><g class="label" data-id="entity-concept_families-1-cyclic-special-mid" transform="translate(-0.5910263061523438, -16.20000171661377)"><g><rect class="background" style="" x="-68.0625" y="-3" width="137.6190948486328" height="43.599998474121094"/><text y="-10.1" text-anchor="middle" style=""><tspan class="text-outer-tspan row" x="0" y="-0.1em" dy="1.1em" text-anchor="middle"><tspan font-style="normal" class="text-inner-tspan" font-weight="normal">parent_id</tspan><tspan font-style="normal" class="text-inner-tspan" font-weight="normal"> (self-ref</tspan></tspan><tspan class="text-outer-tspan row" x="0" y="1em" dy="1.1em" text-anchor="middle"><tspan font-style="normal" class="text-inner-tspan" font-weight="normal">domain→family)</tspan></tspan></text></g></g></g><g class="edgeLabel"><g class="label" data-id="entity-concept_families-1-cyclic-special-2" transform="translate(0, 0)"><text y="-10.1" text-anchor="middle"><tspan class="text-outer-tspan row" x="0" y="-0.1em" dy="1.1em" text-anchor="middle"/></text></g></g><g><rect class="background" style="stroke: none"/></g><g class="edgeLabel" transform="translate(525.4331970214844, 314.29999923706055)"><g class="label" data-id="id_entity-concept_families-1_entity-concepts-0_1" transform="translate(0, -16.20000171661377)"><g><rect class="background" style="" x="-91.8359375" y="-3" width="183.671875" height="43.599998474121094"/><text y="-10.1" text-anchor="middle" style=""><tspan class="text-outer-tspan row" x="0" y="-0.1em" dy="1.1em" text-anchor="middle"><tspan font-style="normal" class="text-inner-tspan" font-weight="normal">family_id</tspan><tspan font-style="normal" class="text-inner-tspan" font-weight="normal"> (denormalised</tspan></tspan><tspan class="text-outer-tspan row" x="0" y="1em" dy="1.1em" text-anchor="middle"><tspan font-style="normal" class="text-inner-tspan" font-weight="normal">primary)</tspan></tspan></text></g></g></g><g class="edgeLabel" transform="translate(328.7172088623047, 682.3999977111816)"><g class="label" data-id="id_entity-concepts-0_entity-concept_family_membership-2_2" transform="translate(0, -8.500000953674316)"><g><rect class="background" style="" x="-42.3203125" y="-3" width="84.640625" height="26"/><text y="-10.1" text-anchor="middle" style=""><tspan class="text-outer-tspan row" x="0" y="-0.1em" dy="1.1em" text-anchor="middle"><tspan font-style="normal" class="text-inner-tspan" font-weight="normal">concept_id</tspan></tspan></text></g></g></g><g class="edgeLabel" transform="translate(113.27944946289062, 498.3499984741211)"><g class="label" data-id="id_entity-concept_families-1_entity-concept_family_membership-2_3" transform="translate(0, -8.500000953674316)"><g><rect class="background" style="" x="-35.46875" y="-3" width="70.9375" height="26"/><text y="-10.1" text-anchor="middle" style=""><tspan class="text-outer-tspan row" x="0" y="-0.1em" dy="1.1em" text-anchor="middle"><tspan font-style="normal" class="text-inner-tspan" font-weight="normal">family_id</tspan></tspan></text></g></g></g><g class="edgeLabel" transform="translate(577.7535095214844, 682.3999977111816)"><g class="label" data-id="id_entity-concepts-0_entity-concept_aliases-3_4" transform="translate(0, -8.500000953674316)"><g><rect class="background" style="" x="-42.3203125" y="-3" width="84.640625" height="26"/><text y="-10.1" text-anchor="middle" style=""><tspan class="text-outer-tspan row" x="0" y="-0.1em" dy="1.1em" text-anchor="middle"><tspan font-style="normal" class="text-inner-tspan" font-weight="normal">concept_id</tspan></tspan></text></g></g></g></g><g class="nodes"><g class="node default" id="my-svg-entity-concepts-0" data-look="classic" transform="translate(525.4331970214844, 498.3499984741211)"><g class="outer-path" style=""><path d="M-253.0864486694336 -122.25 L253.0864486694336 -122.25 L253.0864486694336 122.25 L-253.0864486694336 122.25" stroke="none" stroke-width="0" fill="#ECECFF"/><path d="M-253.0864486694336 -122.25 C-106.54955489155844 -122.25, 39.98733888631671 -122.25, 253.0864486694336 -122.25 M-253.0864486694336 -122.25 C-119.0468211034428 -122.25, 14.992806462548003 -122.25, 253.0864486694336 -122.25 M253.0864486694336 -122.25 C253.0864486694336 -53.53621415617687, 253.0864486694336 15.177571687646264, 253.0864486694336 122.25 M253.0864486694336 -122.25 C253.0864486694336 -32.174698408371256, 253.0864486694336 57.90060318325749, 253.0864486694336 122.25 M253.0864486694336 122.25 C99.55351340487127 122.25, -53.97942185969106 122.25, -253.0864486694336 122.25 M253.0864486694336 122.25 C90.56011788108802 122.25, -71.96621290725756 122.25, -253.0864486694336 122.25 M-253.0864486694336 122.25 C-253.0864486694336 65.66653305935341, -253.0864486694336 9.083066118706839, -253.0864486694336 -122.25 M-253.0864486694336 122.25 C-253.0864486694336 44.36704871387441, -253.0864486694336 -33.51590257225118, -253.0864486694336 -122.25" stroke="#9370DB" stroke-width="1.3" fill="none" stroke-dasharray="0 0"/></g><g style="" class="row-rect-odd"><path d="M-253.0864486694336 -81.5 L253.0864486694336 -81.5 L253.0864486694336 -40.75 L-253.0864486694336 -40.75" stroke="none" stroke-width="0" fill="hsl(240, 100%, 100%)"/><path d="M-253.0864486694336 -81.5 C-97.38000124064666 -81.5, 58.32644618814027 -81.5, 253.0864486694336 -81.5 M-253.0864486694336 -81.5 C-124.90057940371031 -81.5, 3.2852898620129736 -81.5, 253.0864486694336 -81.5 M253.0864486694336 -81.5 C253.0864486694336 -72.34292393991433, 253.0864486694336 -63.18584787982867, 253.0864486694336 -40.75 M253.0864486694336 -81.5 C253.0864486694336 -71.11070393626815, 253.0864486694336 -60.72140787253629, 253.0864486694336 -40.75 M253.0864486694336 -40.75 C97.86059366499654 -40.75, -57.36526133944051 -40.75, -253.0864486694336 -40.75 M253.0864486694336 -40.75 C87.01392657309555 -40.75, -79.0585955232425 -40.75, -253.0864486694336 -40.75 M-253.0864486694336 -40.75 C-253.0864486694336 -54.099934096513195, -253.0864486694336 -67.44986819302639, -253.0864486694336 -81.5 M-253.0864486694336 -40.75 C-253.0864486694336 -50.14725177375751, -253.0864486694336 -59.54450354751502, -253.0864486694336 -81.5" stroke="#9370DB" stroke-width="1.3" fill="none" stroke-dasharray="0 0"/></g><g style="" class="row-rect-even"><path d="M-253.0864486694336 -40.75 L253.0864486694336 -40.75 L253.0864486694336 0 L-253.0864486694336 0" stroke="none" stroke-width="0" fill="hsl(240, 100%, 97.2745098039%)"/><path d="M-253.0864486694336 -40.75 C-85.9813988069908 -40.75, 81.123651055452 -40.75, 253.0864486694336 -40.75 M-253.0864486694336 -40.75 C-102.36074546120287 -40.75, 48.36495774702786 -40.75, 253.0864486694336 -40.75 M253.0864486694336 -40.75 C253.0864486694336 -26.572758437041095, 253.0864486694336 -12.39551687408219, 253.0864486694336 0 M253.0864486694336 -40.75 C253.0864486694336 -28.257995191869675, 253.0864486694336 -15.765990383739354, 253.0864486694336 0 M253.0864486694336 0 C119.35908171517644 0, -14.368285239080706 0, -253.0864486694336 0 M253.0864486694336 0 C122.33090932279572 0, -8.424630023842155 0, -253.0864486694336 0 M-253.0864486694336 0 C-253.0864486694336 -13.895358741301786, -253.0864486694336 -27.790717482603572, -253.0864486694336 -40.75 M-253.0864486694336 0 C-253.0864486694336 -10.504202255750608, -253.0864486694336 -21.008404511501215, -253.0864486694336 -40.75" stroke="#9370DB" stroke-width="1.3" fill="none" stroke-dasharray="0 0"/></g><g style="" class="row-rect-odd"><path d="M-253.0864486694336 0 L253.0864486694336 0 L253.0864486694336 40.75 L-253.0864486694336 40.75" stroke="none" stroke-width="0" fill="hsl(240, 100%, 100%)"/><path d="M-253.0864486694336 0 C-94.3703526045006 0, 64.3457434604324 0, 253.0864486694336 0 M-253.0864486694336 0 C-62.464514381003454 0, 128.15741990742669 0, 253.0864486694336 0 M253.0864486694336 0 C253.0864486694336 9.660851938224019, 253.0864486694336 19.321703876448037, 253.0864486694336 40.75 M253.0864486694336 0 C253.0864486694336 13.78999821591504, 253.0864486694336 27.57999643183008, 253.0864486694336 40.75 M253.0864486694336 40.75 C92.28381710404625 40.75, -68.5188144613411 40.75, -253.0864486694336 40.75 M253.0864486694336 40.75 C69.05274539317219 40.75, -114.98095788308922 40.75, -253.0864486694336 40.75 M-253.0864486694336 40.75 C-253.0864486694336 31.302748453657323, -253.0864486694336 21.85549690731465, -253.0864486694336 0 M-253.0864486694336 40.75 C-253.0864486694336 31.83578977593146, -253.0864486694336 22.921579551862916, -253.0864486694336 0" stroke="#9370DB" stroke-width="1.3" fill="none" stroke-dasharray="0 0"/></g><g style="" class="row-rect-even"><path d="M-253.0864486694336 40.75 L253.0864486694336 40.75 L253.0864486694336 81.5 L-253.0864486694336 81.5" stroke="none" stroke-width="0" fill="hsl(240, 100%, 97.2745098039%)"/><path d="M-253.0864486694336 40.75 C-93.75681738100008 40.75, 65.57281390743344 40.75, 253.0864486694336 40.75 M-253.0864486694336 40.75 C-96.0001584032548 40.75, 61.08613186292399 40.75, 253.0864486694336 40.75 M253.0864486694336 40.75 C253.0864486694336 53.3380751712651, 253.0864486694336 65.9261503425302, 253.0864486694336 81.5 M253.0864486694336 40.75 C253.0864486694336 52.37815195428524, 253.0864486694336 64.00630390857047, 253.0864486694336 81.5 M253.0864486694336 81.5 C57.72177939443711 81.5, -137.64288988055938 81.5, -253.0864486694336 81.5 M253.0864486694336 81.5 C135.86219596680897 81.5, 18.637943264184344 81.5, -253.0864486694336 81.5 M-253.0864486694336 81.5 C-253.0864486694336 71.8245837426117, -253.0864486694336 62.14916748522339, -253.0864486694336 40.75 M-253.0864486694336 81.5 C-253.0864486694336 65.58757017112579, -253.0864486694336 49.67514034225158, -253.0864486694336 40.75" stroke="#9370DB" stroke-width="1.3" fill="none" stroke-dasharray="0 0"/></g><g style="" class="row-rect-odd"><path d="M-253.0864486694336 81.5 L253.0864486694336 81.5 L253.0864486694336 122.25 L-253.0864486694336 122.25" stroke="none" stroke-width="0" fill="hsl(240, 100%, 100%)"/><path d="M-253.0864486694336 81.5 C-71.5303375024047 81.5, 110.02577366462418 81.5, 253.0864486694336 81.5 M-253.0864486694336 81.5 C-117.38871899991167 81.5, 18.309010669610245 81.5, 253.0864486694336 81.5 M253.0864486694336 81.5 C253.0864486694336 97.55983479496338, 253.0864486694336 113.61966958992676, 253.0864486694336 122.25 M253.0864486694336 81.5 C253.0864486694336 95.2091645958316, 253.0864486694336 108.91832919166319, 253.0864486694336 122.25 M253.0864486694336 122.25 C102.8968892825682 122.25, -47.2926701042972 122.25, -253.0864486694336 122.25 M253.0864486694336 122.25 C140.7049708314746 122.25, 28.323492993515657 122.25, -253.0864486694336 122.25 M-253.0864486694336 122.25 C-253.0864486694336 111.46267013551133, -253.0864486694336 100.67534027102266, -253.0864486694336 81.5 M-253.0864486694336 122.25 C-253.0864486694336 107.73522725822028, -253.0864486694336 93.22045451644055, -253.0864486694336 81.5" stroke="#9370DB" stroke-width="1.3" fill="none" stroke-dasharray="0 0"/></g><g class="label name" transform="translate(-33.6171875, -112.875)" style=""><g><rect class="background" style="stroke: none"/></g><text y="-10.1" style=""><tspan class="text-outer-tspan row" x="0" y="-0.1em" dy="1.1em"><tspan font-style="normal" class="text-inner-tspan" font-weight="normal">concepts</tspan></tspan></text></g><g class="label attribute-type" transform="translate(-240.5864486694336, -72.125)" style=""><g><rect class="background" style="stroke: none"/></g><text y="-10.1" style=""><tspan class="text-outer-tspan row" x="0" y="-0.1em" dy="1.1em"><tspan font-style="normal" class="text-inner-tspan" font-weight="normal">TEXT</tspan></tspan></text></g><g class="label attribute-name" transform="translate(-179.41840362548828, -72.125)" style=""><g><rect class="background" style="stroke: none"/></g><text y="-10.1" style=""><tspan class="text-outer-tspan row" x="0" y="-0.1em" dy="1.1em"><tspan font-style="normal" class="text-inner-tspan" font-weight="normal">id</tspan></tspan></text></g><g class="label attribute-keys" transform="translate(-82.43402862548828, -72.125)" style=""><g><rect class="background" style="stroke: none"/></g><text y="-10.1" style=""><tspan class="text-outer-tspan row" x="0" y="-0.1em" dy="1.1em"><tspan font-style="normal" class="text-inner-tspan" font-weight="normal">PK</tspan></tspan></text></g><g class="label attribute-comment" transform="translate(-37.754005432128906, -72.125)" style=""><g><rect class="background" style="stroke: none"/></g><text y="-10.1" style=""><tspan class="text-outer-tspan row" x="0" y="-0.1em" dy="1.1em"/></text></g><g class="label attribute-type" transform="translate(-240.5864486694336, -31.375)" style=""><g><rect class="background" style="stroke: none"/></g><text y="-10.1" style=""><tspan class="text-outer-tspan row" x="0" y="-0.1em" dy="1.1em"><tspan font-style="normal" class="text-inner-tspan" font-weight="normal">TEXT</tspan></tspan></text></g><g class="label attribute-name" transform="translate(-179.41840362548828, -31.375)" style=""><g><rect class="background" style="stroke: none"/></g><text y="-10.1" style=""><tspan class="text-outer-tspan row" x="0" y="-0.1em" dy="1.1em"><tspan font-style="normal" class="text-inner-tspan" font-weight="normal">label</tspan></tspan></text></g><g class="label attribute-keys" transform="translate(-82.43402862548828, -31.375)" style=""><g><rect class="background" style="stroke: none"/></g><text y="-10.1" style=""><tspan class="text-outer-tspan row" x="0" y="-0.1em" dy="1.1em"/></text></g><g class="label attribute-comment" transform="translate(-37.754005432128906, -31.375)" style=""><g><rect class="background" style="stroke: none"/></g><text y="-10.1" style=""><tspan class="text-outer-tspan row" x="0" y="-0.1em" dy="1.1em"/></text></g><g class="label attribute-type" transform="translate(-240.5864486694336, 9.375)" style=""><g><rect class="background" style="stroke: none"/></g><text y="-10.1" style=""><tspan class="text-outer-tspan row" x="0" y="-0.1em" dy="1.1em"><tspan font-style="normal" class="text-inner-tspan" font-weight="normal">TEXT</tspan></tspan></text></g><g class="label attribute-name" transform="translate(-179.41840362548828, 9.375)" style=""><g><rect class="background" style="stroke: none"/></g><text y="-10.1" style=""><tspan class="text-outer-tspan row" x="0" y="-0.1em" dy="1.1em"><tspan font-style="normal" class="text-inner-tspan" font-weight="normal">domain</tspan></tspan></text></g><g class="label attribute-keys" transform="translate(-82.43402862548828, 9.375)" style=""><g><rect class="background" style="stroke: none"/></g><text y="-10.1" style=""><tspan class="text-outer-tspan row" x="0" y="-0.1em" dy="1.1em"/></text></g><g class="label attribute-comment" transform="translate(-37.754005432128906, 9.375)" style=""><g><rect class="background" style="stroke: none"/></g><text y="-10.1" style=""><tspan class="text-outer-tspan row" x="0" y="-0.1em" dy="1.1em"><tspan font-style="normal" class="text-inner-tspan" font-weight="normal">kept;</tspan><tspan font-style="normal" class="text-inner-tspan" font-weight="normal"> derivable</tspan><tspan font-style="normal" class="text-inner-tspan" font-weight="normal"> from</tspan><tspan font-style="normal" class="text-inner-tspan" font-weight="normal"> family_id</tspan></tspan></text></g><g class="label attribute-type" transform="translate(-240.5864486694336, 50.125)" style=""><g><rect class="background" style="stroke: none"/></g><text y="-10.1" style=""><tspan class="text-outer-tspan row" x="0" y="-0.1em" dy="1.1em"><tspan font-style="normal" class="text-inner-tspan" font-weight="normal">TEXT</tspan></tspan></text></g><g class="label attribute-name" transform="translate(-179.41840362548828, 50.125)" style=""><g><rect class="background" style="stroke: none"/></g><text y="-10.1" style=""><tspan class="text-outer-tspan row" x="0" y="-0.1em" dy="1.1em"><tspan font-style="normal" class="text-inner-tspan" font-weight="normal">definition</tspan></tspan></text></g><g class="label attribute-keys" transform="translate(-82.43402862548828, 50.125)" style=""><g><rect class="background" style="stroke: none"/></g><text y="-10.1" style=""><tspan class="text-outer-tspan row" x="0" y="-0.1em" dy="1.1em"/></text></g><g class="label attribute-comment" transform="translate(-37.754005432128906, 50.125)" style=""><g><rect class="background" style="stroke: none"/></g><text y="-10.1" style=""><tspan class="text-outer-tspan row" x="0" y="-0.1em" dy="1.1em"/></text></g><g class="label attribute-type" transform="translate(-240.5864486694336, 90.875)" style=""><g><rect class="background" style="stroke: none"/></g><text y="-10.1" style=""><tspan class="text-outer-tspan row" x="0" y="-0.1em" dy="1.1em"><tspan font-style="normal" class="text-inner-tspan" font-weight="normal">TEXT</tspan></tspan></text></g><g class="label attribute-name" transform="translate(-179.41840362548828, 90.875)" style=""><g><rect class="background" style="stroke: none"/></g><text y="-10.1" style=""><tspan class="text-outer-tspan row" x="0" y="-0.1em" dy="1.1em"><tspan font-style="normal" class="text-inner-tspan" font-weight="normal">family_id</tspan></tspan></text></g><g class="label attribute-keys" transform="translate(-82.43402862548828, 90.875)" style=""><g><rect class="background" style="stroke: none"/></g><text y="-10.1" style=""><tspan class="text-outer-tspan row" x="0" y="-0.1em" dy="1.1em"><tspan font-style="normal" class="text-inner-tspan" font-weight="normal">FK</tspan></tspan></text></g><g class="label attribute-comment" transform="translate(-37.754005432128906, 90.875)" style=""><g><rect class="background" style="stroke: none"/></g><text y="-10.1" style=""><tspan class="text-outer-tspan row" x="0" y="-0.1em" dy="1.1em"><tspan font-style="normal" class="text-inner-tspan" font-weight="normal">NEW</tspan><tspan font-style="normal" class="text-inner-tspan" font-weight="normal"> —</tspan><tspan font-style="normal" class="text-inner-tspan" font-weight="normal"> denormalised</tspan><tspan font-style="normal" class="text-inner-tspan" font-weight="normal"> primary</tspan><tspan font-style="normal" class="text-inner-tspan" font-weight="normal"> family</tspan></tspan></text></g><g class="divider"><path d="M-253.0864486694336 -81.50005 L-253.0864486694336 -81.49995 L253.0864486694336 -81.49995 L253.0864486694336 -81.50005" stroke="none" stroke-width="0" fill="#ECECFF" fill-rule="evenodd"/><path d="M-253.0864486694336 -81.50005 C-253.0864486694336 -81.50002978991759, -253.0864486694336 -81.50000957983518, -253.0864486694336 -81.49995 M-253.0864486694336 -81.50005 C-253.0864486694336 -81.50001966233476, -253.0864486694336 -81.49998932466953, -253.0864486694336 -81.49995 M-253.0864486694336 -81.49995 C-86.3330472516842 -81.49995, 80.42035416606518 -81.49995, 253.0864486694336 -81.49995 M-253.0864486694336 -81.49995 C-72.39121596949079 -81.49995, 108.30401673045202 -81.49995, 253.0864486694336 -81.49995 M253.0864486694336 -81.49995 C253.0864486694336 -81.49998022644057, 253.0864486694336 -81.50001045288114, 253.0864486694336 -81.50005 M253.0864486694336 -81.49995 C253.0864486694336 -81.49998762722879, 253.0864486694336 -81.50002525445757, 253.0864486694336 -81.50005 M253.0864486694336 -81.50005 C87.33864269238342 -81.50005, -78.40916328466676 -81.50005, -253.0864486694336 -81.50005 M253.0864486694336 -81.50005 C83.13278722780402 -81.50005, -86.82087421382556 -81.50005, -253.0864486694336 -81.50005" stroke="#9370DB" stroke-width="1.3" fill="none" stroke-dasharray="0 0"/></g><g class="divider"><path d="M-191.91845362548827 -81.5 L-191.9183536254883 -81.5 L-191.9183536254883 122.25 L-191.91845362548827 122.25" stroke="none" stroke-width="0" fill="#ECECFF" fill-rule="evenodd"/><path d="M-191.91845362548827 -81.5 C-191.91841389683577 -81.5, -191.91837416818328 -81.5, -191.9183536254883 -81.5 M-191.91845362548827 -81.5 C-191.91842226842618 -81.5, -191.91839091136407 -81.5, -191.9183536254883 -81.5 M-191.9183536254883 -81.5 C-191.9183536254883 -29.31329334696266, -191.9183536254883 22.87341330607468, -191.9183536254883 122.25 M-191.9183536254883 -81.5 C-191.9183536254883 -17.017014114291527, -191.9183536254883 47.465971771416946, -191.9183536254883 122.25 M-191.9183536254883 122.25 C-191.91837632221024 122.25, -191.91839901893215 122.25, -191.91845362548827 122.25 M-191.9183536254883 122.25 C-191.91839151559782 122.25, -191.91842940570734 122.25, -191.91845362548827 122.25 M-191.91845362548827 122.25 C-191.91845362548827 70.0588314661945, -191.91845362548827 17.86766293238901, -191.91845362548827 -81.5 M-191.91845362548827 122.25 C-191.91845362548827 57.64818730283508, -191.91845362548827 -6.953625394329833, -191.91845362548827 -81.5" stroke="#9370DB" stroke-width="1.3" fill="none" stroke-dasharray="0 0"/></g><g class="divider"><path d="M-94.93407862548828 -81.5 L-94.93397862548828 -81.5 L-94.93397862548828 122.25 L-94.93407862548828 122.25" stroke="none" stroke-width="0" fill="#ECECFF" fill-rule="evenodd"/><path d="M-94.93407862548828 -81.5 C-94.93404481401973 -81.5, -94.93401100255119 -81.5, -94.93397862548828 -81.5 M-94.93407862548828 -81.5 C-94.93404441997795 -81.5, -94.93401021446762 -81.5, -94.93397862548828 -81.5 M-94.93397862548828 -81.5 C-94.93397862548828 -32.37377861277498, -94.93397862548828 16.752442774450046, -94.93397862548828 122.25 M-94.93397862548828 -81.5 C-94.93397862548828 -36.07376915537927, -94.93397862548828 9.352461689241466, -94.93397862548828 122.25 M-94.93397862548828 122.25 C-94.9340131979949 122.25, -94.93404777050154 122.25, -94.93407862548828 122.25 M-94.93397862548828 122.25 C-94.93401514011742 122.25, -94.93405165474657 122.25, -94.93407862548828 122.25 M-94.93407862548828 122.25 C-94.93407862548828 46.01456938224533, -94.93407862548828 -30.220861235509346, -94.93407862548828 -81.5 M-94.93407862548828 122.25 C-94.93407862548828 55.70185735059779, -94.93407862548828 -10.846285298804418, -94.93407862548828 -81.5" stroke="#9370DB" stroke-width="1.3" fill="none" stroke-dasharray="0 0"/></g><g class="divider"><path d="M-50.25405543212891 -81.5 L-50.253955432128905 -81.5 L-50.253955432128905 122.25 L-50.25405543212891 122.25" stroke="none" stroke-width="0" fill="#ECECFF" fill-rule="evenodd"/><path d="M-50.25405543212891 -81.5 C-50.254028082282225 -81.5, -50.25400073243554 -81.5, -50.253955432128905 -81.5 M-50.25405543212891 -81.5 C-50.254026410407036 -81.5, -50.25399738868516 -81.5, -50.253955432128905 -81.5 M-50.253955432128905 -81.5 C-50.253955432128905 -9.344513530052652, -50.253955432128905 62.8109729398947, -50.253955432128905 122.25 M-50.253955432128905 -81.5 C-50.253955432128905 -6.887005745755715, -50.253955432128905 67.72598850848857, -50.253955432128905 122.25 M-50.253955432128905 122.25 C-50.253989893581526 122.25, -50.25402435503415 122.25, -50.25405543212891 122.25 M-50.253955432128905 122.25 C-50.25398291953849 122.25, -50.25401040694807 122.25, -50.25405543212891 122.25 M-50.25405543212891 122.25 C-50.25405543212891 56.1015122051827, -50.25405543212891 -10.046975589634599, -50.25405543212891 -81.5 M-50.25405543212891 122.25 C-50.25405543212891 75.02736843695361, -50.25405543212891 27.804736873907217, -50.25405543212891 -81.5" stroke="#9370DB" stroke-width="1.3" fill="none" stroke-dasharray="0 0"/></g><g class="divider"><path d="M-253.0864486694336 -81.50005 L-253.0864486694336 -81.49995 L253.0864486694336 -81.49995 L253.0864486694336 -81.50005" stroke="none" stroke-width="0" fill="#ECECFF" fill-rule="evenodd"/><path d="M-253.0864486694336 -81.50005 C-253.0864486694336 -81.50001522493878, -253.0864486694336 -81.49998044987754, -253.0864486694336 -81.49995 M-253.0864486694336 -81.50005 C-253.0864486694336 -81.50001870125942, -253.0864486694336 -81.49998740251884, -253.0864486694336 -81.49995 M-253.0864486694336 -81.49995 C-84.8379160248974 -81.49995, 83.4106166196388 -81.49995, 253.0864486694336 -81.49995 M-253.0864486694336 -81.49995 C-73.31444232224356 -81.49995, 106.45756402494646 -81.49995, 253.0864486694336 -81.49995 M253.0864486694336 -81.49995 C253.0864486694336 -81.49998055965551, 253.0864486694336 -81.50001111931101, 253.0864486694336 -81.50005 M253.0864486694336 -81.49995 C253.0864486694336 -81.4999814818321, 253.0864486694336 -81.50001296366419, 253.0864486694336 -81.50005 M253.0864486694336 -81.50005 C124.51757812209317 -81.50005, -4.051292425247254 -81.50005, -253.0864486694336 -81.50005 M253.0864486694336 -81.50005 C113.129839596052 -81.50005, -26.826769477329606 -81.50005, -253.0864486694336 -81.50005" stroke="#9370DB" stroke-width="1.3" fill="none" stroke-dasharray="0 0"/></g></g><g class="node default" id="my-svg-entity-concept_families-1" data-look="classic" transform="translate(691.9764251708984, 130.25)"><g class="outer-path" style=""><path d="M-237.38912963867188 -122.25 L237.38912963867188 -122.25 L237.38912963867188 122.25 L-237.38912963867188 122.25" stroke="none" stroke-width="0" fill="#ECECFF"/><path d="M-237.38912963867188 -122.25 C-73.43244220202624 -122.25, 90.5242452346194 -122.25, 237.38912963867188 -122.25 M-237.38912963867188 -122.25 C-79.61594680868703 -122.25, 78.15723602129782 -122.25, 237.38912963867188 -122.25 M237.38912963867188 -122.25 C237.38912963867188 -69.46830837421214, 237.38912963867188 -16.6866167484243, 237.38912963867188 122.25 M237.38912963867188 -122.25 C237.38912963867188 -32.225138120949765, 237.38912963867188 57.79972375810047, 237.38912963867188 122.25 M237.38912963867188 122.25 C139.64530105990067 122.25, 41.901472481129474 122.25, -237.38912963867188 122.25 M237.38912963867188 122.25 C73.70423424289541 122.25, -89.98066115288105 122.25, -237.38912963867188 122.25 M-237.38912963867188 122.25 C-237.38912963867188 71.60889842882803, -237.38912963867188 20.967796857656054, -237.38912963867188 -122.25 M-237.38912963867188 122.25 C-237.38912963867188 54.16163075859629, -237.38912963867188 -13.926738482807423, -237.38912963867188 -122.25" stroke="#9370DB" stroke-width="1.3" fill="none" stroke-dasharray="0 0"/></g><g style="" class="row-rect-odd"><path d="M-237.38912963867188 -81.5 L237.38912963867188 -81.5 L237.38912963867188 -40.75 L-237.38912963867188 -40.75" stroke="none" stroke-width="0" fill="hsl(240, 100%, 100%)"/><path d="M-237.38912963867188 -81.5 C-90.67542290095332 -81.5, 56.03828383676523 -81.5, 237.38912963867188 -81.5 M-237.38912963867188 -81.5 C-105.90681522568795 -81.5, 25.575499187295975 -81.5, 237.38912963867188 -81.5 M237.38912963867188 -81.5 C237.38912963867188 -65.20176331079887, 237.38912963867188 -48.90352662159774, 237.38912963867188 -40.75 M237.38912963867188 -81.5 C237.38912963867188 -66.12495955337614, 237.38912963867188 -50.74991910675227, 237.38912963867188 -40.75 M237.38912963867188 -40.75 C85.56312891479686 -40.75, -66.26287180907815 -40.75, -237.38912963867188 -40.75 M237.38912963867188 -40.75 C89.22723303394349 -40.75, -58.93466357078489 -40.75, -237.38912963867188 -40.75 M-237.38912963867188 -40.75 C-237.38912963867188 -56.07821771066919, -237.38912963867188 -71.40643542133839, -237.38912963867188 -81.5 M-237.38912963867188 -40.75 C-237.38912963867188 -53.71560934071005, -237.38912963867188 -66.6812186814201, -237.38912963867188 -81.5" stroke="#9370DB" stroke-width="1.3" fill="none" stroke-dasharray="0 0"/></g><g style="" class="row-rect-even"><path d="M-237.38912963867188 -40.75 L237.38912963867188 -40.75 L237.38912963867188 0 L-237.38912963867188 0" stroke="none" stroke-width="0" fill="hsl(240, 100%, 97.2745098039%)"/><path d="M-237.38912963867188 -40.75 C-60.214642551776876 -40.75, 116.95984453511812 -40.75, 237.38912963867188 -40.75 M-237.38912963867188 -40.75 C-52.54149428465078 -40.75, 132.3061410693703 -40.75, 237.38912963867188 -40.75 M237.38912963867188 -40.75 C237.38912963867188 -25.27880936923166, 237.38912963867188 -9.807618738463322, 237.38912963867188 0 M237.38912963867188 -40.75 C237.38912963867188 -31.435061194468688, 237.38912963867188 -22.12012238893737, 237.38912963867188 0 M237.38912963867188 0 C114.736761681576 0, -7.9156062755198775 0, -237.38912963867188 0 M237.38912963867188 0 C57.999261490379695 0, -121.39060665791249 0, -237.38912963867188 0 M-237.38912963867188 0 C-237.38912963867188 -12.96155291736218, -237.38912963867188 -25.92310583472436, -237.38912963867188 -40.75 M-237.38912963867188 0 C-237.38912963867188 -15.07292707697083, -237.38912963867188 -30.14585415394166, -237.38912963867188 -40.75" stroke="#9370DB" stroke-width="1.3" fill="none" stroke-dasharray="0 0"/></g><g style="" class="row-rect-odd"><path d="M-237.38912963867188 0 L237.38912963867188 0 L237.38912963867188 40.75 L-237.38912963867188 40.75" stroke="none" stroke-width="0" fill="hsl(240, 100%, 100%)"/><path d="M-237.38912963867188 0 C-127.74524388116664 0, -18.101358123661413 0, 237.38912963867188 0 M-237.38912963867188 0 C-82.4120869480121 0, 72.56495574264767 0, 237.38912963867188 0 M237.38912963867188 0 C237.38912963867188 8.50456458788036, 237.38912963867188 17.00912917576072, 237.38912963867188 40.75 M237.38912963867188 0 C237.38912963867188 8.735226757698562, 237.38912963867188 17.470453515397125, 237.38912963867188 40.75 M237.38912963867188 40.75 C113.14846775963079 40.75, -11.092194119410294 40.75, -237.38912963867188 40.75 M237.38912963867188 40.75 C121.39117957987426 40.75, 5.393229521076648 40.75, -237.38912963867188 40.75 M-237.38912963867188 40.75 C-237.38912963867188 28.999588141978943, -237.38912963867188 17.249176283957887, -237.38912963867188 0 M-237.38912963867188 40.75 C-237.38912963867188 24.966068298793175, -237.38912963867188 9.182136597586346, -237.38912963867188 0" stroke="#9370DB" stroke-width="1.3" fill="none" stroke-dasharray="0 0"/></g><g style="" class="row-rect-even"><path d="M-237.38912963867188 40.75 L237.38912963867188 40.75 L237.38912963867188 81.5 L-237.38912963867188 81.5" stroke="none" stroke-width="0" fill="hsl(240, 100%, 97.2745098039%)"/><path d="M-237.38912963867188 40.75 C-47.726088463837186 40.75, 141.9369527109975 40.75, 237.38912963867188 40.75 M-237.38912963867188 40.75 C-104.6767011941958 40.75, 28.035727250280274 40.75, 237.38912963867188 40.75 M237.38912963867188 40.75 C237.38912963867188 53.624767661093514, 237.38912963867188 66.49953532218703, 237.38912963867188 81.5 M237.38912963867188 40.75 C237.38912963867188 52.25019620005878, 237.38912963867188 63.75039240011756, 237.38912963867188 81.5 M237.38912963867188 81.5 C118.17379151063871 81.5, -1.0415466173944594 81.5, -237.38912963867188 81.5 M237.38912963867188 81.5 C128.23142233796938 81.5, 19.07371503726688 81.5, -237.38912963867188 81.5 M-237.38912963867188 81.5 C-237.38912963867188 69.95652932054338, -237.38912963867188 58.41305864108678, -237.38912963867188 40.75 M-237.38912963867188 81.5 C-237.38912963867188 66.72973597077302, -237.38912963867188 51.95947194154604, -237.38912963867188 40.75" stroke="#9370DB" stroke-width="1.3" fill="none" stroke-dasharray="0 0"/></g><g style="" class="row-rect-odd"><path d="M-237.38912963867188 81.5 L237.38912963867188 81.5 L237.38912963867188 122.25 L-237.38912963867188 122.25" stroke="none" stroke-width="0" fill="hsl(240, 100%, 100%)"/><path d="M-237.38912963867188 81.5 C-79.16703033158342 81.5, 79.05506897550504 81.5, 237.38912963867188 81.5 M-237.38912963867188 81.5 C-61.432106849501054 81.5, 114.52491593966977 81.5, 237.38912963867188 81.5 M237.38912963867188 81.5 C237.38912963867188 92.1883219635917, 237.38912963867188 102.87664392718341, 237.38912963867188 122.25 M237.38912963867188 81.5 C237.38912963867188 94.88587104721476, 237.38912963867188 108.27174209442953, 237.38912963867188 122.25 M237.38912963867188 122.25 C127.57261750823395 122.25, 17.75610537779602 122.25, -237.38912963867188 122.25 M237.38912963867188 122.25 C49.747306923995296 122.25, -137.89451579068128 122.25, -237.38912963867188 122.25 M-237.38912963867188 122.25 C-237.38912963867188 114.04678523059715, -237.38912963867188 105.84357046119432, -237.38912963867188 81.5 M-237.38912963867188 122.25 C-237.38912963867188 108.44822477811931, -237.38912963867188 94.64644955623862, -237.38912963867188 81.5" stroke="#9370DB" stroke-width="1.3" fill="none" stroke-dasharray="0 0"/></g><g class="label name" transform="translate(-62.59375, -112.875)" style=""><g><rect class="background" style="stroke: none"/></g><text y="-10.1" style=""><tspan class="text-outer-tspan row" x="0" y="-0.1em" dy="1.1em"><tspan font-style="normal" class="text-inner-tspan" font-weight="normal">concept_families</tspan></tspan></text></g><g class="label attribute-type" transform="translate(-224.88912963867188, -72.125)" style=""><g><rect class="background" style="stroke: none"/></g><text y="-10.1" style=""><tspan class="text-outer-tspan row" x="0" y="-0.1em" dy="1.1em"><tspan font-style="normal" class="text-inner-tspan" font-weight="normal">TEXT</tspan></tspan></text></g><g class="label attribute-name" transform="translate(-107.3289794921875, -72.125)" style=""><g><rect class="background" style="stroke: none"/></g><text y="-10.1" style=""><tspan class="text-outer-tspan row" x="0" y="-0.1em" dy="1.1em"><tspan font-style="normal" class="text-inner-tspan" font-weight="normal">id</tspan></tspan></text></g><g class="label attribute-keys" transform="translate(-10.3446044921875, -72.125)" style=""><g><rect class="background" style="stroke: none"/></g><text y="-10.1" style=""><tspan class="text-outer-tspan row" x="0" y="-0.1em" dy="1.1em"><tspan font-style="normal" class="text-inner-tspan" font-weight="normal">PK</tspan></tspan></text></g><g class="label attribute-comment" transform="translate(34.335418701171875, -72.125)" style=""><g><rect class="background" style="stroke: none"/></g><text y="-10.1" style=""><tspan class="text-outer-tspan row" x="0" y="-0.1em" dy="1.1em"><tspan font-style="normal" class="text-inner-tspan" font-weight="normal">domain</tspan><tspan font-style="normal" class="text-inner-tspan" font-weight="normal"> or</tspan><tspan font-style="normal" class="text-inner-tspan" font-weight="normal"> domain.family</tspan></tspan></text></g><g class="label attribute-type" transform="translate(-224.88912963867188, -31.375)" style=""><g><rect class="background" style="stroke: none"/></g><text y="-10.1" style=""><tspan class="text-outer-tspan row" x="0" y="-0.1em" dy="1.1em"><tspan font-style="normal" class="text-inner-tspan" font-weight="normal">TEXT</tspan></tspan></text></g><g class="label attribute-name" transform="translate(-107.3289794921875, -31.375)" style=""><g><rect class="background" style="stroke: none"/></g><text y="-10.1" style=""><tspan class="text-outer-tspan row" x="0" y="-0.1em" dy="1.1em"><tspan font-style="normal" class="text-inner-tspan" font-weight="normal">parent_id</tspan></tspan></text></g><g class="label attribute-keys" transform="translate(-10.3446044921875, -31.375)" style=""><g><rect class="background" style="stroke: none"/></g><text y="-10.1" style=""><tspan class="text-outer-tspan row" x="0" y="-0.1em" dy="1.1em"><tspan font-style="normal" class="text-inner-tspan" font-weight="normal">FK</tspan></tspan></text></g><g class="label attribute-comment" transform="translate(34.335418701171875, -31.375)" style=""><g><rect class="background" style="stroke: none"/></g><text y="-10.1" style=""><tspan class="text-outer-tspan row" x="0" y="-0.1em" dy="1.1em"><tspan font-style="normal" class="text-inner-tspan" font-weight="normal">NULL</tspan><tspan font-style="normal" class="text-inner-tspan" font-weight="normal"> for</tspan><tspan font-style="normal" class="text-inner-tspan" font-weight="normal"> domain</tspan><tspan font-style="normal" class="text-inner-tspan" font-weight="normal"> rows</tspan></tspan></text></g><g class="label attribute-type" transform="translate(-224.88912963867188, 9.375)" style=""><g><rect class="background" style="stroke: none"/></g><text y="-10.1" style=""><tspan class="text-outer-tspan row" x="0" y="-0.1em" dy="1.1em"><tspan font-style="normal" class="text-inner-tspan" font-weight="normal">TEXT</tspan></tspan></text></g><g class="label attribute-name" transform="translate(-107.3289794921875, 9.375)" style=""><g><rect class="background" style="stroke: none"/></g><text y="-10.1" style=""><tspan class="text-outer-tspan row" x="0" y="-0.1em" dy="1.1em"><tspan font-style="normal" class="text-inner-tspan" font-weight="normal">label</tspan></tspan></text></g><g class="label attribute-keys" transform="translate(-10.3446044921875, 9.375)" style=""><g><rect class="background" style="stroke: none"/></g><text y="-10.1" style=""><tspan class="text-outer-tspan row" x="0" y="-0.1em" dy="1.1em"/></text></g><g class="label attribute-comment" transform="translate(34.335418701171875, 9.375)" style=""><g><rect class="background" style="stroke: none"/></g><text y="-10.1" style=""><tspan class="text-outer-tspan row" x="0" y="-0.1em" dy="1.1em"/></text></g><g class="label attribute-type" transform="translate(-224.88912963867188, 50.125)" style=""><g><rect class="background" style="stroke: none"/></g><text y="-10.1" style=""><tspan class="text-outer-tspan row" x="0" y="-0.1em" dy="1.1em"><tspan font-style="normal" class="text-inner-tspan" font-weight="normal">TEXT</tspan></tspan></text></g><g class="label attribute-name" transform="translate(-107.3289794921875, 50.125)" style=""><g><rect class="background" style="stroke: none"/></g><text y="-10.1" style=""><tspan class="text-outer-tspan row" x="0" y="-0.1em" dy="1.1em"><tspan font-style="normal" class="text-inner-tspan" font-weight="normal">definition</tspan></tspan></text></g><g class="label attribute-keys" transform="translate(-10.3446044921875, 50.125)" style=""><g><rect class="background" style="stroke: none"/></g><text y="-10.1" style=""><tspan class="text-outer-tspan row" x="0" y="-0.1em" dy="1.1em"/></text></g><g class="label attribute-comment" transform="translate(34.335418701171875, 50.125)" style=""><g><rect class="background" style="stroke: none"/></g><text y="-10.1" style=""><tspan class="text-outer-tspan row" x="0" y="-0.1em" dy="1.1em"/></text></g><g class="label attribute-type" transform="translate(-224.88912963867188, 90.875)" style=""><g><rect class="background" style="stroke: none"/></g><text y="-10.1" style=""><tspan class="text-outer-tspan row" x="0" y="-0.1em" dy="1.1em"><tspan font-style="normal" class="text-inner-tspan" font-weight="normal">TEXT_ARRAY</tspan></tspan></text></g><g class="label attribute-name" transform="translate(-107.3289794921875, 90.875)" style=""><g><rect class="background" style="stroke: none"/></g><text y="-10.1" style=""><tspan class="text-outer-tspan row" x="0" y="-0.1em" dy="1.1em"><tspan font-style="normal" class="text-inner-tspan" font-weight="normal">aliases</tspan></tspan></text></g><g class="label attribute-keys" transform="translate(-10.3446044921875, 90.875)" style=""><g><rect class="background" style="stroke: none"/></g><text y="-10.1" style=""><tspan class="text-outer-tspan row" x="0" y="-0.1em" dy="1.1em"/></text></g><g class="label attribute-comment" transform="translate(34.335418701171875, 90.875)" style=""><g><rect class="background" style="stroke: none"/></g><text y="-10.1" style=""><tspan class="text-outer-tspan row" x="0" y="-0.1em" dy="1.1em"><tspan font-style="normal" class="text-inner-tspan" font-weight="normal">native</tspan><tspan font-style="normal" class="text-inner-tspan" font-weight="normal"> TEXT[]</tspan></tspan></text></g><g class="divider"><path d="M-237.38912963867188 -81.50005 L-237.38912963867188 -81.49995 L237.38912963867188 -81.49995 L237.38912963867188 -81.50005" stroke="none" stroke-width="0" fill="#ECECFF" fill-rule="evenodd"/><path d="M-237.38912963867188 -81.50005 C-237.38912963867188 -81.5000172306291, -237.38912963867188 -81.49998446125821, -237.38912963867188 -81.49995 M-237.38912963867188 -81.50005 C-237.38912963867188 -81.5000148690425, -237.38912963867188 -81.499979738085, -237.38912963867188 -81.49995 M-237.38912963867188 -81.49995 C-99.60715006640316 -81.49995, 38.174829505865546 -81.49995, 237.38912963867188 -81.49995 M-237.38912963867188 -81.49995 C-120.25927832117469 -81.49995, -3.129427003677506 -81.49995, 237.38912963867188 -81.49995 M237.38912963867188 -81.49995 C237.38912963867188 -81.49997912728921, 237.38912963867188 -81.5000082545784, 237.38912963867188 -81.50005 M237.38912963867188 -81.49995 C237.38912963867188 -81.4999711529841, 237.38912963867188 -81.49999230596822, 237.38912963867188 -81.50005 M237.38912963867188 -81.50005 C68.62774166934432 -81.50005, -100.13364629998324 -81.50005, -237.38912963867188 -81.50005 M237.38912963867188 -81.50005 C107.89247491744732 -81.50005, -21.604179803777242 -81.50005, -237.38912963867188 -81.50005" stroke="#9370DB" stroke-width="1.3" fill="none" stroke-dasharray="0 0"/></g><g class="divider"><path d="M-119.8290294921875 -81.5 L-119.8289294921875 -81.5 L-119.8289294921875 122.25 L-119.8290294921875 122.25" stroke="none" stroke-width="0" fill="#ECECFF" fill-rule="evenodd"/><path d="M-119.8290294921875 -81.5 C-119.82900597018354 -81.5, -119.82898244817959 -81.5, -119.8289294921875 -81.5 M-119.8290294921875 -81.5 C-119.8290048972707 -81.5, -119.82898030235393 -81.5, -119.8289294921875 -81.5 M-119.8289294921875 -81.5 C-119.8289294921875 -33.94265195149891, -119.8289294921875 13.61469609700218, -119.8289294921875 122.25 M-119.8289294921875 -81.5 C-119.8289294921875 -38.47095050531084, -119.8289294921875 4.558098989378323, -119.8289294921875 122.25 M-119.8289294921875 122.25 C-119.82896500430667 122.25, -119.82900051642582 122.25, -119.8290294921875 122.25 M-119.8289294921875 122.25 C-119.82896166896762 122.25, -119.82899384574773 122.25, -119.8290294921875 122.25 M-119.8290294921875 122.25 C-119.8290294921875 71.159252022168, -119.8290294921875 20.06850404433601, -119.8290294921875 -81.5 M-119.8290294921875 122.25 C-119.8290294921875 62.05538821421245, -119.8290294921875 1.8607764284248987, -119.8290294921875 -81.5" stroke="#9370DB" stroke-width="1.3" fill="none" stroke-dasharray="0 0"/></g><g class="divider"><path d="M-22.8446544921875 -81.5 L-22.8445544921875 -81.5 L-22.8445544921875 122.25 L-22.8446544921875 122.25" stroke="none" stroke-width="0" fill="#ECECFF" fill-rule="evenodd"/><path d="M-22.8446544921875 -81.5 C-22.844628646367756 -81.5, -22.84460280054801 -81.5, -22.8445544921875 -81.5 M-22.8446544921875 -81.5 C-22.844622124468476 -81.5, -22.844589756749453 -81.5, -22.8445544921875 -81.5 M-22.8445544921875 -81.5 C-22.8445544921875 -37.07208232119928, -22.8445544921875 7.3558353576014355, -22.8445544921875 122.25 M-22.8445544921875 -81.5 C-22.8445544921875 -6.895954361987762, -22.8445544921875 67.70809127602448, -22.8445544921875 122.25 M-22.8445544921875 122.25 C-22.84459172964585 122.25, -22.8446289671042 122.25, -22.8446544921875 122.25 M-22.8445544921875 122.25 C-22.8445796590903 122.25, -22.844604825993102 122.25, -22.8446544921875 122.25 M-22.8446544921875 122.25 C-22.8446544921875 50.6621793790699, -22.8446544921875 -20.925641241860205, -22.8446544921875 -81.5 M-22.8446544921875 122.25 C-22.8446544921875 56.933437808984664, -22.8446544921875 -8.383124382030672, -22.8446544921875 -81.5" stroke="#9370DB" stroke-width="1.3" fill="none" stroke-dasharray="0 0"/></g><g class="divider"><path d="M21.835368701171873 -81.5 L21.835468701171877 -81.5 L21.835468701171877 122.25 L21.835368701171873 122.25" stroke="none" stroke-width="0" fill="#ECECFF" fill-rule="evenodd"/><path d="M21.835368701171873 -81.5 C21.83539112828976 -81.5, 21.835413555407648 -81.5, 21.835468701171877 -81.5 M21.835368701171873 -81.5 C21.83539301086187 -81.5, 21.835417320551866 -81.5, 21.835468701171877 -81.5 M21.835468701171877 -81.5 C21.835468701171877 -11.744575420998345, 21.835468701171877 58.01084915800331, 21.835468701171877 122.25 M21.835468701171877 -81.5 C21.835468701171877 -33.552016052850824, 21.835468701171877 14.395967894298352, 21.835468701171877 122.25 M21.835468701171877 122.25 C21.835433014984023 122.25, 21.835397328796173 122.25, 21.835368701171873 122.25 M21.835468701171877 122.25 C21.835437238262386 122.25, 21.835405775352893 122.25, 21.835368701171873 122.25 M21.835368701171873 122.25 C21.835368701171873 58.22198649897629, 21.835368701171873 -5.806027002047415, 21.835368701171873 -81.5 M21.835368701171873 122.25 C21.835368701171873 72.73489393010495, 21.835368701171873 23.21978786020989, 21.835368701171873 -81.5" stroke="#9370DB" stroke-width="1.3" fill="none" stroke-dasharray="0 0"/></g><g class="divider"><path d="M-237.38912963867188 -81.50005 L-237.38912963867188 -81.49995 L237.38912963867188 -81.49995 L237.38912963867188 -81.50005" stroke="none" stroke-width="0" fill="#ECECFF" fill-rule="evenodd"/><path d="M-237.38912963867188 -81.50005 C-237.38912963867188 -81.50002774329764, -237.38912963867188 -81.50000548659528, -237.38912963867188 -81.49995 M-237.38912963867188 -81.50005 C-237.38912963867188 -81.5000266854624, -237.38912963867188 -81.50000337092479, -237.38912963867188 -81.49995 M-237.38912963867188 -81.49995 C-63.1026497424219 -81.49995, 111.18383015382807 -81.49995, 237.38912963867188 -81.49995 M-237.38912963867188 -81.49995 C-58.43579855590389 -81.49995, 120.5175325268641 -81.49995, 237.38912963867188 -81.49995 M237.38912963867188 -81.49995 C237.38912963867188 -81.49997537177069, 237.38912963867188 -81.50000074354136, 237.38912963867188 -81.50005 M237.38912963867188 -81.49995 C237.38912963867188 -81.49998233623207, 237.38912963867188 -81.50001467246413, 237.38912963867188 -81.50005 M237.38912963867188 -81.50005 C61.986737182328056 -81.50005, -113.41565527401576 -81.50005, -237.38912963867188 -81.50005 M237.38912963867188 -81.50005 C91.96081269811668 -81.50005, -53.46750424243851 -81.50005, -237.38912963867188 -81.50005" stroke="#9370DB" stroke-width="1.3" fill="none" stroke-dasharray="0 0"/></g></g><g class="node default" id="my-svg-entity-concept_family_membership-2" data-look="classic" transform="translate(144.43960571289062, 825.6999969482422)"><g class="outer-path" style=""><path d="M-136.4395980834961 -81.5 L136.4395980834961 -81.5 L136.4395980834961 81.5 L-136.4395980834961 81.5" stroke="none" stroke-width="0" fill="#ECECFF"/><path d="M-136.4395980834961 -81.5 C-61.25430641471996 -81.5, 13.930985254056168 -81.5, 136.4395980834961 -81.5 M-136.4395980834961 -81.5 C-64.08265119068882 -81.5, 8.274295702118451 -81.5, 136.4395980834961 -81.5 M136.4395980834961 -81.5 C136.4395980834961 -37.619406191473296, 136.4395980834961 6.261187617053409, 136.4395980834961 81.5 M136.4395980834961 -81.5 C136.4395980834961 -35.54102193679663, 136.4395980834961 10.417956126406736, 136.4395980834961 81.5 M136.4395980834961 81.5 C54.348643668217704 81.5, -27.742310747060685 81.5, -136.4395980834961 81.5 M136.4395980834961 81.5 C28.456698429865824 81.5, -79.52620122376445 81.5, -136.4395980834961 81.5 M-136.4395980834961 81.5 C-136.4395980834961 46.86240163997015, -136.4395980834961 12.224803279940303, -136.4395980834961 -81.5 M-136.4395980834961 81.5 C-136.4395980834961 24.951737118057373, -136.4395980834961 -31.596525763885253, -136.4395980834961 -81.5" stroke="#9370DB" stroke-width="1.3" fill="none" stroke-dasharray="0 0"/></g><g style="" class="row-rect-odd"><path d="M-136.4395980834961 -40.75 L136.4395980834961 -40.75 L136.4395980834961 0 L-136.4395980834961 0" stroke="none" stroke-width="0" fill="hsl(240, 100%, 100%)"/><path d="M-136.4395980834961 -40.75 C-48.64286060600203 -40.75, 39.15387687149203 -40.75, 136.4395980834961 -40.75 M-136.4395980834961 -40.75 C-77.1909461841804 -40.75, -17.942294284864715 -40.75, 136.4395980834961 -40.75 M136.4395980834961 -40.75 C136.4395980834961 -26.94929757042602, 136.4395980834961 -13.148595140852041, 136.4395980834961 0 M136.4395980834961 -40.75 C136.4395980834961 -28.26858928179604, 136.4395980834961 -15.787178563592075, 136.4395980834961 0 M136.4395980834961 0 C53.38237867470059 0, -29.674840734094914 0, -136.4395980834961 0 M136.4395980834961 0 C43.049594216764305 0, -50.340409649967484 0, -136.4395980834961 0 M-136.4395980834961 0 C-136.4395980834961 -11.37394301997734, -136.4395980834961 -22.74788603995468, -136.4395980834961 -40.75 M-136.4395980834961 0 C-136.4395980834961 -14.461906088075276, -136.4395980834961 -28.923812176150552, -136.4395980834961 -40.75" stroke="#9370DB" stroke-width="1.3" fill="none" stroke-dasharray="0 0"/></g><g style="" class="row-rect-even"><path d="M-136.4395980834961 0 L136.4395980834961 0 L136.4395980834961 40.75 L-136.4395980834961 40.75" stroke="none" stroke-width="0" fill="hsl(240, 100%, 97.2745098039%)"/><path d="M-136.4395980834961 0 C-53.33854667114525 0, 29.76250474120559 0, 136.4395980834961 0 M-136.4395980834961 0 C-79.10861092503819 0, -21.77762376658029 0, 136.4395980834961 0 M136.4395980834961 0 C136.4395980834961 8.81542685660445, 136.4395980834961 17.6308537132089, 136.4395980834961 40.75 M136.4395980834961 0 C136.4395980834961 15.29592137122231, 136.4395980834961 30.59184274244462, 136.4395980834961 40.75 M136.4395980834961 40.75 C37.1134882994794 40.75, -62.212621484537294 40.75, -136.4395980834961 40.75 M136.4395980834961 40.75 C59.433439976275466 40.75, -17.572718130945162 40.75, -136.4395980834961 40.75 M-136.4395980834961 40.75 C-136.4395980834961 25.851932522272165, -136.4395980834961 10.953865044544333, -136.4395980834961 0 M-136.4395980834961 40.75 C-136.4395980834961 31.02525265025752, -136.4395980834961 21.300505300515038, -136.4395980834961 0" stroke="#9370DB" stroke-width="1.3" fill="none" stroke-dasharray="0 0"/></g><g style="" class="row-rect-odd"><path d="M-136.4395980834961 40.75 L136.4395980834961 40.75 L136.4395980834961 81.5 L-136.4395980834961 81.5" stroke="none" stroke-width="0" fill="hsl(240, 100%, 100%)"/><path d="M-136.4395980834961 40.75 C-75.81359245445017 40.75, -15.187586825404253 40.75, 136.4395980834961 40.75 M-136.4395980834961 40.75 C-53.405850521809256 40.75, 29.62789703987758 40.75, 136.4395980834961 40.75 M136.4395980834961 40.75 C136.4395980834961 54.48102846232739, 136.4395980834961 68.21205692465477, 136.4395980834961 81.5 M136.4395980834961 40.75 C136.4395980834961 52.97271446982506, 136.4395980834961 65.19542893965011, 136.4395980834961 81.5 M136.4395980834961 81.5 C67.55483806183379 81.5, -1.3299219598285106 81.5, -136.4395980834961 81.5 M136.4395980834961 81.5 C59.680125634467274 81.5, -17.079346814561546 81.5, -136.4395980834961 81.5 M-136.4395980834961 81.5 C-136.4395980834961 65.95693098805391, -136.4395980834961 50.41386197610784, -136.4395980834961 40.75 M-136.4395980834961 81.5 C-136.4395980834961 73.30579132042904, -136.4395980834961 65.11158264085807, -136.4395980834961 40.75" stroke="#9370DB" stroke-width="1.3" fill="none" stroke-dasharray="0 0"/></g><g class="label name" transform="translate(-107.7890625, -72.125)" style=""><g><rect class="background" style="stroke: none"/></g><text y="-10.1" style=""><tspan class="text-outer-tspan row" x="0" y="-0.1em" dy="1.1em"><tspan font-style="normal" class="text-inner-tspan" font-weight="normal">concept_family_membership</tspan></tspan></text></g><g class="label attribute-type" transform="translate(-123.9395980834961, -31.375)" style=""><g><rect class="background" style="stroke: none"/></g><text y="-10.1" style=""><tspan class="text-outer-tspan row" x="0" y="-0.1em" dy="1.1em"><tspan font-style="normal" class="text-inner-tspan" font-weight="normal">TEXT</tspan></tspan></text></g><g class="label attribute-name" transform="translate(-23.877098083496094, -31.375)" style=""><g><rect class="background" style="stroke: none"/></g><text y="-10.1" style=""><tspan class="text-outer-tspan row" x="0" y="-0.1em" dy="1.1em"><tspan font-style="normal" class="text-inner-tspan" font-weight="normal">concept_id</tspan></tspan></text></g><g class="label attribute-keys" transform="translate(81.7635269165039, -31.375)" style=""><g><rect class="background" style="stroke: none"/></g><text y="-10.1" style=""><tspan class="text-outer-tspan row" x="0" y="-0.1em" dy="1.1em"><tspan font-style="normal" class="text-inner-tspan" font-weight="normal">PK,FK</tspan></tspan></text></g><g class="label attribute-comment" transform="translate(148.9395980834961, -31.375)" style=""><g><rect class="background" style="stroke: none"/></g><text y="-10.1" style=""><tspan class="text-outer-tspan row" x="0" y="-0.1em" dy="1.1em"/></text></g><g class="label attribute-type" transform="translate(-123.9395980834961, 9.375)" style=""><g><rect class="background" style="stroke: none"/></g><text y="-10.1" style=""><tspan class="text-outer-tspan row" x="0" y="-0.1em" dy="1.1em"><tspan font-style="normal" class="text-inner-tspan" font-weight="normal">TEXT</tspan></tspan></text></g><g class="label attribute-name" transform="translate(-23.877098083496094, 9.375)" style=""><g><rect class="background" style="stroke: none"/></g><text y="-10.1" style=""><tspan class="text-outer-tspan row" x="0" y="-0.1em" dy="1.1em"><tspan font-style="normal" class="text-inner-tspan" font-weight="normal">family_id</tspan></tspan></text></g><g class="label attribute-keys" transform="translate(81.7635269165039, 9.375)" style=""><g><rect class="background" style="stroke: none"/></g><text y="-10.1" style=""><tspan class="text-outer-tspan row" x="0" y="-0.1em" dy="1.1em"><tspan font-style="normal" class="text-inner-tspan" font-weight="normal">PK,FK</tspan></tspan></text></g><g class="label attribute-comment" transform="translate(148.9395980834961, 9.375)" style=""><g><rect class="background" style="stroke: none"/></g><text y="-10.1" style=""><tspan class="text-outer-tspan row" x="0" y="-0.1em" dy="1.1em"/></text></g><g class="label attribute-type" transform="translate(-123.9395980834961, 50.125)" style=""><g><rect class="background" style="stroke: none"/></g><text y="-10.1" style=""><tspan class="text-outer-tspan row" x="0" y="-0.1em" dy="1.1em"><tspan font-style="normal" class="text-inner-tspan" font-weight="normal">BOOLEAN</tspan></tspan></text></g><g class="label attribute-name" transform="translate(-23.877098083496094, 50.125)" style=""><g><rect class="background" style="stroke: none"/></g><text y="-10.1" style=""><tspan class="text-outer-tspan row" x="0" y="-0.1em" dy="1.1em"><tspan font-style="normal" class="text-inner-tspan" font-weight="normal">is_primary</tspan></tspan></text></g><g class="label attribute-keys" transform="translate(81.7635269165039, 50.125)" style=""><g><rect class="background" style="stroke: none"/></g><text y="-10.1" style=""><tspan class="text-outer-tspan row" x="0" y="-0.1em" dy="1.1em"/></text></g><g class="label attribute-comment" transform="translate(148.9395980834961, 50.125)" style=""><g><rect class="background" style="stroke: none"/></g><text y="-10.1" style=""><tspan class="text-outer-tspan row" x="0" y="-0.1em" dy="1.1em"/></text></g><g class="divider"><path d="M-136.4395980834961 -40.75005 L-136.4395980834961 -40.74995 L136.4395980834961 -40.74995 L136.4395980834961 -40.75005" stroke="none" stroke-width="0" fill="#ECECFF" fill-rule="evenodd"/><path d="M-136.4395980834961 -40.75005 C-136.4395980834961 -40.750013398356614, -136.4395980834961 -40.74997679671323, -136.4395980834961 -40.74995 M-136.4395980834961 -40.75005 C-136.4395980834961 -40.75002084778803, -136.4395980834961 -40.74999169557606, -136.4395980834961 -40.74995 M-136.4395980834961 -40.74995 C-55.20417201826287 -40.74995, 26.03125404697036 -40.74995, 136.4395980834961 -40.74995 M-136.4395980834961 -40.74995 C-45.883107142182325 -40.74995, 44.67338379913144 -40.74995, 136.4395980834961 -40.74995 M136.4395980834961 -40.74995 C136.4395980834961 -40.749980745739734, 136.4395980834961 -40.750011491479476, 136.4395980834961 -40.75005 M136.4395980834961 -40.74995 C136.4395980834961 -40.74998366886249, 136.4395980834961 -40.75001733772498, 136.4395980834961 -40.75005 M136.4395980834961 -40.75005 C52.4164418455191 -40.75005, -31.60671439245789 -40.75005, -136.4395980834961 -40.75005 M136.4395980834961 -40.75005 C69.68018692428384 -40.75005, 2.920775765071596 -40.75005, -136.4395980834961 -40.75005" stroke="#9370DB" stroke-width="1.3" fill="none" stroke-dasharray="0 0"/></g><g class="divider"><path d="M-36.377148083496095 -40.75 L-36.37704808349609 -40.75 L-36.37704808349609 81.5 L-36.377148083496095 81.5" stroke="none" stroke-width="0" fill="#ECECFF" fill-rule="evenodd"/><path d="M-36.377148083496095 -40.75 C-36.3771135457944 -40.75, -36.37707900809271 -40.75, -36.37704808349609 -40.75 M-36.377148083496095 -40.75 C-36.377127476651744 -40.75, -36.377106869807385 -40.75, -36.37704808349609 -40.75 M-36.37704808349609 -40.75 C-36.37704808349609 -10.13214562130442, -36.37704808349609 20.48570875739116, -36.37704808349609 81.5 M-36.37704808349609 -40.75 C-36.37704808349609 -13.215198369012512, -36.37704808349609 14.319603261974976, -36.37704808349609 81.5 M-36.37704808349609 81.5 C-36.37707207413192 81.5, -36.37709606476774 81.5, -36.377148083496095 81.5 M-36.37704808349609 81.5 C-36.377079488740925 81.5, -36.37711089398576 81.5, -36.377148083496095 81.5 M-36.377148083496095 81.5 C-36.377148083496095 38.66060799001218, -36.377148083496095 -4.178784019975637, -36.377148083496095 -40.75 M-36.377148083496095 81.5 C-36.377148083496095 46.878119720695935, -36.377148083496095 12.25623944139187, -36.377148083496095 -40.75" stroke="#9370DB" stroke-width="1.3" fill="none" stroke-dasharray="0 0"/></g><g class="divider"><path d="M69.2634769165039 -40.75 L69.26357691650391 -40.75 L69.26357691650391 81.5 L69.2634769165039 81.5" stroke="none" stroke-width="0" fill="#ECECFF" fill-rule="evenodd"/><path d="M69.2634769165039 -40.75 C69.26349740682473 -40.75, 69.26351789714555 -40.75, 69.26357691650391 -40.75 M69.2634769165039 -40.75 C69.26351400901318 -40.75, 69.26355110152247 -40.75, 69.26357691650391 -40.75 M69.26357691650391 -40.75 C69.26357691650391 -7.8067075312440295, 69.26357691650391 25.13658493751194, 69.26357691650391 81.5 M69.26357691650391 -40.75 C69.26357691650391 -5.635228457204356, 69.26357691650391 29.47954308559129, 69.26357691650391 81.5 M69.26357691650391 81.5 C69.2635514069687 81.5, 69.2635258974335 81.5, 69.2634769165039 81.5 M69.26357691650391 81.5 C69.26353714403506 81.5, 69.26349737156619 81.5, 69.2634769165039 81.5 M69.2634769165039 81.5 C69.2634769165039 47.93124303434572, 69.2634769165039 14.362486068691439, 69.2634769165039 -40.75 M69.2634769165039 81.5 C69.2634769165039 48.24138748168198, 69.2634769165039 14.982774963363966, 69.2634769165039 -40.75" stroke="#9370DB" stroke-width="1.3" fill="none" stroke-dasharray="0 0"/></g><g class="divider"><path d="M-136.4395980834961 -40.75005 L-136.4395980834961 -40.74995 L136.4395980834961 -40.74995 L136.4395980834961 -40.75005" stroke="none" stroke-width="0" fill="#ECECFF" fill-rule="evenodd"/><path d="M-136.4395980834961 -40.75005 C-136.4395980834961 -40.7500160795963, -136.4395980834961 -40.74998215919259, -136.4395980834961 -40.74995 M-136.4395980834961 -40.75005 C-136.4395980834961 -40.750014904838686, -136.4395980834961 -40.74997980967736, -136.4395980834961 -40.74995 M-136.4395980834961 -40.74995 C-33.794190566210574 -40.74995, 68.85121695107495 -40.74995, 136.4395980834961 -40.74995 M-136.4395980834961 -40.74995 C-70.15951074333924 -40.74995, -3.879423403182386 -40.74995, 136.4395980834961 -40.74995 M136.4395980834961 -40.74995 C136.4395980834961 -40.74998484340688, 136.4395980834961 -40.75001968681376, 136.4395980834961 -40.75005 M136.4395980834961 -40.74995 C136.4395980834961 -40.74997443979897, 136.4395980834961 -40.74999887959793, 136.4395980834961 -40.75005 M136.4395980834961 -40.75005 C37.53223812272583 -40.75005, -61.375121838044436 -40.75005, -136.4395980834961 -40.75005 M136.4395980834961 -40.75005 C37.902012549730316 -40.75005, -60.63557298403546 -40.75005, -136.4395980834961 -40.75005" stroke="#9370DB" stroke-width="1.3" fill="none" stroke-dasharray="0 0"/></g></g><g class="node default" id="my-svg-entity-concept_aliases-3" data-look="classic" transform="translate(577.7535095214844, 825.6999969482422)"><g class="outer-path" style=""><path d="M-116.99237060546875 -61.125 L116.99237060546875 -61.125 L116.99237060546875 61.125 L-116.99237060546875 61.125" stroke="none" stroke-width="0" fill="#ECECFF"/><path d="M-116.99237060546875 -61.125 C-68.6337792048893 -61.125, -20.27518780430985 -61.125, 116.99237060546875 -61.125 M-116.99237060546875 -61.125 C-40.621652660846834 -61.125, 35.74906528377508 -61.125, 116.99237060546875 -61.125 M116.99237060546875 -61.125 C116.99237060546875 -29.129276594515858, 116.99237060546875 2.8664468109682844, 116.99237060546875 61.125 M116.99237060546875 -61.125 C116.99237060546875 -14.845943601705997, 116.99237060546875 31.433112796588006, 116.99237060546875 61.125 M116.99237060546875 61.125 C39.765857666372554 61.125, -37.46065527272364 61.125, -116.99237060546875 61.125 M116.99237060546875 61.125 C69.87777139204368 61.125, 22.763172178618618 61.125, -116.99237060546875 61.125 M-116.99237060546875 61.125 C-116.99237060546875 14.15705929549091, -116.99237060546875 -32.81088140901818, -116.99237060546875 -61.125 M-116.99237060546875 61.125 C-116.99237060546875 30.08734468599136, -116.99237060546875 -0.9503106280172773, -116.99237060546875 -61.125" stroke="#9370DB" stroke-width="1.3" fill="none" stroke-dasharray="0 0"/></g><g style="" class="row-rect-odd"><path d="M-116.99237060546875 -20.375 L116.99237060546875 -20.375 L116.99237060546875 20.375 L-116.99237060546875 20.375" stroke="none" stroke-width="0" fill="hsl(240, 100%, 100%)"/><path d="M-116.99237060546875 -20.375 C-66.17609554996389 -20.375, -15.359820494459015 -20.375, 116.99237060546875 -20.375 M-116.99237060546875 -20.375 C-29.02052975597826 -20.375, 58.95131109351223 -20.375, 116.99237060546875 -20.375 M116.99237060546875 -20.375 C116.99237060546875 -6.06780079251735, 116.99237060546875 8.2393984149653, 116.99237060546875 20.375 M116.99237060546875 -20.375 C116.99237060546875 -8.197420927755477, 116.99237060546875 3.980158144489046, 116.99237060546875 20.375 M116.99237060546875 20.375 C25.502380422361355 20.375, -65.98760976074604 20.375, -116.99237060546875 20.375 M116.99237060546875 20.375 C29.31080093366397 20.375, -58.37076873814081 20.375, -116.99237060546875 20.375 M-116.99237060546875 20.375 C-116.99237060546875 8.1897874705534, -116.99237060546875 -3.9954250588932005, -116.99237060546875 -20.375 M-116.99237060546875 20.375 C-116.99237060546875 9.159828199507517, -116.99237060546875 -2.0553436009849655, -116.99237060546875 -20.375" stroke="#9370DB" stroke-width="1.3" fill="none" stroke-dasharray="0 0"/></g><g style="" class="row-rect-even"><path d="M-116.99237060546875 20.375 L116.99237060546875 20.375 L116.99237060546875 61.125 L-116.99237060546875 61.125" stroke="none" stroke-width="0" fill="hsl(240, 100%, 97.2745098039%)"/><path d="M-116.99237060546875 20.375 C-48.523307441985736 20.375, 19.945755721497278 20.375, 116.99237060546875 20.375 M-116.99237060546875 20.375 C-44.82170569264778 20.375, 27.348959220173185 20.375, 116.99237060546875 20.375 M116.99237060546875 20.375 C116.99237060546875 30.147454271614347, 116.99237060546875 39.91990854322869, 116.99237060546875 61.125 M116.99237060546875 20.375 C116.99237060546875 28.66427240905665, 116.99237060546875 36.9535448181133, 116.99237060546875 61.125 M116.99237060546875 61.125 C47.819373393422495 61.125, -21.35362381862376 61.125, -116.99237060546875 61.125 M116.99237060546875 61.125 C27.35032371066508 61.125, -62.29172318413859 61.125, -116.99237060546875 61.125 M-116.99237060546875 61.125 C-116.99237060546875 52.557274697359325, -116.99237060546875 43.98954939471865, -116.99237060546875 20.375 M-116.99237060546875 61.125 C-116.99237060546875 45.33595729276127, -116.99237060546875 29.546914585522547, -116.99237060546875 20.375" stroke="#9370DB" stroke-width="1.3" fill="none" stroke-dasharray="0 0"/></g><g class="label name" transform="translate(-58.6171875, -51.75)" style=""><g><rect class="background" style="stroke: none"/></g><text y="-10.1" style=""><tspan class="text-outer-tspan row" x="0" y="-0.1em" dy="1.1em"><tspan font-style="normal" class="text-inner-tspan" font-weight="normal">concept_aliases</tspan></tspan></text></g><g class="label attribute-type" transform="translate(-104.49237060546875, -11)" style=""><g><rect class="background" style="stroke: none"/></g><text y="-10.1" style=""><tspan class="text-outer-tspan row" x="0" y="-0.1em" dy="1.1em"><tspan font-style="normal" class="text-inner-tspan" font-weight="normal">TEXT</tspan></tspan></text></g><g class="label attribute-name" transform="translate(-43.32432556152344, -11)" style=""><g><rect class="background" style="stroke: none"/></g><text y="-10.1" style=""><tspan class="text-outer-tspan row" x="0" y="-0.1em" dy="1.1em"><tspan font-style="normal" class="text-inner-tspan" font-weight="normal">concept_id</tspan></tspan></text></g><g class="label attribute-keys" transform="translate(62.31629943847656, -11)" style=""><g><rect class="background" style="stroke: none"/></g><text y="-10.1" style=""><tspan class="text-outer-tspan row" x="0" y="-0.1em" dy="1.1em"><tspan font-style="normal" class="text-inner-tspan" font-weight="normal">PK,FK</tspan></tspan></text></g><g class="label attribute-comment" transform="translate(129.49237060546875, -11)" style=""><g><rect class="background" style="stroke: none"/></g><text y="-10.1" style=""><tspan class="text-outer-tspan row" x="0" y="-0.1em" dy="1.1em"/></text></g><g class="label attribute-type" transform="translate(-104.49237060546875, 29.75)" style=""><g><rect class="background" style="stroke: none"/></g><text y="-10.1" style=""><tspan class="text-outer-tspan row" x="0" y="-0.1em" dy="1.1em"><tspan font-style="normal" class="text-inner-tspan" font-weight="normal">TEXT</tspan></tspan></text></g><g class="label attribute-name" transform="translate(-43.32432556152344, 29.75)" style=""><g><rect class="background" style="stroke: none"/></g><text y="-10.1" style=""><tspan class="text-outer-tspan row" x="0" y="-0.1em" dy="1.1em"><tspan font-style="normal" class="text-inner-tspan" font-weight="normal">alias</tspan></tspan></text></g><g class="label attribute-keys" transform="translate(62.31629943847656, 29.75)" style=""><g><rect class="background" style="stroke: none"/></g><text y="-10.1" style=""><tspan class="text-outer-tspan row" x="0" y="-0.1em" dy="1.1em"><tspan font-style="normal" class="text-inner-tspan" font-weight="normal">PK</tspan></tspan></text></g><g class="label attribute-comment" transform="translate(129.49237060546875, 29.75)" style=""><g><rect class="background" style="stroke: none"/></g><text y="-10.1" style=""><tspan class="text-outer-tspan row" x="0" y="-0.1em" dy="1.1em"/></text></g><g class="divider"><path d="M-116.99237060546875 -20.37505 L-116.99237060546875 -20.37495 L116.99237060546875 -20.37495 L116.99237060546875 -20.37505" stroke="none" stroke-width="0" fill="#ECECFF" fill-rule="evenodd"/><path d="M-116.99237060546875 -20.37505 C-116.99237060546875 -20.37502226440418, -116.99237060546875 -20.374994528808354, -116.99237060546875 -20.37495 M-116.99237060546875 -20.37505 C-116.99237060546875 -20.375028835446393, -116.99237060546875 -20.375007670892785, -116.99237060546875 -20.37495 M-116.99237060546875 -20.37495 C-35.57124427237984 -20.37495, 45.849882060709064 -20.37495, 116.99237060546875 -20.37495 M-116.99237060546875 -20.37495 C-41.225772244398186 -20.37495, 34.54082611667238 -20.37495, 116.99237060546875 -20.37495 M116.99237060546875 -20.37495 C116.99237060546875 -20.374978687560617, 116.99237060546875 -20.37500737512124, 116.99237060546875 -20.37505 M116.99237060546875 -20.37495 C116.99237060546875 -20.374970809529543, 116.99237060546875 -20.374991619059088, 116.99237060546875 -20.37505 M116.99237060546875 -20.37505 C27.13521057194197 -20.37505, -62.72194946158481 -20.37505, -116.99237060546875 -20.37505 M116.99237060546875 -20.37505 C56.44987673505409 -20.37505, -4.09261713536057 -20.37505, -116.99237060546875 -20.37505" stroke="#9370DB" stroke-width="1.3" fill="none" stroke-dasharray="0 0"/></g><g class="divider"><path d="M-55.82437556152344 -20.375 L-55.824275561523436 -20.375 L-55.824275561523436 61.125 L-55.82437556152344 61.125" stroke="none" stroke-width="0" fill="#ECECFF" fill-rule="evenodd"/><path d="M-55.82437556152344 -20.375 C-55.82434901286566 -20.375, -55.82432246420789 -20.375, -55.824275561523436 -20.375 M-55.82437556152344 -20.375 C-55.824354089535966 -20.375, -55.8243326175485 -20.375, -55.824275561523436 -20.375 M-55.824275561523436 -20.375 C-55.824275561523436 2.2240564741368267, -55.824275561523436 24.823112948273653, -55.824275561523436 61.125 M-55.824275561523436 -20.375 C-55.824275561523436 8.053467290906298, -55.824275561523436 36.481934581812595, -55.824275561523436 61.125 M-55.824275561523436 61.125 C-55.824310825208265 61.125, -55.82434608889309 61.125, -55.82437556152344 61.125 M-55.824275561523436 61.125 C-55.8243072059433 61.125, -55.82433885036316 61.125, -55.82437556152344 61.125 M-55.82437556152344 61.125 C-55.82437556152344 42.866132232454845, -55.82437556152344 24.607264464909697, -55.82437556152344 -20.375 M-55.82437556152344 61.125 C-55.82437556152344 32.333678394848675, -55.82437556152344 3.542356789697351, -55.82437556152344 -20.375" stroke="#9370DB" stroke-width="1.3" fill="none" stroke-dasharray="0 0"/></g><g class="divider"><path d="M49.81624943847656 -20.375 L49.816349438476564 -20.375 L49.816349438476564 61.125 L49.81624943847656 61.125" stroke="none" stroke-width="0" fill="#ECECFF" fill-rule="evenodd"/><path d="M49.81624943847656 -20.375 C49.81628751066115 -20.375, 49.816325582845735 -20.375, 49.816349438476564 -20.375 M49.81624943847656 -20.375 C49.8162816258843 -20.375, 49.81631381329204 -20.375, 49.816349438476564 -20.375 M49.816349438476564 -20.375 C49.816349438476564 9.747670169569474, 49.816349438476564 39.87034033913895, 49.816349438476564 61.125 M49.816349438476564 -20.375 C49.816349438476564 -0.09595871496462749, 49.816349438476564 20.183082570070745, 49.816349438476564 61.125 M49.816349438476564 61.125 C49.81631690536184 61.125, 49.816284372247104 61.125, 49.81624943847656 61.125 M49.816349438476564 61.125 C49.816328062619945 61.125, 49.816306686763326 61.125, 49.81624943847656 61.125 M49.81624943847656 61.125 C49.81624943847656 38.37752355414308, 49.81624943847656 15.630047108286163, 49.81624943847656 -20.375 M49.81624943847656 61.125 C49.81624943847656 42.22135004837069, 49.81624943847656 23.317700096741376, 49.81624943847656 -20.375" stroke="#9370DB" stroke-width="1.3" fill="none" stroke-dasharray="0 0"/></g><g class="divider"><path d="M-116.99237060546875 -20.37505 L-116.99237060546875 -20.37495 L116.99237060546875 -20.37495 L116.99237060546875 -20.37505" stroke="none" stroke-width="0" fill="#ECECFF" fill-rule="evenodd"/><path d="M-116.99237060546875 -20.37505 C-116.99237060546875 -20.37501165113093, -116.99237060546875 -20.374973302261854, -116.99237060546875 -20.37495 M-116.99237060546875 -20.37505 C-116.99237060546875 -20.375011524862696, -116.99237060546875 -20.37497304972539, -116.99237060546875 -20.37495 M-116.99237060546875 -20.37495 C-61.66761100128507 -20.37495, -6.342851397101384 -20.37495, 116.99237060546875 -20.37495 M-116.99237060546875 -20.37495 C-37.69364533788226 -20.37495, 41.60507992970423 -20.37495, 116.99237060546875 -20.37495 M116.99237060546875 -20.37495 C116.99237060546875 -20.374980651933484, 116.99237060546875 -20.375011303866973, 116.99237060546875 -20.37505 M116.99237060546875 -20.37495 C116.99237060546875 -20.37498242162038, 116.99237060546875 -20.375014843240766, 116.99237060546875 -20.37505 M116.99237060546875 -20.37505 C25.294854955971303 -20.37505, -66.40266069352614 -20.37505, -116.99237060546875 -20.37505 M116.99237060546875 -20.37505 C43.59735596152332 -20.37505, -29.79765868242211 -20.37505, -116.99237060546875 -20.37505" stroke="#9370DB" stroke-width="1.3" fill="none" stroke-dasharray="0 0"/></g></g><g class="label edgeLabel" id="entity-concept_families-1---entity-concept_families-1---1" transform="translate(961.6274703983217, 498.3499984741211)"><rect width="0.1" height="0.1"/><g class="label" style="" transform="translate(0, 0)"><rect/><g><rect class="background" style="stroke: none"/><text y="-10.1" style=""><tspan class="text-outer-tspan row" x="0" y="-0.1em" dy="1.1em"/></text></g></g></g><g class="label edgeLabel" id="entity-concept_families-1---entity-concept_families-1---2" transform="translate(917.2226966861635, 825.6999969482422)"><rect width="0.1" height="0.1"/><g class="label" style="" transform="translate(0, 0)"><rect/><g><rect class="background" style="stroke: none"/><text y="-10.1" style=""><tspan class="text-outer-tspan row" x="0" y="-0.1em" dy="1.1em"/></text></g></g></g></g></g></g><defs><filter id="my-svg-drop-shadow" height="130%" width="130%"><feDropShadow dx="4" dy="4" stdDeviation="0" flood-opacity="0.06" flood-color="#000000"/></filter></defs><defs><filter id="my-svg-drop-shadow-small" height="150%" width="150%"><feDropShadow dx="2" dy="2" stdDeviation="0" flood-opacity="0.06" flood-color="#000000"/></filter></defs></svg>