<svg id="my-svg" width="100%" xmlns="http://www.w3.org/2000/svg" xmlns:xlink="http://www.w3.org/1999/xlink" class="erDiagram" style="max-width: 1114.91px; background-color: white;" viewBox="0 0 1114.9130859375 915.2000122070312" role="graphics-document document" aria-roledescription="er"><rect x="0" y="0" width="1114.9130859375" height="915.2000122070312" fill="white"/><style>#my-svg{font-family:"trebuchet ms",verdana,arial,sans-serif;font-size:16px;fill:#333;}@keyframes edge-animation-frame{from{stroke-dashoffset:0;}}@keyframes dash{to{stroke-dashoffset:0;}}#my-svg .edge-animation-slow{stroke-dasharray:9,5!important;stroke-dashoffset:900;animation:dash 50s linear infinite;stroke-linecap:round;}#my-svg .edge-animation-fast{stroke-dasharray:9,5!important;stroke-dashoffset:900;animation:dash 20s linear infinite;stroke-linecap:round;}#my-svg .error-icon{fill:#552222;}#my-svg .error-text{fill:#552222;stroke:#552222;}#my-svg .edge-thickness-normal{stroke-width:1px;}#my-svg .edge-thickness-thick{stroke-width:3.5px;}#my-svg .edge-pattern-solid{stroke-dasharray:0;}#my-svg .edge-thickness-invisible{stroke-width:0;fill:none;}#my-svg .edge-pattern-dashed{stroke-dasharray:3;}#my-svg .edge-pattern-dotted{stroke-dasharray:2;}#my-svg .marker{fill:#333333;stroke:#333333;}#my-svg .marker.cross{stroke:#333333;}#my-svg svg{font-family:"trebuchet ms",verdana,arial,sans-serif;font-size:16px;}#my-svg p{margin:0;}#my-svg .entityBox{fill:#ECECFF;stroke:#9370DB;}#my-svg .relationshipLabelBox{fill:hsl(80, 100%, 96.2745098039%);opacity:0.7;background-color:hsl(80, 100%, 96.2745098039%);}#my-svg .relationshipLabelBox rect{opacity:0.5;}#my-svg .labelBkg{background-color:rgba(248.6666666666, 255, 235.9999999999, 0.5);}#my-svg .edgeLabel{background-color:rgba(232,232,232, 0.8);}#my-svg .edgeLabel .label rect{fill:rgba(232,232,232, 0.8);}#my-svg .edgeLabel .label text{fill:#333;}#my-svg .edgeLabel .label{fill:#9370DB;font-size:14px;}#my-svg .label{font-family:"trebuchet ms",verdana,arial,sans-serif;color:#333;}#my-svg .edge-pattern-dashed{stroke-dasharray:8,8;}#my-svg .node rect,#my-svg .node circle,#my-svg .node ellipse,#my-svg .node polygon{fill:#ECECFF;stroke:#9370DB;stroke-width:1px;}#my-svg .relationshipLine{stroke:#333333;stroke-width:1px;fill:none;}#my-svg .marker{fill:none!important;stroke:#333333!important;stroke-width:1;}#my-svg [data-look=neo].labelBkg{background-color:rgba(248.6666666666, 255, 235.9999999999, 0.5);}#my-svg .node .neo-node{stroke:#9370DB;}#my-svg [data-look="neo"].node rect,#my-svg [data-look="neo"].cluster rect,#my-svg [data-look="neo"].node polygon{stroke:#9370DB;filter:drop-shadow(1px 2px 2px rgba(185, 185, 185, 1));}#my-svg [data-look="neo"].node path{stroke:#9370DB;stroke-width:1px;}#my-svg [data-look="neo"].node .outer-path{filter:drop-shadow(1px 2px 2px rgba(185, 185, 185, 1));}#my-svg [data-look="neo"].node .neo-line path{stroke:#9370DB;filter:none;}#my-svg [data-look="neo"].node circle{stroke:#9370DB;filter:drop-shadow(1px 2px 2px rgba(185, 185, 185, 1));}#my-svg [data-look="neo"].node circle .state-start{fill:#000000;}#my-svg [data-look="neo"].icon-shape .icon{fill:#9370DB;filter:drop-shadow(1px 2px 2px rgba(185, 185, 185, 1));}#my-svg [data-look="neo"].icon-shape .icon-neo path{stroke:#9370DB;filter:drop-shadow(1px 2px 2px rgba(185, 185, 185, 1));}#my-svg :root{--mermaid-font-family:"trebuchet ms",verdana,arial,sans-serif;}</style><g><defs><marker id="my-svg_er-onlyOneStart" class="marker onlyOne er" refX="0" refY="9" markerWidth="18" markerHeight="18" orient="auto"><path d="M9,0 L9,18 M15,0 L15,18"/></marker></defs><defs><marker id="my-svg_er-onlyOneEnd" class="marker onlyOne er" refX="18" refY="9" markerWidth="18" markerHeight="18" orient="auto"><path d="M3,0 L3,18 M9,0 L9,18"/></marker></defs><defs><marker id="my-svg_er-zeroOrOneStart" class="marker zeroOrOne er" refX="0" refY="9" markerWidth="30" markerHeight="18" orient="auto"><circle fill="white" cx="21" cy="9" r="6"/><path d="M9,0 L9,18"/></marker></defs><defs><marker id="my-svg_er-zeroOrOneEnd" class="marker zeroOrOne er" refX="30" refY="9" markerWidth="30" markerHeight="18" orient="auto"><circle fill="white" cx="9" cy="9" r="6"/><path d="M21,0 L21,18"/></marker></defs><defs><marker id="my-svg_er-oneOrMoreStart" class="marker oneOrMore er" refX="18" refY="18" markerWidth="45" markerHeight="36" orient="auto"><path d="M0,18 Q 18,0 36,18 Q 18,36 0,18 M42,9 L42,27"/></marker></defs><defs><marker id="my-svg_er-oneOrMoreEnd" class="marker oneOrMore er" refX="27" refY="18" markerWidth="45" markerHeight="36" orient="auto"><path d="M3,9 L3,27 M9,18 Q27,0 45,18 Q27,36 9,18"/></marker></defs><defs><marker id="my-svg_er-zeroOrMoreStart" class="marker zeroOrMore er" refX="18" refY="18" markerWidth="57" markerHeight="36" orient="auto"><circle fill="white" cx="48" cy="18" r="6"/><path d="M0,18 Q18,0 36,18 Q18,36 0,18"/></marker></defs><defs><marker id="my-svg_er-zeroOrMoreEnd" class="marker zeroOrMore er" refX="39" refY="18" markerWidth="57" markerHeight="36" orient="auto"><circle fill="white" cx="9" cy="18" r="6"/><path d="M21,18 Q39,0 57,18 Q39,36 21,18"/></marker></defs><g class="root"><g class="clusters"/><g class="edgePaths"><path d="M942.279,252.5L958.224,262.8C974.169,273.1,1006.058,293.7,1022.003,334.667C1037.948,375.633,1037.948,436.967,1037.948,467.633L1037.948,498.3" id="my-svg-entity-concept_families-1-cyclic-special-1" class="edge-thickness-normal edge-pattern-solid relationshipLine" style="undefined;;;undefined" data-edge="true" data-et="edge" data-id="entity-concept_families-1-cyclic-special-1" data-points="W3sieCI6OTQyLjI3OTIxMDkzODMyMjYsInkiOjI1Mi41fSx7IngiOjEwMzcuOTQ3NTA4MjQwMTE4NiwieSI6MzE0LjI5OTk5OTIzNzA2MDU1fSx7IngiOjEwMzcuOTQ3NTA4MjQwMTE4NiwieSI6NDk4LjI5OTk5ODQ3MzM3NjA0fV0=" data-look="classic" marker-start="url(#my-svg_er-onlyOneStart)"/><path d="M1037.948,498.4L1037.948,529.067C1037.948,559.733,1037.948,621.067,1030.549,675.608C1023.151,730.15,1008.355,777.9,1000.956,801.775L993.558,825.65" id="my-svg-entity-concept_families-1-cyclic-special-mid" class="edge-thickness-normal edge-pattern-solid relationshipLine" style="undefined;;;undefined" data-edge="true" data-et="edge" data-id="entity-concept_families-1-cyclic-special-mid" data-points="W3sieCI6MTAzNy45NDc1MDgyNDAxMTg2LCJ5Ijo0OTguMzk5OTk4NDc0ODY2MTV9LHsieCI6MTAzNy45NDc1MDgyNDAxMTg2LCJ5Ijo2ODIuMzk5OTk3NzExMTgxNn0seyJ4Ijo5OTMuNTU4MjI4MTY4Nzg3NCwieSI6ODI1LjY0OTk5Njk0NzQ5NzF9XQ==" data-look="classic"/><path d="M993.527,825.65L986.129,801.775C978.731,777.9,963.934,730.15,956.536,675.6C949.138,621.05,949.138,559.7,949.138,498.35C949.138,437,949.138,375.65,938.163,334.675C927.189,293.7,905.239,273.1,894.265,262.8L883.29,252.5" id="my-svg-entity-concept_families-1-cyclic-special-2" class="edge-thickness-normal edge-pattern-solid relationshipLine" style="undefined;;;undefined" data-edge="true" data-et="edge" data-id="entity-concept_families-1-cyclic-special-2" data-points="W3sieCI6OTkzLjUyNzI0MDg4NzEzMzQsInkiOjgyNS42NDk5OTY5NDc0OTcxfSx7IngiOjk0OS4xMzc5NjA4MTU4MDIyLCJ5Ijo2ODIuMzk5OTk3NzExMTgxNn0seyJ4Ijo5NDkuMTM3OTYwODE1ODAyMiwieSI6NDk4LjM0OTk5ODQ3NDEyMTF9LHsieCI6OTQ5LjEzNzk2MDgxNTgwMjIsInkiOjMxNC4yOTk5OTkyMzcwNjA1NX0seyJ4Ijo4ODMuMjg5OTg0MDAyMDEyNSwieSI6MjUyLjV9XQ==" data-look="classic" marker-end="url(#my-svg_er-zeroOrMoreEnd)"/><path d="M642.411,252.5L633.091,262.8C623.77,273.1,605.13,293.7,595.809,314.3C586.489,334.9,586.489,355.5,586.489,365.8L586.489,376.1" id="my-svg-id_entity-concept_families-1_entity-concepts-0_1" class="edge-thickness-normal edge-pattern-solid relationshipLine" style="undefined;;;undefined" data-edge="true" data-et="edge" data-id="id_entity-concept_families-1_entity-concepts-0_1" data-points="W3sieCI6NjQyLjQxMDgzMjM3NjM0NjQsInkiOjI1Mi41fSx7IngiOjU4Ni40ODkyMjcyOTQ5MjE5LCJ5IjozMTQuMjk5OTk5MjM3MDYwNTV9LHsieCI6NTg2LjQ4OTIyNzI5NDkyMTksInkiOjM3Ni4wOTk5OTg0NzQxMjExfV0=" data-look="classic" marker-start="url(#my-svg_er-onlyOneStart)" marker-end="url(#my-svg_er-zeroOrMoreEnd)"/><path d="M435.549,620.6L422.832,630.9C410.114,641.2,384.68,661.8,358.717,682.4C332.755,703,306.264,723.6,293.018,733.9L279.773,744.2" id="my-svg-id_entity-concepts-0_entity-concept_family_membership-2_2" class="edge-thickness-normal edge-pattern-solid relationshipLine" style="undefined;;;undefined" data-edge="true" data-et="edge" data-id="id_entity-concepts-0_entity-concept_family_membership-2_2" data-points="W3sieCI6NDM1LjU0ODgzMzI4MTk3OTksInkiOjYyMC41OTk5OTg0NzQxMjExfSx7IngiOjM1OS4yNDUyMjM5OTkwMjM0NCwieSI6NjgyLjM5OTk5NzcxMTE4MTZ9LHsieCI6Mjc5Ljc3MzA5NzAyOTkxMjgsInkiOjc0NC4xOTk5OTY5NDgyNDIyfV0=" data-look="classic" marker-start="url(#my-svg_er-onlyOneStart)" marker-end="url(#my-svg_er-zeroOrMoreEnd)"/><path d="M485.511,211.07L428.56,228.275C371.609,245.48,257.708,279.89,200.758,327.77C143.807,375.65,143.807,437,143.807,498.35C143.807,559.7,143.807,621.05,146.047,662.025C148.287,703,152.766,723.6,155.006,733.9L157.246,744.2" id="my-svg-id_entity-concept_families-1_entity-concept_family_membership-2_3" class="edge-thickness-normal edge-pattern-solid relationshipLine" style="undefined;;;undefined" data-edge="true" data-et="edge" data-id="id_entity-concept_families-1_entity-concept_family_membership-2_3" data-points="W3sieCI6NDg1LjUxMDUxMzMwNTY2NDA2LCJ5IjoyMTEuMDY5NzUyOTQyNTg1MTh9LHsieCI6MTQzLjgwNzQ2NDU5OTYwOTM4LCJ5IjozMTQuMjk5OTk5MjM3MDYwNTV9LHsieCI6MTQzLjgwNzQ2NDU5OTYwOTM4LCJ5Ijo0OTguMzQ5OTk4NDc0MTIxMX0seyJ4IjoxNDMuODA3NDY0NTk5NjA5MzgsInkiOjY4Mi4zOTk5OTc3MTExODE2fSx7IngiOjE1Ny4yNDU2ODk2MDEyMDkxLCJ5Ijo3NDQuMTk5OTk2OTQ4MjQyMn1d" data-look="classic" marker-start="url(#my-svg_er-onlyOneStart)" marker-end="url(#my-svg_er-zeroOrMoreEnd)"/><path d="M621.242,620.6L624.17,630.9C627.098,641.2,632.954,661.8,635.882,685.796C638.81,709.792,638.81,737.183,638.81,750.879L638.81,764.575" id="my-svg-id_entity-concepts-0_entity-concept_aliases-3_4" class="edge-thickness-normal edge-pattern-solid relationshipLine" style="undefined;;;undefined" data-edge="true" data-et="edge" data-id="id_entity-concepts-0_entity-concept_aliases-3_4" data-points="W3sieCI6NjIxLjI0MTUxMzI0Nzg2MzQsInkiOjYyMC41OTk5OTg0NzQxMjExfSx7IngiOjYzOC44MDk1Mzk3OTQ5MjE5LCJ5Ijo2ODIuMzk5OTk3NzExMTgxNn0seyJ4Ijo2MzguODA5NTM5Nzk0OTIxOSwieSI6NzY0LjU3NDk5Njk0ODI0MjJ9XQ==" data-look="classic" marker-start="url(#my-svg_er-onlyOneStart)" marker-end="url(#my-svg_er-zeroOrMoreEnd)"/></g><g class="edgeLabels"><g class="edgeLabel"><g class="label" data-id="entity-concept_families-1-cyclic-special-1" transform="translate(0, 0)"><text xml:space="preserve" y="-10.1" text-anchor="middle"><tspan class="text-outer-tspan row" x="0" y="-0.1em" dy="1.1em" text-anchor="middle"/></text></g></g><g><rect class="background" style="stroke: none"/></g><g class="edgeLabel" transform="translate(1037.9475082401186, 682.3999977111816)"><g class="label" data-id="entity-concept_families-1-cyclic-special-mid" transform="translate(-0.5910263061523438, -16.20000171661377)"><g><rect class="background" style="" x="-68.0625" y="-3" width="137.6190948486328" height="43.599998474121094"/><text xml:space="preserve" y="-10.1" text-anchor="middle" style=""><tspan class="text-outer-tspan row" x="0" y="-0.1em" dy="1.1em" text-anchor="middle"><tspan font-style="normal" class="text-inner-tspan" font-weight="normal">parent_id</tspan><tspan font-style="normal" class="text-inner-tspan" font-weight="normal"> (self-ref</tspan></tspan><tspan class="text-outer-tspan row" x="0" y="1em" dy="1.1em" text-anchor="middle"><tspan font-style="normal" class="text-inner-tspan" font-weight="normal">domain→family)</tspan></tspan></text></g></g></g><g class="edgeLabel"><g class="label" data-id="entity-concept_families-1-cyclic-special-2" transform="translate(0, 0)"><text xml:space="preserve" y="-10.1" text-anchor="middle"><tspan class="text-outer-tspan row" x="0" y="-0.1em" dy="1.1em" text-anchor="middle"/></text></g></g><g><rect class="background" style="stroke: none"/></g><g class="edgeLabel" transform="translate(586.4892272949219, 314.29999923706055)"><g class="label" data-id="id_entity-concept_families-1_entity-concepts-0_1" transform="translate(0, -16.20000171661377)"><g><rect class="background" style="" x="-91.8359375" y="-3" width="183.671875" height="43.599998474121094"/><text xml:space="preserve" y="-10.1" text-anchor="middle" style=""><tspan class="text-outer-tspan row" x="0" y="-0.1em" dy="1.1em" text-anchor="middle"><tspan font-style="normal" class="text-inner-tspan" font-weight="normal">family_id</tspan><tspan font-style="normal" class="text-inner-tspan" font-weight="normal"> (denormalised</tspan></tspan><tspan class="text-outer-tspan row" x="0" y="1em" dy="1.1em" text-anchor="middle"><tspan font-style="normal" class="text-inner-tspan" font-weight="normal">primary)</tspan></tspan></text></g></g></g><g class="edgeLabel" transform="translate(359.24522399902344, 682.3999977111816)"><g class="label" data-id="id_entity-concepts-0_entity-concept_family_membership-2_2" transform="translate(0, -8.500000953674316)"><g><rect class="background" style="" x="-42.3203125" y="-3" width="84.640625" height="26"/><text xml:space="preserve" y="-10.1" text-anchor="middle" style=""><tspan class="text-outer-tspan row" x="0" y="-0.1em" dy="1.1em" text-anchor="middle"><tspan font-style="normal" class="text-inner-tspan" font-weight="normal">concept_id</tspan></tspan></text></g></g></g><g class="edgeLabel" transform="translate(143.80746459960938, 498.3499984741211)"><g class="label" data-id="id_entity-concept_families-1_entity-concept_family_membership-2_3" transform="translate(0, -8.500000953674316)"><g><rect class="background" style="" x="-35.46875" y="-3" width="70.9375" height="26"/><text xml:space="preserve" y="-10.1" text-anchor="middle" style=""><tspan class="text-outer-tspan row" x="0" y="-0.1em" dy="1.1em" text-anchor="middle"><tspan font-style="normal" class="text-inner-tspan" font-weight="normal">family_id</tspan></tspan></text></g></g></g><g class="edgeLabel" transform="translate(638.8095397949219, 682.3999977111816)"><g class="label" data-id="id_entity-concepts-0_entity-concept_aliases-3_4" transform="translate(0, -8.500000953674316)"><g><rect class="background" style="" x="-42.3203125" y="-3" width="84.640625" height="26"/><text xml:space="preserve" y="-10.1" text-anchor="middle" style=""><tspan class="text-outer-tspan row" x="0" y="-0.1em" dy="1.1em" text-anchor="middle"><tspan font-style="normal" class="text-inner-tspan" font-weight="normal">concept_id</tspan></tspan></text></g></g></g></g><g class="nodes"><g class="node default" id="my-svg-entity-concepts-0" data-look="classic" transform="translate(586.4892272949219, 498.3499984741211)"><g class="outer-path" style=""><path d="M-253.0864486694336 -122.25 L253.0864486694336 -122.25 L253.0864486694336 122.25 L-253.0864486694336 122.25" stroke="none" stroke-width="0" fill="#ECECFF"/><path d="M-253.0864486694336 -122.25 C-60.997907898361575 -122.25, 131.09063287271044 -122.25, 253.0864486694336 -122.25 M-253.0864486694336 -122.25 C-145.56824971737382 -122.25, -38.05005076531404 -122.25, 253.0864486694336 -122.25 M253.0864486694336 -122.25 C253.0864486694336 -39.986664282110794, 253.0864486694336 42.27667143577841, 253.0864486694336 122.25 M253.0864486694336 -122.25 C253.0864486694336 -47.65584305143217, 253.0864486694336 26.938313897135657, 253.0864486694336 122.25 M253.0864486694336 122.25 C55.499311531668866 122.25, -142.08782560609586 122.25, -253.0864486694336 122.25 M253.0864486694336 122.25 C99.14950224115302 122.25, -54.78744418712756 122.25, -253.0864486694336 122.25 M-253.0864486694336 122.25 C-253.0864486694336 36.79559783675212, -253.0864486694336 -48.658804326495755, -253.0864486694336 -122.25 M-253.0864486694336 122.25 C-253.0864486694336 63.71025228480528, -253.0864486694336 5.170504569610557, -253.0864486694336 -122.25" stroke="#9370DB" stroke-width="1.3" fill="none" stroke-dasharray="0 0"/></g><g style="" class="row-rect-odd"><path d="M-253.0864486694336 -81.5 L253.0864486694336 -81.5 L253.0864486694336 -40.75 L-253.0864486694336 -40.75" stroke="none" stroke-width="0" fill="hsl(240, 100%, 100%)"/><path d="M-253.0864486694336 -81.5 C-96.38905827756508 -81.5, 60.308332114303425 -81.5, 253.0864486694336 -81.5 M-253.0864486694336 -81.5 C-131.2529381731468 -81.5, -9.419427676859954 -81.5, 253.0864486694336 -81.5 M253.0864486694336 -81.5 C253.0864486694336 -66.3675188875809, 253.0864486694336 -51.235037775161786, 253.0864486694336 -40.75 M253.0864486694336 -81.5 C253.0864486694336 -68.32706274887515, 253.0864486694336 -55.154125497750286, 253.0864486694336 -40.75 M253.0864486694336 -40.75 C57.54872611996706 -40.75, -137.98899642949948 -40.75, -253.0864486694336 -40.75 M253.0864486694336 -40.75 C132.77980779060854 -40.75, 12.473166911783494 -40.75, -253.0864486694336 -40.75 M-253.0864486694336 -40.75 C-253.0864486694336 -49.98227281225289, -253.0864486694336 -59.214545624505774, -253.0864486694336 -81.5 M-253.0864486694336 -40.75 C-253.0864486694336 -53.195544482335734, -253.0864486694336 -65.64108896467147, -253.0864486694336 -81.5" stroke="#9370DB" stroke-width="1.3" fill="none" stroke-dasharray="0 0"/></g><g style="" class="row-rect-even"><path d="M-253.0864486694336 -40.75 L253.0864486694336 -40.75 L253.0864486694336 0 L-253.0864486694336 0" stroke="none" stroke-width="0" fill="hsl(240, 100%, 97.2745098039%)"/><path d="M-253.0864486694336 -40.75 C-91.31899449936344 -40.75, 70.44845967070671 -40.75, 253.0864486694336 -40.75 M-253.0864486694336 -40.75 C-116.6442759741127 -40.75, 19.79789672120819 -40.75, 253.0864486694336 -40.75 M253.0864486694336 -40.75 C253.0864486694336 -27.657968555189, 253.0864486694336 -14.565937110378002, 253.0864486694336 0 M253.0864486694336 -40.75 C253.0864486694336 -32.02056105122805, 253.0864486694336 -23.291122102456104, 253.0864486694336 0 M253.0864486694336 0 C101.14848857392755 0, -50.78947152157849 0, -253.0864486694336 0 M253.0864486694336 0 C129.84155807108124 0, 6.59666747272891 0, -253.0864486694336 0 M-253.0864486694336 0 C-253.0864486694336 -15.762273285561538, -253.0864486694336 -31.524546571123075, -253.0864486694336 -40.75 M-253.0864486694336 0 C-253.0864486694336 -14.309490243492851, -253.0864486694336 -28.618980486985702, -253.0864486694336 -40.75" stroke="#9370DB" stroke-width="1.3" fill="none" stroke-dasharray="0 0"/></g><g style="" class="row-rect-odd"><path d="M-253.0864486694336 0 L253.0864486694336 0 L253.0864486694336 40.75 L-253.0864486694336 40.75" stroke="none" stroke-width="0" fill="hsl(240, 100%, 100%)"/><path d="M-253.0864486694336 0 C-97.89130971081246 0, 57.303829247808665 0, 253.0864486694336 0 M-253.0864486694336 0 C-89.73206039116664 0, 73.62232788710031 0, 253.0864486694336 0 M253.0864486694336 0 C253.0864486694336 10.458544055184612, 253.0864486694336 20.917088110369225, 253.0864486694336 40.75 M253.0864486694336 0 C253.0864486694336 14.029638404940684, 253.0864486694336 28.059276809881368, 253.0864486694336 40.75 M253.0864486694336 40.75 C129.30445635340615 40.75, 5.522464037378711 40.75, -253.0864486694336 40.75 M253.0864486694336 40.75 C140.58005784355538 40.75, 28.073667017677167 40.75, -253.0864486694336 40.75 M-253.0864486694336 40.75 C-253.0864486694336 25.26844159438425, -253.0864486694336 9.786883188768496, -253.0864486694336 0 M-253.0864486694336 40.75 C-253.0864486694336 26.924748147179265, -253.0864486694336 13.09949629435853, -253.0864486694336 0" stroke="#9370DB" stroke-width="1.3" fill="none" stroke-dasharray="0 0"/></g><g style="" class="row-rect-even"><path d="M-253.0864486694336 40.75 L253.0864486694336 40.75 L253.0864486694336 81.5 L-253.0864486694336 81.5" stroke="none" stroke-width="0" fill="hsl(240, 100%, 97.2745098039%)"/><path d="M-253.0864486694336 40.75 C-61.13894826257686 40.75, 130.80855214427987 40.75, 253.0864486694336 40.75 M-253.0864486694336 40.75 C-84.89895158150028 40.75, 83.28854550643302 40.75, 253.0864486694336 40.75 M253.0864486694336 40.75 C253.0864486694336 53.34959051765034, 253.0864486694336 65.94918103530068, 253.0864486694336 81.5 M253.0864486694336 40.75 C253.0864486694336 52.37358296475952, 253.0864486694336 63.99716592951904, 253.0864486694336 81.5 M253.0864486694336 81.5 C144.99380230252723 81.5, 36.901155935620835 81.5, -253.0864486694336 81.5 M253.0864486694336 81.5 C104.86068018475225 81.5, -43.365088299929084 81.5, -253.0864486694336 81.5 M-253.0864486694336 81.5 C-253.0864486694336 66.37950071042029, -253.0864486694336 51.259001420840576, -253.0864486694336 40.75 M-253.0864486694336 81.5 C-253.0864486694336 71.73837806117572, -253.0864486694336 61.97675612235144, -253.0864486694336 40.75" stroke="#9370DB" stroke-width="1.3" fill="none" stroke-dasharray="0 0"/></g><g style="" class="row-rect-odd"><path d="M-253.0864486694336 81.5 L253.0864486694336 81.5 L253.0864486694336 122.25 L-253.0864486694336 122.25" stroke="none" stroke-width="0" fill="hsl(240, 100%, 100%)"/><path d="M-253.0864486694336 81.5 C-124.37523377609685 81.5, 4.335981117239896 81.5, 253.0864486694336 81.5 M-253.0864486694336 81.5 C-90.71899321406585 81.5, 71.6484622413019 81.5, 253.0864486694336 81.5 M253.0864486694336 81.5 C253.0864486694336 96.6646142852659, 253.0864486694336 111.8292285705318, 253.0864486694336 122.25 M253.0864486694336 81.5 C253.0864486694336 91.781466790543, 253.0864486694336 102.062933581086, 253.0864486694336 122.25 M253.0864486694336 122.25 C56.695564483054454 122.25, -139.69531970332469 122.25, -253.0864486694336 122.25 M253.0864486694336 122.25 C149.53469126603045 122.25, 45.982933862627334 122.25, -253.0864486694336 122.25 M-253.0864486694336 122.25 C-253.0864486694336 106.28151922692413, -253.0864486694336 90.31303845384828, -253.0864486694336 81.5 M-253.0864486694336 122.25 C-253.0864486694336 110.9312372724348, -253.0864486694336 99.6124745448696, -253.0864486694336 81.5" stroke="#9370DB" stroke-width="1.3" fill="none" stroke-dasharray="0 0"/></g><g class="label name" transform="translate(-33.6171875, -112.875)" style=""><g><rect class="background" style="stroke: none"/></g><text xml:space="preserve" y="-10.1" style=""><tspan class="text-outer-tspan row" x="0" y="-0.1em" dy="1.1em"><tspan font-style="normal" class="text-inner-tspan" font-weight="normal">concepts</tspan></tspan></text></g><g class="label attribute-type" transform="translate(-240.5864486694336, -72.125)" style=""><g><rect class="background" style="stroke: none"/></g><text xml:space="preserve" y="-10.1" style=""><tspan class="text-outer-tspan row" x="0" y="-0.1em" dy="1.1em"><tspan font-style="normal" class="text-inner-tspan" font-weight="normal">TEXT</tspan></tspan></text></g><g class="label attribute-name" transform="translate(-179.41840362548828, -72.125)" style=""><g><rect class="background" style="stroke: none"/></g><text xml:space="preserve" y="-10.1" style=""><tspan class="text-outer-tspan row" x="0" y="-0.1em" dy="1.1em"><tspan font-style="normal" class="text-inner-tspan" font-weight="normal">id</tspan></tspan></text></g><g class="label attribute-keys" transform="translate(-82.43402862548828, -72.125)" style=""><g><rect class="background" style="stroke: none"/></g><text xml:space="preserve" y="-10.1" style=""><tspan class="text-outer-tspan row" x="0" y="-0.1em" dy="1.1em"><tspan font-style="normal" class="text-inner-tspan" font-weight="normal">PK</tspan></tspan></text></g><g class="label attribute-comment" transform="translate(-37.754005432128906, -72.125)" style=""><g><rect class="background" style="stroke: none"/></g><text xml:space="preserve" y="-10.1" style=""><tspan class="text-outer-tspan row" x="0" y="-0.1em" dy="1.1em"/></text></g><g class="label attribute-type" transform="translate(-240.5864486694336, -31.375)" style=""><g><rect class="background" style="stroke: none"/></g><text xml:space="preserve" y="-10.1" style=""><tspan class="text-outer-tspan row" x="0" y="-0.1em" dy="1.1em"><tspan font-style="normal" class="text-inner-tspan" font-weight="normal">TEXT</tspan></tspan></text></g><g class="label attribute-name" transform="translate(-179.41840362548828, -31.375)" style=""><g><rect class="background" style="stroke: none"/></g><text xml:space="preserve" y="-10.1" style=""><tspan class="text-outer-tspan row" x="0" y="-0.1em" dy="1.1em"><tspan font-style="normal" class="text-inner-tspan" font-weight="normal">label</tspan></tspan></text></g><g class="label attribute-keys" transform="translate(-82.43402862548828, -31.375)" style=""><g><rect class="background" style="stroke: none"/></g><text xml:space="preserve" y="-10.1" style=""><tspan class="text-outer-tspan row" x="0" y="-0.1em" dy="1.1em"/></text></g><g class="label attribute-comment" transform="translate(-37.754005432128906, -31.375)" style=""><g><rect class="background" style="stroke: none"/></g><text xml:space="preserve" y="-10.1" style=""><tspan class="text-outer-tspan row" x="0" y="-0.1em" dy="1.1em"/></text></g><g class="label attribute-type" transform="translate(-240.5864486694336, 9.375)" style=""><g><rect class="background" style="stroke: none"/></g><text xml:space="preserve" y="-10.1" style=""><tspan class="text-outer-tspan row" x="0" y="-0.1em" dy="1.1em"><tspan font-style="normal" class="text-inner-tspan" font-weight="normal">TEXT</tspan></tspan></text></g><g class="label attribute-name" transform="translate(-179.41840362548828, 9.375)" style=""><g><rect class="background" style="stroke: none"/></g><text xml:space="preserve" y="-10.1" style=""><tspan class="text-outer-tspan row" x="0" y="-0.1em" dy="1.1em"><tspan font-style="normal" class="text-inner-tspan" font-weight="normal">domain</tspan></tspan></text></g><g class="label attribute-keys" transform="translate(-82.43402862548828, 9.375)" style=""><g><rect class="background" style="stroke: none"/></g><text xml:space="preserve" y="-10.1" style=""><tspan class="text-outer-tspan row" x="0" y="-0.1em" dy="1.1em"/></text></g><g class="label attribute-comment" transform="translate(-37.754005432128906, 9.375)" style=""><g><rect class="background" style="stroke: none"/></g><text xml:space="preserve" y="-10.1" style=""><tspan class="text-outer-tspan row" x="0" y="-0.1em" dy="1.1em"><tspan font-style="normal" class="text-inner-tspan" font-weight="normal">kept;</tspan><tspan font-style="normal" class="text-inner-tspan" font-weight="normal"> derivable</tspan><tspan font-style="normal" class="text-inner-tspan" font-weight="normal"> from</tspan><tspan font-style="normal" class="text-inner-tspan" font-weight="normal"> family_id</tspan></tspan></text></g><g class="label attribute-type" transform="translate(-240.5864486694336, 50.125)" style=""><g><rect class="background" style="stroke: none"/></g><text xml:space="preserve" y="-10.1" style=""><tspan class="text-outer-tspan row" x="0" y="-0.1em" dy="1.1em"><tspan font-style="normal" class="text-inner-tspan" font-weight="normal">TEXT</tspan></tspan></text></g><g class="label attribute-name" transform="translate(-179.41840362548828, 50.125)" style=""><g><rect class="background" style="stroke: none"/></g><text xml:space="preserve" y="-10.1" style=""><tspan class="text-outer-tspan row" x="0" y="-0.1em" dy="1.1em"><tspan font-style="normal" class="text-inner-tspan" font-weight="normal">definition</tspan></tspan></text></g><g class="label attribute-keys" transform="translate(-82.43402862548828, 50.125)" style=""><g><rect class="background" style="stroke: none"/></g><text xml:space="preserve" y="-10.1" style=""><tspan class="text-outer-tspan row" x="0" y="-0.1em" dy="1.1em"/></text></g><g class="label attribute-comment" transform="translate(-37.754005432128906, 50.125)" style=""><g><rect class="background" style="stroke: none"/></g><text xml:space="preserve" y="-10.1" style=""><tspan class="text-outer-tspan row" x="0" y="-0.1em" dy="1.1em"/></text></g><g class="label attribute-type" transform="translate(-240.5864486694336, 90.875)" style=""><g><rect class="background" style="stroke: none"/></g><text xml:space="preserve" y="-10.1" style=""><tspan class="text-outer-tspan row" x="0" y="-0.1em" dy="1.1em"><tspan font-style="normal" class="text-inner-tspan" font-weight="normal">TEXT</tspan></tspan></text></g><g class="label attribute-name" transform="translate(-179.41840362548828, 90.875)" style=""><g><rect class="background" style="stroke: none"/></g><text xml:space="preserve" y="-10.1" style=""><tspan class="text-outer-tspan row" x="0" y="-0.1em" dy="1.1em"><tspan font-style="normal" class="text-inner-tspan" font-weight="normal">family_id</tspan></tspan></text></g><g class="label attribute-keys" transform="translate(-82.43402862548828, 90.875)" style=""><g><rect class="background" style="stroke: none"/></g><text xml:space="preserve" y="-10.1" style=""><tspan class="text-outer-tspan row" x="0" y="-0.1em" dy="1.1em"><tspan font-style="normal" class="text-inner-tspan" font-weight="normal">FK</tspan></tspan></text></g><g class="label attribute-comment" transform="translate(-37.754005432128906, 90.875)" style=""><g><rect class="background" style="stroke: none"/></g><text xml:space="preserve" y="-10.1" style=""><tspan class="text-outer-tspan row" x="0" y="-0.1em" dy="1.1em"><tspan font-style="normal" class="text-inner-tspan" font-weight="normal">NEW</tspan><tspan font-style="normal" class="text-inner-tspan" font-weight="normal"> —</tspan><tspan font-style="normal" class="text-inner-tspan" font-weight="normal"> denormalised</tspan><tspan font-style="normal" class="text-inner-tspan" font-weight="normal"> primary</tspan><tspan font-style="normal" class="text-inner-tspan" font-weight="normal"> family</tspan></tspan></text></g><g class="divider"><path d="M-253.0864486694336 -81.50005 L-253.0864486694336 -81.49995 L253.0864486694336 -81.49995 L253.0864486694336 -81.50005" stroke="none" stroke-width="0" fill="#ECECFF" fill-rule="evenodd"/><path d="M-253.0864486694336 -81.50005 C-253.0864486694336 -81.50001995157814, -253.0864486694336 -81.49998990315629, -253.0864486694336 -81.49995 M-253.0864486694336 -81.50005 C-253.0864486694336 -81.50001507405965, -253.0864486694336 -81.4999801481193, -253.0864486694336 -81.49995 M-253.0864486694336 -81.49995 C-112.34537601340165 -81.49995, 28.3956966426303 -81.49995, 253.0864486694336 -81.49995 M-253.0864486694336 -81.49995 C-125.26007448299707 -81.49995, 2.566299703439455 -81.49995, 253.0864486694336 -81.49995 M253.0864486694336 -81.49995 C253.0864486694336 -81.49997135155924, 253.0864486694336 -81.49999270311848, 253.0864486694336 -81.50005 M253.0864486694336 -81.49995 C253.0864486694336 -81.49998463554927, 253.0864486694336 -81.50001927109855, 253.0864486694336 -81.50005 M253.0864486694336 -81.50005 C66.16331722741637 -81.50005, -120.75981421460085 -81.50005, -253.0864486694336 -81.50005 M253.0864486694336 -81.50005 C134.3123765462456 -81.50005, 15.538304423057582 -81.50005, -253.0864486694336 -81.50005" stroke="#9370DB" stroke-width="1.3" fill="none" stroke-dasharray="0 0"/></g><g class="divider"><path d="M-191.91845362548827 -81.5 L-191.9183536254883 -81.5 L-191.9183536254883 122.25 L-191.91845362548827 122.25" stroke="none" stroke-width="0" fill="#ECECFF" fill-rule="evenodd"/><path d="M-191.91845362548827 -81.5 C-191.91842926848912 -81.5, -191.91840491148997 -81.5, -191.9183536254883 -81.5 M-191.91845362548827 -81.5 C-191.9184144006565 -81.5, -191.91837517582474 -81.5, -191.9183536254883 -81.5 M-191.9183536254883 -81.5 C-191.9183536254883 -27.052470937276638, -191.9183536254883 27.395058125446724, -191.9183536254883 122.25 M-191.9183536254883 -81.5 C-191.9183536254883 -24.92296000352468, -191.9183536254883 31.654079992950642, -191.9183536254883 122.25 M-191.9183536254883 122.25 C-191.91838610328628 122.25, -191.91841858108427 122.25, -191.91845362548827 122.25 M-191.9183536254883 122.25 C-191.91838212104778 122.25, -191.91841061660725 122.25, -191.91845362548827 122.25 M-191.91845362548827 122.25 C-191.91845362548827 58.50879323844812, -191.91845362548827 -5.232413523103759, -191.91845362548827 -81.5 M-191.91845362548827 122.25 C-191.91845362548827 55.7928066025071, -191.91845362548827 -10.664386794985802, -191.91845362548827 -81.5" stroke="#9370DB" stroke-width="1.3" fill="none" stroke-dasharray="0 0"/></g><g class="divider"><path d="M-94.93407862548828 -81.5 L-94.93397862548828 -81.5 L-94.93397862548828 122.25 L-94.93407862548828 122.25" stroke="none" stroke-width="0" fill="#ECECFF" fill-rule="evenodd"/><path d="M-94.93407862548828 -81.5 C-94.93404742181906 -81.5, -94.93401621814982 -81.5, -94.93397862548828 -81.5 M-94.93407862548828 -81.5 C-94.9340511021991 -81.5, -94.93402357890994 -81.5, -94.93397862548828 -81.5 M-94.93397862548828 -81.5 C-94.93397862548828 -0.34488026547913364, -94.93397862548828 80.81023946904173, -94.93397862548828 122.25 M-94.93397862548828 -81.5 C-94.93397862548828 -19.632050005854794, -94.93397862548828 42.23589998829041, -94.93397862548828 122.25 M-94.93397862548828 122.25 C-94.93400269123755 122.25, -94.93402675698682 122.25, -94.93407862548828 122.25 M-94.93397862548828 122.25 C-94.93400599767608 122.25, -94.93403336986388 122.25, -94.93407862548828 122.25 M-94.93407862548828 122.25 C-94.93407862548828 52.09952102275163, -94.93407862548828 -18.050957954496738, -94.93407862548828 -81.5 M-94.93407862548828 122.25 C-94.93407862548828 66.44521776407218, -94.93407862548828 10.640435528144366, -94.93407862548828 -81.5" stroke="#9370DB" stroke-width="1.3" fill="none" stroke-dasharray="0 0"/></g><g class="divider"><path d="M-50.25405543212891 -81.5 L-50.253955432128905 -81.5 L-50.253955432128905 122.25 L-50.25405543212891 122.25" stroke="none" stroke-width="0" fill="#ECECFF" fill-rule="evenodd"/><path d="M-50.25405543212891 -81.5 C-50.25403367692411 -81.5, -50.25401192171932 -81.5, -50.253955432128905 -81.5 M-50.25405543212891 -81.5 C-50.254017017992524 -81.5, -50.25397860385613 -81.5, -50.253955432128905 -81.5 M-50.253955432128905 -81.5 C-50.253955432128905 -17.441318508539396, -50.253955432128905 46.61736298292121, -50.253955432128905 122.25 M-50.253955432128905 -81.5 C-50.253955432128905 -34.3992634158086, -50.253955432128905 12.701473168382805, -50.253955432128905 122.25 M-50.253955432128905 122.25 C-50.253978861929816 122.25, -50.25400229173073 122.25, -50.25405543212891 122.25 M-50.253955432128905 122.25 C-50.2539814995633 122.25, -50.2540075669977 122.25, -50.25405543212891 122.25 M-50.25405543212891 122.25 C-50.25405543212891 65.50712868877639, -50.25405543212891 8.764257377552767, -50.25405543212891 -81.5 M-50.25405543212891 122.25 C-50.25405543212891 42.68537094434686, -50.25405543212891 -36.879258111306285, -50.25405543212891 -81.5" stroke="#9370DB" stroke-width="1.3" fill="none" stroke-dasharray="0 0"/></g><g class="divider"><path d="M-253.0864486694336 -81.50005 L-253.0864486694336 -81.49995 L253.0864486694336 -81.49995 L253.0864486694336 -81.50005" stroke="none" stroke-width="0" fill="#ECECFF" fill-rule="evenodd"/><path d="M-253.0864486694336 -81.50005 C-253.0864486694336 -81.5000103879966, -253.0864486694336 -81.49997077599319, -253.0864486694336 -81.49995 M-253.0864486694336 -81.50005 C-253.0864486694336 -81.50002094841764, -253.0864486694336 -81.49999189683528, -253.0864486694336 -81.49995 M-253.0864486694336 -81.49995 C-146.72525561167208 -81.49995, -40.3640625539106 -81.49995, 253.0864486694336 -81.49995 M-253.0864486694336 -81.49995 C-119.07212959813347 -81.49995, 14.94218947316665 -81.49995, 253.0864486694336 -81.49995 M253.0864486694336 -81.49995 C253.0864486694336 -81.49998487822671, 253.0864486694336 -81.50001975645344, 253.0864486694336 -81.50005 M253.0864486694336 -81.49995 C253.0864486694336 -81.4999705803889, 253.0864486694336 -81.4999911607778, 253.0864486694336 -81.50005 M253.0864486694336 -81.50005 C146.58803840269496 -81.50005, 40.0896281359563 -81.50005, -253.0864486694336 -81.50005 M253.0864486694336 -81.50005 C63.20095870271126 -81.50005, -126.68453126401107 -81.50005, -253.0864486694336 -81.50005" stroke="#9370DB" stroke-width="1.3" fill="none" stroke-dasharray="0 0"/></g></g><g class="node default" id="my-svg-entity-concept_families-1" data-look="classic" transform="translate(753.0324554443359, 130.25)"><g class="outer-path" style=""><path d="M-267.5219421386719 -122.25 L267.5219421386719 -122.25 L267.5219421386719 122.25 L-267.5219421386719 122.25" stroke="none" stroke-width="0" fill="#ECECFF"/><path d="M-267.5219421386719 -122.25 C-129.05822897367244 -122.25, 9.405484191326991 -122.25, 267.5219421386719 -122.25 M-267.5219421386719 -122.25 C-103.50094516675628 -122.25, 60.52005180515931 -122.25, 267.5219421386719 -122.25 M267.5219421386719 -122.25 C267.5219421386719 -70.82414308737009, 267.5219421386719 -19.398286174740164, 267.5219421386719 122.25 M267.5219421386719 -122.25 C267.5219421386719 -39.247686752436934, 267.5219421386719 43.75462649512613, 267.5219421386719 122.25 M267.5219421386719 122.25 C111.3370468260625 122.25, -44.847848486546866 122.25, -267.5219421386719 122.25 M267.5219421386719 122.25 C107.88264643745288 122.25, -51.75664926376612 122.25, -267.5219421386719 122.25 M-267.5219421386719 122.25 C-267.5219421386719 48.4768467863195, -267.5219421386719 -25.296306427361003, -267.5219421386719 -122.25 M-267.5219421386719 122.25 C-267.5219421386719 43.86888783370641, -267.5219421386719 -34.51222433258718, -267.5219421386719 -122.25" stroke="#9370DB" stroke-width="1.3" fill="none" stroke-dasharray="0 0"/></g><g style="" class="row-rect-odd"><path d="M-267.5219421386719 -81.5 L267.5219421386719 -81.5 L267.5219421386719 -40.75 L-267.5219421386719 -40.75" stroke="none" stroke-width="0" fill="hsl(240, 100%, 100%)"/><path d="M-267.5219421386719 -81.5 C-147.0409794638215 -81.5, -26.560016788971126 -81.5, 267.5219421386719 -81.5 M-267.5219421386719 -81.5 C-111.32890554696223 -81.5, 44.86413104474741 -81.5, 267.5219421386719 -81.5 M267.5219421386719 -81.5 C267.5219421386719 -73.22077937602452, 267.5219421386719 -64.94155875204906, 267.5219421386719 -40.75 M267.5219421386719 -81.5 C267.5219421386719 -69.82029236316343, 267.5219421386719 -58.14058472632688, 267.5219421386719 -40.75 M267.5219421386719 -40.75 C146.45727238519152 -40.75, 25.392602631711156 -40.75, -267.5219421386719 -40.75 M267.5219421386719 -40.75 C116.78455994541798 -40.75, -33.95282224783591 -40.75, -267.5219421386719 -40.75 M-267.5219421386719 -40.75 C-267.5219421386719 -49.74707812033577, -267.5219421386719 -58.744156240671536, -267.5219421386719 -81.5 M-267.5219421386719 -40.75 C-267.5219421386719 -50.14226347070846, -267.5219421386719 -59.534526941416914, -267.5219421386719 -81.5" stroke="#9370DB" stroke-width="1.3" fill="none" stroke-dasharray="0 0"/></g><g style="" class="row-rect-even"><path d="M-267.5219421386719 -40.75 L267.5219421386719 -40.75 L267.5219421386719 0 L-267.5219421386719 0" stroke="none" stroke-width="0" fill="hsl(240, 100%, 97.2745098039%)"/><path d="M-267.5219421386719 -40.75 C-112.59661010421922 -40.75, 42.32872193023343 -40.75, 267.5219421386719 -40.75 M-267.5219421386719 -40.75 C-78.77643706509446 -40.75, 109.96906800848296 -40.75, 267.5219421386719 -40.75 M267.5219421386719 -40.75 C267.5219421386719 -31.22460418976502, 267.5219421386719 -21.69920837953004, 267.5219421386719 0 M267.5219421386719 -40.75 C267.5219421386719 -28.786141779346043, 267.5219421386719 -16.822283558692085, 267.5219421386719 0 M267.5219421386719 0 C143.46321926775045 0, 19.40449639682899 0, -267.5219421386719 0 M267.5219421386719 0 C149.60353772016276 0, 31.68513330165368 0, -267.5219421386719 0 M-267.5219421386719 0 C-267.5219421386719 -15.287434652302482, -267.5219421386719 -30.574869304604963, -267.5219421386719 -40.75 M-267.5219421386719 0 C-267.5219421386719 -15.017356108231326, -267.5219421386719 -30.03471221646265, -267.5219421386719 -40.75" stroke="#9370DB" stroke-width="1.3" fill="none" stroke-dasharray="0 0"/></g><g style="" class="row-rect-odd"><path d="M-267.5219421386719 0 L267.5219421386719 0 L267.5219421386719 40.75 L-267.5219421386719 40.75" stroke="none" stroke-width="0" fill="hsl(240, 100%, 100%)"/><path d="M-267.5219421386719 0 C-76.42909741424046 0, 114.66374731019096 0, 267.5219421386719 0 M-267.5219421386719 0 C-71.36028986324425 0, 124.80136241218338 0, 267.5219421386719 0 M267.5219421386719 0 C267.5219421386719 11.807334045982637, 267.5219421386719 23.614668091965274, 267.5219421386719 40.75 M267.5219421386719 0 C267.5219421386719 13.137018821142465, 267.5219421386719 26.27403764228493, 267.5219421386719 40.75 M267.5219421386719 40.75 C115.96851215952233 40.75, -35.58491781962721 40.75, -267.5219421386719 40.75 M267.5219421386719 40.75 C142.7259152342781 40.75, 17.929888329884307 40.75, -267.5219421386719 40.75 M-267.5219421386719 40.75 C-267.5219421386719 28.07243951495623, -267.5219421386719 15.39487902991246, -267.5219421386719 0 M-267.5219421386719 40.75 C-267.5219421386719 28.832228463895326, -267.5219421386719 16.91445692779065, -267.5219421386719 0" stroke="#9370DB" stroke-width="1.3" fill="none" stroke-dasharray="0 0"/></g><g style="" class="row-rect-even"><path d="M-267.5219421386719 40.75 L267.5219421386719 40.75 L267.5219421386719 81.5 L-267.5219421386719 81.5" stroke="none" stroke-width="0" fill="hsl(240, 100%, 97.2745098039%)"/><path d="M-267.5219421386719 40.75 C-147.39423786155254 40.75, -27.266533584433205 40.75, 267.5219421386719 40.75 M-267.5219421386719 40.75 C-90.22982576573955 40.75, 87.06229060719278 40.75, 267.5219421386719 40.75 M267.5219421386719 40.75 C267.5219421386719 51.23448149520324, 267.5219421386719 61.71896299040648, 267.5219421386719 81.5 M267.5219421386719 40.75 C267.5219421386719 50.11239979837214, 267.5219421386719 59.474799596744276, 267.5219421386719 81.5 M267.5219421386719 81.5 C78.53091159316062 81.5, -110.46011895235063 81.5, -267.5219421386719 81.5 M267.5219421386719 81.5 C97.685603470306 81.5, -72.15073519805986 81.5, -267.5219421386719 81.5 M-267.5219421386719 81.5 C-267.5219421386719 67.32299255161914, -267.5219421386719 53.14598510323826, -267.5219421386719 40.75 M-267.5219421386719 81.5 C-267.5219421386719 71.51516828449087, -267.5219421386719 61.530336568981745, -267.5219421386719 40.75" stroke="#9370DB" stroke-width="1.3" fill="none" stroke-dasharray="0 0"/></g><g style="" class="row-rect-odd"><path d="M-267.5219421386719 81.5 L267.5219421386719 81.5 L267.5219421386719 122.25 L-267.5219421386719 122.25" stroke="none" stroke-width="0" fill="hsl(240, 100%, 100%)"/><path d="M-267.5219421386719 81.5 C-79.67773779596229 81.5, 108.1664665467473 81.5, 267.5219421386719 81.5 M-267.5219421386719 81.5 C-116.24083084702355 81.5, 35.040280444624784 81.5, 267.5219421386719 81.5 M267.5219421386719 81.5 C267.5219421386719 89.83199871609821, 267.5219421386719 98.16399743219644, 267.5219421386719 122.25 M267.5219421386719 81.5 C267.5219421386719 96.3269309238718, 267.5219421386719 111.15386184774361, 267.5219421386719 122.25 M267.5219421386719 122.25 C80.40808574259583 122.25, -106.70577065348022 122.25, -267.5219421386719 122.25 M267.5219421386719 122.25 C70.28145920692774 122.25, -126.9590237248164 122.25, -267.5219421386719 122.25 M-267.5219421386719 122.25 C-267.5219421386719 107.87743631323711, -267.5219421386719 93.50487262647422, -267.5219421386719 81.5 M-267.5219421386719 122.25 C-267.5219421386719 112.18020713230969, -267.5219421386719 102.11041426461938, -267.5219421386719 81.5" stroke="#9370DB" stroke-width="1.3" fill="none" stroke-dasharray="0 0"/></g><g class="label name" transform="translate(-62.59375, -112.875)" style=""><g><rect class="background" style="stroke: none"/></g><text xml:space="preserve" y="-10.1" style=""><tspan class="text-outer-tspan row" x="0" y="-0.1em" dy="1.1em"><tspan font-style="normal" class="text-inner-tspan" font-weight="normal">concept_families</tspan></tspan></text></g><g class="label attribute-type" transform="translate(-255.02194213867188, -72.125)" style=""><g><rect class="background" style="stroke: none"/></g><text xml:space="preserve" y="-10.1" style=""><tspan class="text-outer-tspan row" x="0" y="-0.1em" dy="1.1em"><tspan font-style="normal" class="text-inner-tspan" font-weight="normal">TEXT</tspan></tspan></text></g><g class="label attribute-name" transform="translate(-137.4617919921875, -72.125)" style=""><g><rect class="background" style="stroke: none"/></g><text xml:space="preserve" y="-10.1" style=""><tspan class="text-outer-tspan row" x="0" y="-0.1em" dy="1.1em"><tspan font-style="normal" class="text-inner-tspan" font-weight="normal">id</tspan></tspan></text></g><g class="label attribute-keys" transform="translate(-40.4774169921875, -72.125)" style=""><g><rect class="background" style="stroke: none"/></g><text xml:space="preserve" y="-10.1" style=""><tspan class="text-outer-tspan row" x="0" y="-0.1em" dy="1.1em"><tspan font-style="normal" class="text-inner-tspan" font-weight="normal">PK</tspan></tspan></text></g><g class="label attribute-comment" transform="translate(4.202606201171875, -72.125)" style=""><g><rect class="background" style="stroke: none"/></g><text xml:space="preserve" y="-10.1" style=""><tspan class="text-outer-tspan row" x="0" y="-0.1em" dy="1.1em"><tspan font-style="normal" class="text-inner-tspan" font-weight="normal">NEW</tspan><tspan font-style="normal" class="text-inner-tspan" font-weight="normal"> —</tspan><tspan font-style="normal" class="text-inner-tspan" font-weight="normal"> domain</tspan><tspan font-style="normal" class="text-inner-tspan" font-weight="normal"> or</tspan><tspan font-style="normal" class="text-inner-tspan" font-weight="normal"> domain.family</tspan></tspan></text></g><g class="label attribute-type" transform="translate(-255.02194213867188, -31.375)" style=""><g><rect class="background" style="stroke: none"/></g><text xml:space="preserve" y="-10.1" style=""><tspan class="text-outer-tspan row" x="0" y="-0.1em" dy="1.1em"><tspan font-style="normal" class="text-inner-tspan" font-weight="normal">TEXT</tspan></tspan></text></g><g class="label attribute-name" transform="translate(-137.4617919921875, -31.375)" style=""><g><rect class="background" style="stroke: none"/></g><text xml:space="preserve" y="-10.1" style=""><tspan class="text-outer-tspan row" x="0" y="-0.1em" dy="1.1em"><tspan font-style="normal" class="text-inner-tspan" font-weight="normal">parent_id</tspan></tspan></text></g><g class="label attribute-keys" transform="translate(-40.4774169921875, -31.375)" style=""><g><rect class="background" style="stroke: none"/></g><text xml:space="preserve" y="-10.1" style=""><tspan class="text-outer-tspan row" x="0" y="-0.1em" dy="1.1em"><tspan font-style="normal" class="text-inner-tspan" font-weight="normal">FK</tspan></tspan></text></g><g class="label attribute-comment" transform="translate(4.202606201171875, -31.375)" style=""><g><rect class="background" style="stroke: none"/></g><text xml:space="preserve" y="-10.1" style=""><tspan class="text-outer-tspan row" x="0" y="-0.1em" dy="1.1em"><tspan font-style="normal" class="text-inner-tspan" font-weight="normal">NEW</tspan><tspan font-style="normal" class="text-inner-tspan" font-weight="normal"> —</tspan><tspan font-style="normal" class="text-inner-tspan" font-weight="normal"> NULL</tspan><tspan font-style="normal" class="text-inner-tspan" font-weight="normal"> for</tspan><tspan font-style="normal" class="text-inner-tspan" font-weight="normal"> domain</tspan><tspan font-style="normal" class="text-inner-tspan" font-weight="normal"> rows</tspan></tspan></text></g><g class="label attribute-type" transform="translate(-255.02194213867188, 9.375)" style=""><g><rect class="background" style="stroke: none"/></g><text xml:space="preserve" y="-10.1" style=""><tspan class="text-outer-tspan row" x="0" y="-0.1em" dy="1.1em"><tspan font-style="normal" class="text-inner-tspan" font-weight="normal">TEXT</tspan></tspan></text></g><g class="label attribute-name" transform="translate(-137.4617919921875, 9.375)" style=""><g><rect class="background" style="stroke: none"/></g><text xml:space="preserve" y="-10.1" style=""><tspan class="text-outer-tspan row" x="0" y="-0.1em" dy="1.1em"><tspan font-style="normal" class="text-inner-tspan" font-weight="normal">label</tspan></tspan></text></g><g class="label attribute-keys" transform="translate(-40.4774169921875, 9.375)" style=""><g><rect class="background" style="stroke: none"/></g><text xml:space="preserve" y="-10.1" style=""><tspan class="text-outer-tspan row" x="0" y="-0.1em" dy="1.1em"/></text></g><g class="label attribute-comment" transform="translate(4.202606201171875, 9.375)" style=""><g><rect class="background" style="stroke: none"/></g><text xml:space="preserve" y="-10.1" style=""><tspan class="text-outer-tspan row" x="0" y="-0.1em" dy="1.1em"><tspan font-style="normal" class="text-inner-tspan" font-weight="normal">NEW</tspan></tspan></text></g><g class="label attribute-type" transform="translate(-255.02194213867188, 50.125)" style=""><g><rect class="background" style="stroke: none"/></g><text xml:space="preserve" y="-10.1" style=""><tspan class="text-outer-tspan row" x="0" y="-0.1em" dy="1.1em"><tspan font-style="normal" class="text-inner-tspan" font-weight="normal">TEXT</tspan></tspan></text></g><g class="label attribute-name" transform="translate(-137.4617919921875, 50.125)" style=""><g><rect class="background" style="stroke: none"/></g><text xml:space="preserve" y="-10.1" style=""><tspan class="text-outer-tspan row" x="0" y="-0.1em" dy="1.1em"><tspan font-style="normal" class="text-inner-tspan" font-weight="normal">definition</tspan></tspan></text></g><g class="label attribute-keys" transform="translate(-40.4774169921875, 50.125)" style=""><g><rect class="background" style="stroke: none"/></g><text xml:space="preserve" y="-10.1" style=""><tspan class="text-outer-tspan row" x="0" y="-0.1em" dy="1.1em"/></text></g><g class="label attribute-comment" transform="translate(4.202606201171875, 50.125)" style=""><g><rect class="background" style="stroke: none"/></g><text xml:space="preserve" y="-10.1" style=""><tspan class="text-outer-tspan row" x="0" y="-0.1em" dy="1.1em"><tspan font-style="normal" class="text-inner-tspan" font-weight="normal">NEW</tspan></tspan></text></g><g class="label attribute-type" transform="translate(-255.02194213867188, 90.875)" style=""><g><rect class="background" style="stroke: none"/></g><text xml:space="preserve" y="-10.1" style=""><tspan class="text-outer-tspan row" x="0" y="-0.1em" dy="1.1em"><tspan font-style="normal" class="text-inner-tspan" font-weight="normal">TEXT_ARRAY</tspan></tspan></text></g><g class="label attribute-name" transform="translate(-137.4617919921875, 90.875)" style=""><g><rect class="background" style="stroke: none"/></g><text xml:space="preserve" y="-10.1" style=""><tspan class="text-outer-tspan row" x="0" y="-0.1em" dy="1.1em"><tspan font-style="normal" class="text-inner-tspan" font-weight="normal">aliases</tspan></tspan></text></g><g class="label attribute-keys" transform="translate(-40.4774169921875, 90.875)" style=""><g><rect class="background" style="stroke: none"/></g><text xml:space="preserve" y="-10.1" style=""><tspan class="text-outer-tspan row" x="0" y="-0.1em" dy="1.1em"/></text></g><g class="label attribute-comment" transform="translate(4.202606201171875, 90.875)" style=""><g><rect class="background" style="stroke: none"/></g><text xml:space="preserve" y="-10.1" style=""><tspan class="text-outer-tspan row" x="0" y="-0.1em" dy="1.1em"><tspan font-style="normal" class="text-inner-tspan" font-weight="normal">NEW</tspan><tspan font-style="normal" class="text-inner-tspan" font-weight="normal"> —</tspan><tspan font-style="normal" class="text-inner-tspan" font-weight="normal"> native</tspan><tspan font-style="normal" class="text-inner-tspan" font-weight="normal"> TEXT[]</tspan></tspan></text></g><g class="divider"><path d="M-267.5219421386719 -81.50005 L-267.5219421386719 -81.49995 L267.5219421386719 -81.49995 L267.5219421386719 -81.50005" stroke="none" stroke-width="0" fill="#ECECFF" fill-rule="evenodd"/><path d="M-267.5219421386719 -81.50005 C-267.5219421386719 -81.5000138031947, -267.5219421386719 -81.49997760638941, -267.5219421386719 -81.49995 M-267.5219421386719 -81.50005 C-267.5219421386719 -81.50002168388114, -267.5219421386719 -81.49999336776229, -267.5219421386719 -81.49995 M-267.5219421386719 -81.49995 C-73.61900075841788 -81.49995, 120.28394062183611 -81.49995, 267.5219421386719 -81.49995 M-267.5219421386719 -81.49995 C-123.5973261293714 -81.49995, 20.327289879929083 -81.49995, 267.5219421386719 -81.49995 M267.5219421386719 -81.49995 C267.5219421386719 -81.49998448204505, 267.5219421386719 -81.50001896409009, 267.5219421386719 -81.50005 M267.5219421386719 -81.49995 C267.5219421386719 -81.49997965823312, 267.5219421386719 -81.50000931646623, 267.5219421386719 -81.50005 M267.5219421386719 -81.50005 C123.99981895649478 -81.50005, -19.52230422568232 -81.50005, -267.5219421386719 -81.50005 M267.5219421386719 -81.50005 C104.67805026458976 -81.50005, -58.16584160949236 -81.50005, -267.5219421386719 -81.50005" stroke="#9370DB" stroke-width="1.3" fill="none" stroke-dasharray="0 0"/></g><g class="divider"><path d="M-149.9618419921875 -81.5 L-149.9617419921875 -81.5 L-149.9617419921875 122.25 L-149.9618419921875 122.25" stroke="none" stroke-width="0" fill="#ECECFF" fill-rule="evenodd"/><path d="M-149.9618419921875 -81.5 C-149.9618115681948 -81.5, -149.96178114420215 -81.5, -149.9617419921875 -81.5 M-149.9618419921875 -81.5 C-149.96181230560921 -81.5, -149.96178261903097 -81.5, -149.9617419921875 -81.5 M-149.9617419921875 -81.5 C-149.9617419921875 -33.43846476523704, -149.9617419921875 14.623070469525913, -149.9617419921875 122.25 M-149.9617419921875 -81.5 C-149.9617419921875 -37.99722297940429, -149.9617419921875 5.505554041191417, -149.9617419921875 122.25 M-149.9617419921875 122.25 C-149.96177768165128 122.25, -149.96181337111506 122.25, -149.9618419921875 122.25 M-149.9617419921875 122.25 C-149.96178175426112 122.25, -149.96182151633477 122.25, -149.9618419921875 122.25 M-149.9618419921875 122.25 C-149.9618419921875 41.42113278435848, -149.9618419921875 -39.407734431283046, -149.9618419921875 -81.5 M-149.9618419921875 122.25 C-149.9618419921875 76.39402356341735, -149.9618419921875 30.538047126834698, -149.9618419921875 -81.5" stroke="#9370DB" stroke-width="1.3" fill="none" stroke-dasharray="0 0"/></g><g class="divider"><path d="M-52.9774669921875 -81.5 L-52.9773669921875 -81.5 L-52.9773669921875 122.25 L-52.9774669921875 122.25" stroke="none" stroke-width="0" fill="#ECECFF" fill-rule="evenodd"/><path d="M-52.9774669921875 -81.5 C-52.97744581923019 -81.5, -52.97742464627288 -81.5, -52.9773669921875 -81.5 M-52.9774669921875 -81.5 C-52.977432052653306 -81.5, -52.97739711311911 -81.5, -52.9773669921875 -81.5 M-52.9773669921875 -81.5 C-52.9773669921875 -10.568114686606037, -52.9773669921875 60.363770626787925, -52.9773669921875 122.25 M-52.9773669921875 -81.5 C-52.9773669921875 -27.80234979273382, -52.9773669921875 25.895300414532358, -52.9773669921875 122.25 M-52.9773669921875 122.25 C-52.9774044376527 122.25, -52.977441883117905 122.25, -52.9774669921875 122.25 M-52.9773669921875 122.25 C-52.97740034244326 122.25, -52.97743369269903 122.25, -52.9774669921875 122.25 M-52.9774669921875 122.25 C-52.9774669921875 70.04908337083967, -52.9774669921875 17.848166741679336, -52.9774669921875 -81.5 M-52.9774669921875 122.25 C-52.9774669921875 59.55417021868168, -52.9774669921875 -3.141659562636633, -52.9774669921875 -81.5" stroke="#9370DB" stroke-width="1.3" fill="none" stroke-dasharray="0 0"/></g><g class="divider"><path d="M-8.297443798828125 -81.5 L-8.297343798828125 -81.5 L-8.297343798828125 122.25 L-8.297443798828125 122.25" stroke="none" stroke-width="0" fill="#ECECFF" fill-rule="evenodd"/><path d="M-8.297443798828125 -81.5 C-8.297407671564393 -81.5, -8.29737154430066 -81.5, -8.297343798828125 -81.5 M-8.297443798828125 -81.5 C-8.29740736632905 -81.5, -8.297370933829976 -81.5, -8.297343798828125 -81.5 M-8.297343798828125 -81.5 C-8.297343798828125 -26.335912219825154, -8.297343798828125 28.828175560349692, -8.297343798828125 122.25 M-8.297343798828125 -81.5 C-8.297343798828125 -19.27479366505689, -8.297343798828125 42.95041266988622, -8.297343798828125 122.25 M-8.297343798828125 122.25 C-8.297372744726633 122.25, -8.297401690625142 122.25, -8.297443798828125 122.25 M-8.297343798828125 122.25 C-8.297375650024327 122.25, -8.297407501220528 122.25, -8.297443798828125 122.25 M-8.297443798828125 122.25 C-8.297443798828125 60.611259140045014, -8.297443798828125 -1.0274817199099715, -8.297443798828125 -81.5 M-8.297443798828125 122.25 C-8.297443798828125 41.35667236464201, -8.297443798828125 -39.53665527071598, -8.297443798828125 -81.5" stroke="#9370DB" stroke-width="1.3" fill="none" stroke-dasharray="0 0"/></g><g class="divider"><path d="M-267.5219421386719 -81.50005 L-267.5219421386719 -81.49995 L267.5219421386719 -81.49995 L267.5219421386719 -81.50005" stroke="none" stroke-width="0" fill="#ECECFF" fill-rule="evenodd"/><path d="M-267.5219421386719 -81.50005 C-267.5219421386719 -81.50002778868358, -267.5219421386719 -81.50000557736715, -267.5219421386719 -81.49995 M-267.5219421386719 -81.50005 C-267.5219421386719 -81.50001846381758, -267.5219421386719 -81.49998692763516, -267.5219421386719 -81.49995 M-267.5219421386719 -81.49995 C-77.66910838508448 -81.49995, 112.1837253685029 -81.49995, 267.5219421386719 -81.49995 M-267.5219421386719 -81.49995 C-125.99601076830524 -81.49995, 15.529920602061395 -81.49995, 267.5219421386719 -81.49995 M267.5219421386719 -81.49995 C267.5219421386719 -81.499973671294, 267.5219421386719 -81.499997342588, 267.5219421386719 -81.50005 M267.5219421386719 -81.49995 C267.5219421386719 -81.49997906926035, 267.5219421386719 -81.50000813852071, 267.5219421386719 -81.50005 M267.5219421386719 -81.50005 C111.32683194179268 -81.50005, -44.86827825508652 -81.50005, -267.5219421386719 -81.50005 M267.5219421386719 -81.50005 C94.11731152108811 -81.50005, -79.28731909649565 -81.50005, -267.5219421386719 -81.50005" stroke="#9370DB" stroke-width="1.3" fill="none" stroke-dasharray="0 0"/></g></g><g class="node default" id="my-svg-entity-concept_family_membership-2" data-look="classic" transform="translate(174.96762084960938, 825.6999969482422)"><g class="outer-path" style=""><path d="M-166.96761322021484 -81.5 L166.96761322021484 -81.5 L166.96761322021484 81.5 L-166.96761322021484 81.5" stroke="none" stroke-width="0" fill="#ECECFF"/><path d="M-166.96761322021484 -81.5 C-91.61853665421874 -81.5, -16.269460088222644 -81.5, 166.96761322021484 -81.5 M-166.96761322021484 -81.5 C-41.18323569873961 -81.5, 84.60114182273563 -81.5, 166.96761322021484 -81.5 M166.96761322021484 -81.5 C166.96761322021484 -31.607323919654128, 166.96761322021484 18.285352160691744, 166.96761322021484 81.5 M166.96761322021484 -81.5 C166.96761322021484 -21.01880565836609, 166.96761322021484 39.46238868326782, 166.96761322021484 81.5 M166.96761322021484 81.5 C57.16426857327629 81.5, -52.63907607366227 81.5, -166.96761322021484 81.5 M166.96761322021484 81.5 C36.81075600916239 81.5, -93.34610120189006 81.5, -166.96761322021484 81.5 M-166.96761322021484 81.5 C-166.96761322021484 28.652433995838088, -166.96761322021484 -24.195132008323824, -166.96761322021484 -81.5 M-166.96761322021484 81.5 C-166.96761322021484 32.85491769532764, -166.96761322021484 -15.790164609344714, -166.96761322021484 -81.5" stroke="#9370DB" stroke-width="1.3" fill="none" stroke-dasharray="0 0"/></g><g style="" class="row-rect-odd"><path d="M-166.96761322021484 -40.75 L166.96761322021484 -40.75 L166.96761322021484 0 L-166.96761322021484 0" stroke="none" stroke-width="0" fill="hsl(240, 100%, 100%)"/><path d="M-166.96761322021484 -40.75 C-45.98488659345814 -40.75, 74.99784003329856 -40.75, 166.96761322021484 -40.75 M-166.96761322021484 -40.75 C-82.86538326185466 -40.75, 1.2368466965055234 -40.75, 166.96761322021484 -40.75 M166.96761322021484 -40.75 C166.96761322021484 -26.2588305168712, 166.96761322021484 -11.767661033742403, 166.96761322021484 0 M166.96761322021484 -40.75 C166.96761322021484 -31.48713450208203, 166.96761322021484 -22.224269004164054, 166.96761322021484 0 M166.96761322021484 0 C35.46314842253307 0, -96.04131637514871 0, -166.96761322021484 0 M166.96761322021484 0 C91.5660399879687 0, 16.164466755722543 0, -166.96761322021484 0 M-166.96761322021484 0 C-166.96761322021484 -16.103698123584493, -166.96761322021484 -32.20739624716899, -166.96761322021484 -40.75 M-166.96761322021484 0 C-166.96761322021484 -15.12429297392992, -166.96761322021484 -30.24858594785984, -166.96761322021484 -40.75" stroke="#9370DB" stroke-width="1.3" fill="none" stroke-dasharray="0 0"/></g><g style="" class="row-rect-even"><path d="M-166.96761322021484 0 L166.96761322021484 0 L166.96761322021484 40.75 L-166.96761322021484 40.75" stroke="none" stroke-width="0" fill="hsl(240, 100%, 97.2745098039%)"/><path d="M-166.96761322021484 0 C-51.417129349920856 0, 64.13335452037313 0, 166.96761322021484 0 M-166.96761322021484 0 C-97.56516487159176 0, -28.16271652296868 0, 166.96761322021484 0 M166.96761322021484 0 C166.96761322021484 14.394936897605328, 166.96761322021484 28.789873795210656, 166.96761322021484 40.75 M166.96761322021484 0 C166.96761322021484 8.794238599938403, 166.96761322021484 17.588477199876806, 166.96761322021484 40.75 M166.96761322021484 40.75 C91.51959713503332 40.75, 16.0715810498518 40.75, -166.96761322021484 40.75 M166.96761322021484 40.75 C45.67557238906788 40.75, -75.61646844207908 40.75, -166.96761322021484 40.75 M-166.96761322021484 40.75 C-166.96761322021484 28.885512481657706, -166.96761322021484 17.021024963315412, -166.96761322021484 0 M-166.96761322021484 40.75 C-166.96761322021484 30.790973522480705, -166.96761322021484 20.831947044961407, -166.96761322021484 0" stroke="#9370DB" stroke-width="1.3" fill="none" stroke-dasharray="0 0"/></g><g style="" class="row-rect-odd"><path d="M-166.96761322021484 40.75 L166.96761322021484 40.75 L166.96761322021484 81.5 L-166.96761322021484 81.5" stroke="none" stroke-width="0" fill="hsl(240, 100%, 100%)"/><path d="M-166.96761322021484 40.75 C-69.95291391155281 40.75, 27.06178539710922 40.75, 166.96761322021484 40.75 M-166.96761322021484 40.75 C-95.69732113362173 40.75, -24.42702904702861 40.75, 166.96761322021484 40.75 M166.96761322021484 40.75 C166.96761322021484 54.43658702011026, 166.96761322021484 68.12317404022052, 166.96761322021484 81.5 M166.96761322021484 40.75 C166.96761322021484 49.46656658202129, 166.96761322021484 58.183133164042566, 166.96761322021484 81.5 M166.96761322021484 81.5 C76.76066793449966 81.5, -13.446277351215514 81.5, -166.96761322021484 81.5 M166.96761322021484 81.5 C48.617806212001526 81.5, -69.73200079621179 81.5, -166.96761322021484 81.5 M-166.96761322021484 81.5 C-166.96761322021484 66.17907566282265, -166.96761322021484 50.85815132564531, -166.96761322021484 40.75 M-166.96761322021484 81.5 C-166.96761322021484 68.81000094235429, -166.96761322021484 56.120001884708586, -166.96761322021484 40.75" stroke="#9370DB" stroke-width="1.3" fill="none" stroke-dasharray="0 0"/></g><g class="label name" transform="translate(-107.7890625, -72.125)" style=""><g><rect class="background" style="stroke: none"/></g><text xml:space="preserve" y="-10.1" style=""><tspan class="text-outer-tspan row" x="0" y="-0.1em" dy="1.1em"><tspan font-style="normal" class="text-inner-tspan" font-weight="normal">concept_family_membership</tspan></tspan></text></g><g class="label attribute-type" transform="translate(-154.46761322021484, -31.375)" style=""><g><rect class="background" style="stroke: none"/></g><text xml:space="preserve" y="-10.1" style=""><tspan class="text-outer-tspan row" x="0" y="-0.1em" dy="1.1em"><tspan font-style="normal" class="text-inner-tspan" font-weight="normal">TEXT</tspan></tspan></text></g><g class="label attribute-name" transform="translate(-54.405113220214844, -31.375)" style=""><g><rect class="background" style="stroke: none"/></g><text xml:space="preserve" y="-10.1" style=""><tspan class="text-outer-tspan row" x="0" y="-0.1em" dy="1.1em"><tspan font-style="normal" class="text-inner-tspan" font-weight="normal">concept_id</tspan></tspan></text></g><g class="label attribute-keys" transform="translate(51.235511779785156, -31.375)" style=""><g><rect class="background" style="stroke: none"/></g><text xml:space="preserve" y="-10.1" style=""><tspan class="text-outer-tspan row" x="0" y="-0.1em" dy="1.1em"><tspan font-style="normal" class="text-inner-tspan" font-weight="normal">PK,FK</tspan></tspan></text></g><g class="label attribute-comment" transform="translate(118.41158294677734, -31.375)" style=""><g><rect class="background" style="stroke: none"/></g><text xml:space="preserve" y="-10.1" style=""><tspan class="text-outer-tspan row" x="0" y="-0.1em" dy="1.1em"><tspan font-style="normal" class="text-inner-tspan" font-weight="normal">NEW</tspan></tspan></text></g><g class="label attribute-type" transform="translate(-154.46761322021484, 9.375)" style=""><g><rect class="background" style="stroke: none"/></g><text xml:space="preserve" y="-10.1" style=""><tspan class="text-outer-tspan row" x="0" y="-0.1em" dy="1.1em"><tspan font-style="normal" class="text-inner-tspan" font-weight="normal">TEXT</tspan></tspan></text></g><g class="label attribute-name" transform="translate(-54.405113220214844, 9.375)" style=""><g><rect class="background" style="stroke: none"/></g><text xml:space="preserve" y="-10.1" style=""><tspan class="text-outer-tspan row" x="0" y="-0.1em" dy="1.1em"><tspan font-style="normal" class="text-inner-tspan" font-weight="normal">family_id</tspan></tspan></text></g><g class="label attribute-keys" transform="translate(51.235511779785156, 9.375)" style=""><g><rect class="background" style="stroke: none"/></g><text xml:space="preserve" y="-10.1" style=""><tspan class="text-outer-tspan row" x="0" y="-0.1em" dy="1.1em"><tspan font-style="normal" class="text-inner-tspan" font-weight="normal">PK,FK</tspan></tspan></text></g><g class="label attribute-comment" transform="translate(118.41158294677734, 9.375)" style=""><g><rect class="background" style="stroke: none"/></g><text xml:space="preserve" y="-10.1" style=""><tspan class="text-outer-tspan row" x="0" y="-0.1em" dy="1.1em"><tspan font-style="normal" class="text-inner-tspan" font-weight="normal">NEW</tspan></tspan></text></g><g class="label attribute-type" transform="translate(-154.46761322021484, 50.125)" style=""><g><rect class="background" style="stroke: none"/></g><text xml:space="preserve" y="-10.1" style=""><tspan class="text-outer-tspan row" x="0" y="-0.1em" dy="1.1em"><tspan font-style="normal" class="text-inner-tspan" font-weight="normal">BOOLEAN</tspan></tspan></text></g><g class="label attribute-name" transform="translate(-54.405113220214844, 50.125)" style=""><g><rect class="background" style="stroke: none"/></g><text xml:space="preserve" y="-10.1" style=""><tspan class="text-outer-tspan row" x="0" y="-0.1em" dy="1.1em"><tspan font-style="normal" class="text-inner-tspan" font-weight="normal">is_primary</tspan></tspan></text></g><g class="label attribute-keys" transform="translate(51.235511779785156, 50.125)" style=""><g><rect class="background" style="stroke: none"/></g><text xml:space="preserve" y="-10.1" style=""><tspan class="text-outer-tspan row" x="0" y="-0.1em" dy="1.1em"/></text></g><g class="label attribute-comment" transform="translate(118.41158294677734, 50.125)" style=""><g><rect class="background" style="stroke: none"/></g><text xml:space="preserve" y="-10.1" style=""><tspan class="text-outer-tspan row" x="0" y="-0.1em" dy="1.1em"><tspan font-style="normal" class="text-inner-tspan" font-weight="normal">NEW</tspan></tspan></text></g><g class="divider"><path d="M-166.96761322021484 -40.75005 L-166.96761322021484 -40.74995 L166.96761322021484 -40.74995 L166.96761322021484 -40.75005" stroke="none" stroke-width="0" fill="#ECECFF" fill-rule="evenodd"/><path d="M-166.96761322021484 -40.75005 C-166.96761322021484 -40.7500229433256, -166.96761322021484 -40.74999588665119, -166.96761322021484 -40.74995 M-166.96761322021484 -40.75005 C-166.96761322021484 -40.750029564217776, -166.96761322021484 -40.75000912843555, -166.96761322021484 -40.74995 M-166.96761322021484 -40.74995 C-54.395927155468215 -40.74995, 58.175758909278414 -40.74995, 166.96761322021484 -40.74995 M-166.96761322021484 -40.74995 C-75.59197859160774 -40.74995, 15.78365603699936 -40.74995, 166.96761322021484 -40.74995 M166.96761322021484 -40.74995 C166.96761322021484 -40.74997388127947, 166.96761322021484 -40.749997762558955, 166.96761322021484 -40.75005 M166.96761322021484 -40.74995 C166.96761322021484 -40.74998903355004, 166.96761322021484 -40.75002806710007, 166.96761322021484 -40.75005 M166.96761322021484 -40.75005 C99.61020352493006 -40.75005, 32.25279382964527 -40.75005, -166.96761322021484 -40.75005 M166.96761322021484 -40.75005 C74.85396934233364 -40.75005, -17.25967453554756 -40.75005, -166.96761322021484 -40.75005" stroke="#9370DB" stroke-width="1.3" fill="none" stroke-dasharray="0 0"/></g><g class="divider"><path d="M-66.90516322021485 -40.75 L-66.90506322021484 -40.75 L-66.90506322021484 81.5 L-66.90516322021485 81.5" stroke="none" stroke-width="0" fill="#ECECFF" fill-rule="evenodd"/><path d="M-66.90516322021485 -40.75 C-66.90512539938454 -40.75, -66.90508757855424 -40.75, -66.90506322021484 -40.75 M-66.90516322021485 -40.75 C-66.9051279909249 -40.75, -66.90509276163496 -40.75, -66.90506322021484 -40.75 M-66.90506322021484 -40.75 C-66.90506322021484 -5.187837188850921, -66.90506322021484 30.37432562229816, -66.90506322021484 81.5 M-66.90506322021484 -40.75 C-66.90506322021484 -4.093253736775168, -66.90506322021484 32.563492526449664, -66.90506322021484 81.5 M-66.90506322021484 81.5 C-66.90509409975004 81.5, -66.90512497928523 81.5, -66.90516322021485 81.5 M-66.90506322021484 81.5 C-66.90509212398179 81.5, -66.90512102774872 81.5, -66.90516322021485 81.5 M-66.90516322021485 81.5 C-66.90516322021485 49.06838542439415, -66.90516322021485 16.636770848788302, -66.90516322021485 -40.75 M-66.90516322021485 81.5 C-66.90516322021485 37.46332997336066, -66.90516322021485 -6.5733400532786845, -66.90516322021485 -40.75" stroke="#9370DB" stroke-width="1.3" fill="none" stroke-dasharray="0 0"/></g><g class="divider"><path d="M38.735461779785155 -40.75 L38.73556177978516 -40.75 L38.73556177978516 81.5 L38.735461779785155 81.5" stroke="none" stroke-width="0" fill="#ECECFF" fill-rule="evenodd"/><path d="M38.735461779785155 -40.75 C38.73548300142676 -40.75, 38.73550422306837 -40.75, 38.73556177978516 -40.75 M38.735461779785155 -40.75 C38.7354883796537 -40.75, 38.73551497952225 -40.75, 38.73556177978516 -40.75 M38.73556177978516 -40.75 C38.73556177978516 6.328806490472395, 38.73556177978516 53.40761298094479, 38.73556177978516 81.5 M38.73556177978516 -40.75 C38.73556177978516 -4.899139119524811, 38.73556177978516 30.951721760950377, 38.73556177978516 81.5 M38.73556177978516 81.5 C38.735536405569796 81.5, 38.735511031354434 81.5, 38.735461779785155 81.5 M38.73556177978516 81.5 C38.735522402918974 81.5, 38.73548302605278 81.5, 38.735461779785155 81.5 M38.735461779785155 81.5 C38.735461779785155 43.7549574484073, 38.735461779785155 6.009914896814607, 38.735461779785155 -40.75 M38.735461779785155 81.5 C38.735461779785155 51.723906462268246, 38.735461779785155 21.947812924536485, 38.735461779785155 -40.75" stroke="#9370DB" stroke-width="1.3" fill="none" stroke-dasharray="0 0"/></g><g class="divider"><path d="M105.91153294677734 -40.75 L105.91163294677735 -40.75 L105.91163294677735 81.5 L105.91153294677734 81.5" stroke="none" stroke-width="0" fill="#ECECFF" fill-rule="evenodd"/><path d="M105.91153294677734 -40.75 C105.91157221791032 -40.75, 105.91161148904331 -40.75, 105.91163294677735 -40.75 M105.91153294677734 -40.75 C105.91156596611599 -40.75, 105.91159898545463 -40.75, 105.91163294677735 -40.75 M105.91163294677735 -40.75 C105.91163294677735 3.314337028277322, 105.91163294677735 47.378674056554644, 105.91163294677735 81.5 M105.91163294677735 -40.75 C105.91163294677735 -14.805753540335726, 105.91163294677735 11.138492919328549, 105.91163294677735 81.5 M105.91163294677735 81.5 C105.91159925677432 81.5, 105.9115655667713 81.5, 105.91153294677734 81.5 M105.91163294677735 81.5 C105.91160570487568 81.5, 105.91157846297402 81.5, 105.91153294677734 81.5 M105.91153294677734 81.5 C105.91153294677734 46.273800533012356, 105.91153294677734 11.047601066024711, 105.91153294677734 -40.75 M105.91153294677734 81.5 C105.91153294677734 55.617638482323464, 105.91153294677734 29.73527696464693, 105.91153294677734 -40.75" stroke="#9370DB" stroke-width="1.3" fill="none" stroke-dasharray="0 0"/></g><g class="divider"><path d="M-166.96761322021484 -40.75005 L-166.96761322021484 -40.74995 L166.96761322021484 -40.74995 L166.96761322021484 -40.75005" stroke="none" stroke-width="0" fill="#ECECFF" fill-rule="evenodd"/><path d="M-166.96761322021484 -40.75005 C-166.96761322021484 -40.75002547223007, -166.96761322021484 -40.75000094446015, -166.96761322021484 -40.74995 M-166.96761322021484 -40.75005 C-166.96761322021484 -40.75002573284407, -166.96761322021484 -40.75000146568814, -166.96761322021484 -40.74995 M-166.96761322021484 -40.74995 C-49.187560038286904 -40.74995, 68.59249314364104 -40.74995, 166.96761322021484 -40.74995 M-166.96761322021484 -40.74995 C-72.12694167666744 -40.74995, 22.71372986687996 -40.74995, 166.96761322021484 -40.74995 M166.96761322021484 -40.74995 C166.96761322021484 -40.749988231964316, 166.96761322021484 -40.75002646392864, 166.96761322021484 -40.75005 M166.96761322021484 -40.74995 C166.96761322021484 -40.749975768789895, 166.96761322021484 -40.75000153757979, 166.96761322021484 -40.75005 M166.96761322021484 -40.75005 C57.36598529091209 -40.75005, -52.23564263839066 -40.75005, -166.96761322021484 -40.75005 M166.96761322021484 -40.75005 C99.3946122173561 -40.75005, 31.821611214497352 -40.75005, -166.96761322021484 -40.75005" stroke="#9370DB" stroke-width="1.3" fill="none" stroke-dasharray="0 0"/></g></g><g class="node default" id="my-svg-entity-concept_aliases-3" data-look="classic" transform="translate(638.8095397949219, 825.6999969482422)"><g class="outer-path" style=""><path d="M-147.5203857421875 -61.125 L147.5203857421875 -61.125 L147.5203857421875 61.125 L-147.5203857421875 61.125" stroke="none" stroke-width="0" fill="#ECECFF"/><path d="M-147.5203857421875 -61.125 C-62.42240142794276 -61.125, 22.67558288630198 -61.125, 147.5203857421875 -61.125 M-147.5203857421875 -61.125 C-39.77630341133485 -61.125, 67.9677789195178 -61.125, 147.5203857421875 -61.125 M147.5203857421875 -61.125 C147.5203857421875 -30.077085740658354, 147.5203857421875 0.970828518683291, 147.5203857421875 61.125 M147.5203857421875 -61.125 C147.5203857421875 -33.39698669184766, 147.5203857421875 -5.668973383695317, 147.5203857421875 61.125 M147.5203857421875 61.125 C55.30419942938511 61.125, -36.911986883417285 61.125, -147.5203857421875 61.125 M147.5203857421875 61.125 C37.22849576168991 61.125, -73.06339421880767 61.125, -147.5203857421875 61.125 M-147.5203857421875 61.125 C-147.5203857421875 29.655536161114135, -147.5203857421875 -1.81392767777173, -147.5203857421875 -61.125 M-147.5203857421875 61.125 C-147.5203857421875 34.48674584677852, -147.5203857421875 7.84849169355703, -147.5203857421875 -61.125" stroke="#9370DB" stroke-width="1.3" fill="none" stroke-dasharray="0 0"/></g><g style="" class="row-rect-odd"><path d="M-147.5203857421875 -20.375 L147.5203857421875 -20.375 L147.5203857421875 20.375 L-147.5203857421875 20.375" stroke="none" stroke-width="0" fill="hsl(240, 100%, 100%)"/><path d="M-147.5203857421875 -20.375 C-42.19615215144202 -20.375, 63.12808143930346 -20.375, 147.5203857421875 -20.375 M-147.5203857421875 -20.375 C-56.996122660146455 -20.375, 33.52814042189459 -20.375, 147.5203857421875 -20.375 M147.5203857421875 -20.375 C147.5203857421875 -11.989336226461148, 147.5203857421875 -3.6036724529222965, 147.5203857421875 20.375 M147.5203857421875 -20.375 C147.5203857421875 -10.619507958314317, 147.5203857421875 -0.8640159166286345, 147.5203857421875 20.375 M147.5203857421875 20.375 C71.59808095628617 20.375, -4.324223829615164 20.375, -147.5203857421875 20.375 M147.5203857421875 20.375 C75.27872203741612 20.375, 3.037058332644733 20.375, -147.5203857421875 20.375 M-147.5203857421875 20.375 C-147.5203857421875 7.408060847500469, -147.5203857421875 -5.558878304999062, -147.5203857421875 -20.375 M-147.5203857421875 20.375 C-147.5203857421875 10.240306287834075, -147.5203857421875 0.1056125756681503, -147.5203857421875 -20.375" stroke="#9370DB" stroke-width="1.3" fill="none" stroke-dasharray="0 0"/></g><g style="" class="row-rect-even"><path d="M-147.5203857421875 20.375 L147.5203857421875 20.375 L147.5203857421875 61.125 L-147.5203857421875 61.125" stroke="none" stroke-width="0" fill="hsl(240, 100%, 97.2745098039%)"/><path d="M-147.5203857421875 20.375 C-63.80554049311834 20.375, 19.909304755950814 20.375, 147.5203857421875 20.375 M-147.5203857421875 20.375 C-62.27923197028224 20.375, 22.96192180162302 20.375, 147.5203857421875 20.375 M147.5203857421875 20.375 C147.5203857421875 35.2050860622754, 147.5203857421875 50.0351721245508, 147.5203857421875 61.125 M147.5203857421875 20.375 C147.5203857421875 28.89402618737863, 147.5203857421875 37.41305237475726, 147.5203857421875 61.125 M147.5203857421875 61.125 C69.17071801106725 61.125, -9.178949720052998 61.125, -147.5203857421875 61.125 M147.5203857421875 61.125 C71.513052684794 61.125, -4.494280372599491 61.125, -147.5203857421875 61.125 M-147.5203857421875 61.125 C-147.5203857421875 47.11481534947418, -147.5203857421875 33.104630698948355, -147.5203857421875 20.375 M-147.5203857421875 61.125 C-147.5203857421875 52.477355526799215, -147.5203857421875 43.82971105359844, -147.5203857421875 20.375" stroke="#9370DB" stroke-width="1.3" fill="none" stroke-dasharray="0 0"/></g><g class="label name" transform="translate(-58.6171875, -51.75)" style=""><g><rect class="background" style="stroke: none"/></g><text xml:space="preserve" y="-10.1" style=""><tspan class="text-outer-tspan row" x="0" y="-0.1em" dy="1.1em"><tspan font-style="normal" class="text-inner-tspan" font-weight="normal">concept_aliases</tspan></tspan></text></g><g class="label attribute-type" transform="translate(-135.0203857421875, -11)" style=""><g><rect class="background" style="stroke: none"/></g><text xml:space="preserve" y="-10.1" style=""><tspan class="text-outer-tspan row" x="0" y="-0.1em" dy="1.1em"><tspan font-style="normal" class="text-inner-tspan" font-weight="normal">TEXT</tspan></tspan></text></g><g class="label attribute-name" transform="translate(-73.85234069824219, -11)" style=""><g><rect class="background" style="stroke: none"/></g><text xml:space="preserve" y="-10.1" style=""><tspan class="text-outer-tspan row" x="0" y="-0.1em" dy="1.1em"><tspan font-style="normal" class="text-inner-tspan" font-weight="normal">concept_id</tspan></tspan></text></g><g class="label attribute-keys" transform="translate(31.788284301757812, -11)" style=""><g><rect class="background" style="stroke: none"/></g><text xml:space="preserve" y="-10.1" style=""><tspan class="text-outer-tspan row" x="0" y="-0.1em" dy="1.1em"><tspan font-style="normal" class="text-inner-tspan" font-weight="normal">PK,FK</tspan></tspan></text></g><g class="label attribute-comment" transform="translate(98.96435546875, -11)" style=""><g><rect class="background" style="stroke: none"/></g><text xml:space="preserve" y="-10.1" style=""><tspan class="text-outer-tspan row" x="0" y="-0.1em" dy="1.1em"><tspan font-style="normal" class="text-inner-tspan" font-weight="normal">NEW</tspan></tspan></text></g><g class="label attribute-type" transform="translate(-135.0203857421875, 29.75)" style=""><g><rect class="background" style="stroke: none"/></g><text xml:space="preserve" y="-10.1" style=""><tspan class="text-outer-tspan row" x="0" y="-0.1em" dy="1.1em"><tspan font-style="normal" class="text-inner-tspan" font-weight="normal">TEXT</tspan></tspan></text></g><g class="label attribute-name" transform="translate(-73.85234069824219, 29.75)" style=""><g><rect class="background" style="stroke: none"/></g><text xml:space="preserve" y="-10.1" style=""><tspan class="text-outer-tspan row" x="0" y="-0.1em" dy="1.1em"><tspan font-style="normal" class="text-inner-tspan" font-weight="normal">alias</tspan></tspan></text></g><g class="label attribute-keys" transform="translate(31.788284301757812, 29.75)" style=""><g><rect class="background" style="stroke: none"/></g><text xml:space="preserve" y="-10.1" style=""><tspan class="text-outer-tspan row" x="0" y="-0.1em" dy="1.1em"><tspan font-style="normal" class="text-inner-tspan" font-weight="normal">PK</tspan></tspan></text></g><g class="label attribute-comment" transform="translate(98.96435546875, 29.75)" style=""><g><rect class="background" style="stroke: none"/></g><text xml:space="preserve" y="-10.1" style=""><tspan class="text-outer-tspan row" x="0" y="-0.1em" dy="1.1em"><tspan font-style="normal" class="text-inner-tspan" font-weight="normal">NEW</tspan></tspan></text></g><g class="divider"><path d="M-147.5203857421875 -20.37505 L-147.5203857421875 -20.37495 L147.5203857421875 -20.37495 L147.5203857421875 -20.37505" stroke="none" stroke-width="0" fill="#ECECFF" fill-rule="evenodd"/><path d="M-147.5203857421875 -20.37505 C-147.5203857421875 -20.375015689806258, -147.5203857421875 -20.37498137961251, -147.5203857421875 -20.37495 M-147.5203857421875 -20.37505 C-147.5203857421875 -20.375023684187617, -147.5203857421875 -20.374997368375237, -147.5203857421875 -20.37495 M-147.5203857421875 -20.37495 C-80.60823419181267 -20.37495, -13.69608264143784 -20.37495, 147.5203857421875 -20.37495 M-147.5203857421875 -20.37495 C-65.17242881791107 -20.37495, 17.175528106365363 -20.37495, 147.5203857421875 -20.37495 M147.5203857421875 -20.37495 C147.5203857421875 -20.374984341379513, 147.5203857421875 -20.37501868275903, 147.5203857421875 -20.37505 M147.5203857421875 -20.37495 C147.5203857421875 -20.37497031657118, 147.5203857421875 -20.37499063314236, 147.5203857421875 -20.37505 M147.5203857421875 -20.37505 C73.30793486843913 -20.37505, -0.9045160053092332 -20.37505, -147.5203857421875 -20.37505 M147.5203857421875 -20.37505 C84.62652166337566 -20.37505, 21.732657584563825 -20.37505, -147.5203857421875 -20.37505" stroke="#9370DB" stroke-width="1.3" fill="none" stroke-dasharray="0 0"/></g><g class="divider"><path d="M-86.35239069824219 -20.375 L-86.35229069824219 -20.375 L-86.35229069824219 61.125 L-86.35239069824219 61.125" stroke="none" stroke-width="0" fill="#ECECFF" fill-rule="evenodd"/><path d="M-86.35239069824219 -20.375 C-86.35235316388597 -20.375, -86.35231562952974 -20.375, -86.35229069824219 -20.375 M-86.35239069824219 -20.375 C-86.35235156517145 -20.375, -86.35231243210069 -20.375, -86.35229069824219 -20.375 M-86.35229069824219 -20.375 C-86.35229069824219 2.7179885543905975, -86.35229069824219 25.810977108781195, -86.35229069824219 61.125 M-86.35229069824219 -20.375 C-86.35229069824219 4.4521536645124975, -86.35229069824219 29.279307329024995, -86.35229069824219 61.125 M-86.35229069824219 61.125 C-86.35231472822491 61.125, -86.35233875820764 61.125, -86.35239069824219 61.125 M-86.35229069824219 61.125 C-86.35232162850872 61.125, -86.35235255877524 61.125, -86.35239069824219 61.125 M-86.35239069824219 61.125 C-86.35239069824219 41.916589793261004, -86.35239069824219 22.708179586522007, -86.35239069824219 -20.375 M-86.35239069824219 61.125 C-86.35239069824219 43.31358580359803, -86.35239069824219 25.502171607196054, -86.35239069824219 -20.375" stroke="#9370DB" stroke-width="1.3" fill="none" stroke-dasharray="0 0"/></g><g class="divider"><path d="M19.28823430175781 -20.375 L19.288334301757814 -20.375 L19.288334301757814 61.125 L19.28823430175781 61.125" stroke="none" stroke-width="0" fill="#ECECFF" fill-rule="evenodd"/><path d="M19.28823430175781 -20.375 C19.288260357314716 -20.375, 19.28828641287162 -20.375, 19.288334301757814 -20.375 M19.28823430175781 -20.375 C19.288256636883133 -20.375, 19.288278972008452 -20.375, 19.288334301757814 -20.375 M19.288334301757814 -20.375 C19.288334301757814 -1.575114282031489, 19.288334301757814 17.224771435937022, 19.288334301757814 61.125 M19.288334301757814 -20.375 C19.288334301757814 -2.011171779522485, 19.288334301757814 16.35265644095503, 19.288334301757814 61.125 M19.288334301757814 61.125 C19.288306321891806 61.125, 19.2882783420258 61.125, 19.28823430175781 61.125 M19.288334301757814 61.125 C19.28830464826052 61.125, 19.28827499476323 61.125, 19.28823430175781 61.125 M19.28823430175781 61.125 C19.28823430175781 38.10250784836833, 19.28823430175781 15.080015696736659, 19.28823430175781 -20.375 M19.28823430175781 61.125 C19.28823430175781 39.17736972544855, 19.28823430175781 17.2297394508971, 19.28823430175781 -20.375" stroke="#9370DB" stroke-width="1.3" fill="none" stroke-dasharray="0 0"/></g><g class="divider"><path d="M86.46430546875 -20.375 L86.46440546875 -20.375 L86.46440546875 61.125 L86.46430546875 61.125" stroke="none" stroke-width="0" fill="#ECECFF" fill-rule="evenodd"/><path d="M86.46430546875 -20.375 C86.46432751293845 -20.375, 86.46434955712692 -20.375, 86.46440546875 -20.375 M86.46430546875 -20.375 C86.46433697035957 -20.375, 86.46436847196914 -20.375, 86.46440546875 -20.375 M86.46440546875 -20.375 C86.46440546875 -1.5125776244784284, 86.46440546875 17.349844751043143, 86.46440546875 61.125 M86.46440546875 -20.375 C86.46440546875 4.204338703307609, 86.46440546875 28.78367740661522, 86.46440546875 61.125 M86.46440546875 61.125 C86.46436996219822 61.125, 86.46433445564644 61.125, 86.46430546875 61.125 M86.46440546875 61.125 C86.46438417310607 61.125, 86.46436287746214 61.125, 86.46430546875 61.125 M86.46430546875 61.125 C86.46430546875 38.85123360611156, 86.46430546875 16.577467212223127, 86.46430546875 -20.375 M86.46430546875 61.125 C86.46430546875 41.62801303723731, 86.46430546875 22.13102607447461, 86.46430546875 -20.375" stroke="#9370DB" stroke-width="1.3" fill="none" stroke-dasharray="0 0"/></g><g class="divider"><path d="M-147.5203857421875 -20.37505 L-147.5203857421875 -20.37495 L147.5203857421875 -20.37495 L147.5203857421875 -20.37505" stroke="none" stroke-width="0" fill="#ECECFF" fill-rule="evenodd"/><path d="M-147.5203857421875 -20.37505 C-147.5203857421875 -20.375026423356385, -147.5203857421875 -20.375002846712764, -147.5203857421875 -20.37495 M-147.5203857421875 -20.37505 C-147.5203857421875 -20.375028744868576, -147.5203857421875 -20.375007489737154, -147.5203857421875 -20.37495 M-147.5203857421875 -20.37495 C-47.529873661310546 -20.37495, 52.46063841956641 -20.37495, 147.5203857421875 -20.37495 M-147.5203857421875 -20.37495 C-44.837114438785605 -20.37495, 57.84615686461629 -20.37495, 147.5203857421875 -20.37495 M147.5203857421875 -20.37495 C147.5203857421875 -20.37497713221732, 147.5203857421875 -20.375004264434647, 147.5203857421875 -20.37505 M147.5203857421875 -20.37495 C147.5203857421875 -20.374989812943085, 147.5203857421875 -20.37502962588617, 147.5203857421875 -20.37505 M147.5203857421875 -20.37505 C33.66494925081638 -20.37505, -80.19048724055475 -20.37505, -147.5203857421875 -20.37505 M147.5203857421875 -20.37505 C52.40432766684749 -20.37505, -42.711730408492514 -20.37505, -147.5203857421875 -20.37505" stroke="#9370DB" stroke-width="1.3" fill="none" stroke-dasharray="0 0"/></g></g><g class="label edgeLabel" id="entity-concept_families-1---entity-concept_families-1---1" transform="translate(1037.9475082401186, 498.3499984741211)"><rect width="0.1" height="0.1"/><g class="label" style="" transform="translate(0, 0)"><rect/><g><rect class="background" style="stroke: none"/><text xml:space="preserve" y="-10.1" style=""><tspan class="text-outer-tspan row" x="0" y="-0.1em" dy="1.1em"/></text></g></g></g><g class="label edgeLabel" id="entity-concept_families-1---entity-concept_families-1---2" transform="translate(993.5427345279604, 825.6999969482422)"><rect width="0.1" height="0.1"/><g class="label" style="" transform="translate(0, 0)"><rect/><g><rect class="background" style="stroke: none"/><text xml:space="preserve" y="-10.1" style=""><tspan class="text-outer-tspan row" x="0" y="-0.1em" dy="1.1em"/></text></g></g></g></g></g></g><defs><filter id="my-svg-drop-shadow" height="130%" width="130%"><feDropShadow dx="4" dy="4" stdDeviation="0" flood-opacity="0.06" flood-color="#000000"/></filter></defs><defs><filter id="my-svg-drop-shadow-small" height="150%" width="150%"><feDropShadow dx="2" dy="2" stdDeviation="0" flood-opacity="0.06" flood-color="#000000"/></filter></defs></svg>