<svg id="my-svg" width="100%" xmlns="http://www.w3.org/2000/svg" xmlns:xlink="http://www.w3.org/1999/xlink" class="erDiagram" style="max-width: 882.555px; background-color: white;" viewBox="0 0 882.5550537109375 301.25" role="graphics-document document" aria-roledescription="er"><rect x="0" y="0" width="882.5550537109375" height="301.25" fill="white"/><style>#my-svg{font-family:"trebuchet ms",verdana,arial,sans-serif;font-size:16px;fill:#333;}@keyframes edge-animation-frame{from{stroke-dashoffset:0;}}@keyframes dash{to{stroke-dashoffset:0;}}#my-svg .edge-animation-slow{stroke-dasharray:9,5!important;stroke-dashoffset:900;animation:dash 50s linear infinite;stroke-linecap:round;}#my-svg .edge-animation-fast{stroke-dasharray:9,5!important;stroke-dashoffset:900;animation:dash 20s linear infinite;stroke-linecap:round;}#my-svg .error-icon{fill:#552222;}#my-svg .error-text{fill:#552222;stroke:#552222;}#my-svg .edge-thickness-normal{stroke-width:1px;}#my-svg .edge-thickness-thick{stroke-width:3.5px;}#my-svg .edge-pattern-solid{stroke-dasharray:0;}#my-svg .edge-thickness-invisible{stroke-width:0;fill:none;}#my-svg .edge-pattern-dashed{stroke-dasharray:3;}#my-svg .edge-pattern-dotted{stroke-dasharray:2;}#my-svg .marker{fill:#333333;stroke:#333333;}#my-svg .marker.cross{stroke:#333333;}#my-svg svg{font-family:"trebuchet ms",verdana,arial,sans-serif;font-size:16px;}#my-svg p{margin:0;}#my-svg .entityBox{fill:#ECECFF;stroke:#9370DB;}#my-svg .relationshipLabelBox{fill:hsl(80, 100%, 96.2745098039%);opacity:0.7;background-color:hsl(80, 100%, 96.2745098039%);}#my-svg .relationshipLabelBox rect{opacity:0.5;}#my-svg .labelBkg{background-color:rgba(248.6666666666, 255, 235.9999999999, 0.5);}#my-svg .edgeLabel{background-color:rgba(232,232,232, 0.8);}#my-svg .edgeLabel .label rect{fill:rgba(232,232,232, 0.8);}#my-svg .edgeLabel .label text{fill:#333;}#my-svg .edgeLabel .label{fill:#9370DB;font-size:14px;}#my-svg .label{font-family:"trebuchet ms",verdana,arial,sans-serif;color:#333;}#my-svg .edge-pattern-dashed{stroke-dasharray:8,8;}#my-svg .node rect,#my-svg .node circle,#my-svg .node ellipse,#my-svg .node polygon{fill:#ECECFF;stroke:#9370DB;stroke-width:1px;}#my-svg .relationshipLine{stroke:#333333;stroke-width:1px;fill:none;}#my-svg .marker{fill:none!important;stroke:#333333!important;stroke-width:1;}#my-svg [data-look=neo].labelBkg{background-color:rgba(248.6666666666, 255, 235.9999999999, 0.5);}#my-svg .node .neo-node{stroke:#9370DB;}#my-svg [data-look="neo"].node rect,#my-svg [data-look="neo"].cluster rect,#my-svg [data-look="neo"].node polygon{stroke:#9370DB;filter:drop-shadow(1px 2px 2px rgba(185, 185, 185, 1));}#my-svg [data-look="neo"].node path{stroke:#9370DB;stroke-width:1px;}#my-svg [data-look="neo"].node .outer-path{filter:drop-shadow(1px 2px 2px rgba(185, 185, 185, 1));}#my-svg [data-look="neo"].node .neo-line path{stroke:#9370DB;filter:none;}#my-svg [data-look="neo"].node circle{stroke:#9370DB;filter:drop-shadow(1px 2px 2px rgba(185, 185, 185, 1));}#my-svg [data-look="neo"].node circle .state-start{fill:#000000;}#my-svg [data-look="neo"].icon-shape .icon{fill:#9370DB;filter:drop-shadow(1px 2px 2px rgba(185, 185, 185, 1));}#my-svg [data-look="neo"].icon-shape .icon-neo path{stroke:#9370DB;filter:drop-shadow(1px 2px 2px rgba(185, 185, 185, 1));}#my-svg :root{--mermaid-font-family:"trebuchet ms",verdana,arial,sans-serif;}</style><g><defs><marker id="my-svg_er-onlyOneStart" class="marker onlyOne er" refX="0" refY="9" markerWidth="18" markerHeight="18" orient="auto"><path d="M9,0 L9,18 M15,0 L15,18"/></marker></defs><defs><marker id="my-svg_er-onlyOneEnd" class="marker onlyOne er" refX="18" refY="9" markerWidth="18" markerHeight="18" orient="auto"><path d="M3,0 L3,18 M9,0 L9,18"/></marker></defs><defs><marker id="my-svg_er-zeroOrOneStart" class="marker zeroOrOne er" refX="0" refY="9" markerWidth="30" markerHeight="18" orient="auto"><circle fill="white" cx="21" cy="9" r="6"/><path d="M9,0 L9,18"/></marker></defs><defs><marker id="my-svg_er-zeroOrOneEnd" class="marker zeroOrOne er" refX="30" refY="9" markerWidth="30" markerHeight="18" orient="auto"><circle fill="white" cx="9" cy="9" r="6"/><path d="M21,0 L21,18"/></marker></defs><defs><marker id="my-svg_er-oneOrMoreStart" class="marker oneOrMore er" refX="18" refY="18" markerWidth="45" markerHeight="36" orient="auto"><path d="M0,18 Q 18,0 36,18 Q 18,36 0,18 M42,9 L42,27"/></marker></defs><defs><marker id="my-svg_er-oneOrMoreEnd" class="marker oneOrMore er" refX="27" refY="18" markerWidth="45" markerHeight="36" orient="auto"><path d="M3,9 L3,27 M9,18 Q27,0 45,18 Q27,36 9,18"/></marker></defs><defs><marker id="my-svg_er-zeroOrMoreStart" class="marker zeroOrMore er" refX="18" refY="18" markerWidth="57" markerHeight="36" orient="auto"><circle fill="white" cx="48" cy="18" r="6"/><path d="M0,18 Q18,0 36,18 Q18,36 0,18"/></marker></defs><defs><marker id="my-svg_er-zeroOrMoreEnd" class="marker zeroOrMore er" refX="39" refY="18" markerWidth="57" markerHeight="36" orient="auto"><circle fill="white" cx="9" cy="18" r="6"/><path d="M21,18 Q39,0 57,18 Q39,36 21,18"/></marker></defs><g class="root"><g class="clusters"/><g class="edgePaths"/><g class="edgeLabels"/><g class="nodes"><g class="node default" id="my-svg-entity-edges-0" data-look="classic" transform="translate(274.63690185546875, 150.625)"><g class="outer-path" style=""><path d="M-266.6368865966797 -142.625 L266.6368865966797 -142.625 L266.6368865966797 142.625 L-266.6368865966797 142.625" stroke="none" stroke-width="0" fill="#ECECFF"/><path d="M-266.6368865966797 -142.625 C-101.39507771739196 -142.625, 63.846731161895775 -142.625, 266.6368865966797 -142.625 M-266.6368865966797 -142.625 C-99.69974183545062 -142.625, 67.23740292577844 -142.625, 266.6368865966797 -142.625 M266.6368865966797 -142.625 C266.6368865966797 -29.588584671363535, 266.6368865966797 83.44783065727293, 266.6368865966797 142.625 M266.6368865966797 -142.625 C266.6368865966797 -56.216815433024536, 266.6368865966797 30.19136913395093, 266.6368865966797 142.625 M266.6368865966797 142.625 C81.21721883415407 142.625, -104.20244892837155 142.625, -266.6368865966797 142.625 M266.6368865966797 142.625 C144.70754646239993 142.625, 22.778206328120177 142.625, -266.6368865966797 142.625 M-266.6368865966797 142.625 C-266.6368865966797 83.65794748790283, -266.6368865966797 24.690894975805662, -266.6368865966797 -142.625 M-266.6368865966797 142.625 C-266.6368865966797 41.78200098577079, -266.6368865966797 -59.060998028458414, -266.6368865966797 -142.625" stroke="#9370DB" stroke-width="1.3" fill="none" stroke-dasharray="0 0"/></g><g style="" class="row-rect-odd"><path d="M-266.6368865966797 -101.875 L266.6368865966797 -101.875 L266.6368865966797 -61.125 L-266.6368865966797 -61.125" stroke="none" stroke-width="0" fill="hsl(240, 100%, 100%)"/><path d="M-266.6368865966797 -101.875 C-154.30482089627418 -101.875, -41.97275519586864 -101.875, 266.6368865966797 -101.875 M-266.6368865966797 -101.875 C-54.36819828393274 -101.875, 157.9004900288142 -101.875, 266.6368865966797 -101.875 M266.6368865966797 -101.875 C266.6368865966797 -86.366987719293, 266.6368865966797 -70.85897543858599, 266.6368865966797 -61.125 M266.6368865966797 -101.875 C266.6368865966797 -86.35127548552563, 266.6368865966797 -70.82755097105128, 266.6368865966797 -61.125 M266.6368865966797 -61.125 C118.70992553134295 -61.125, -29.217035533993794 -61.125, -266.6368865966797 -61.125 M266.6368865966797 -61.125 C98.5948415516946 -61.125, -69.44720349329049 -61.125, -266.6368865966797 -61.125 M-266.6368865966797 -61.125 C-266.6368865966797 -74.16334698316172, -266.6368865966797 -87.20169396632343, -266.6368865966797 -101.875 M-266.6368865966797 -61.125 C-266.6368865966797 -72.11342641749297, -266.6368865966797 -83.10185283498595, -266.6368865966797 -101.875" stroke="#9370DB" stroke-width="1.3" fill="none" stroke-dasharray="0 0"/></g><g style="" class="row-rect-even"><path d="M-266.6368865966797 -61.125 L266.6368865966797 -61.125 L266.6368865966797 -20.375 L-266.6368865966797 -20.375" stroke="none" stroke-width="0" fill="hsl(240, 100%, 97.2745098039%)"/><path d="M-266.6368865966797 -61.125 C-128.40690394003346 -61.125, 9.82307871661277 -61.125, 266.6368865966797 -61.125 M-266.6368865966797 -61.125 C-126.0785196591348 -61.125, 14.479847278410091 -61.125, 266.6368865966797 -61.125 M266.6368865966797 -61.125 C266.6368865966797 -52.58967654619558, 266.6368865966797 -44.05435309239115, 266.6368865966797 -20.375 M266.6368865966797 -61.125 C266.6368865966797 -45.442913850969816, 266.6368865966797 -29.760827701939633, 266.6368865966797 -20.375 M266.6368865966797 -20.375 C68.93531923529875 -20.375, -128.7662481260822 -20.375, -266.6368865966797 -20.375 M266.6368865966797 -20.375 C117.49536903677142 -20.375, -31.646148523136844 -20.375, -266.6368865966797 -20.375 M-266.6368865966797 -20.375 C-266.6368865966797 -33.32262959722347, -266.6368865966797 -46.270259194446936, -266.6368865966797 -61.125 M-266.6368865966797 -20.375 C-266.6368865966797 -35.73616738230243, -266.6368865966797 -51.09733476460487, -266.6368865966797 -61.125" stroke="#9370DB" stroke-width="1.3" fill="none" stroke-dasharray="0 0"/></g><g style="" class="row-rect-odd"><path d="M-266.6368865966797 -20.375 L266.6368865966797 -20.375 L266.6368865966797 20.375 L-266.6368865966797 20.375" stroke="none" stroke-width="0" fill="hsl(240, 100%, 100%)"/><path d="M-266.6368865966797 -20.375 C-131.7838810619401 -20.375, 3.0691244727995013 -20.375, 266.6368865966797 -20.375 M-266.6368865966797 -20.375 C-55.47189486846625 -20.375, 155.6930968597472 -20.375, 266.6368865966797 -20.375 M266.6368865966797 -20.375 C266.6368865966797 -5.118658527254523, 266.6368865966797 10.137682945490955, 266.6368865966797 20.375 M266.6368865966797 -20.375 C266.6368865966797 -4.989943882099032, 266.6368865966797 10.395112235801935, 266.6368865966797 20.375 M266.6368865966797 20.375 C81.99009325004232 20.375, -102.65670009659505 20.375, -266.6368865966797 20.375 M266.6368865966797 20.375 C159.56329112879257 20.375, 52.48969566090548 20.375, -266.6368865966797 20.375 M-266.6368865966797 20.375 C-266.6368865966797 7.654347488575533, -266.6368865966797 -5.066305022848933, -266.6368865966797 -20.375 M-266.6368865966797 20.375 C-266.6368865966797 4.252858198268118, -266.6368865966797 -11.869283603463764, -266.6368865966797 -20.375" stroke="#9370DB" stroke-width="1.3" fill="none" stroke-dasharray="0 0"/></g><g style="" class="row-rect-even"><path d="M-266.6368865966797 20.375 L266.6368865966797 20.375 L266.6368865966797 61.125 L-266.6368865966797 61.125" stroke="none" stroke-width="0" fill="hsl(240, 100%, 97.2745098039%)"/><path d="M-266.6368865966797 20.375 C-89.25981918477746 20.375, 88.11724822712478 20.375, 266.6368865966797 20.375 M-266.6368865966797 20.375 C-91.16386804343159 20.375, 84.3091505098165 20.375, 266.6368865966797 20.375 M266.6368865966797 20.375 C266.6368865966797 35.93749784638112, 266.6368865966797 51.49999569276224, 266.6368865966797 61.125 M266.6368865966797 20.375 C266.6368865966797 33.282639377204994, 266.6368865966797 46.19027875440999, 266.6368865966797 61.125 M266.6368865966797 61.125 C110.4343660648571 61.125, -45.768154466965484 61.125, -266.6368865966797 61.125 M266.6368865966797 61.125 C55.61728369382038 61.125, -155.40231920903892 61.125, -266.6368865966797 61.125 M-266.6368865966797 61.125 C-266.6368865966797 44.900325114463, -266.6368865966797 28.675650228926003, -266.6368865966797 20.375 M-266.6368865966797 61.125 C-266.6368865966797 49.14439298457449, -266.6368865966797 37.163785969148975, -266.6368865966797 20.375" stroke="#9370DB" stroke-width="1.3" fill="none" stroke-dasharray="0 0"/></g><g style="" class="row-rect-odd"><path d="M-266.6368865966797 61.125 L266.6368865966797 61.125 L266.6368865966797 101.875 L-266.6368865966797 101.875" stroke="none" stroke-width="0" fill="hsl(240, 100%, 100%)"/><path d="M-266.6368865966797 61.125 C-156.7508170227708 61.125, -46.86474744886192 61.125, 266.6368865966797 61.125 M-266.6368865966797 61.125 C-93.7452444039136 61.125, 79.14639778885248 61.125, 266.6368865966797 61.125 M266.6368865966797 61.125 C266.6368865966797 72.30348129510743, 266.6368865966797 83.48196259021488, 266.6368865966797 101.875 M266.6368865966797 61.125 C266.6368865966797 76.10958050665755, 266.6368865966797 91.09416101331509, 266.6368865966797 101.875 M266.6368865966797 101.875 C155.91140878920743 101.875, 45.1859309817352 101.875, -266.6368865966797 101.875 M266.6368865966797 101.875 C71.45729738315805 101.875, -123.72229183036359 101.875, -266.6368865966797 101.875 M-266.6368865966797 101.875 C-266.6368865966797 91.51614632194867, -266.6368865966797 81.15729264389734, -266.6368865966797 61.125 M-266.6368865966797 101.875 C-266.6368865966797 89.02811734972943, -266.6368865966797 76.18123469945884, -266.6368865966797 61.125" stroke="#9370DB" stroke-width="1.3" fill="none" stroke-dasharray="0 0"/></g><g style="" class="row-rect-even"><path d="M-266.6368865966797 101.875 L266.6368865966797 101.875 L266.6368865966797 142.625 L-266.6368865966797 142.625" stroke="none" stroke-width="0" fill="hsl(240, 100%, 97.2745098039%)"/><path d="M-266.6368865966797 101.875 C-121.384246198435 101.875, 23.8683941998097 101.875, 266.6368865966797 101.875 M-266.6368865966797 101.875 C-96.70654800985264 101.875, 73.22379057697441 101.875, 266.6368865966797 101.875 M266.6368865966797 101.875 C266.6368865966797 117.0613714311593, 266.6368865966797 132.2477428623186, 266.6368865966797 142.625 M266.6368865966797 101.875 C266.6368865966797 112.7730098051297, 266.6368865966797 123.67101961025939, 266.6368865966797 142.625 M266.6368865966797 142.625 C132.9075190043562 142.625, -0.8218485879672812 142.625, -266.6368865966797 142.625 M266.6368865966797 142.625 C127.12779365548923 142.625, -12.381299285701232 142.625, -266.6368865966797 142.625 M-266.6368865966797 142.625 C-266.6368865966797 134.2565468803112, -266.6368865966797 125.8880937606224, -266.6368865966797 101.875 M-266.6368865966797 142.625 C-266.6368865966797 131.34574945369238, -266.6368865966797 120.06649890738478, -266.6368865966797 101.875" stroke="#9370DB" stroke-width="1.3" fill="none" stroke-dasharray="0 0"/></g><g class="label name" transform="translate(-22.703125, -133.25)" style=""><g><rect class="background" style="stroke: none"/></g><text xml:space="preserve" y="-10.1" style=""><tspan class="text-outer-tspan row" x="0" y="-0.1em" dy="1.1em"><tspan font-style="normal" class="text-inner-tspan" font-weight="normal">edges</tspan></tspan></text></g><g class="label attribute-type" transform="translate(-254.1368865966797, -92.5)" style=""><g><rect class="background" style="stroke: none"/></g><text xml:space="preserve" y="-10.1" style=""><tspan class="text-outer-tspan row" x="0" y="-0.1em" dy="1.1em"><tspan font-style="normal" class="text-inner-tspan" font-weight="normal">TEXT</tspan></tspan></text></g><g class="label attribute-name" transform="translate(-191.6681365966797, -92.5)" style=""><g><rect class="background" style="stroke: none"/></g><text xml:space="preserve" y="-10.1" style=""><tspan class="text-outer-tspan row" x="0" y="-0.1em" dy="1.1em"><tspan font-style="normal" class="text-inner-tspan" font-weight="normal">source</tspan></tspan></text></g><g class="label attribute-keys" transform="translate(-84.01188659667969, -92.5)" style=""><g><rect class="background" style="stroke: none"/></g><text xml:space="preserve" y="-10.1" style=""><tspan class="text-outer-tspan row" x="0" y="-0.1em" dy="1.1em"><tspan font-style="normal" class="text-inner-tspan" font-weight="normal">PK</tspan></tspan></text></g><g class="label attribute-comment" transform="translate(-39.33186340332031, -92.5)" style=""><g><rect class="background" style="stroke: none"/></g><text xml:space="preserve" y="-10.1" style=""><tspan class="text-outer-tspan row" x="0" y="-0.1em" dy="1.1em"><tspan font-style="normal" class="text-inner-tspan" font-weight="normal">polymorphic</tspan></tspan></text></g><g class="label attribute-type" transform="translate(-254.1368865966797, -51.75)" style=""><g><rect class="background" style="stroke: none"/></g><text xml:space="preserve" y="-10.1" style=""><tspan class="text-outer-tspan row" x="0" y="-0.1em" dy="1.1em"><tspan font-style="normal" class="text-inner-tspan" font-weight="normal">TEXT</tspan></tspan></text></g><g class="label attribute-name" transform="translate(-191.6681365966797, -51.75)" style=""><g><rect class="background" style="stroke: none"/></g><text xml:space="preserve" y="-10.1" style=""><tspan class="text-outer-tspan row" x="0" y="-0.1em" dy="1.1em"><tspan font-style="normal" class="text-inner-tspan" font-weight="normal">target</tspan></tspan></text></g><g class="label attribute-keys" transform="translate(-84.01188659667969, -51.75)" style=""><g><rect class="background" style="stroke: none"/></g><text xml:space="preserve" y="-10.1" style=""><tspan class="text-outer-tspan row" x="0" y="-0.1em" dy="1.1em"><tspan font-style="normal" class="text-inner-tspan" font-weight="normal">PK</tspan></tspan></text></g><g class="label attribute-comment" transform="translate(-39.33186340332031, -51.75)" style=""><g><rect class="background" style="stroke: none"/></g><text xml:space="preserve" y="-10.1" style=""><tspan class="text-outer-tspan row" x="0" y="-0.1em" dy="1.1em"><tspan font-style="normal" class="text-inner-tspan" font-weight="normal">polymorphic</tspan></tspan></text></g><g class="label attribute-type" transform="translate(-254.1368865966797, -11)" style=""><g><rect class="background" style="stroke: none"/></g><text xml:space="preserve" y="-10.1" style=""><tspan class="text-outer-tspan row" x="0" y="-0.1em" dy="1.1em"><tspan font-style="normal" class="text-inner-tspan" font-weight="normal">TEXT</tspan></tspan></text></g><g class="label attribute-name" transform="translate(-191.6681365966797, -11)" style=""><g><rect class="background" style="stroke: none"/></g><text xml:space="preserve" y="-10.1" style=""><tspan class="text-outer-tspan row" x="0" y="-0.1em" dy="1.1em"><tspan font-style="normal" class="text-inner-tspan" font-weight="normal">edge_type</tspan></tspan></text></g><g class="label attribute-keys" transform="translate(-84.01188659667969, -11)" style=""><g><rect class="background" style="stroke: none"/></g><text xml:space="preserve" y="-10.1" style=""><tspan class="text-outer-tspan row" x="0" y="-0.1em" dy="1.1em"><tspan font-style="normal" class="text-inner-tspan" font-weight="normal">PK</tspan></tspan></text></g><g class="label attribute-comment" transform="translate(-39.33186340332031, -11)" style=""><g><rect class="background" style="stroke: none"/></g><text xml:space="preserve" y="-10.1" style=""><tspan class="text-outer-tspan row" x="0" y="-0.1em" dy="1.1em"><tspan font-style="normal" class="text-inner-tspan" font-weight="normal">EXPRESSES|PARALLELS|CONTRASTS|...</tspan></tspan></text></g><g class="label attribute-type" transform="translate(-254.1368865966797, 29.75)" style=""><g><rect class="background" style="stroke: none"/></g><text xml:space="preserve" y="-10.1" style=""><tspan class="text-outer-tspan row" x="0" y="-0.1em" dy="1.1em"><tspan font-style="normal" class="text-inner-tspan" font-weight="normal">TEXT</tspan></tspan></text></g><g class="label attribute-name" transform="translate(-191.6681365966797, 29.75)" style=""><g><rect class="background" style="stroke: none"/></g><text xml:space="preserve" y="-10.1" style=""><tspan class="text-outer-tspan row" x="0" y="-0.1em" dy="1.1em"><tspan font-style="normal" class="text-inner-tspan" font-weight="normal">tier</tspan></tspan></text></g><g class="label attribute-keys" transform="translate(-84.01188659667969, 29.75)" style=""><g><rect class="background" style="stroke: none"/></g><text xml:space="preserve" y="-10.1" style=""><tspan class="text-outer-tspan row" x="0" y="-0.1em" dy="1.1em"/></text></g><g class="label attribute-comment" transform="translate(-39.33186340332031, 29.75)" style=""><g><rect class="background" style="stroke: none"/></g><text xml:space="preserve" y="-10.1" style=""><tspan class="text-outer-tspan row" x="0" y="-0.1em" dy="1.1em"/></text></g><g class="label attribute-type" transform="translate(-254.1368865966797, 70.5)" style=""><g><rect class="background" style="stroke: none"/></g><text xml:space="preserve" y="-10.1" style=""><tspan class="text-outer-tspan row" x="0" y="-0.1em" dy="1.1em"><tspan font-style="normal" class="text-inner-tspan" font-weight="normal">REAL</tspan></tspan></text></g><g class="label attribute-name" transform="translate(-191.6681365966797, 70.5)" style=""><g><rect class="background" style="stroke: none"/></g><text xml:space="preserve" y="-10.1" style=""><tspan class="text-outer-tspan row" x="0" y="-0.1em" dy="1.1em"><tspan font-style="normal" class="text-inner-tspan" font-weight="normal">weight</tspan></tspan></text></g><g class="label attribute-keys" transform="translate(-84.01188659667969, 70.5)" style=""><g><rect class="background" style="stroke: none"/></g><text xml:space="preserve" y="-10.1" style=""><tspan class="text-outer-tspan row" x="0" y="-0.1em" dy="1.1em"/></text></g><g class="label attribute-comment" transform="translate(-39.33186340332031, 70.5)" style=""><g><rect class="background" style="stroke: none"/></g><text xml:space="preserve" y="-10.1" style=""><tspan class="text-outer-tspan row" x="0" y="-0.1em" dy="1.1em"/></text></g><g class="label attribute-type" transform="translate(-254.1368865966797, 111.25)" style=""><g><rect class="background" style="stroke: none"/></g><text xml:space="preserve" y="-10.1" style=""><tspan class="text-outer-tspan row" x="0" y="-0.1em" dy="1.1em"><tspan font-style="normal" class="text-inner-tspan" font-weight="normal">TEXT</tspan></tspan></text></g><g class="label attribute-name" transform="translate(-191.6681365966797, 111.25)" style=""><g><rect class="background" style="stroke: none"/></g><text xml:space="preserve" y="-10.1" style=""><tspan class="text-outer-tspan row" x="0" y="-0.1em" dy="1.1em"><tspan font-style="normal" class="text-inner-tspan" font-weight="normal">annotation</tspan></tspan></text></g><g class="label attribute-keys" transform="translate(-84.01188659667969, 111.25)" style=""><g><rect class="background" style="stroke: none"/></g><text xml:space="preserve" y="-10.1" style=""><tspan class="text-outer-tspan row" x="0" y="-0.1em" dy="1.1em"/></text></g><g class="label attribute-comment" transform="translate(-39.33186340332031, 111.25)" style=""><g><rect class="background" style="stroke: none"/></g><text xml:space="preserve" y="-10.1" style=""><tspan class="text-outer-tspan row" x="0" y="-0.1em" dy="1.1em"/></text></g><g class="divider"><path d="M-266.6368865966797 -101.87505 L-266.6368865966797 -101.87495 L266.6368865966797 -101.87495 L266.6368865966797 -101.87505" stroke="none" stroke-width="0" fill="#ECECFF" fill-rule="evenodd"/><path d="M-266.6368865966797 -101.87505 C-266.6368865966797 -101.87501170482625, -266.6368865966797 -101.8749734096525, -266.6368865966797 -101.87495 M-266.6368865966797 -101.87505 C-266.6368865966797 -101.8750255828956, -266.6368865966797 -101.87500116579119, -266.6368865966797 -101.87495 M-266.6368865966797 -101.87495 C-91.8994829621281 -101.87495, 82.83792067242348 -101.87495, 266.6368865966797 -101.87495 M-266.6368865966797 -101.87495 C-139.29055591238713 -101.87495, -11.94422522809458 -101.87495, 266.6368865966797 -101.87495 M266.6368865966797 -101.87495 C266.6368865966797 -101.87497661675255, 266.6368865966797 -101.8750032335051, 266.6368865966797 -101.87505 M266.6368865966797 -101.87495 C266.6368865966797 -101.87498641226561, 266.6368865966797 -101.87502282453124, 266.6368865966797 -101.87505 M266.6368865966797 -101.87505 C67.1726554382735 -101.87505, -132.2915757201327 -101.87505, -266.6368865966797 -101.87505 M266.6368865966797 -101.87505 C159.5910911128701 -101.87505, 52.54529562906049 -101.87505, -266.6368865966797 -101.87505" stroke="#9370DB" stroke-width="1.3" fill="none" stroke-dasharray="0 0"/></g><g class="divider"><path d="M-204.16818659667967 -101.875 L-204.1680865966797 -101.875 L-204.1680865966797 142.625 L-204.16818659667967 142.625" stroke="none" stroke-width="0" fill="#ECECFF" fill-rule="evenodd"/><path d="M-204.16818659667967 -101.875 C-204.16815837086963 -101.875, -204.16813014505962 -101.875, -204.1680865966797 -101.875 M-204.16818659667967 -101.875 C-204.16815147967597 -101.875, -204.16811636267227 -101.875, -204.1680865966797 -101.875 M-204.1680865966797 -101.875 C-204.1680865966797 -8.561463777362718, -204.1680865966797 84.75207244527456, -204.1680865966797 142.625 M-204.1680865966797 -101.875 C-204.1680865966797 -16.484735118356056, -204.1680865966797 68.90552976328789, -204.1680865966797 142.625 M-204.1680865966797 142.625 C-204.16810686001276 142.625, -204.1681271233458 142.625, -204.16818659667967 142.625 M-204.1680865966797 142.625 C-204.1681095311004 142.625, -204.16813246552113 142.625, -204.16818659667967 142.625 M-204.16818659667967 142.625 C-204.16818659667967 83.91351399177712, -204.16818659667967 25.202027983554245, -204.16818659667967 -101.875 M-204.16818659667967 142.625 C-204.16818659667967 83.94460318161006, -204.16818659667967 25.26420636322011, -204.16818659667967 -101.875" stroke="#9370DB" stroke-width="1.3" fill="none" stroke-dasharray="0 0"/></g><g class="divider"><path d="M-96.51193659667969 -101.875 L-96.51183659667969 -101.875 L-96.51183659667969 142.625 L-96.51193659667969 142.625" stroke="none" stroke-width="0" fill="#ECECFF" fill-rule="evenodd"/><path d="M-96.51193659667969 -101.875 C-96.51190635157869 -101.875, -96.5118761064777 -101.875, -96.51183659667969 -101.875 M-96.51193659667969 -101.875 C-96.51190877765916 -101.875, -96.51188095863861 -101.875, -96.51183659667969 -101.875 M-96.51183659667969 -101.875 C-96.51183659667969 -52.47569809455361, -96.51183659667969 -3.0763961891072142, -96.51183659667969 142.625 M-96.51183659667969 -101.875 C-96.51183659667969 -22.168691409344262, -96.51183659667969 57.537617181311475, -96.51183659667969 142.625 M-96.51183659667969 142.625 C-96.51186635693486 142.625, -96.51189611719002 142.625, -96.51193659667969 142.625 M-96.51183659667969 142.625 C-96.51186459603642 142.625, -96.51189259539315 142.625, -96.51193659667969 142.625 M-96.51193659667969 142.625 C-96.51193659667969 90.89643323873827, -96.51193659667969 39.16786647747652, -96.51193659667969 -101.875 M-96.51193659667969 142.625 C-96.51193659667969 76.67444697493887, -96.51193659667969 10.723893949877748, -96.51193659667969 -101.875" stroke="#9370DB" stroke-width="1.3" fill="none" stroke-dasharray="0 0"/></g><g class="divider"><path d="M-51.831913403320314 -101.875 L-51.83181340332031 -101.875 L-51.83181340332031 142.625 L-51.831913403320314 142.625" stroke="none" stroke-width="0" fill="#ECECFF" fill-rule="evenodd"/><path d="M-51.831913403320314 -101.875 C-51.83188639948493 -101.875, -51.83185939564955 -101.875, -51.83181340332031 -101.875 M-51.831913403320314 -101.875 C-51.831892474962935 -101.875, -51.83187154660556 -101.875, -51.83181340332031 -101.875 M-51.83181340332031 -101.875 C-51.83181340332031 -51.25650400580572, -51.83181340332031 -0.638008011611447, -51.83181340332031 142.625 M-51.83181340332031 -101.875 C-51.83181340332031 -7.864113827204562, -51.83181340332031 86.14677234559088, -51.83181340332031 142.625 M-51.83181340332031 142.625 C-51.831844955928176 142.625, -51.83187650853605 142.625, -51.831913403320314 142.625 M-51.83181340332031 142.625 C-51.83184507980026 142.625, -51.83187675628022 142.625, -51.831913403320314 142.625 M-51.831913403320314 142.625 C-51.831913403320314 51.03819735752268, -51.831913403320314 -40.54860528495465, -51.831913403320314 -101.875 M-51.831913403320314 142.625 C-51.831913403320314 53.97431689994312, -51.831913403320314 -34.67636620011376, -51.831913403320314 -101.875" stroke="#9370DB" stroke-width="1.3" fill="none" stroke-dasharray="0 0"/></g><g class="divider"><path d="M-266.6368865966797 -101.87505 L-266.6368865966797 -101.87495 L266.6368865966797 -101.87495 L266.6368865966797 -101.87505" stroke="none" stroke-width="0" fill="#ECECFF" fill-rule="evenodd"/><path d="M-266.6368865966797 -101.87505 C-266.6368865966797 -101.87502409774785, -266.6368865966797 -101.8749981954957, -266.6368865966797 -101.87495 M-266.6368865966797 -101.87505 C-266.6368865966797 -101.87501202072933, -266.6368865966797 -101.87497404145867, -266.6368865966797 -101.87495 M-266.6368865966797 -101.87495 C-96.21921529681629 -101.87495, 74.19845600304711 -101.87495, 266.6368865966797 -101.87495 M-266.6368865966797 -101.87495 C-143.31769929588503 -101.87495, -19.998511995090382 -101.87495, 266.6368865966797 -101.87495 M266.6368865966797 -101.87495 C266.6368865966797 -101.87498139019873, 266.6368865966797 -101.87501278039744, 266.6368865966797 -101.87505 M266.6368865966797 -101.87495 C266.6368865966797 -101.87497309849611, 266.6368865966797 -101.87499619699223, 266.6368865966797 -101.87505 M266.6368865966797 -101.87505 C135.49609300591285 -101.87505, 4.355299415146021 -101.87505, -266.6368865966797 -101.87505 M266.6368865966797 -101.87505 C103.69720896122305 -101.87505, -59.24246867423358 -101.87505, -266.6368865966797 -101.87505" stroke="#9370DB" stroke-width="1.3" fill="none" stroke-dasharray="0 0"/></g></g><g class="node default" id="my-svg-entity-corpus_metadata-1" data-look="classic" transform="translate(771.6644287109375, 150.625)"><g class="outer-path" style=""><path d="M-90.390625 -61.125 L90.390625 -61.125 L90.390625 61.125 L-90.390625 61.125" stroke="none" stroke-width="0" fill="#ECECFF"/><path d="M-90.390625 -61.125 C-33.40998453716832 -61.125, 23.57065592566336 -61.125, 90.390625 -61.125 M-90.390625 -61.125 C-37.69307535673666 -61.125, 15.004474286526687 -61.125, 90.390625 -61.125 M90.390625 -61.125 C90.390625 -22.34095209899985, 90.390625 16.4430958020003, 90.390625 61.125 M90.390625 -61.125 C90.390625 -36.02954695733466, 90.390625 -10.934093914669326, 90.390625 61.125 M90.390625 61.125 C24.2498035355206 61.125, -41.8910179289588 61.125, -90.390625 61.125 M90.390625 61.125 C52.32302914903968 61.125, 14.255433298079353 61.125, -90.390625 61.125 M-90.390625 61.125 C-90.390625 13.568717387021351, -90.390625 -33.9875652259573, -90.390625 -61.125 M-90.390625 61.125 C-90.390625 28.638359419642185, -90.390625 -3.8482811607156293, -90.390625 -61.125" stroke="#9370DB" stroke-width="1.3" fill="none" stroke-dasharray="0 0"/></g><g style="" class="row-rect-odd"><path d="M-90.390625 -20.375 L90.390625 -20.375 L90.390625 20.375 L-90.390625 20.375" stroke="none" stroke-width="0" fill="hsl(240, 100%, 100%)"/><path d="M-90.390625 -20.375 C-48.201381782502644 -20.375, -6.012138565005287 -20.375, 90.390625 -20.375 M-90.390625 -20.375 C-31.451547894930613 -20.375, 27.487529210138774 -20.375, 90.390625 -20.375 M90.390625 -20.375 C90.390625 -10.849292888578098, 90.390625 -1.3235857771561967, 90.390625 20.375 M90.390625 -20.375 C90.390625 -4.26476381601487, 90.390625 11.84547236797026, 90.390625 20.375 M90.390625 20.375 C40.80534225300718 20.375, -8.779940493985634 20.375, -90.390625 20.375 M90.390625 20.375 C29.87014831845992 20.375, -30.650328363080163 20.375, -90.390625 20.375 M-90.390625 20.375 C-90.390625 11.047857049425142, -90.390625 1.7207140988502836, -90.390625 -20.375 M-90.390625 20.375 C-90.390625 11.115518909237407, -90.390625 1.8560378184748139, -90.390625 -20.375" stroke="#9370DB" stroke-width="1.3" fill="none" stroke-dasharray="0 0"/></g><g style="" class="row-rect-even"><path d="M-90.390625 20.375 L90.390625 20.375 L90.390625 61.125 L-90.390625 61.125" stroke="none" stroke-width="0" fill="hsl(240, 100%, 97.2745098039%)"/><path d="M-90.390625 20.375 C-37.31972002004482 20.375, 15.751184959910361 20.375, 90.390625 20.375 M-90.390625 20.375 C-30.219333930412674 20.375, 29.951957139174652 20.375, 90.390625 20.375 M90.390625 20.375 C90.390625 30.614066861682296, 90.390625 40.85313372336459, 90.390625 61.125 M90.390625 20.375 C90.390625 31.39302150867136, 90.390625 42.41104301734272, 90.390625 61.125 M90.390625 61.125 C49.61168356653497 61.125, 8.832742133069942 61.125, -90.390625 61.125 M90.390625 61.125 C42.73529664760313 61.125, -4.920031704793743 61.125, -90.390625 61.125 M-90.390625 61.125 C-90.390625 51.50068380931672, -90.390625 41.87636761863344, -90.390625 20.375 M-90.390625 61.125 C-90.390625 49.47621247878661, -90.390625 37.827424957573214, -90.390625 20.375" stroke="#9370DB" stroke-width="1.3" fill="none" stroke-dasharray="0 0"/></g><g class="label name" transform="translate(-65.390625, -51.75)" style=""><g><rect class="background" style="stroke: none"/></g><text xml:space="preserve" y="-10.1" style=""><tspan class="text-outer-tspan row" x="0" y="-0.1em" dy="1.1em"><tspan font-style="normal" class="text-inner-tspan" font-weight="normal">corpus_metadata</tspan></tspan></text></g><g class="label attribute-type" transform="translate(-77.890625, -11)" style=""><g><rect class="background" style="stroke: none"/></g><text xml:space="preserve" y="-10.1" style=""><tspan class="text-outer-tspan row" x="0" y="-0.1em" dy="1.1em"><tspan font-style="normal" class="text-inner-tspan" font-weight="normal">TEXT</tspan></tspan></text></g><g class="label attribute-name" transform="translate(-13.463602701822921, -11)" style=""><g><rect class="background" style="stroke: none"/></g><text xml:space="preserve" y="-10.1" style=""><tspan class="text-outer-tspan row" x="0" y="-0.1em" dy="1.1em"><tspan font-style="normal" class="text-inner-tspan" font-weight="normal">key</tspan></tspan></text></g><g class="label attribute-keys" transform="translate(54.951624552408845, -11)" style=""><g><rect class="background" style="stroke: none"/></g><text xml:space="preserve" y="-10.1" style=""><tspan class="text-outer-tspan row" x="0" y="-0.1em" dy="1.1em"><tspan font-style="normal" class="text-inner-tspan" font-weight="normal">PK</tspan></tspan></text></g><g class="label attribute-comment" transform="translate(102.890625, -11)" style=""><g><rect class="background" style="stroke: none"/></g><text xml:space="preserve" y="-10.1" style=""><tspan class="text-outer-tspan row" x="0" y="-0.1em" dy="1.1em"/></text></g><g class="label attribute-type" transform="translate(-77.890625, 29.75)" style=""><g><rect class="background" style="stroke: none"/></g><text xml:space="preserve" y="-10.1" style=""><tspan class="text-outer-tspan row" x="0" y="-0.1em" dy="1.1em"><tspan font-style="normal" class="text-inner-tspan" font-weight="normal">TEXT</tspan></tspan></text></g><g class="label attribute-name" transform="translate(-13.463602701822921, 29.75)" style=""><g><rect class="background" style="stroke: none"/></g><text xml:space="preserve" y="-10.1" style=""><tspan class="text-outer-tspan row" x="0" y="-0.1em" dy="1.1em"><tspan font-style="normal" class="text-inner-tspan" font-weight="normal">value</tspan></tspan></text></g><g class="label attribute-keys" transform="translate(54.951624552408845, 29.75)" style=""><g><rect class="background" style="stroke: none"/></g><text xml:space="preserve" y="-10.1" style=""><tspan class="text-outer-tspan row" x="0" y="-0.1em" dy="1.1em"/></text></g><g class="label attribute-comment" transform="translate(102.890625, 29.75)" style=""><g><rect class="background" style="stroke: none"/></g><text xml:space="preserve" y="-10.1" style=""><tspan class="text-outer-tspan row" x="0" y="-0.1em" dy="1.1em"/></text></g><g class="divider"><path d="M-90.390625 -20.37505 L-90.390625 -20.37495 L90.390625 -20.37495 L90.390625 -20.37505" stroke="none" stroke-width="0" fill="#ECECFF" fill-rule="evenodd"/><path d="M-90.390625 -20.37505 C-90.390625 -20.37502654944058, -90.390625 -20.375003098881162, -90.390625 -20.37495 M-90.390625 -20.37505 C-90.390625 -20.3750246035385, -90.390625 -20.374999207077, -90.390625 -20.37495 M-90.390625 -20.37495 C-43.21666838093636 -20.37495, 3.9572882381272763 -20.37495, 90.390625 -20.37495 M-90.390625 -20.37495 C-41.50520261599156 -20.37495, 7.380219768016886 -20.37495, 90.390625 -20.37495 M90.390625 -20.37495 C90.390625 -20.37498327908392, 90.390625 -20.375016558167847, 90.390625 -20.37505 M90.390625 -20.37495 C90.390625 -20.374983511116092, 90.390625 -20.37501702223219, 90.390625 -20.37505 M90.390625 -20.37505 C28.721632592663028 -20.37505, -32.947359814673945 -20.37505, -90.390625 -20.37505 M90.390625 -20.37505 C35.08313641039514 -20.37505, -20.224352179209717 -20.37505, -90.390625 -20.37505" stroke="#9370DB" stroke-width="1.3" fill="none" stroke-dasharray="0 0"/></g><g class="divider"><path d="M-25.963652701822923 -20.375 L-25.96355270182292 -20.375 L-25.96355270182292 61.125 L-25.963652701822923 61.125" stroke="none" stroke-width="0" fill="#ECECFF" fill-rule="evenodd"/><path d="M-25.963652701822923 -20.375 C-25.963625166273 -20.375, -25.96359763072308 -20.375, -25.96355270182292 -20.375 M-25.963652701822923 -20.375 C-25.963616513149983 -20.375, -25.963580324477046 -20.375, -25.96355270182292 -20.375 M-25.96355270182292 -20.375 C-25.96355270182292 -3.9587593052546666, -25.96355270182292 12.457481389490667, -25.96355270182292 61.125 M-25.96355270182292 -20.375 C-25.96355270182292 2.312781081418951, -25.96355270182292 25.000562162837902, -25.96355270182292 61.125 M-25.96355270182292 61.125 C-25.96358903489773 61.125, -25.963625367972544 61.125, -25.963652701822923 61.125 M-25.96355270182292 61.125 C-25.963578621178964 61.125, -25.963604540535012 61.125, -25.963652701822923 61.125 M-25.963652701822923 61.125 C-25.963652701822923 31.364179032483122, -25.963652701822923 1.603358064966244, -25.963652701822923 -20.375 M-25.963652701822923 61.125 C-25.963652701822923 37.912084759480535, -25.963652701822923 14.699169518961078, -25.963652701822923 -20.375" stroke="#9370DB" stroke-width="1.3" fill="none" stroke-dasharray="0 0"/></g><g class="divider"><path d="M42.45157455240884 -20.375 L42.451674552408846 -20.375 L42.451674552408846 61.125 L42.45157455240884 61.125" stroke="none" stroke-width="0" fill="#ECECFF" fill-rule="evenodd"/><path d="M42.45157455240884 -20.375 C42.45160323707842 -20.375, 42.45163192174801 -20.375, 42.451674552408846 -20.375 M42.45157455240884 -20.375 C42.45161000576629 -20.375, 42.451645459123746 -20.375, 42.451674552408846 -20.375 M42.451674552408846 -20.375 C42.451674552408846 5.982570404884758, 42.451674552408846 32.340140809769515, 42.451674552408846 61.125 M42.451674552408846 -20.375 C42.451674552408846 11.18604790057682, 42.451674552408846 42.74709580115364, 42.451674552408846 61.125 M42.451674552408846 61.125 C42.45165129977742 61.125, 42.45162804714599 61.125, 42.45157455240884 61.125 M42.451674552408846 61.125 C42.45163930602737 61.125, 42.451604059645895 61.125, 42.45157455240884 61.125 M42.45157455240884 61.125 C42.45157455240884 35.60817527908936, 42.45157455240884 10.091350558178718, 42.45157455240884 -20.375 M42.45157455240884 61.125 C42.45157455240884 28.84352726149138, 42.45157455240884 -3.4379454770172373, 42.45157455240884 -20.375" stroke="#9370DB" stroke-width="1.3" fill="none" stroke-dasharray="0 0"/></g><g class="divider"><path d="M-90.390625 -20.37505 L-90.390625 -20.37495 L90.390625 -20.37495 L90.390625 -20.37505" stroke="none" stroke-width="0" fill="#ECECFF" fill-rule="evenodd"/><path d="M-90.390625 -20.37505 C-90.390625 -20.37502008791556, -90.390625 -20.374990175831112, -90.390625 -20.37495 M-90.390625 -20.37505 C-90.390625 -20.37501518859027, -90.390625 -20.374980377180545, -90.390625 -20.37495 M-90.390625 -20.37495 C-21.45055222496474 -20.37495, 47.48952055007052 -20.37495, 90.390625 -20.37495 M-90.390625 -20.37495 C-22.055242555676074 -20.37495, 46.28013988864785 -20.37495, 90.390625 -20.37495 M90.390625 -20.37495 C90.390625 -20.37497932549407, 90.390625 -20.375008650988146, 90.390625 -20.37505 M90.390625 -20.37495 C90.390625 -20.374982476190464, 90.390625 -20.37501495238093, 90.390625 -20.37505 M90.390625 -20.37505 C33.87425095235728 -20.37505, -22.64212309528544 -20.37505, -90.390625 -20.37505 M90.390625 -20.37505 C36.805297379570874 -20.37505, -16.780030240858252 -20.37505, -90.390625 -20.37505" stroke="#9370DB" stroke-width="1.3" fill="none" stroke-dasharray="0 0"/></g></g></g></g></g><defs><filter id="my-svg-drop-shadow" height="130%" width="130%"><feDropShadow dx="4" dy="4" stdDeviation="0" flood-opacity="0.06" flood-color="#000000"/></filter></defs><defs><filter id="my-svg-drop-shadow-small" height="150%" width="150%"><feDropShadow dx="2" dy="2" stdDeviation="0" flood-opacity="0.06" flood-color="#000000"/></filter></defs></svg>