<svg id="my-svg" width="100%" xmlns="http://www.w3.org/2000/svg" xmlns:xlink="http://www.w3.org/1999/xlink" class="erDiagram" style="max-width: 1373.43px; background-color: white;" viewBox="0 0 1373.42919921875 653.25" role="graphics-document document" aria-roledescription="er"><style>#my-svg{font-family:"trebuchet ms",verdana,arial,sans-serif;font-size:16px;fill:#333;}@keyframes edge-animation-frame{from{stroke-dashoffset:0;}}@keyframes dash{to{stroke-dashoffset:0;}}#my-svg .edge-animation-slow{stroke-dasharray:9,5!important;stroke-dashoffset:900;animation:dash 50s linear infinite;stroke-linecap:round;}#my-svg .edge-animation-fast{stroke-dasharray:9,5!important;stroke-dashoffset:900;animation:dash 20s linear infinite;stroke-linecap:round;}#my-svg .error-icon{fill:#552222;}#my-svg .error-text{fill:#552222;stroke:#552222;}#my-svg .edge-thickness-normal{stroke-width:1px;}#my-svg .edge-thickness-thick{stroke-width:3.5px;}#my-svg .edge-pattern-solid{stroke-dasharray:0;}#my-svg .edge-thickness-invisible{stroke-width:0;fill:none;}#my-svg .edge-pattern-dashed{stroke-dasharray:3;}#my-svg .edge-pattern-dotted{stroke-dasharray:2;}#my-svg .marker{fill:#333333;stroke:#333333;}#my-svg .marker.cross{stroke:#333333;}#my-svg svg{font-family:"trebuchet ms",verdana,arial,sans-serif;font-size:16px;}#my-svg p{margin:0;}#my-svg .entityBox{fill:#ECECFF;stroke:#9370DB;}#my-svg .relationshipLabelBox{fill:hsl(80, 100%, 96.2745098039%);opacity:0.7;background-color:hsl(80, 100%, 96.2745098039%);}#my-svg .relationshipLabelBox rect{opacity:0.5;}#my-svg .labelBkg{background-color:rgba(248.6666666666, 255, 235.9999999999, 0.5);}#my-svg .edgeLabel{background-color:rgba(232,232,232, 0.8);}#my-svg .edgeLabel .label rect{fill:rgba(232,232,232, 0.8);}#my-svg .edgeLabel .label text{fill:#333;}#my-svg .edgeLabel .label{fill:#9370DB;font-size:14px;}#my-svg .label{font-family:"trebuchet ms",verdana,arial,sans-serif;color:#333;}#my-svg .edge-pattern-dashed{stroke-dasharray:8,8;}#my-svg .node rect,#my-svg .node circle,#my-svg .node ellipse,#my-svg .node polygon{fill:#ECECFF;stroke:#9370DB;stroke-width:1px;}#my-svg .relationshipLine{stroke:#333333;stroke-width:1px;fill:none;}#my-svg .marker{fill:none!important;stroke:#333333!important;stroke-width:1;}#my-svg [data-look=neo].labelBkg{background-color:rgba(248.6666666666, 255, 235.9999999999, 0.5);}#my-svg .node .neo-node{stroke:#9370DB;}#my-svg [data-look="neo"].node rect,#my-svg [data-look="neo"].cluster rect,#my-svg [data-look="neo"].node polygon{stroke:#9370DB;filter:drop-shadow(1px 2px 2px rgba(185, 185, 185, 1));}#my-svg [data-look="neo"].node path{stroke:#9370DB;stroke-width:1px;}#my-svg [data-look="neo"].node .outer-path{filter:drop-shadow(1px 2px 2px rgba(185, 185, 185, 1));}#my-svg [data-look="neo"].node .neo-line path{stroke:#9370DB;filter:none;}#my-svg [data-look="neo"].node circle{stroke:#9370DB;filter:drop-shadow(1px 2px 2px rgba(185, 185, 185, 1));}#my-svg [data-look="neo"].node circle .state-start{fill:#000000;}#my-svg [data-look="neo"].icon-shape .icon{fill:#9370DB;filter:drop-shadow(1px 2px 2px rgba(185, 185, 185, 1));}#my-svg [data-look="neo"].icon-shape .icon-neo path{stroke:#9370DB;filter:drop-shadow(1px 2px 2px rgba(185, 185, 185, 1));}#my-svg :root{--mermaid-font-family:"trebuchet ms",verdana,arial,sans-serif;}</style><g><defs><marker id="my-svg_er-onlyOneStart" class="marker onlyOne er" refX="0" refY="9" markerWidth="18" markerHeight="18" orient="auto"><path d="M9,0 L9,18 M15,0 L15,18"/></marker></defs><defs><marker id="my-svg_er-onlyOneEnd" class="marker onlyOne er" refX="18" refY="9" markerWidth="18" markerHeight="18" orient="auto"><path d="M3,0 L3,18 M9,0 L9,18"/></marker></defs><defs><marker id="my-svg_er-zeroOrOneStart" class="marker zeroOrOne er" refX="0" refY="9" markerWidth="30" markerHeight="18" orient="auto"><circle fill="white" cx="21" cy="9" r="6"/><path d="M9,0 L9,18"/></marker></defs><defs><marker id="my-svg_er-zeroOrOneEnd" class="marker zeroOrOne er" refX="30" refY="9" markerWidth="30" markerHeight="18" orient="auto"><circle fill="white" cx="9" cy="9" r="6"/><path d="M21,0 L21,18"/></marker></defs><defs><marker id="my-svg_er-oneOrMoreStart" class="marker oneOrMore er" refX="18" refY="18" markerWidth="45" markerHeight="36" orient="auto"><path d="M0,18 Q 18,0 36,18 Q 18,36 0,18 M42,9 L42,27"/></marker></defs><defs><marker id="my-svg_er-oneOrMoreEnd" class="marker oneOrMore er" refX="27" refY="18" markerWidth="45" markerHeight="36" orient="auto"><path d="M3,9 L3,27 M9,18 Q27,0 45,18 Q27,36 9,18"/></marker></defs><defs><marker id="my-svg_er-zeroOrMoreStart" class="marker zeroOrMore er" refX="18" refY="18" markerWidth="57" markerHeight="36" orient="auto"><circle fill="white" cx="48" cy="18" r="6"/><path d="M0,18 Q18,0 36,18 Q18,36 0,18"/></marker></defs><defs><marker id="my-svg_er-zeroOrMoreEnd" class="marker zeroOrMore er" refX="39" refY="18" markerWidth="57" markerHeight="36" orient="auto"><circle fill="white" cx="9" cy="18" r="6"/><path d="M21,18 Q39,0 57,18 Q39,36 21,18"/></marker></defs><g class="root"><g class="clusters"/><g class="edgePaths"><path d="M1156.236,252.5L1156.236,261.333C1156.236,270.167,1156.236,287.833,1156.236,319.075C1156.236,350.317,1156.236,395.133,1156.236,417.542L1156.236,439.95" id="my-svg-entity-concept_families-1-cyclic-special-1" class="edge-thickness-normal edge-pattern-solid relationshipLine" style="undefined;;;undefined" data-edge="true" data-et="edge" data-id="entity-concept_families-1-cyclic-special-1" data-points="W3sieCI6MTE1Ni4yMzYxMzIwNDk5MzMsInkiOjI1Mi41fSx7IngiOjExNTYuMjM2MTMyMDQ5OTMzLCJ5IjozMDUuNX0seyJ4IjoxMTU2LjIzNjEzMjA0OTkzMywieSI6NDM5Ljk0OTk5OTk5OTI1NDk0fV0=" data-look="classic" marker-start="url(#my-svg_er-onlyOneStart)"/><path d="M1156.236,440.05L1156.236,463.925C1156.236,487.8,1156.236,535.55,1171.029,569.728C1185.823,603.905,1215.409,624.51,1230.202,634.813L1244.996,645.115" id="my-svg-entity-concept_families-1-cyclic-special-mid" class="edge-thickness-normal edge-pattern-solid relationshipLine" style="undefined;;;undefined" data-edge="true" data-et="edge" data-id="entity-concept_families-1-cyclic-special-mid" data-points="W3sieCI6MTE1Ni4yMzYxMzIwNDk5MzMsInkiOjQ0MC4wNTAwMDAwMDA3NDUwNn0seyJ4IjoxMTU2LjIzNjEzMjA0OTkzMywieSI6NTgzLjI5OTk5OTIzNzA2MDV9LHsieCI6MTI0NC45OTU2Nzk0NzM1MDQ0LCJ5Ijo2NDUuMTE1MTc2NzY4MjE3OX1d" data-look="classic"/><path d="M1245.046,645.1L1245.046,634.8C1245.046,624.5,1245.046,603.9,1245.046,569.717C1245.046,535.533,1245.046,487.767,1245.046,441.467C1245.046,395.167,1245.046,350.333,1240.569,319.083C1236.093,287.833,1227.14,270.167,1222.664,261.333L1218.187,252.5" id="my-svg-entity-concept_families-1-cyclic-special-2" class="edge-thickness-normal edge-pattern-solid relationshipLine" style="undefined;;;undefined" data-edge="true" data-et="edge" data-id="entity-concept_families-1-cyclic-special-2" data-points="W3sieCI6MTI0NS4wNDU2Nzk0NzQyNDk1LCJ5Ijo2NDUuMDk5OTk4NDc0MTIxMX0seyJ4IjoxMjQ1LjA0NTY3OTQ3NDI0OTUsInkiOjU4My4yOTk5OTkyMzcwNjA1fSx7IngiOjEyNDUuMDQ1Njc5NDc0MjQ5NSwieSI6NDQwfSx7IngiOjEyNDUuMDQ1Njc5NDc0MjQ5NSwieSI6MzA1LjV9LHsieCI6MTIxOC4xODc0NDI1OTI3MTU4LCJ5IjoyNTIuNX1d" data-look="classic" marker-end="url(#my-svg_er-zeroOrMoreEnd)"/><path d="M335.818,232.125L317.276,244.354C298.734,256.583,261.65,281.042,246.319,302.104C230.988,323.167,237.41,340.833,240.621,349.667L243.833,358.5" id="my-svg-id_entity-nodes-0_entity-concept_family_membership-2_1" class="edge-thickness-normal edge-pattern-solid relationshipLine" style="undefined;;;undefined" data-edge="true" data-et="edge" data-id="id_entity-nodes-0_entity-concept_family_membership-2_1" data-points="W3sieCI6MzM1LjgxNzY0NzM2MjU3MTYsInkiOjIzMi4xMjV9LHsieCI6MjI0LjU2NTY0MzMxMDU0Njg4LCJ5IjozMDUuNX0seyJ4IjoyNDMuODMyNjMzMzE5ODQwNTcsInkiOjM1OC41fV0=" data-look="classic" marker-start="url(#my-svg_er-onlyOneStart)" marker-end="url(#my-svg_er-zeroOrMoreEnd)"/><path d="M947.043,184.932L870.168,205.026C793.293,225.121,639.542,265.311,548.722,294.239C457.902,323.167,430.012,340.833,416.067,349.667L402.122,358.5" id="my-svg-id_entity-concept_families-1_entity-concept_family_membership-2_2" class="edge-thickness-normal edge-pattern-solid relationshipLine" style="undefined;;;undefined" data-edge="true" data-et="edge" data-id="id_entity-concept_families-1_entity-concept_family_membership-2_2" data-points="W3sieCI6OTQ3LjA0MzA0NzMzMzEzNjIsInkiOjE4NC45MzE3ODc0MDc3NDk5N30seyJ4Ijo0ODUuNzkxOTE1ODkzNTU0NywieSI6MzA1LjV9LHsieCI6NDAyLjEyMjE1OTA4NTc1MjM0LCJ5IjozNTguNX1d" data-look="classic" marker-start="url(#my-svg_er-onlyOneStart)" marker-end="url(#my-svg_er-zeroOrMoreEnd)"/><path d="M667.949,232.125L689.276,244.354C710.603,256.583,753.258,281.042,774.585,305.5C795.913,329.958,795.913,354.417,795.913,366.646L795.913,378.875" id="my-svg-id_entity-nodes-0_entity-concept_aliases-3_3" class="edge-thickness-normal edge-pattern-solid relationshipLine" style="undefined;;;undefined" data-edge="true" data-et="edge" data-id="id_entity-nodes-0_entity-concept_aliases-3_3" data-points="W3sieCI6NjY3Ljk0ODc5Mzc4MTI5NjksInkiOjIzMi4xMjV9LHsieCI6Nzk1LjkxMjcxOTcyNjU2MjUsInkiOjMwNS41fSx7IngiOjc5NS45MTI3MTk3MjY1NjI1LCJ5IjozNzguODc1fV0=" data-look="classic" marker-start="url(#my-svg_er-onlyOneStart)" marker-end="url(#my-svg_er-zeroOrMoreEnd)"/></g><g class="edgeLabels"><g class="edgeLabel"><g class="label" data-id="entity-concept_families-1-cyclic-special-1" transform="translate(0, 0)"><text y="-10.1" text-anchor="middle"><tspan class="text-outer-tspan row" x="0" y="-0.1em" dy="1.1em" text-anchor="middle"/></text></g></g><g><rect class="background" style="stroke: none"/></g><g class="edgeLabel" transform="translate(1156.236132049933, 583.2999992370605)"><g class="label" data-id="entity-concept_families-1-cyclic-special-mid" transform="translate(-0.5910263061523438, -16.20000171661377)"><g><rect class="background" style="" x="-68.0625" y="-3" width="137.6190948486328" height="43.599998474121094"/><text y="-10.1" text-anchor="middle" style=""><tspan class="text-outer-tspan row" x="0" y="-0.1em" dy="1.1em" text-anchor="middle"><tspan font-style="normal" class="text-inner-tspan" font-weight="normal">parent_id</tspan><tspan font-style="normal" class="text-inner-tspan" font-weight="normal"> (self-ref</tspan></tspan><tspan class="text-outer-tspan row" x="0" y="1em" dy="1.1em" text-anchor="middle"><tspan font-style="normal" class="text-inner-tspan" font-weight="normal">domain→family)</tspan></tspan></text></g></g></g><g class="edgeLabel"><g class="label" data-id="entity-concept_families-1-cyclic-special-2" transform="translate(0, 0)"><text y="-10.1" text-anchor="middle"><tspan class="text-outer-tspan row" x="0" y="-0.1em" dy="1.1em" text-anchor="middle"/></text></g></g><g><rect class="background" style="stroke: none"/></g><g class="edgeLabel" transform="translate(256.65342, 284.33687)"><g class="label" data-id="id_entity-nodes-0_entity-concept_family_membership-2_1" transform="translate(0, -8.500000953674316)"><g><rect class="background" style="" x="-42.3203125" y="-3" width="84.640625" height="26"/><text y="-10.1" text-anchor="middle" style=""><tspan class="text-outer-tspan row" x="0" y="-0.1em" dy="1.1em" text-anchor="middle"><tspan font-style="normal" class="text-inner-tspan" font-weight="normal">concept_id</tspan></tspan></text></g></g></g><g class="edgeLabel" transform="translate(668.50549, 257.73979)"><g class="label" data-id="id_entity-concept_families-1_entity-concept_family_membership-2_2" transform="translate(0, -8.500000953674316)"><g><rect class="background" style="" x="-35.46875" y="-3" width="70.9375" height="26"/><text y="-10.1" text-anchor="middle" style=""><tspan class="text-outer-tspan row" x="0" y="-0.1em" dy="1.1em" text-anchor="middle"><tspan font-style="normal" class="text-inner-tspan" font-weight="normal">family_id</tspan></tspan></text></g></g></g><g class="edgeLabel" transform="translate(795.9127197265625, 305.5)"><g class="label" data-id="id_entity-nodes-0_entity-concept_aliases-3_3" transform="translate(0, -8.500000953674316)"><g><rect class="background" style="" x="-42.3203125" y="-3" width="84.640625" height="26"/><text y="-10.1" text-anchor="middle" style=""><tspan class="text-outer-tspan row" x="0" y="-0.1em" dy="1.1em" text-anchor="middle"><tspan font-style="normal" class="text-inner-tspan" font-weight="normal">concept_id</tspan></tspan></text></g></g></g></g><g class="nodes"><g class="node default" id="my-svg-entity-nodes-0" data-look="classic" transform="translate(490.2816734313965, 130.25)"><g class="outer-path" style=""><path d="M-203.22090911865234 -101.875 L203.22090911865234 -101.875 L203.22090911865234 101.875 L-203.22090911865234 101.875" stroke="none" stroke-width="0" fill="#ECECFF"/><path d="M-203.22090911865234 -101.875 C-48.89689158306345 -101.875, 105.42712595252544 -101.875, 203.22090911865234 -101.875 M-203.22090911865234 -101.875 C-54.885997747398704 -101.875, 93.44891362385493 -101.875, 203.22090911865234 -101.875 M203.22090911865234 -101.875 C203.22090911865234 -58.46975768537775, 203.22090911865234 -15.064515370755501, 203.22090911865234 101.875 M203.22090911865234 -101.875 C203.22090911865234 -55.06834935984821, 203.22090911865234 -8.261698719696426, 203.22090911865234 101.875 M203.22090911865234 101.875 C45.26811051255612 101.875, -112.6846880935401 101.875, -203.22090911865234 101.875 M203.22090911865234 101.875 C50.2066658350374 101.875, -102.80757744857755 101.875, -203.22090911865234 101.875 M-203.22090911865234 101.875 C-203.22090911865234 43.123911193903794, -203.22090911865234 -15.627177612192412, -203.22090911865234 -101.875 M-203.22090911865234 101.875 C-203.22090911865234 50.37380170811938, -203.22090911865234 -1.1273965837612394, -203.22090911865234 -101.875" stroke="#9370DB" stroke-width="1.3" fill="none" stroke-dasharray="0 0"/></g><g style="" class="row-rect-odd"><path d="M-203.22090911865234 -61.125 L203.22090911865234 -61.125 L203.22090911865234 -20.375 L-203.22090911865234 -20.375" stroke="none" stroke-width="0" fill="hsl(240, 100%, 100%)"/><path d="M-203.22090911865234 -61.125 C-106.45498481033367 -61.125, -9.689060502014996 -61.125, 203.22090911865234 -61.125 M-203.22090911865234 -61.125 C-94.371535055625 -61.125, 14.477839007402338 -61.125, 203.22090911865234 -61.125 M203.22090911865234 -61.125 C203.22090911865234 -45.536514569252844, 203.22090911865234 -29.94802913850569, 203.22090911865234 -20.375 M203.22090911865234 -61.125 C203.22090911865234 -46.82302883481402, 203.22090911865234 -32.521057669628036, 203.22090911865234 -20.375 M203.22090911865234 -20.375 C43.97793066874024 -20.375, -115.26504778117186 -20.375, -203.22090911865234 -20.375 M203.22090911865234 -20.375 C50.60775232195144 -20.375, -102.00540447474947 -20.375, -203.22090911865234 -20.375 M-203.22090911865234 -20.375 C-203.22090911865234 -30.225488958342, -203.22090911865234 -40.075977916684, -203.22090911865234 -61.125 M-203.22090911865234 -20.375 C-203.22090911865234 -33.703019384902916, -203.22090911865234 -47.03103876980584, -203.22090911865234 -61.125" stroke="#9370DB" stroke-width="1.3" fill="none" stroke-dasharray="0 0"/></g><g style="" class="row-rect-even"><path d="M-203.22090911865234 -20.375 L203.22090911865234 -20.375 L203.22090911865234 20.375 L-203.22090911865234 20.375" stroke="none" stroke-width="0" fill="hsl(240, 100%, 97.2745098039%)"/><path d="M-203.22090911865234 -20.375 C-45.8653301385406 -20.375, 111.49024884157114 -20.375, 203.22090911865234 -20.375 M-203.22090911865234 -20.375 C-76.07244402704593 -20.375, 51.07602106456048 -20.375, 203.22090911865234 -20.375 M203.22090911865234 -20.375 C203.22090911865234 -5.172481275982344, 203.22090911865234 10.030037448035312, 203.22090911865234 20.375 M203.22090911865234 -20.375 C203.22090911865234 -9.877011826345786, 203.22090911865234 0.620976347308428, 203.22090911865234 20.375 M203.22090911865234 20.375 C109.25950751507776 20.375, 15.298105911503171 20.375, -203.22090911865234 20.375 M203.22090911865234 20.375 C108.47607783725364 20.375, 13.731246555854938 20.375, -203.22090911865234 20.375 M-203.22090911865234 20.375 C-203.22090911865234 5.801131477222009, -203.22090911865234 -8.772737045555981, -203.22090911865234 -20.375 M-203.22090911865234 20.375 C-203.22090911865234 6.586707085588371, -203.22090911865234 -7.201585828823259, -203.22090911865234 -20.375" stroke="#9370DB" stroke-width="1.3" fill="none" stroke-dasharray="0 0"/></g><g style="" class="row-rect-odd"><path d="M-203.22090911865234 20.375 L203.22090911865234 20.375 L203.22090911865234 61.125 L-203.22090911865234 61.125" stroke="none" stroke-width="0" fill="hsl(240, 100%, 100%)"/><path d="M-203.22090911865234 20.375 C-72.46782230465635 20.375, 58.28526450933964 20.375, 203.22090911865234 20.375 M-203.22090911865234 20.375 C-100.58962996923697 20.375, 2.0416491801784105 20.375, 203.22090911865234 20.375 M203.22090911865234 20.375 C203.22090911865234 30.355862205367146, 203.22090911865234 40.33672441073429, 203.22090911865234 61.125 M203.22090911865234 20.375 C203.22090911865234 35.11723104454943, 203.22090911865234 49.859462089098855, 203.22090911865234 61.125 M203.22090911865234 61.125 C86.24474740675912 61.125, -30.73141430513411 61.125, -203.22090911865234 61.125 M203.22090911865234 61.125 C76.53930102797774 61.125, -50.14230706269686 61.125, -203.22090911865234 61.125 M-203.22090911865234 61.125 C-203.22090911865234 48.57840876703786, -203.22090911865234 36.03181753407571, -203.22090911865234 20.375 M-203.22090911865234 61.125 C-203.22090911865234 46.0276467764165, -203.22090911865234 30.93029355283301, -203.22090911865234 20.375" stroke="#9370DB" stroke-width="1.3" fill="none" stroke-dasharray="0 0"/></g><g style="" class="row-rect-even"><path d="M-203.22090911865234 61.125 L203.22090911865234 61.125 L203.22090911865234 101.875 L-203.22090911865234 101.875" stroke="none" stroke-width="0" fill="hsl(240, 100%, 97.2745098039%)"/><path d="M-203.22090911865234 61.125 C-88.33524428201152 61.125, 26.550420554629312 61.125, 203.22090911865234 61.125 M-203.22090911865234 61.125 C-114.66831825222101 61.125, -26.115727385789683 61.125, 203.22090911865234 61.125 M203.22090911865234 61.125 C203.22090911865234 73.04698334298196, 203.22090911865234 84.96896668596392, 203.22090911865234 101.875 M203.22090911865234 61.125 C203.22090911865234 74.04248513989702, 203.22090911865234 86.95997027979405, 203.22090911865234 101.875 M203.22090911865234 101.875 C100.27563308357605 101.875, -2.6696429515002364 101.875, -203.22090911865234 101.875 M203.22090911865234 101.875 C109.92138258023711 101.875, 16.62185604182187 101.875, -203.22090911865234 101.875 M-203.22090911865234 101.875 C-203.22090911865234 90.14882418079323, -203.22090911865234 78.42264836158645, -203.22090911865234 61.125 M-203.22090911865234 101.875 C-203.22090911865234 91.68893426234658, -203.22090911865234 81.50286852469314, -203.22090911865234 61.125" stroke="#9370DB" stroke-width="1.3" fill="none" stroke-dasharray="0 0"/></g><g class="label name" transform="translate(-23.0546875, -92.5)" style=""><g><rect class="background" style="stroke: none"/></g><text y="-10.1" style=""><tspan class="text-outer-tspan row" x="0" y="-0.1em" dy="1.1em"><tspan font-style="normal" class="text-inner-tspan" font-weight="normal">nodes</tspan></tspan></text></g><g class="label attribute-type" transform="translate(-190.72090911865234, -51.75)" style=""><g><rect class="background" style="stroke: none"/></g><text y="-10.1" style=""><tspan class="text-outer-tspan row" x="0" y="-0.1em" dy="1.1em"><tspan font-style="normal" class="text-inner-tspan" font-weight="normal">TEXT</tspan></tspan></text></g><g class="label attribute-name" transform="translate(-129.55286407470703, -51.75)" style=""><g><rect class="background" style="stroke: none"/></g><text y="-10.1" style=""><tspan class="text-outer-tspan row" x="0" y="-0.1em" dy="1.1em"><tspan font-style="normal" class="text-inner-tspan" font-weight="normal">id</tspan></tspan></text></g><g class="label attribute-keys" transform="translate(-32.56848907470703, -51.75)" style=""><g><rect class="background" style="stroke: none"/></g><text y="-10.1" style=""><tspan class="text-outer-tspan row" x="0" y="-0.1em" dy="1.1em"><tspan font-style="normal" class="text-inner-tspan" font-weight="normal">PK</tspan></tspan></text></g><g class="label attribute-comment" transform="translate(12.111534118652344, -51.75)" style=""><g><rect class="background" style="stroke: none"/></g><text y="-10.1" style=""><tspan class="text-outer-tspan row" x="0" y="-0.1em" dy="1.1em"/></text></g><g class="label attribute-type" transform="translate(-190.72090911865234, -11)" style=""><g><rect class="background" style="stroke: none"/></g><text y="-10.1" style=""><tspan class="text-outer-tspan row" x="0" y="-0.1em" dy="1.1em"><tspan font-style="normal" class="text-inner-tspan" font-weight="normal">TEXT</tspan></tspan></text></g><g class="label attribute-name" transform="translate(-129.55286407470703, -11)" style=""><g><rect class="background" style="stroke: none"/></g><text y="-10.1" style=""><tspan class="text-outer-tspan row" x="0" y="-0.1em" dy="1.1em"><tspan font-style="normal" class="text-inner-tspan" font-weight="normal">type</tspan></tspan></text></g><g class="label attribute-keys" transform="translate(-32.56848907470703, -11)" style=""><g><rect class="background" style="stroke: none"/></g><text y="-10.1" style=""><tspan class="text-outer-tspan row" x="0" y="-0.1em" dy="1.1em"/></text></g><g class="label attribute-comment" transform="translate(12.111534118652344, -11)" style=""><g><rect class="background" style="stroke: none"/></g><text y="-10.1" style=""><tspan class="text-outer-tspan row" x="0" y="-0.1em" dy="1.1em"><tspan font-style="normal" class="text-inner-tspan" font-weight="normal">concept</tspan><tspan font-style="normal" class="text-inner-tspan" font-weight="normal"> rows</tspan><tspan font-style="normal" class="text-inner-tspan" font-weight="normal"> used</tspan><tspan font-style="normal" class="text-inner-tspan" font-weight="normal"> here</tspan></tspan></text></g><g class="label attribute-type" transform="translate(-190.72090911865234, 29.75)" style=""><g><rect class="background" style="stroke: none"/></g><text y="-10.1" style=""><tspan class="text-outer-tspan row" x="0" y="-0.1em" dy="1.1em"><tspan font-style="normal" class="text-inner-tspan" font-weight="normal">TEXT</tspan></tspan></text></g><g class="label attribute-name" transform="translate(-129.55286407470703, 29.75)" style=""><g><rect class="background" style="stroke: none"/></g><text y="-10.1" style=""><tspan class="text-outer-tspan row" x="0" y="-0.1em" dy="1.1em"><tspan font-style="normal" class="text-inner-tspan" font-weight="normal">label</tspan></tspan></text></g><g class="label attribute-keys" transform="translate(-32.56848907470703, 29.75)" style=""><g><rect class="background" style="stroke: none"/></g><text y="-10.1" style=""><tspan class="text-outer-tspan row" x="0" y="-0.1em" dy="1.1em"/></text></g><g class="label attribute-comment" transform="translate(12.111534118652344, 29.75)" style=""><g><rect class="background" style="stroke: none"/></g><text y="-10.1" style=""><tspan class="text-outer-tspan row" x="0" y="-0.1em" dy="1.1em"/></text></g><g class="label attribute-type" transform="translate(-190.72090911865234, 70.5)" style=""><g><rect class="background" style="stroke: none"/></g><text y="-10.1" style=""><tspan class="text-outer-tspan row" x="0" y="-0.1em" dy="1.1em"><tspan font-style="normal" class="text-inner-tspan" font-weight="normal">TEXT</tspan></tspan></text></g><g class="label attribute-name" transform="translate(-129.55286407470703, 70.5)" style=""><g><rect class="background" style="stroke: none"/></g><text y="-10.1" style=""><tspan class="text-outer-tspan row" x="0" y="-0.1em" dy="1.1em"><tspan font-style="normal" class="text-inner-tspan" font-weight="normal">definition</tspan></tspan></text></g><g class="label attribute-keys" transform="translate(-32.56848907470703, 70.5)" style=""><g><rect class="background" style="stroke: none"/></g><text y="-10.1" style=""><tspan class="text-outer-tspan row" x="0" y="-0.1em" dy="1.1em"/></text></g><g class="label attribute-comment" transform="translate(12.111534118652344, 70.5)" style=""><g><rect class="background" style="stroke: none"/></g><text y="-10.1" style=""><tspan class="text-outer-tspan row" x="0" y="-0.1em" dy="1.1em"/></text></g><g class="divider"><path d="M-203.22090911865234 -61.12505 L-203.22090911865234 -61.12495 L203.22090911865234 -61.12495 L203.22090911865234 -61.12505" stroke="none" stroke-width="0" fill="#ECECFF" fill-rule="evenodd"/><path d="M-203.22090911865234 -61.12505 C-203.22090911865234 -61.12501697903218, -203.22090911865234 -61.12498395806436, -203.22090911865234 -61.12495 M-203.22090911865234 -61.12505 C-203.22090911865234 -61.125016007254054, -203.22090911865234 -61.12498201450811, -203.22090911865234 -61.12495 M-203.22090911865234 -61.12495 C-105.84722408315072 -61.12495, -8.473539047649098 -61.12495, 203.22090911865234 -61.12495 M-203.22090911865234 -61.12495 C-66.92242085898363 -61.12495, 69.37606740068509 -61.12495, 203.22090911865234 -61.12495 M203.22090911865234 -61.12495 C203.22090911865234 -61.124978368380226, 203.22090911865234 -61.12500673676045, 203.22090911865234 -61.12505 M203.22090911865234 -61.12495 C203.22090911865234 -61.12497455154052, 203.22090911865234 -61.12499910308104, 203.22090911865234 -61.12505 M203.22090911865234 -61.12505 C108.58981913221876 -61.12505, 13.958729145785185 -61.12505, -203.22090911865234 -61.12505 M203.22090911865234 -61.12505 C113.89607214862555 -61.12505, 24.571235178598755 -61.12505, -203.22090911865234 -61.12505" stroke="#9370DB" stroke-width="1.3" fill="none" stroke-dasharray="0 0"/></g><g class="divider"><path d="M-142.05291407470702 -61.125 L-142.05281407470704 -61.125 L-142.05281407470704 101.875 L-142.05291407470702 101.875" stroke="none" stroke-width="0" fill="#ECECFF" fill-rule="evenodd"/><path d="M-142.05291407470702 -61.125 C-142.0528785291731 -61.125, -142.0528429836392 -61.125, -142.05281407470704 -61.125 M-142.05291407470702 -61.125 C-142.05288381401596 -61.125, -142.0528535533249 -61.125, -142.05281407470704 -61.125 M-142.05281407470704 -61.125 C-142.05281407470704 -1.2521383709945937, -142.05281407470704 58.62072325801081, -142.05281407470704 101.875 M-142.05281407470704 -61.125 C-142.05281407470704 -22.358604174690797, -142.05281407470704 16.407791650618407, -142.05281407470704 101.875 M-142.05281407470704 101.875 C-142.05284885746758 101.875, -142.0528836402281 101.875, -142.05291407470702 101.875 M-142.05281407470704 101.875 C-142.0528450124495 101.875, -142.05287595019192 101.875, -142.05291407470702 101.875 M-142.05291407470702 101.875 C-142.05291407470702 43.66030226726088, -142.05291407470702 -14.554395465478237, -142.05291407470702 -61.125 M-142.05291407470702 101.875 C-142.05291407470702 38.13248109369691, -142.05291407470702 -25.61003781260618, -142.05291407470702 -61.125" stroke="#9370DB" stroke-width="1.3" fill="none" stroke-dasharray="0 0"/></g><g class="divider"><path d="M-45.06853907470703 -61.125 L-45.06843907470703 -61.125 L-45.06843907470703 101.875 L-45.06853907470703 101.875" stroke="none" stroke-width="0" fill="#ECECFF" fill-rule="evenodd"/><path d="M-45.06853907470703 -61.125 C-45.06851094257935 -61.125, -45.06848281045167 -61.125, -45.06843907470703 -61.125 M-45.06853907470703 -61.125 C-45.06850783974697 -61.125, -45.06847660478691 -61.125, -45.06843907470703 -61.125 M-45.06843907470703 -61.125 C-45.06843907470703 -0.34118446310624506, -45.06843907470703 60.44263107378751, -45.06843907470703 101.875 M-45.06843907470703 -61.125 C-45.06843907470703 -16.165456758018685, -45.06843907470703 28.79408648396263, -45.06843907470703 101.875 M-45.06843907470703 101.875 C-45.068465325053275 101.875, -45.06849157539952 101.875, -45.06853907470703 101.875 M-45.06843907470703 101.875 C-45.06847028562954 101.875, -45.068501496552045 101.875, -45.06853907470703 101.875 M-45.06853907470703 101.875 C-45.06853907470703 52.99985950081537, -45.06853907470703 4.124719001630737, -45.06853907470703 -61.125 M-45.06853907470703 101.875 C-45.06853907470703 58.541805447077245, -45.06853907470703 15.20861089415449, -45.06853907470703 -61.125" stroke="#9370DB" stroke-width="1.3" fill="none" stroke-dasharray="0 0"/></g><g class="divider"><path d="M-0.38851588134765624 -61.125 L-0.38841588134765626 -61.125 L-0.38841588134765626 101.875 L-0.38851588134765624 101.875" stroke="none" stroke-width="0" fill="#ECECFF" fill-rule="evenodd"/><path d="M-0.38851588134765624 -61.125 C-0.3884793598541548 -61.125, -0.38844283836065335 -61.125, -0.38841588134765626 -61.125 M-0.38851588134765624 -61.125 C-0.38849038030224 -61.125, -0.3884648792568237 -61.125, -0.38841588134765626 -61.125 M-0.38841588134765626 -61.125 C-0.38841588134765626 -16.025700927985355, -0.38841588134765626 29.07359814402929, -0.38841588134765626 101.875 M-0.38841588134765626 -61.125 C-0.38841588134765626 3.7697640903687955, -0.38841588134765626 68.66452818073759, -0.38841588134765626 101.875 M-0.38841588134765626 101.875 C-0.38844573401380966 101.875, -0.3884755866799631 101.875, -0.38851588134765624 101.875 M-0.38841588134765626 101.875 C-0.3884530546901694 101.875, -0.3884902280326825 101.875, -0.38851588134765624 101.875 M-0.38851588134765624 101.875 C-0.38851588134765624 40.987208549288766, -0.38851588134765624 -19.900582901422467, -0.38851588134765624 -61.125 M-0.38851588134765624 101.875 C-0.38851588134765624 50.76936833225442, -0.38851588134765624 -0.3362633354911537, -0.38851588134765624 -61.125" stroke="#9370DB" stroke-width="1.3" fill="none" stroke-dasharray="0 0"/></g><g class="divider"><path d="M-203.22090911865234 -61.12505 L-203.22090911865234 -61.12495 L203.22090911865234 -61.12495 L203.22090911865234 -61.12505" stroke="none" stroke-width="0" fill="#ECECFF" fill-rule="evenodd"/><path d="M-203.22090911865234 -61.12505 C-203.22090911865234 -61.125022764907115, -203.22090911865234 -61.124995529814235, -203.22090911865234 -61.12495 M-203.22090911865234 -61.12505 C-203.22090911865234 -61.125022062850206, -203.22090911865234 -61.12499412570041, -203.22090911865234 -61.12495 M-203.22090911865234 -61.12495 C-105.11122378692885 -61.12495, -7.001538455205349 -61.12495, 203.22090911865234 -61.12495 M-203.22090911865234 -61.12495 C-48.92704677423234 -61.12495, 105.36681557018767 -61.12495, 203.22090911865234 -61.12495 M203.22090911865234 -61.12495 C203.22090911865234 -61.12497969971186, 203.22090911865234 -61.12500939942371, 203.22090911865234 -61.12505 M203.22090911865234 -61.12495 C203.22090911865234 -61.12498554261473, 203.22090911865234 -61.12502108522946, 203.22090911865234 -61.12505 M203.22090911865234 -61.12505 C121.7618503334525 -61.12505, 40.30279154825266 -61.12505, -203.22090911865234 -61.12505 M203.22090911865234 -61.12505 C119.42695505057127 -61.12505, 35.63300098249019 -61.12505, -203.22090911865234 -61.12505" stroke="#9370DB" stroke-width="1.3" fill="none" stroke-dasharray="0 0"/></g></g><g class="node default" id="my-svg-entity-concept_families-1" data-look="classic" transform="translate(1156.236132049933, 130.25)"><g class="outer-path" style=""><path d="M-209.19307708740234 -122.25 L209.19307708740234 -122.25 L209.19307708740234 122.25 L-209.19307708740234 122.25" stroke="none" stroke-width="0" fill="#ECECFF"/><path d="M-209.19307708740234 -122.25 C-114.63347771672903 -122.25, -20.07387834605572 -122.25, 209.19307708740234 -122.25 M-209.19307708740234 -122.25 C-122.13425426678732 -122.25, -35.0754314461723 -122.25, 209.19307708740234 -122.25 M209.19307708740234 -122.25 C209.19307708740234 -32.79208628260946, 209.19307708740234 56.66582743478108, 209.19307708740234 122.25 M209.19307708740234 -122.25 C209.19307708740234 -39.102037076042095, 209.19307708740234 44.04592584791581, 209.19307708740234 122.25 M209.19307708740234 122.25 C106.64636103005394 122.25, 4.0996449727055335 122.25, -209.19307708740234 122.25 M209.19307708740234 122.25 C94.58814852653136 122.25, -20.016780034339632 122.25, -209.19307708740234 122.25 M-209.19307708740234 122.25 C-209.19307708740234 39.303674054380025, -209.19307708740234 -43.64265189123995, -209.19307708740234 -122.25 M-209.19307708740234 122.25 C-209.19307708740234 51.91258126093054, -209.19307708740234 -18.424837478138926, -209.19307708740234 -122.25" stroke="#9370DB" stroke-width="1.3" fill="none" stroke-dasharray="0 0"/></g><g style="" class="row-rect-odd"><path d="M-209.19307708740234 -81.5 L209.19307708740234 -81.5 L209.19307708740234 -40.75 L-209.19307708740234 -40.75" stroke="none" stroke-width="0" fill="hsl(240, 100%, 100%)"/><path d="M-209.19307708740234 -81.5 C-72.0087424783141 -81.5, 65.17559213077413 -81.5, 209.19307708740234 -81.5 M-209.19307708740234 -81.5 C-52.48771076381556 -81.5, 104.21765555977123 -81.5, 209.19307708740234 -81.5 M209.19307708740234 -81.5 C209.19307708740234 -70.43169687225205, 209.19307708740234 -59.363393744504094, 209.19307708740234 -40.75 M209.19307708740234 -81.5 C209.19307708740234 -71.05882474574904, 209.19307708740234 -60.61764949149807, 209.19307708740234 -40.75 M209.19307708740234 -40.75 C92.2164094520332 -40.75, -24.760258183335935 -40.75, -209.19307708740234 -40.75 M209.19307708740234 -40.75 C114.54709884720683 -40.75, 19.901120607011308 -40.75, -209.19307708740234 -40.75 M-209.19307708740234 -40.75 C-209.19307708740234 -52.13832733508735, -209.19307708740234 -63.52665467017469, -209.19307708740234 -81.5 M-209.19307708740234 -40.75 C-209.19307708740234 -53.54043818636717, -209.19307708740234 -66.33087637273434, -209.19307708740234 -81.5" stroke="#9370DB" stroke-width="1.3" fill="none" stroke-dasharray="0 0"/></g><g style="" class="row-rect-even"><path d="M-209.19307708740234 -40.75 L209.19307708740234 -40.75 L209.19307708740234 0 L-209.19307708740234 0" stroke="none" stroke-width="0" fill="hsl(240, 100%, 97.2745098039%)"/><path d="M-209.19307708740234 -40.75 C-55.25858132295872 -40.75, 98.6759144414849 -40.75, 209.19307708740234 -40.75 M-209.19307708740234 -40.75 C-98.24444136379483 -40.75, 12.704194359812675 -40.75, 209.19307708740234 -40.75 M209.19307708740234 -40.75 C209.19307708740234 -31.14799756533983, 209.19307708740234 -21.54599513067966, 209.19307708740234 0 M209.19307708740234 -40.75 C209.19307708740234 -28.47915743997381, 209.19307708740234 -16.20831487994762, 209.19307708740234 0 M209.19307708740234 0 C74.85374140641548 0, -59.48559427457138 0, -209.19307708740234 0 M209.19307708740234 0 C69.22700086895978 0, -70.73907534948279 0, -209.19307708740234 0 M-209.19307708740234 0 C-209.19307708740234 -15.982215720445279, -209.19307708740234 -31.964431440890557, -209.19307708740234 -40.75 M-209.19307708740234 0 C-209.19307708740234 -12.791635959796615, -209.19307708740234 -25.58327191959323, -209.19307708740234 -40.75" stroke="#9370DB" stroke-width="1.3" fill="none" stroke-dasharray="0 0"/></g><g style="" class="row-rect-odd"><path d="M-209.19307708740234 0 L209.19307708740234 0 L209.19307708740234 40.75 L-209.19307708740234 40.75" stroke="none" stroke-width="0" fill="hsl(240, 100%, 100%)"/><path d="M-209.19307708740234 0 C-84.76673205758573 0, 39.65961297223089 0, 209.19307708740234 0 M-209.19307708740234 0 C-94.42096174015848 0, 20.351153607085394 0, 209.19307708740234 0 M209.19307708740234 0 C209.19307708740234 15.883590598896438, 209.19307708740234 31.767181197792876, 209.19307708740234 40.75 M209.19307708740234 0 C209.19307708740234 13.773358482717176, 209.19307708740234 27.546716965434353, 209.19307708740234 40.75 M209.19307708740234 40.75 C107.44399355034228 40.75, 5.694910013282225 40.75, -209.19307708740234 40.75 M209.19307708740234 40.75 C91.62665056536171 40.75, -25.939775956678915 40.75, -209.19307708740234 40.75 M-209.19307708740234 40.75 C-209.19307708740234 27.274712621445246, -209.19307708740234 13.799425242890493, -209.19307708740234 0 M-209.19307708740234 40.75 C-209.19307708740234 31.47875032192478, -209.19307708740234 22.207500643849563, -209.19307708740234 0" stroke="#9370DB" stroke-width="1.3" fill="none" stroke-dasharray="0 0"/></g><g style="" class="row-rect-even"><path d="M-209.19307708740234 40.75 L209.19307708740234 40.75 L209.19307708740234 81.5 L-209.19307708740234 81.5" stroke="none" stroke-width="0" fill="hsl(240, 100%, 97.2745098039%)"/><path d="M-209.19307708740234 40.75 C-104.79860699339274 40.75, -0.4041368993831327 40.75, 209.19307708740234 40.75 M-209.19307708740234 40.75 C-50.15138720961343 40.75, 108.89030266817548 40.75, 209.19307708740234 40.75 M209.19307708740234 40.75 C209.19307708740234 55.07163377809425, 209.19307708740234 69.3932675561885, 209.19307708740234 81.5 M209.19307708740234 40.75 C209.19307708740234 53.58226366454409, 209.19307708740234 66.41452732908817, 209.19307708740234 81.5 M209.19307708740234 81.5 C91.94909430693589 81.5, -25.294888473530563 81.5, -209.19307708740234 81.5 M209.19307708740234 81.5 C66.5804576558605 81.5, -76.03216177568135 81.5, -209.19307708740234 81.5 M-209.19307708740234 81.5 C-209.19307708740234 67.25679166187405, -209.19307708740234 53.01358332374811, -209.19307708740234 40.75 M-209.19307708740234 81.5 C-209.19307708740234 68.42346836331603, -209.19307708740234 55.34693672663205, -209.19307708740234 40.75" stroke="#9370DB" stroke-width="1.3" fill="none" stroke-dasharray="0 0"/></g><g style="" class="row-rect-odd"><path d="M-209.19307708740234 81.5 L209.19307708740234 81.5 L209.19307708740234 122.25 L-209.19307708740234 122.25" stroke="none" stroke-width="0" fill="hsl(240, 100%, 100%)"/><path d="M-209.19307708740234 81.5 C-55.81945328334777 81.5, 97.5541705207068 81.5, 209.19307708740234 81.5 M-209.19307708740234 81.5 C-71.50985327685217 81.5, 66.173370533698 81.5, 209.19307708740234 81.5 M209.19307708740234 81.5 C209.19307708740234 92.8670433019648, 209.19307708740234 104.23408660392958, 209.19307708740234 122.25 M209.19307708740234 81.5 C209.19307708740234 92.49262703156595, 209.19307708740234 103.4852540631319, 209.19307708740234 122.25 M209.19307708740234 122.25 C94.45784462297584 122.25, -20.27738784145066 122.25, -209.19307708740234 122.25 M209.19307708740234 122.25 C96.86950100760436 122.25, -15.454075072193632 122.25, -209.19307708740234 122.25 M-209.19307708740234 122.25 C-209.19307708740234 106.56303596120404, -209.19307708740234 90.87607192240807, -209.19307708740234 81.5 M-209.19307708740234 122.25 C-209.19307708740234 108.47986362402295, -209.19307708740234 94.70972724804592, -209.19307708740234 81.5" stroke="#9370DB" stroke-width="1.3" fill="none" stroke-dasharray="0 0"/></g><g class="label name" transform="translate(-62.59375, -112.875)" style=""><g><rect class="background" style="stroke: none"/></g><text y="-10.1" style=""><tspan class="text-outer-tspan row" x="0" y="-0.1em" dy="1.1em"><tspan font-style="normal" class="text-inner-tspan" font-weight="normal">concept_families</tspan></tspan></text></g><g class="label attribute-type" transform="translate(-196.69307708740234, -72.125)" style=""><g><rect class="background" style="stroke: none"/></g><text y="-10.1" style=""><tspan class="text-outer-tspan row" x="0" y="-0.1em" dy="1.1em"><tspan font-style="normal" class="text-inner-tspan" font-weight="normal">TEXT</tspan></tspan></text></g><g class="label attribute-name" transform="translate(-135.52503204345703, -72.125)" style=""><g><rect class="background" style="stroke: none"/></g><text y="-10.1" style=""><tspan class="text-outer-tspan row" x="0" y="-0.1em" dy="1.1em"><tspan font-style="normal" class="text-inner-tspan" font-weight="normal">id</tspan></tspan></text></g><g class="label attribute-keys" transform="translate(-38.54065704345703, -72.125)" style=""><g><rect class="background" style="stroke: none"/></g><text y="-10.1" style=""><tspan class="text-outer-tspan row" x="0" y="-0.1em" dy="1.1em"><tspan font-style="normal" class="text-inner-tspan" font-weight="normal">PK</tspan></tspan></text></g><g class="label attribute-comment" transform="translate(6.139366149902344, -72.125)" style=""><g><rect class="background" style="stroke: none"/></g><text y="-10.1" style=""><tspan class="text-outer-tspan row" x="0" y="-0.1em" dy="1.1em"><tspan font-style="normal" class="text-inner-tspan" font-weight="normal">domain</tspan><tspan font-style="normal" class="text-inner-tspan" font-weight="normal"> or</tspan><tspan font-style="normal" class="text-inner-tspan" font-weight="normal"> domain.family</tspan></tspan></text></g><g class="label attribute-type" transform="translate(-196.69307708740234, -31.375)" style=""><g><rect class="background" style="stroke: none"/></g><text y="-10.1" style=""><tspan class="text-outer-tspan row" x="0" y="-0.1em" dy="1.1em"><tspan font-style="normal" class="text-inner-tspan" font-weight="normal">TEXT</tspan></tspan></text></g><g class="label attribute-name" transform="translate(-135.52503204345703, -31.375)" style=""><g><rect class="background" style="stroke: none"/></g><text y="-10.1" style=""><tspan class="text-outer-tspan row" x="0" y="-0.1em" dy="1.1em"><tspan font-style="normal" class="text-inner-tspan" font-weight="normal">parent_id</tspan></tspan></text></g><g class="label attribute-keys" transform="translate(-38.54065704345703, -31.375)" style=""><g><rect class="background" style="stroke: none"/></g><text y="-10.1" style=""><tspan class="text-outer-tspan row" x="0" y="-0.1em" dy="1.1em"><tspan font-style="normal" class="text-inner-tspan" font-weight="normal">FK</tspan></tspan></text></g><g class="label attribute-comment" transform="translate(6.139366149902344, -31.375)" style=""><g><rect class="background" style="stroke: none"/></g><text y="-10.1" style=""><tspan class="text-outer-tspan row" x="0" y="-0.1em" dy="1.1em"><tspan font-style="normal" class="text-inner-tspan" font-weight="normal">NULL</tspan><tspan font-style="normal" class="text-inner-tspan" font-weight="normal"> for</tspan><tspan font-style="normal" class="text-inner-tspan" font-weight="normal"> domain</tspan><tspan font-style="normal" class="text-inner-tspan" font-weight="normal"> rows</tspan></tspan></text></g><g class="label attribute-type" transform="translate(-196.69307708740234, 9.375)" style=""><g><rect class="background" style="stroke: none"/></g><text y="-10.1" style=""><tspan class="text-outer-tspan row" x="0" y="-0.1em" dy="1.1em"><tspan font-style="normal" class="text-inner-tspan" font-weight="normal">TEXT</tspan></tspan></text></g><g class="label attribute-name" transform="translate(-135.52503204345703, 9.375)" style=""><g><rect class="background" style="stroke: none"/></g><text y="-10.1" style=""><tspan class="text-outer-tspan row" x="0" y="-0.1em" dy="1.1em"><tspan font-style="normal" class="text-inner-tspan" font-weight="normal">label</tspan></tspan></text></g><g class="label attribute-keys" transform="translate(-38.54065704345703, 9.375)" style=""><g><rect class="background" style="stroke: none"/></g><text y="-10.1" style=""><tspan class="text-outer-tspan row" x="0" y="-0.1em" dy="1.1em"/></text></g><g class="label attribute-comment" transform="translate(6.139366149902344, 9.375)" style=""><g><rect class="background" style="stroke: none"/></g><text y="-10.1" style=""><tspan class="text-outer-tspan row" x="0" y="-0.1em" dy="1.1em"/></text></g><g class="label attribute-type" transform="translate(-196.69307708740234, 50.125)" style=""><g><rect class="background" style="stroke: none"/></g><text y="-10.1" style=""><tspan class="text-outer-tspan row" x="0" y="-0.1em" dy="1.1em"><tspan font-style="normal" class="text-inner-tspan" font-weight="normal">TEXT</tspan></tspan></text></g><g class="label attribute-name" transform="translate(-135.52503204345703, 50.125)" style=""><g><rect class="background" style="stroke: none"/></g><text y="-10.1" style=""><tspan class="text-outer-tspan row" x="0" y="-0.1em" dy="1.1em"><tspan font-style="normal" class="text-inner-tspan" font-weight="normal">definition</tspan></tspan></text></g><g class="label attribute-keys" transform="translate(-38.54065704345703, 50.125)" style=""><g><rect class="background" style="stroke: none"/></g><text y="-10.1" style=""><tspan class="text-outer-tspan row" x="0" y="-0.1em" dy="1.1em"/></text></g><g class="label attribute-comment" transform="translate(6.139366149902344, 50.125)" style=""><g><rect class="background" style="stroke: none"/></g><text y="-10.1" style=""><tspan class="text-outer-tspan row" x="0" y="-0.1em" dy="1.1em"/></text></g><g class="label attribute-type" transform="translate(-196.69307708740234, 90.875)" style=""><g><rect class="background" style="stroke: none"/></g><text y="-10.1" style=""><tspan class="text-outer-tspan row" x="0" y="-0.1em" dy="1.1em"><tspan font-style="normal" class="text-inner-tspan" font-weight="normal">TEXT</tspan></tspan></text></g><g class="label attribute-name" transform="translate(-135.52503204345703, 90.875)" style=""><g><rect class="background" style="stroke: none"/></g><text y="-10.1" style=""><tspan class="text-outer-tspan row" x="0" y="-0.1em" dy="1.1em"><tspan font-style="normal" class="text-inner-tspan" font-weight="normal">aliases</tspan></tspan></text></g><g class="label attribute-keys" transform="translate(-38.54065704345703, 90.875)" style=""><g><rect class="background" style="stroke: none"/></g><text y="-10.1" style=""><tspan class="text-outer-tspan row" x="0" y="-0.1em" dy="1.1em"/></text></g><g class="label attribute-comment" transform="translate(6.139366149902344, 90.875)" style=""><g><rect class="background" style="stroke: none"/></g><text y="-10.1" style=""><tspan class="text-outer-tspan row" x="0" y="-0.1em" dy="1.1em"><tspan font-style="normal" class="text-inner-tspan" font-weight="normal">JSON</tspan><tspan font-style="normal" class="text-inner-tspan" font-weight="normal"> array</tspan><tspan font-style="normal" class="text-inner-tspan" font-weight="normal"> of</tspan><tspan font-style="normal" class="text-inner-tspan" font-weight="normal"> strings</tspan></tspan></text></g><g class="divider"><path d="M-209.19307708740234 -81.50005 L-209.19307708740234 -81.49995 L209.19307708740234 -81.49995 L209.19307708740234 -81.50005" stroke="none" stroke-width="0" fill="#ECECFF" fill-rule="evenodd"/><path d="M-209.19307708740234 -81.50005 C-209.19307708740234 -81.5000153630382, -209.19307708740234 -81.49998072607642, -209.19307708740234 -81.49995 M-209.19307708740234 -81.50005 C-209.19307708740234 -81.50002008056107, -209.19307708740234 -81.49999016112214, -209.19307708740234 -81.49995 M-209.19307708740234 -81.49995 C-103.0645298539582 -81.49995, 3.0640173794859322 -81.49995, 209.19307708740234 -81.49995 M-209.19307708740234 -81.49995 C-44.59472726398195 -81.49995, 120.00362255943844 -81.49995, 209.19307708740234 -81.49995 M209.19307708740234 -81.49995 C209.19307708740234 -81.49997816503658, 209.19307708740234 -81.50000633007316, 209.19307708740234 -81.50005 M209.19307708740234 -81.49995 C209.19307708740234 -81.49998843674211, 209.19307708740234 -81.50002687348423, 209.19307708740234 -81.50005 M209.19307708740234 -81.50005 C53.19522021087195 -81.50005, -102.80263666565844 -81.50005, -209.19307708740234 -81.50005 M209.19307708740234 -81.50005 C48.555054124742696 -81.50005, -112.08296883791695 -81.50005, -209.19307708740234 -81.50005" stroke="#9370DB" stroke-width="1.3" fill="none" stroke-dasharray="0 0"/></g><g class="divider"><path d="M-148.02508204345702 -81.5 L-148.02498204345704 -81.5 L-148.02498204345704 122.25 L-148.02508204345702 122.25" stroke="none" stroke-width="0" fill="#ECECFF" fill-rule="evenodd"/><path d="M-148.02508204345702 -81.5 C-148.02505452265035 -81.5, -148.02502700184368 -81.5, -148.02498204345704 -81.5 M-148.02508204345702 -81.5 C-148.02504311288635 -81.5, -148.02500418231568 -81.5, -148.02498204345704 -81.5 M-148.02498204345704 -81.5 C-148.02498204345704 -14.061398969027039, -148.02498204345704 53.37720206194592, -148.02498204345704 122.25 M-148.02498204345704 -81.5 C-148.02498204345704 -12.810197030706306, -148.02498204345704 55.87960593858739, -148.02498204345704 122.25 M-148.02498204345704 122.25 C-148.0250048300075 122.25, -148.02502761655794 122.25, -148.02508204345702 122.25 M-148.02498204345704 122.25 C-148.0250094666638 122.25, -148.02503688987053 122.25, -148.02508204345702 122.25 M-148.02508204345702 122.25 C-148.02508204345702 46.14872762909454, -148.02508204345702 -29.952544741810925, -148.02508204345702 -81.5 M-148.02508204345702 122.25 C-148.02508204345702 77.20402469732352, -148.02508204345702 32.15804939464704, -148.02508204345702 -81.5" stroke="#9370DB" stroke-width="1.3" fill="none" stroke-dasharray="0 0"/></g><g class="divider"><path d="M-51.04070704345703 -81.5 L-51.04060704345703 -81.5 L-51.04060704345703 122.25 L-51.04070704345703 122.25" stroke="none" stroke-width="0" fill="#ECECFF" fill-rule="evenodd"/><path d="M-51.04070704345703 -81.5 C-51.04067790114791 -81.5, -51.04064875883879 -81.5, -51.04060704345703 -81.5 M-51.04070704345703 -81.5 C-51.04068166126403 -81.5, -51.04065627907103 -81.5, -51.04060704345703 -81.5 M-51.04060704345703 -81.5 C-51.04060704345703 -33.28910774741359, -51.04060704345703 14.921784505172823, -51.04060704345703 122.25 M-51.04060704345703 -81.5 C-51.04060704345703 -39.541820222053225, -51.04060704345703 2.41635955589355, -51.04060704345703 122.25 M-51.04060704345703 122.25 C-51.040636389441296 122.25, -51.040665735425556 122.25, -51.04070704345703 122.25 M-51.04060704345703 122.25 C-51.04063556337466 122.25, -51.04066408329228 122.25, -51.04070704345703 122.25 M-51.04070704345703 122.25 C-51.04070704345703 71.52829182489353, -51.04070704345703 20.806583649787072, -51.04070704345703 -81.5 M-51.04070704345703 122.25 C-51.04070704345703 63.14627492678644, -51.04070704345703 4.042549853572879, -51.04070704345703 -81.5" stroke="#9370DB" stroke-width="1.3" fill="none" stroke-dasharray="0 0"/></g><g class="divider"><path d="M-6.360683850097656 -81.5 L-6.360583850097656 -81.5 L-6.360583850097656 122.25 L-6.360683850097656 122.25" stroke="none" stroke-width="0" fill="#ECECFF" fill-rule="evenodd"/><path d="M-6.360683850097656 -81.5 C-6.360660473691738 -81.5, -6.360637097285818 -81.5, -6.360583850097656 -81.5 M-6.360683850097656 -81.5 C-6.360655817615294 -81.5, -6.360627785132931 -81.5, -6.360583850097656 -81.5 M-6.360583850097656 -81.5 C-6.360583850097656 -17.51321330275168, -6.360583850097656 46.47357339449664, -6.360583850097656 122.25 M-6.360583850097656 -81.5 C-6.360583850097656 -5.575343223956352, -6.360583850097656 70.3493135520873, -6.360583850097656 122.25 M-6.360583850097656 122.25 C-6.3606101735985865 122.25, -6.360636497099517 122.25, -6.360683850097656 122.25 M-6.360583850097656 122.25 C-6.3606075848878225 122.25, -6.360631319677989 122.25, -6.360683850097656 122.25 M-6.360683850097656 122.25 C-6.360683850097656 55.15147266483157, -6.360683850097656 -11.947054670336854, -6.360683850097656 -81.5 M-6.360683850097656 122.25 C-6.360683850097656 70.39423997384529, -6.360683850097656 18.53847994769056, -6.360683850097656 -81.5" stroke="#9370DB" stroke-width="1.3" fill="none" stroke-dasharray="0 0"/></g><g class="divider"><path d="M-209.19307708740234 -81.50005 L-209.19307708740234 -81.49995 L209.19307708740234 -81.49995 L209.19307708740234 -81.50005" stroke="none" stroke-width="0" fill="#ECECFF" fill-rule="evenodd"/><path d="M-209.19307708740234 -81.50005 C-209.19307708740234 -81.50001895439674, -209.19307708740234 -81.49998790879346, -209.19307708740234 -81.49995 M-209.19307708740234 -81.50005 C-209.19307708740234 -81.5000273074194, -209.19307708740234 -81.50000461483882, -209.19307708740234 -81.49995 M-209.19307708740234 -81.49995 C-47.083168106273746 -81.49995, 115.02674087485485 -81.49995, 209.19307708740234 -81.49995 M-209.19307708740234 -81.49995 C-119.33792100176201 -81.49995, -29.48276491612168 -81.49995, 209.19307708740234 -81.49995 M209.19307708740234 -81.49995 C209.19307708740234 -81.4999862571554, 209.19307708740234 -81.50002251431079, 209.19307708740234 -81.50005 M209.19307708740234 -81.49995 C209.19307708740234 -81.49997547866582, 209.19307708740234 -81.50000095733162, 209.19307708740234 -81.50005 M209.19307708740234 -81.50005 C114.80184543508133 -81.50005, 20.410613782760322 -81.50005, -209.19307708740234 -81.50005 M209.19307708740234 -81.50005 C118.3683123480113 -81.50005, 27.54354760862026 -81.50005, -209.19307708740234 -81.50005" stroke="#9370DB" stroke-width="1.3" fill="none" stroke-dasharray="0 0"/></g></g><g class="node default" id="my-svg-entity-concept_family_membership-2" data-look="classic" transform="translate(273.4601745605469, 440)"><g class="outer-path" style=""><path d="M-265.4601821899414 -81.5 L265.4601821899414 -81.5 L265.4601821899414 81.5 L-265.4601821899414 81.5" stroke="none" stroke-width="0" fill="#ECECFF"/><path d="M-265.4601821899414 -81.5 C-64.84192443896583 -81.5, 135.77633331200974 -81.5, 265.4601821899414 -81.5 M-265.4601821899414 -81.5 C-94.7628229095906 -81.5, 75.93453637076021 -81.5, 265.4601821899414 -81.5 M265.4601821899414 -81.5 C265.4601821899414 -48.59812406338915, 265.4601821899414 -15.6962481267783, 265.4601821899414 81.5 M265.4601821899414 -81.5 C265.4601821899414 -33.41436556949173, 265.4601821899414 14.671268861016543, 265.4601821899414 81.5 M265.4601821899414 81.5 C102.67965404592942 81.5, -60.100874098082556 81.5, -265.4601821899414 81.5 M265.4601821899414 81.5 C121.05265800517802 81.5, -23.354866179585372 81.5, -265.4601821899414 81.5 M-265.4601821899414 81.5 C-265.4601821899414 32.65830929342942, -265.4601821899414 -16.183381413141163, -265.4601821899414 -81.5 M-265.4601821899414 81.5 C-265.4601821899414 31.07230859729207, -265.4601821899414 -19.355382805415857, -265.4601821899414 -81.5" stroke="#9370DB" stroke-width="1.3" fill="none" stroke-dasharray="0 0"/></g><g style="" class="row-rect-odd"><path d="M-265.4601821899414 -40.75 L265.4601821899414 -40.75 L265.4601821899414 0 L-265.4601821899414 0" stroke="none" stroke-width="0" fill="hsl(240, 100%, 100%)"/><path d="M-265.4601821899414 -40.75 C-146.52589933069754 -40.75, -27.591616471453676 -40.75, 265.4601821899414 -40.75 M-265.4601821899414 -40.75 C-137.45687165554804 -40.75, -9.453561121154678 -40.75, 265.4601821899414 -40.75 M265.4601821899414 -40.75 C265.4601821899414 -27.176376245638924, 265.4601821899414 -13.602752491277847, 265.4601821899414 0 M265.4601821899414 -40.75 C265.4601821899414 -31.76250115183938, 265.4601821899414 -22.775002303678757, 265.4601821899414 0 M265.4601821899414 0 C154.6543675080332 0, 43.84855282612503 0, -265.4601821899414 0 M265.4601821899414 0 C89.70771643591863 0, -86.04474931810415 0, -265.4601821899414 0 M-265.4601821899414 0 C-265.4601821899414 -9.544237980445313, -265.4601821899414 -19.088475960890626, -265.4601821899414 -40.75 M-265.4601821899414 0 C-265.4601821899414 -11.078708505142314, -265.4601821899414 -22.15741701028463, -265.4601821899414 -40.75" stroke="#9370DB" stroke-width="1.3" fill="none" stroke-dasharray="0 0"/></g><g style="" class="row-rect-even"><path d="M-265.4601821899414 0 L265.4601821899414 0 L265.4601821899414 40.75 L-265.4601821899414 40.75" stroke="none" stroke-width="0" fill="hsl(240, 100%, 97.2745098039%)"/><path d="M-265.4601821899414 0 C-129.57033393945898 0, 6.319514311023454 0, 265.4601821899414 0 M-265.4601821899414 0 C-142.57419757003487 0, -19.68821295012833 0, 265.4601821899414 0 M265.4601821899414 0 C265.4601821899414 11.57391366942975, 265.4601821899414 23.1478273388595, 265.4601821899414 40.75 M265.4601821899414 0 C265.4601821899414 14.895348081136644, 265.4601821899414 29.79069616227329, 265.4601821899414 40.75 M265.4601821899414 40.75 C158.67142279649204 40.75, 51.88266340304267 40.75, -265.4601821899414 40.75 M265.4601821899414 40.75 C147.6310328484817 40.75, 29.80188350702204 40.75, -265.4601821899414 40.75 M-265.4601821899414 40.75 C-265.4601821899414 29.214090649651986, -265.4601821899414 17.67818129930397, -265.4601821899414 0 M-265.4601821899414 40.75 C-265.4601821899414 28.46831037992621, -265.4601821899414 16.186620759852417, -265.4601821899414 0" stroke="#9370DB" stroke-width="1.3" fill="none" stroke-dasharray="0 0"/></g><g style="" class="row-rect-odd"><path d="M-265.4601821899414 40.75 L265.4601821899414 40.75 L265.4601821899414 81.5 L-265.4601821899414 81.5" stroke="none" stroke-width="0" fill="hsl(240, 100%, 100%)"/><path d="M-265.4601821899414 40.75 C-100.17350205730835 40.75, 65.1131780753247 40.75, 265.4601821899414 40.75 M-265.4601821899414 40.75 C-142.2529169068311 40.75, -19.04565162372083 40.75, 265.4601821899414 40.75 M265.4601821899414 40.75 C265.4601821899414 53.05799390950563, 265.4601821899414 65.36598781901127, 265.4601821899414 81.5 M265.4601821899414 40.75 C265.4601821899414 53.01177217806908, 265.4601821899414 65.27354435613816, 265.4601821899414 81.5 M265.4601821899414 81.5 C155.81680551969356 81.5, 46.17342884944574 81.5, -265.4601821899414 81.5 M265.4601821899414 81.5 C87.23584420770658 81.5, -90.98849377452825 81.5, -265.4601821899414 81.5 M-265.4601821899414 81.5 C-265.4601821899414 65.368273650453, -265.4601821899414 49.236547300906025, -265.4601821899414 40.75 M-265.4601821899414 81.5 C-265.4601821899414 71.2352639111755, -265.4601821899414 60.970527822350974, -265.4601821899414 40.75" stroke="#9370DB" stroke-width="1.3" fill="none" stroke-dasharray="0 0"/></g><g class="label name" transform="translate(-107.7890625, -72.125)" style=""><g><rect class="background" style="stroke: none"/></g><text y="-10.1" style=""><tspan class="text-outer-tspan row" x="0" y="-0.1em" dy="1.1em"><tspan font-style="normal" class="text-inner-tspan" font-weight="normal">concept_family_membership</tspan></tspan></text></g><g class="label attribute-type" transform="translate(-252.9601821899414, -31.375)" style=""><g><rect class="background" style="stroke: none"/></g><text y="-10.1" style=""><tspan class="text-outer-tspan row" x="0" y="-0.1em" dy="1.1em"><tspan font-style="normal" class="text-inner-tspan" font-weight="normal">TEXT</tspan></tspan></text></g><g class="label attribute-name" transform="translate(-162.04009246826172, -31.375)" style=""><g><rect class="background" style="stroke: none"/></g><text y="-10.1" style=""><tspan class="text-outer-tspan row" x="0" y="-0.1em" dy="1.1em"><tspan font-style="normal" class="text-inner-tspan" font-weight="normal">concept_id</tspan></tspan></text></g><g class="label attribute-keys" transform="translate(-56.39946746826172, -31.375)" style=""><g><rect class="background" style="stroke: none"/></g><text y="-10.1" style=""><tspan class="text-outer-tspan row" x="0" y="-0.1em" dy="1.1em"><tspan font-style="normal" class="text-inner-tspan" font-weight="normal">PK,FK</tspan></tspan></text></g><g class="label attribute-comment" transform="translate(10.776603698730469, -31.375)" style=""><g><rect class="background" style="stroke: none"/></g><text y="-10.1" style=""><tspan class="text-outer-tspan row" x="0" y="-0.1em" dy="1.1em"/></text></g><g class="label attribute-type" transform="translate(-252.9601821899414, 9.375)" style=""><g><rect class="background" style="stroke: none"/></g><text y="-10.1" style=""><tspan class="text-outer-tspan row" x="0" y="-0.1em" dy="1.1em"><tspan font-style="normal" class="text-inner-tspan" font-weight="normal">TEXT</tspan></tspan></text></g><g class="label attribute-name" transform="translate(-162.04009246826172, 9.375)" style=""><g><rect class="background" style="stroke: none"/></g><text y="-10.1" style=""><tspan class="text-outer-tspan row" x="0" y="-0.1em" dy="1.1em"><tspan font-style="normal" class="text-inner-tspan" font-weight="normal">family_id</tspan></tspan></text></g><g class="label attribute-keys" transform="translate(-56.39946746826172, 9.375)" style=""><g><rect class="background" style="stroke: none"/></g><text y="-10.1" style=""><tspan class="text-outer-tspan row" x="0" y="-0.1em" dy="1.1em"><tspan font-style="normal" class="text-inner-tspan" font-weight="normal">PK,FK</tspan></tspan></text></g><g class="label attribute-comment" transform="translate(10.776603698730469, 9.375)" style=""><g><rect class="background" style="stroke: none"/></g><text y="-10.1" style=""><tspan class="text-outer-tspan row" x="0" y="-0.1em" dy="1.1em"/></text></g><g class="label attribute-type" transform="translate(-252.9601821899414, 50.125)" style=""><g><rect class="background" style="stroke: none"/></g><text y="-10.1" style=""><tspan class="text-outer-tspan row" x="0" y="-0.1em" dy="1.1em"><tspan font-style="normal" class="text-inner-tspan" font-weight="normal">INTEGER</tspan></tspan></text></g><g class="label attribute-name" transform="translate(-162.04009246826172, 50.125)" style=""><g><rect class="background" style="stroke: none"/></g><text y="-10.1" style=""><tspan class="text-outer-tspan row" x="0" y="-0.1em" dy="1.1em"><tspan font-style="normal" class="text-inner-tspan" font-weight="normal">is_primary</tspan></tspan></text></g><g class="label attribute-keys" transform="translate(-56.39946746826172, 50.125)" style=""><g><rect class="background" style="stroke: none"/></g><text y="-10.1" style=""><tspan class="text-outer-tspan row" x="0" y="-0.1em" dy="1.1em"/></text></g><g class="label attribute-comment" transform="translate(10.776603698730469, 50.125)" style=""><g><rect class="background" style="stroke: none"/></g><text y="-10.1" style=""><tspan class="text-outer-tspan row" x="0" y="-0.1em" dy="1.1em"><tspan font-style="normal" class="text-inner-tspan" font-weight="normal">1=canonical</tspan><tspan font-style="normal" class="text-inner-tspan" font-weight="normal"> home,</tspan><tspan font-style="normal" class="text-inner-tspan" font-weight="normal"> 0=secondary</tspan></tspan></text></g><g class="divider"><path d="M-265.4601821899414 -40.75005 L-265.4601821899414 -40.74995 L265.4601821899414 -40.74995 L265.4601821899414 -40.75005" stroke="none" stroke-width="0" fill="#ECECFF" fill-rule="evenodd"/><path d="M-265.4601821899414 -40.75005 C-265.4601821899414 -40.75002114739037, -265.4601821899414 -40.74999229478073, -265.4601821899414 -40.74995 M-265.4601821899414 -40.75005 C-265.4601821899414 -40.75001080084031, -265.4601821899414 -40.74997160168062, -265.4601821899414 -40.74995 M-265.4601821899414 -40.74995 C-72.70702563771266 -40.74995, 120.04613091451608 -40.74995, 265.4601821899414 -40.74995 M-265.4601821899414 -40.74995 C-81.3830229040633 -40.74995, 102.69413638181481 -40.74995, 265.4601821899414 -40.74995 M265.4601821899414 -40.74995 C265.4601821899414 -40.749973355203615, 265.4601821899414 -40.749996710407224, 265.4601821899414 -40.75005 M265.4601821899414 -40.74995 C265.4601821899414 -40.749980283806046, 265.4601821899414 -40.750010567612094, 265.4601821899414 -40.75005 M265.4601821899414 -40.75005 C153.75901633575296 -40.75005, 42.057850481564486 -40.75005, -265.4601821899414 -40.75005 M265.4601821899414 -40.75005 C58.056700457934454 -40.75005, -149.3467812740725 -40.75005, -265.4601821899414 -40.75005" stroke="#9370DB" stroke-width="1.3" fill="none" stroke-dasharray="0 0"/></g><g class="divider"><path d="M-174.5401424682617 -40.75 L-174.54004246826173 -40.75 L-174.54004246826173 81.5 L-174.5401424682617 81.5" stroke="none" stroke-width="0" fill="#ECECFF" fill-rule="evenodd"/><path d="M-174.5401424682617 -40.75 C-174.54010534980358 -40.75, -174.54006823134546 -40.75, -174.54004246826173 -40.75 M-174.5401424682617 -40.75 C-174.54011968403196 -40.75, -174.54009689980222 -40.75, -174.54004246826173 -40.75 M-174.54004246826173 -40.75 C-174.54004246826173 -14.731900079996034, -174.54004246826173 11.286199840007932, -174.54004246826173 81.5 M-174.54004246826173 -40.75 C-174.54004246826173 3.4661563357980825, -174.54004246826173 47.682312671596165, -174.54004246826173 81.5 M-174.54004246826173 81.5 C-174.5400717694574 81.5, -174.5401010706531 81.5, -174.5401424682617 81.5 M-174.54004246826173 81.5 C-174.54006528243033 81.5, -174.54008809659894 81.5, -174.5401424682617 81.5 M-174.5401424682617 81.5 C-174.5401424682617 43.43113389441152, -174.5401424682617 5.362267788823047, -174.5401424682617 -40.75 M-174.5401424682617 81.5 C-174.5401424682617 38.742388659402266, -174.5401424682617 -4.015222681195468, -174.5401424682617 -40.75" stroke="#9370DB" stroke-width="1.3" fill="none" stroke-dasharray="0 0"/></g><g class="divider"><path d="M-68.89951746826172 -40.75 L-68.89941746826172 -40.75 L-68.89941746826172 81.5 L-68.89951746826172 81.5" stroke="none" stroke-width="0" fill="#ECECFF" fill-rule="evenodd"/><path d="M-68.89951746826172 -40.75 C-68.8994829139827 -40.75, -68.89944835970365 -40.75, -68.89941746826172 -40.75 M-68.89951746826172 -40.75 C-68.89948673296608 -40.75, -68.89945599767044 -40.75, -68.89941746826172 -40.75 M-68.89941746826172 -40.75 C-68.89941746826172 2.3890064577261754, -68.89941746826172 45.52801291545235, -68.89941746826172 81.5 M-68.89941746826172 -40.75 C-68.89941746826172 -13.718471628119588, -68.89941746826172 13.313056743760825, -68.89941746826172 81.5 M-68.89941746826172 81.5 C-68.89944538243988 81.5, -68.89947329661804 81.5, -68.89951746826172 81.5 M-68.89941746826172 81.5 C-68.89945565148123 81.5, -68.89949383470073 81.5, -68.89951746826172 81.5 M-68.89951746826172 81.5 C-68.89951746826172 51.175619780514495, -68.89951746826172 20.85123956102899, -68.89951746826172 -40.75 M-68.89951746826172 81.5 C-68.89951746826172 43.76075880722415, -68.89951746826172 6.0215176144483, -68.89951746826172 -40.75" stroke="#9370DB" stroke-width="1.3" fill="none" stroke-dasharray="0 0"/></g><g class="divider"><path d="M-1.7234463012695314 -40.75 L-1.7233463012695311 -40.75 L-1.7233463012695311 81.5 L-1.7234463012695314 81.5" stroke="none" stroke-width="0" fill="#ECECFF" fill-rule="evenodd"/><path d="M-1.7234463012695314 -40.75 C-1.7234155873049486 -40.75, -1.7233848733403656 -40.75, -1.7233463012695311 -40.75 M-1.7234463012695314 -40.75 C-1.7234073052886678 -40.75, -1.7233683093078045 -40.75, -1.7233463012695311 -40.75 M-1.7233463012695311 -40.75 C-1.7233463012695311 1.7993743316562743, -1.7233463012695311 44.34874866331255, -1.7233463012695311 81.5 M-1.7233463012695311 -40.75 C-1.7233463012695311 -10.196003090750924, -1.7233463012695311 20.35799381849815, -1.7233463012695311 81.5 M-1.7233463012695311 81.5 C-1.7233791512842431 81.5, -1.7234120012989549 81.5, -1.7234463012695314 81.5 M-1.7233463012695311 81.5 C-1.7233749559745597 81.5, -1.7234036106795882 81.5, -1.7234463012695314 81.5 M-1.7234463012695314 81.5 C-1.7234463012695314 35.11307508688709, -1.7234463012695314 -11.273849826225813, -1.7234463012695314 -40.75 M-1.7234463012695314 81.5 C-1.7234463012695314 38.31772473233721, -1.7234463012695314 -4.864550535325577, -1.7234463012695314 -40.75" stroke="#9370DB" stroke-width="1.3" fill="none" stroke-dasharray="0 0"/></g><g class="divider"><path d="M-265.4601821899414 -40.75005 L-265.4601821899414 -40.74995 L265.4601821899414 -40.74995 L265.4601821899414 -40.75005" stroke="none" stroke-width="0" fill="#ECECFF" fill-rule="evenodd"/><path d="M-265.4601821899414 -40.75005 C-265.4601821899414 -40.750026717851114, -265.4601821899414 -40.75000343570223, -265.4601821899414 -40.74995 M-265.4601821899414 -40.75005 C-265.4601821899414 -40.75002229146071, -265.4601821899414 -40.74999458292142, -265.4601821899414 -40.74995 M-265.4601821899414 -40.74995 C-155.23933698280024 -40.74995, -45.018491775659044 -40.74995, 265.4601821899414 -40.74995 M-265.4601821899414 -40.74995 C-128.59902190576355 -40.74995, 8.262138378414306 -40.74995, 265.4601821899414 -40.74995 M265.4601821899414 -40.74995 C265.4601821899414 -40.749979327575375, 265.4601821899414 -40.75000865515075, 265.4601821899414 -40.75005 M265.4601821899414 -40.74995 C265.4601821899414 -40.74998607253638, 265.4601821899414 -40.75002214507276, 265.4601821899414 -40.75005 M265.4601821899414 -40.75005 C55.55638387426097 -40.75005, -154.34741444141946 -40.75005, -265.4601821899414 -40.75005 M265.4601821899414 -40.75005 C153.04909457805965 -40.75005, 40.6380069661779 -40.75005, -265.4601821899414 -40.75005" stroke="#9370DB" stroke-width="1.3" fill="none" stroke-dasharray="0 0"/></g></g><g class="node default" id="my-svg-entity-concept_aliases-3" data-look="classic" transform="translate(795.9127197265625, 440)"><g class="outer-path" style=""><path d="M-116.99237060546875 -61.125 L116.99237060546875 -61.125 L116.99237060546875 61.125 L-116.99237060546875 61.125" stroke="none" stroke-width="0" fill="#ECECFF"/><path d="M-116.99237060546875 -61.125 C-32.316814877242024 -61.125, 52.3587408509847 -61.125, 116.99237060546875 -61.125 M-116.99237060546875 -61.125 C-51.70505553453573 -61.125, 13.582259536397288 -61.125, 116.99237060546875 -61.125 M116.99237060546875 -61.125 C116.99237060546875 -12.993993411034893, 116.99237060546875 35.137013177930214, 116.99237060546875 61.125 M116.99237060546875 -61.125 C116.99237060546875 -32.16031078094532, 116.99237060546875 -3.19562156189064, 116.99237060546875 61.125 M116.99237060546875 61.125 C70.12349174664536 61.125, 23.254612887821978 61.125, -116.99237060546875 61.125 M116.99237060546875 61.125 C60.785367452293016 61.125, 4.578364299117283 61.125, -116.99237060546875 61.125 M-116.99237060546875 61.125 C-116.99237060546875 18.942329595544884, -116.99237060546875 -23.240340808910233, -116.99237060546875 -61.125 M-116.99237060546875 61.125 C-116.99237060546875 26.11294167805727, -116.99237060546875 -8.899116643885463, -116.99237060546875 -61.125" stroke="#9370DB" stroke-width="1.3" fill="none" stroke-dasharray="0 0"/></g><g style="" class="row-rect-odd"><path d="M-116.99237060546875 -20.375 L116.99237060546875 -20.375 L116.99237060546875 20.375 L-116.99237060546875 20.375" stroke="none" stroke-width="0" fill="hsl(240, 100%, 100%)"/><path d="M-116.99237060546875 -20.375 C-39.797872869203374 -20.375, 37.396624867062 -20.375, 116.99237060546875 -20.375 M-116.99237060546875 -20.375 C-30.744217754836157 -20.375, 55.503935095796436 -20.375, 116.99237060546875 -20.375 M116.99237060546875 -20.375 C116.99237060546875 -7.583343859245101, 116.99237060546875 5.208312281509798, 116.99237060546875 20.375 M116.99237060546875 -20.375 C116.99237060546875 -4.268621445386962, 116.99237060546875 11.837757109226075, 116.99237060546875 20.375 M116.99237060546875 20.375 C24.18241708501995 20.375, -68.62753643542885 20.375, -116.99237060546875 20.375 M116.99237060546875 20.375 C33.1415864630865 20.375, -50.709197679295755 20.375, -116.99237060546875 20.375 M-116.99237060546875 20.375 C-116.99237060546875 6.477310761956243, -116.99237060546875 -7.420378476087514, -116.99237060546875 -20.375 M-116.99237060546875 20.375 C-116.99237060546875 9.375066600721256, -116.99237060546875 -1.6248667985574876, -116.99237060546875 -20.375" stroke="#9370DB" stroke-width="1.3" fill="none" stroke-dasharray="0 0"/></g><g style="" class="row-rect-even"><path d="M-116.99237060546875 20.375 L116.99237060546875 20.375 L116.99237060546875 61.125 L-116.99237060546875 61.125" stroke="none" stroke-width="0" fill="hsl(240, 100%, 97.2745098039%)"/><path d="M-116.99237060546875 20.375 C-43.74701673432658 20.375, 29.498337136815593 20.375, 116.99237060546875 20.375 M-116.99237060546875 20.375 C-40.005463137182275 20.375, 36.9814443311042 20.375, 116.99237060546875 20.375 M116.99237060546875 20.375 C116.99237060546875 36.03091065915891, 116.99237060546875 51.686821318317826, 116.99237060546875 61.125 M116.99237060546875 20.375 C116.99237060546875 34.9342938988526, 116.99237060546875 49.493587797705196, 116.99237060546875 61.125 M116.99237060546875 61.125 C35.19057799305726 61.125, -46.61121461935423 61.125, -116.99237060546875 61.125 M116.99237060546875 61.125 C28.86119365899407 61.125, -59.26998328748061 61.125, -116.99237060546875 61.125 M-116.99237060546875 61.125 C-116.99237060546875 46.76522019926551, -116.99237060546875 32.40544039853101, -116.99237060546875 20.375 M-116.99237060546875 61.125 C-116.99237060546875 46.01319714920744, -116.99237060546875 30.901394298414885, -116.99237060546875 20.375" stroke="#9370DB" stroke-width="1.3" fill="none" stroke-dasharray="0 0"/></g><g class="label name" transform="translate(-58.6171875, -51.75)" style=""><g><rect class="background" style="stroke: none"/></g><text y="-10.1" style=""><tspan class="text-outer-tspan row" x="0" y="-0.1em" dy="1.1em"><tspan font-style="normal" class="text-inner-tspan" font-weight="normal">concept_aliases</tspan></tspan></text></g><g class="label attribute-type" transform="translate(-104.49237060546875, -11)" style=""><g><rect class="background" style="stroke: none"/></g><text y="-10.1" style=""><tspan class="text-outer-tspan row" x="0" y="-0.1em" dy="1.1em"><tspan font-style="normal" class="text-inner-tspan" font-weight="normal">TEXT</tspan></tspan></text></g><g class="label attribute-name" transform="translate(-43.32432556152344, -11)" style=""><g><rect class="background" style="stroke: none"/></g><text y="-10.1" style=""><tspan class="text-outer-tspan row" x="0" y="-0.1em" dy="1.1em"><tspan font-style="normal" class="text-inner-tspan" font-weight="normal">concept_id</tspan></tspan></text></g><g class="label attribute-keys" transform="translate(62.31629943847656, -11)" style=""><g><rect class="background" style="stroke: none"/></g><text y="-10.1" style=""><tspan class="text-outer-tspan row" x="0" y="-0.1em" dy="1.1em"><tspan font-style="normal" class="text-inner-tspan" font-weight="normal">PK,FK</tspan></tspan></text></g><g class="label attribute-comment" transform="translate(129.49237060546875, -11)" style=""><g><rect class="background" style="stroke: none"/></g><text y="-10.1" style=""><tspan class="text-outer-tspan row" x="0" y="-0.1em" dy="1.1em"/></text></g><g class="label attribute-type" transform="translate(-104.49237060546875, 29.75)" style=""><g><rect class="background" style="stroke: none"/></g><text y="-10.1" style=""><tspan class="text-outer-tspan row" x="0" y="-0.1em" dy="1.1em"><tspan font-style="normal" class="text-inner-tspan" font-weight="normal">TEXT</tspan></tspan></text></g><g class="label attribute-name" transform="translate(-43.32432556152344, 29.75)" style=""><g><rect class="background" style="stroke: none"/></g><text y="-10.1" style=""><tspan class="text-outer-tspan row" x="0" y="-0.1em" dy="1.1em"><tspan font-style="normal" class="text-inner-tspan" font-weight="normal">alias</tspan></tspan></text></g><g class="label attribute-keys" transform="translate(62.31629943847656, 29.75)" style=""><g><rect class="background" style="stroke: none"/></g><text y="-10.1" style=""><tspan class="text-outer-tspan row" x="0" y="-0.1em" dy="1.1em"><tspan font-style="normal" class="text-inner-tspan" font-weight="normal">PK</tspan></tspan></text></g><g class="label attribute-comment" transform="translate(129.49237060546875, 29.75)" style=""><g><rect class="background" style="stroke: none"/></g><text y="-10.1" style=""><tspan class="text-outer-tspan row" x="0" y="-0.1em" dy="1.1em"/></text></g><g class="divider"><path d="M-116.99237060546875 -20.37505 L-116.99237060546875 -20.37495 L116.99237060546875 -20.37495 L116.99237060546875 -20.37505" stroke="none" stroke-width="0" fill="#ECECFF" fill-rule="evenodd"/><path d="M-116.99237060546875 -20.37505 C-116.99237060546875 -20.375010355529454, -116.99237060546875 -20.374970711058904, -116.99237060546875 -20.37495 M-116.99237060546875 -20.37505 C-116.99237060546875 -20.37501774855206, -116.99237060546875 -20.37498549710412, -116.99237060546875 -20.37495 M-116.99237060546875 -20.37495 C-31.916297305976897 -20.37495, 53.159775993514955 -20.37495, 116.99237060546875 -20.37495 M-116.99237060546875 -20.37495 C-24.76295540041174 -20.37495, 67.46645980464527 -20.37495, 116.99237060546875 -20.37495 M116.99237060546875 -20.37495 C116.99237060546875 -20.37498650239488, 116.99237060546875 -20.375023004789764, 116.99237060546875 -20.37505 M116.99237060546875 -20.37495 C116.99237060546875 -20.374982346907814, 116.99237060546875 -20.375014693815633, 116.99237060546875 -20.37505 M116.99237060546875 -20.37505 C46.99080033353249 -20.37505, -23.01076993840377 -20.37505, -116.99237060546875 -20.37505 M116.99237060546875 -20.37505 C40.42529022304646 -20.37505, -36.14179015937583 -20.37505, -116.99237060546875 -20.37505" stroke="#9370DB" stroke-width="1.3" fill="none" stroke-dasharray="0 0"/></g><g class="divider"><path d="M-55.82437556152344 -20.375 L-55.824275561523436 -20.375 L-55.824275561523436 61.125 L-55.82437556152344 61.125" stroke="none" stroke-width="0" fill="#ECECFF" fill-rule="evenodd"/><path d="M-55.82437556152344 -20.375 C-55.82433722778522 -20.375, -55.82429889404701 -20.375, -55.824275561523436 -20.375 M-55.82437556152344 -20.375 C-55.82433894909869 -20.375, -55.82430233667394 -20.375, -55.824275561523436 -20.375 M-55.824275561523436 -20.375 C-55.824275561523436 6.332054857325069, -55.824275561523436 33.03910971465014, -55.824275561523436 61.125 M-55.824275561523436 -20.375 C-55.824275561523436 0.5118411322028784, -55.824275561523436 21.398682264405757, -55.824275561523436 61.125 M-55.824275561523436 61.125 C-55.82430211002419 61.125, -55.82432865852495 61.125, -55.82437556152344 61.125 M-55.824275561523436 61.125 C-55.824309759833525 61.125, -55.824343958143615 61.125, -55.82437556152344 61.125 M-55.82437556152344 61.125 C-55.82437556152344 28.82918634291064, -55.82437556152344 -3.466627314178723, -55.82437556152344 -20.375 M-55.82437556152344 61.125 C-55.82437556152344 30.237797731944397, -55.82437556152344 -0.6494045361112057, -55.82437556152344 -20.375" stroke="#9370DB" stroke-width="1.3" fill="none" stroke-dasharray="0 0"/></g><g class="divider"><path d="M49.81624943847656 -20.375 L49.816349438476564 -20.375 L49.816349438476564 61.125 L49.81624943847656 61.125" stroke="none" stroke-width="0" fill="#ECECFF" fill-rule="evenodd"/><path d="M49.81624943847656 -20.375 C49.816278960673024 -20.375, 49.81630848286949 -20.375, 49.816349438476564 -20.375 M49.81624943847656 -20.375 C49.816281102230185 -20.375, 49.81631276598381 -20.375, 49.816349438476564 -20.375 M49.816349438476564 -20.375 C49.816349438476564 7.452150918976301, 49.816349438476564 35.2793018379526, 49.816349438476564 61.125 M49.816349438476564 -20.375 C49.816349438476564 2.8917023017359185, 49.816349438476564 26.158404603471837, 49.816349438476564 61.125 M49.816349438476564 61.125 C49.81632247710304 61.125, 49.81629551572953 61.125, 49.81624943847656 61.125 M49.816349438476564 61.125 C49.81631432588987 61.125, 49.816279213303176 61.125, 49.81624943847656 61.125 M49.81624943847656 61.125 C49.81624943847656 32.60586518918778, 49.81624943847656 4.086730378375556, 49.81624943847656 -20.375 M49.81624943847656 61.125 C49.81624943847656 34.09708623303335, 49.81624943847656 7.069172466066711, 49.81624943847656 -20.375" stroke="#9370DB" stroke-width="1.3" fill="none" stroke-dasharray="0 0"/></g><g class="divider"><path d="M-116.99237060546875 -20.37505 L-116.99237060546875 -20.37495 L116.99237060546875 -20.37495 L116.99237060546875 -20.37505" stroke="none" stroke-width="0" fill="#ECECFF" fill-rule="evenodd"/><path d="M-116.99237060546875 -20.37505 C-116.99237060546875 -20.37501701477165, -116.99237060546875 -20.374984029543295, -116.99237060546875 -20.37495 M-116.99237060546875 -20.37505 C-116.99237060546875 -20.37502715636082, -116.99237060546875 -20.37500431272164, -116.99237060546875 -20.37495 M-116.99237060546875 -20.37495 C-29.2235994557317 -20.37495, 58.54517169400535 -20.37495, 116.99237060546875 -20.37495 M-116.99237060546875 -20.37495 C-36.59332407754458 -20.37495, 43.80572245037959 -20.37495, 116.99237060546875 -20.37495 M116.99237060546875 -20.37495 C116.99237060546875 -20.374988879322586, 116.99237060546875 -20.375027758645174, 116.99237060546875 -20.37505 M116.99237060546875 -20.37495 C116.99237060546875 -20.37498478472146, 116.99237060546875 -20.375019569442923, 116.99237060546875 -20.37505 M116.99237060546875 -20.37505 C51.41547620123826 -20.37505, -14.161418202992223 -20.37505, -116.99237060546875 -20.37505 M116.99237060546875 -20.37505 C39.77769927473206 -20.37505, -37.436972056004635 -20.37505, -116.99237060546875 -20.37505" stroke="#9370DB" stroke-width="1.3" fill="none" stroke-dasharray="0 0"/></g></g><g class="label edgeLabel" id="entity-concept_families-1---entity-concept_families-1---1" transform="translate(1156.236132049933, 440)"><rect width="0.1" height="0.1"/><g class="label" style="" transform="translate(0, 0)"><rect/><g><rect class="background" style="stroke: none"/><text y="-10.1" style=""><tspan class="text-outer-tspan row" x="0" y="-0.1em" dy="1.1em"/></text></g></g></g><g class="label edgeLabel" id="entity-concept_families-1---entity-concept_families-1---2" transform="translate(1245.0456794742495, 645.1499984748662)"><rect width="0.1" height="0.1"/><g class="label" style="" transform="translate(0, 0)"><rect/><g><rect class="background" style="stroke: none"/><text y="-10.1" style=""><tspan class="text-outer-tspan row" x="0" y="-0.1em" dy="1.1em"/></text></g></g></g></g></g></g><defs><filter id="my-svg-drop-shadow" height="130%" width="130%"><feDropShadow dx="4" dy="4" stdDeviation="0" flood-opacity="0.06" flood-color="#000000"/></filter></defs><defs><filter id="my-svg-drop-shadow-small" height="150%" width="150%"><feDropShadow dx="2" dy="2" stdDeviation="0" flood-opacity="0.06" flood-color="#000000"/></filter></defs></svg>