<svg id="my-svg" width="100%" xmlns="http://www.w3.org/2000/svg" xmlns:xlink="http://www.w3.org/1999/xlink" class="erDiagram" style="max-width: 1488.24px; background-color: white;" viewBox="0 0 1488.24462890625 653.25" role="graphics-document document" aria-roledescription="er"><rect x="0" y="0" width="1488.24462890625" height="653.25" fill="white"/><style>#my-svg{font-family:"trebuchet ms",verdana,arial,sans-serif;font-size:16px;fill:#333;}@keyframes edge-animation-frame{from{stroke-dashoffset:0;}}@keyframes dash{to{stroke-dashoffset:0;}}#my-svg .edge-animation-slow{stroke-dasharray:9,5!important;stroke-dashoffset:900;animation:dash 50s linear infinite;stroke-linecap:round;}#my-svg .edge-animation-fast{stroke-dasharray:9,5!important;stroke-dashoffset:900;animation:dash 20s linear infinite;stroke-linecap:round;}#my-svg .error-icon{fill:#552222;}#my-svg .error-text{fill:#552222;stroke:#552222;}#my-svg .edge-thickness-normal{stroke-width:1px;}#my-svg .edge-thickness-thick{stroke-width:3.5px;}#my-svg .edge-pattern-solid{stroke-dasharray:0;}#my-svg .edge-thickness-invisible{stroke-width:0;fill:none;}#my-svg .edge-pattern-dashed{stroke-dasharray:3;}#my-svg .edge-pattern-dotted{stroke-dasharray:2;}#my-svg .marker{fill:#333333;stroke:#333333;}#my-svg .marker.cross{stroke:#333333;}#my-svg svg{font-family:"trebuchet ms",verdana,arial,sans-serif;font-size:16px;}#my-svg p{margin:0;}#my-svg .entityBox{fill:#ECECFF;stroke:#9370DB;}#my-svg .relationshipLabelBox{fill:hsl(80, 100%, 96.2745098039%);opacity:0.7;background-color:hsl(80, 100%, 96.2745098039%);}#my-svg .relationshipLabelBox rect{opacity:0.5;}#my-svg .labelBkg{background-color:rgba(248.6666666666, 255, 235.9999999999, 0.5);}#my-svg .edgeLabel{background-color:rgba(232,232,232, 0.8);}#my-svg .edgeLabel .label rect{fill:rgba(232,232,232, 0.8);}#my-svg .edgeLabel .label text{fill:#333;}#my-svg .edgeLabel .label{fill:#9370DB;font-size:14px;}#my-svg .label{font-family:"trebuchet ms",verdana,arial,sans-serif;color:#333;}#my-svg .edge-pattern-dashed{stroke-dasharray:8,8;}#my-svg .node rect,#my-svg .node circle,#my-svg .node ellipse,#my-svg .node polygon{fill:#ECECFF;stroke:#9370DB;stroke-width:1px;}#my-svg .relationshipLine{stroke:#333333;stroke-width:1px;fill:none;}#my-svg .marker{fill:none!important;stroke:#333333!important;stroke-width:1;}#my-svg [data-look=neo].labelBkg{background-color:rgba(248.6666666666, 255, 235.9999999999, 0.5);}#my-svg .node .neo-node{stroke:#9370DB;}#my-svg [data-look="neo"].node rect,#my-svg [data-look="neo"].cluster rect,#my-svg [data-look="neo"].node polygon{stroke:#9370DB;filter:drop-shadow(1px 2px 2px rgba(185, 185, 185, 1));}#my-svg [data-look="neo"].node path{stroke:#9370DB;stroke-width:1px;}#my-svg [data-look="neo"].node .outer-path{filter:drop-shadow(1px 2px 2px rgba(185, 185, 185, 1));}#my-svg [data-look="neo"].node .neo-line path{stroke:#9370DB;filter:none;}#my-svg [data-look="neo"].node circle{stroke:#9370DB;filter:drop-shadow(1px 2px 2px rgba(185, 185, 185, 1));}#my-svg [data-look="neo"].node circle .state-start{fill:#000000;}#my-svg [data-look="neo"].icon-shape .icon{fill:#9370DB;filter:drop-shadow(1px 2px 2px rgba(185, 185, 185, 1));}#my-svg [data-look="neo"].icon-shape .icon-neo path{stroke:#9370DB;filter:drop-shadow(1px 2px 2px rgba(185, 185, 185, 1));}#my-svg :root{--mermaid-font-family:"trebuchet ms",verdana,arial,sans-serif;}</style><g><defs><marker id="my-svg_er-onlyOneStart" class="marker onlyOne er" refX="0" refY="9" markerWidth="18" markerHeight="18" orient="auto"><path d="M9,0 L9,18 M15,0 L15,18"/></marker></defs><defs><marker id="my-svg_er-onlyOneEnd" class="marker onlyOne er" refX="18" refY="9" markerWidth="18" markerHeight="18" orient="auto"><path d="M3,0 L3,18 M9,0 L9,18"/></marker></defs><defs><marker id="my-svg_er-zeroOrOneStart" class="marker zeroOrOne er" refX="0" refY="9" markerWidth="30" markerHeight="18" orient="auto"><circle fill="white" cx="21" cy="9" r="6"/><path d="M9,0 L9,18"/></marker></defs><defs><marker id="my-svg_er-zeroOrOneEnd" class="marker zeroOrOne er" refX="30" refY="9" markerWidth="30" markerHeight="18" orient="auto"><circle fill="white" cx="9" cy="9" r="6"/><path d="M21,0 L21,18"/></marker></defs><defs><marker id="my-svg_er-oneOrMoreStart" class="marker oneOrMore er" refX="18" refY="18" markerWidth="45" markerHeight="36" orient="auto"><path d="M0,18 Q 18,0 36,18 Q 18,36 0,18 M42,9 L42,27"/></marker></defs><defs><marker id="my-svg_er-oneOrMoreEnd" class="marker oneOrMore er" refX="27" refY="18" markerWidth="45" markerHeight="36" orient="auto"><path d="M3,9 L3,27 M9,18 Q27,0 45,18 Q27,36 9,18"/></marker></defs><defs><marker id="my-svg_er-zeroOrMoreStart" class="marker zeroOrMore er" refX="18" refY="18" markerWidth="57" markerHeight="36" orient="auto"><circle fill="white" cx="48" cy="18" r="6"/><path d="M0,18 Q18,0 36,18 Q18,36 0,18"/></marker></defs><defs><marker id="my-svg_er-zeroOrMoreEnd" class="marker zeroOrMore er" refX="39" refY="18" markerWidth="57" markerHeight="36" orient="auto"><circle fill="white" cx="9" cy="18" r="6"/><path d="M21,18 Q39,0 57,18 Q39,36 21,18"/></marker></defs><g class="root"><g class="clusters"/><g class="edgePaths"><path d="M1240.919,252.5L1240.919,261.333C1240.919,270.167,1240.919,287.833,1240.919,319.075C1240.919,350.317,1240.919,395.133,1240.919,417.542L1240.919,439.95" id="my-svg-entity-concept_families-1-cyclic-special-1" class="edge-thickness-normal edge-pattern-solid relationshipLine" style="undefined;;;undefined" data-edge="true" data-et="edge" data-id="entity-concept_families-1-cyclic-special-1" data-points="W3sieCI6MTI0MC45MTg3Nzk3NTUwMTEyLCJ5IjoyNTIuNX0seyJ4IjoxMjQwLjkxODc3OTc1NTAxMTIsInkiOjMwNS41fSx7IngiOjEyNDAuOTE4Nzc5NzU1MDExMiwieSI6NDM5Ljk0OTk5OTk5OTI1NDk0fV0=" data-look="classic" marker-start="url(#my-svg_er-onlyOneStart)"/><path d="M1240.919,440.05L1240.919,463.925C1240.919,487.8,1240.919,535.55,1260.284,569.729C1279.65,603.908,1318.381,624.516,1337.746,634.819L1357.111,645.123" id="my-svg-entity-concept_families-1-cyclic-special-mid" class="edge-thickness-normal edge-pattern-solid relationshipLine" style="undefined;;;undefined" data-edge="true" data-et="edge" data-id="entity-concept_families-1-cyclic-special-mid" data-points="W3sieCI6MTI0MC45MTg3Nzk3NTUwMTEyLCJ5Ijo0NDAuMDUwMDAwMDAwNzQ1MDZ9LHsieCI6MTI0MC45MTg3Nzk3NTUwMTEyLCJ5Ijo1ODMuMjk5OTk5MjM3MDYwNX0seyJ4IjoxMzU3LjExMTM2Nzc5NzQ3OSwieSI6NjQ1LjEyMzM5NDYyODAzMTR9XQ==" data-look="classic"/><path d="M1357.197,645.1L1364.592,634.8C1371.987,624.5,1386.777,603.9,1394.171,569.717C1401.566,535.533,1401.566,487.767,1401.566,441.467C1401.566,395.167,1401.566,350.333,1393.469,319.083C1385.372,287.833,1369.177,270.167,1361.08,261.333L1352.982,252.5" id="my-svg-entity-concept_families-1-cyclic-special-2" class="edge-thickness-normal edge-pattern-solid relationshipLine" style="undefined;;;undefined" data-edge="true" data-et="edge" data-id="entity-concept_families-1-cyclic-special-2" data-points="W3sieCI6MTM1Ny4xOTcyNjQ5NDg1MjQsInkiOjY0NS4wOTk5OTg0NzQxMjExfSx7IngiOjE0MDEuNTY2MTQxNTEwMzgyMywieSI6NTgzLjI5OTk5OTIzNzA2MDV9LHsieCI6MTQwMS41NjYxNDE1MTAzODIzLCJ5Ijo0NDB9LHsieCI6MTQwMS41NjYxNDE1MTAzODIzLCJ5IjozMDUuNX0seyJ4IjoxMzUyLjk4MjM0NTk0Mzg1MDgsInkiOjI1Mi41fV0=" data-look="classic" marker-end="url(#my-svg_er-zeroOrMoreEnd)"/><path d="M349.786,232.125L329.96,244.354C310.134,256.583,270.483,281.042,253.868,302.104C237.254,323.167,243.676,340.833,246.887,349.667L250.098,358.5" id="my-svg-id_entity-nodes-0_entity-concept_family_membership-2_1" class="edge-thickness-normal edge-pattern-solid relationshipLine" style="undefined;;;undefined" data-edge="true" data-et="edge" data-id="id_entity-nodes-0_entity-concept_family_membership-2_1" data-points="W3sieCI6MzQ5Ljc4NTc5MjYwNTE3MjksInkiOjIzMi4xMjV9LHsieCI6MjMwLjgzMTI2ODMxMDU0Njg4LCJ5IjozMDUuNX0seyJ4IjoyNTAuMDk4MjU4MzE5ODQwNTcsInkiOjM1OC41fV0=" data-look="classic" marker-start="url(#my-svg_er-onlyOneStart)" marker-end="url(#my-svg_er-zeroOrMoreEnd)"/><path d="M1001.593,187.668L919.736,207.307C837.88,226.945,674.167,266.223,577.158,294.695C480.148,323.167,449.842,340.833,434.688,349.667L419.535,358.5" id="my-svg-id_entity-concept_families-1_entity-concept_family_membership-2_2" class="edge-thickness-normal edge-pattern-solid relationshipLine" style="undefined;;;undefined" data-edge="true" data-et="edge" data-id="id_entity-concept_families-1_entity-concept_family_membership-2_2" data-points="W3sieCI6MTAwMS41OTI4ODI1MzgyMTQzLCJ5IjoxODcuNjY4MDc4NzAxOTYwMTh9LHsieCI6NTEwLjQ1NDM2MDk2MTkxNDA2LCJ5IjozMDUuNX0seyJ4Ijo0MTkuNTM1Mjk5NTkxODU4NiwieSI6MzU4LjV9XQ==" data-look="classic" marker-start="url(#my-svg_er-onlyOneStart)" marker-end="url(#my-svg_er-zeroOrMoreEnd)"/><path d="M703.306,232.125L725.917,244.354C748.528,256.583,793.75,281.042,816.361,305.5C838.972,329.958,838.972,354.417,838.972,366.646L838.972,378.875" id="my-svg-id_entity-nodes-0_entity-concept_aliases-3_3" class="edge-thickness-normal edge-pattern-solid relationshipLine" style="undefined;;;undefined" data-edge="true" data-et="edge" data-id="id_entity-nodes-0_entity-concept_aliases-3_3" data-points="W3sieCI6NzAzLjMwNTUzODY3NTQxNDQsInkiOjIzMi4xMjV9LHsieCI6ODM4Ljk3MTk4NDg2MzI4MTIsInkiOjMwNS41fSx7IngiOjgzOC45NzE5ODQ4NjMyODEyLCJ5IjozNzguODc1fV0=" data-look="classic" marker-start="url(#my-svg_er-onlyOneStart)" marker-end="url(#my-svg_er-zeroOrMoreEnd)"/></g><g class="edgeLabels"><g class="edgeLabel"><g class="label" data-id="entity-concept_families-1-cyclic-special-1" transform="translate(0, 0)"><text xml:space="preserve" y="-10.1" text-anchor="middle"><tspan class="text-outer-tspan row" x="0" y="-0.1em" dy="1.1em" text-anchor="middle"/></text></g></g><g><rect class="background" style="stroke: none"/></g><g class="edgeLabel" transform="translate(1240.9187797550112, 583.2999992370605)"><g class="label" data-id="entity-concept_families-1-cyclic-special-mid" transform="translate(-0.5910263061523438, -16.20000171661377)"><g><rect class="background" style="" x="-68.0625" y="-3" width="137.6190948486328" height="43.599998474121094"/><text xml:space="preserve" y="-10.1" text-anchor="middle" style=""><tspan class="text-outer-tspan row" x="0" y="-0.1em" dy="1.1em" text-anchor="middle"><tspan font-style="normal" class="text-inner-tspan" font-weight="normal">parent_id</tspan><tspan font-style="normal" class="text-inner-tspan" font-weight="normal"> (self-ref</tspan></tspan><tspan class="text-outer-tspan row" x="0" y="1em" dy="1.1em" text-anchor="middle"><tspan font-style="normal" class="text-inner-tspan" font-weight="normal">domain→family)</tspan></tspan></text></g></g></g><g class="edgeLabel"><g class="label" data-id="entity-concept_families-1-cyclic-special-2" transform="translate(0, 0)"><text xml:space="preserve" y="-10.1" text-anchor="middle"><tspan class="text-outer-tspan row" x="0" y="-0.1em" dy="1.1em" text-anchor="middle"/></text></g></g><g><rect class="background" style="stroke: none"/></g><g class="edgeLabel" transform="translate(266.31009, 283.61551)"><g class="label" data-id="id_entity-nodes-0_entity-concept_family_membership-2_1" transform="translate(0, -8.500000953674316)"><g><rect class="background" style="" x="-42.3203125" y="-3" width="84.640625" height="26"/><text xml:space="preserve" y="-10.1" text-anchor="middle" style=""><tspan class="text-outer-tspan row" x="0" y="-0.1em" dy="1.1em" text-anchor="middle"><tspan font-style="normal" class="text-inner-tspan" font-weight="normal">concept_id</tspan></tspan></text></g></g></g><g class="edgeLabel" transform="translate(704.85605, 258.85995)"><g class="label" data-id="id_entity-concept_families-1_entity-concept_family_membership-2_2" transform="translate(0, -8.500000953674316)"><g><rect class="background" style="" x="-35.46875" y="-3" width="70.9375" height="26"/><text xml:space="preserve" y="-10.1" text-anchor="middle" style=""><tspan class="text-outer-tspan row" x="0" y="-0.1em" dy="1.1em" text-anchor="middle"><tspan font-style="normal" class="text-inner-tspan" font-weight="normal">family_id</tspan></tspan></text></g></g></g><g class="edgeLabel" transform="translate(838.9719848632812, 305.5)"><g class="label" data-id="id_entity-nodes-0_entity-concept_aliases-3_3" transform="translate(0, -8.500000953674316)"><g><rect class="background" style="" x="-42.3203125" y="-3" width="84.640625" height="26"/><text xml:space="preserve" y="-10.1" text-anchor="middle" style=""><tspan class="text-outer-tspan row" x="0" y="-0.1em" dy="1.1em" text-anchor="middle"><tspan font-style="normal" class="text-inner-tspan" font-weight="normal">concept_id</tspan></tspan></text></g></g></g></g><g class="nodes"><g class="node default" id="my-svg-entity-nodes-0" data-look="classic" transform="translate(514.9441184997559, 130.25)"><g class="outer-path" style=""><path d="M-225.80684661865234 -101.875 L225.80684661865234 -101.875 L225.80684661865234 101.875 L-225.80684661865234 101.875" stroke="none" stroke-width="0" fill="#ECECFF"/><path d="M-225.80684661865234 -101.875 C-117.63224115084265 -101.875, -9.457635683032947 -101.875, 225.80684661865234 -101.875 M-225.80684661865234 -101.875 C-51.77815245577233 -101.875, 122.25054170710769 -101.875, 225.80684661865234 -101.875 M225.80684661865234 -101.875 C225.80684661865234 -32.04826237216159, 225.80684661865234 37.778475255676824, 225.80684661865234 101.875 M225.80684661865234 -101.875 C225.80684661865234 -51.45969540276702, 225.80684661865234 -1.0443908055340358, 225.80684661865234 101.875 M225.80684661865234 101.875 C63.57401428354049 101.875, -98.65881805157136 101.875, -225.80684661865234 101.875 M225.80684661865234 101.875 C87.08618775816788 101.875, -51.63447110231658 101.875, -225.80684661865234 101.875 M-225.80684661865234 101.875 C-225.80684661865234 40.45547688445402, -225.80684661865234 -20.964046231091956, -225.80684661865234 -101.875 M-225.80684661865234 101.875 C-225.80684661865234 44.426226060642094, -225.80684661865234 -13.022547878715812, -225.80684661865234 -101.875" stroke="#9370DB" stroke-width="1.3" fill="none" stroke-dasharray="0 0"/></g><g style="" class="row-rect-odd"><path d="M-225.80684661865234 -61.125 L225.80684661865234 -61.125 L225.80684661865234 -20.375 L-225.80684661865234 -20.375" stroke="none" stroke-width="0" fill="hsl(240, 100%, 100%)"/><path d="M-225.80684661865234 -61.125 C-62.92301469123018 -61.125, 99.96081723619199 -61.125, 225.80684661865234 -61.125 M-225.80684661865234 -61.125 C-132.4063341589381 -61.125, -39.00582169922387 -61.125, 225.80684661865234 -61.125 M225.80684661865234 -61.125 C225.80684661865234 -48.956716684890324, 225.80684661865234 -36.78843336978065, 225.80684661865234 -20.375 M225.80684661865234 -61.125 C225.80684661865234 -47.202043434621274, 225.80684661865234 -33.27908686924254, 225.80684661865234 -20.375 M225.80684661865234 -20.375 C113.48822608809327 -20.375, 1.1696055575341973 -20.375, -225.80684661865234 -20.375 M225.80684661865234 -20.375 C109.19223307110252 -20.375, -7.422380476447302 -20.375, -225.80684661865234 -20.375 M-225.80684661865234 -20.375 C-225.80684661865234 -31.12978564528098, -225.80684661865234 -41.88457129056196, -225.80684661865234 -61.125 M-225.80684661865234 -20.375 C-225.80684661865234 -30.034980028969883, -225.80684661865234 -39.69496005793977, -225.80684661865234 -61.125" stroke="#9370DB" stroke-width="1.3" fill="none" stroke-dasharray="0 0"/></g><g style="" class="row-rect-even"><path d="M-225.80684661865234 -20.375 L225.80684661865234 -20.375 L225.80684661865234 20.375 L-225.80684661865234 20.375" stroke="none" stroke-width="0" fill="hsl(240, 100%, 97.2745098039%)"/><path d="M-225.80684661865234 -20.375 C-127.62237604576659 -20.375, -29.43790547288083 -20.375, 225.80684661865234 -20.375 M-225.80684661865234 -20.375 C-131.49489672896755 -20.375, -37.18294683928272 -20.375, 225.80684661865234 -20.375 M225.80684661865234 -20.375 C225.80684661865234 -11.710388522948998, 225.80684661865234 -3.045777045897996, 225.80684661865234 20.375 M225.80684661865234 -20.375 C225.80684661865234 -4.54422893685112, 225.80684661865234 11.28654212629776, 225.80684661865234 20.375 M225.80684661865234 20.375 C90.52464311289336 20.375, -44.75756039286563 20.375, -225.80684661865234 20.375 M225.80684661865234 20.375 C130.4034103540241 20.375, 34.999974089395835 20.375, -225.80684661865234 20.375 M-225.80684661865234 20.375 C-225.80684661865234 8.164695813444327, -225.80684661865234 -4.045608373111346, -225.80684661865234 -20.375 M-225.80684661865234 20.375 C-225.80684661865234 8.422492625746063, -225.80684661865234 -3.530014748507874, -225.80684661865234 -20.375" stroke="#9370DB" stroke-width="1.3" fill="none" stroke-dasharray="0 0"/></g><g style="" class="row-rect-odd"><path d="M-225.80684661865234 20.375 L225.80684661865234 20.375 L225.80684661865234 61.125 L-225.80684661865234 61.125" stroke="none" stroke-width="0" fill="hsl(240, 100%, 100%)"/><path d="M-225.80684661865234 20.375 C-110.96876335763086 20.375, 3.8693199033906183 20.375, 225.80684661865234 20.375 M-225.80684661865234 20.375 C-107.98906170690672 20.375, 9.828723204838894 20.375, 225.80684661865234 20.375 M225.80684661865234 20.375 C225.80684661865234 30.2686760378415, 225.80684661865234 40.162352075683, 225.80684661865234 61.125 M225.80684661865234 20.375 C225.80684661865234 35.662795826848175, 225.80684661865234 50.95059165369635, 225.80684661865234 61.125 M225.80684661865234 61.125 C124.35603672564994 61.125, 22.905226832647543 61.125, -225.80684661865234 61.125 M225.80684661865234 61.125 C127.78676991559368 61.125, 29.766693212535017 61.125, -225.80684661865234 61.125 M-225.80684661865234 61.125 C-225.80684661865234 47.19245349051589, -225.80684661865234 33.259906981031776, -225.80684661865234 20.375 M-225.80684661865234 61.125 C-225.80684661865234 51.980157621637716, -225.80684661865234 42.83531524327544, -225.80684661865234 20.375" stroke="#9370DB" stroke-width="1.3" fill="none" stroke-dasharray="0 0"/></g><g style="" class="row-rect-even"><path d="M-225.80684661865234 61.125 L225.80684661865234 61.125 L225.80684661865234 101.875 L-225.80684661865234 101.875" stroke="none" stroke-width="0" fill="hsl(240, 100%, 97.2745098039%)"/><path d="M-225.80684661865234 61.125 C-90.39167283070586 61.125, 45.02350095724063 61.125, 225.80684661865234 61.125 M-225.80684661865234 61.125 C-112.51877134815089 61.125, 0.7693039223505593 61.125, 225.80684661865234 61.125 M225.80684661865234 61.125 C225.80684661865234 72.12737514069259, 225.80684661865234 83.12975028138518, 225.80684661865234 101.875 M225.80684661865234 61.125 C225.80684661865234 70.04660637601242, 225.80684661865234 78.96821275202483, 225.80684661865234 101.875 M225.80684661865234 101.875 C87.73372557393242 101.875, -50.33939547078751 101.875, -225.80684661865234 101.875 M225.80684661865234 101.875 C102.97397293430801 101.875, -19.858900750036327 101.875, -225.80684661865234 101.875 M-225.80684661865234 101.875 C-225.80684661865234 87.9852857041826, -225.80684661865234 74.0955714083652, -225.80684661865234 61.125 M-225.80684661865234 101.875 C-225.80684661865234 92.20141743778163, -225.80684661865234 82.52783487556326, -225.80684661865234 61.125" stroke="#9370DB" stroke-width="1.3" fill="none" stroke-dasharray="0 0"/></g><g class="label name" transform="translate(-23.0546875, -92.5)" style=""><g><rect class="background" style="stroke: none"/></g><text xml:space="preserve" y="-10.1" style=""><tspan class="text-outer-tspan row" x="0" y="-0.1em" dy="1.1em"><tspan font-style="normal" class="text-inner-tspan" font-weight="normal">nodes</tspan></tspan></text></g><g class="label attribute-type" transform="translate(-213.30684661865234, -51.75)" style=""><g><rect class="background" style="stroke: none"/></g><text xml:space="preserve" y="-10.1" style=""><tspan class="text-outer-tspan row" x="0" y="-0.1em" dy="1.1em"><tspan font-style="normal" class="text-inner-tspan" font-weight="normal">TEXT</tspan></tspan></text></g><g class="label attribute-name" transform="translate(-152.13880157470703, -51.75)" style=""><g><rect class="background" style="stroke: none"/></g><text xml:space="preserve" y="-10.1" style=""><tspan class="text-outer-tspan row" x="0" y="-0.1em" dy="1.1em"><tspan font-style="normal" class="text-inner-tspan" font-weight="normal">id</tspan></tspan></text></g><g class="label attribute-keys" transform="translate(-55.15442657470703, -51.75)" style=""><g><rect class="background" style="stroke: none"/></g><text xml:space="preserve" y="-10.1" style=""><tspan class="text-outer-tspan row" x="0" y="-0.1em" dy="1.1em"><tspan font-style="normal" class="text-inner-tspan" font-weight="normal">PK</tspan></tspan></text></g><g class="label attribute-comment" transform="translate(-10.474403381347656, -51.75)" style=""><g><rect class="background" style="stroke: none"/></g><text xml:space="preserve" y="-10.1" style=""><tspan class="text-outer-tspan row" x="0" y="-0.1em" dy="1.1em"/></text></g><g class="label attribute-type" transform="translate(-213.30684661865234, -11)" style=""><g><rect class="background" style="stroke: none"/></g><text xml:space="preserve" y="-10.1" style=""><tspan class="text-outer-tspan row" x="0" y="-0.1em" dy="1.1em"><tspan font-style="normal" class="text-inner-tspan" font-weight="normal">TEXT</tspan></tspan></text></g><g class="label attribute-name" transform="translate(-152.13880157470703, -11)" style=""><g><rect class="background" style="stroke: none"/></g><text xml:space="preserve" y="-10.1" style=""><tspan class="text-outer-tspan row" x="0" y="-0.1em" dy="1.1em"><tspan font-style="normal" class="text-inner-tspan" font-weight="normal">type</tspan></tspan></text></g><g class="label attribute-keys" transform="translate(-55.15442657470703, -11)" style=""><g><rect class="background" style="stroke: none"/></g><text xml:space="preserve" y="-10.1" style=""><tspan class="text-outer-tspan row" x="0" y="-0.1em" dy="1.1em"/></text></g><g class="label attribute-comment" transform="translate(-10.474403381347656, -11)" style=""><g><rect class="background" style="stroke: none"/></g><text xml:space="preserve" y="-10.1" style=""><tspan class="text-outer-tspan row" x="0" y="-0.1em" dy="1.1em"><tspan font-style="normal" class="text-inner-tspan" font-weight="normal">concept</tspan><tspan font-style="normal" class="text-inner-tspan" font-weight="normal"> rows</tspan><tspan font-style="normal" class="text-inner-tspan" font-weight="normal"> referenced</tspan><tspan font-style="normal" class="text-inner-tspan" font-weight="normal"> here</tspan></tspan></text></g><g class="label attribute-type" transform="translate(-213.30684661865234, 29.75)" style=""><g><rect class="background" style="stroke: none"/></g><text xml:space="preserve" y="-10.1" style=""><tspan class="text-outer-tspan row" x="0" y="-0.1em" dy="1.1em"><tspan font-style="normal" class="text-inner-tspan" font-weight="normal">TEXT</tspan></tspan></text></g><g class="label attribute-name" transform="translate(-152.13880157470703, 29.75)" style=""><g><rect class="background" style="stroke: none"/></g><text xml:space="preserve" y="-10.1" style=""><tspan class="text-outer-tspan row" x="0" y="-0.1em" dy="1.1em"><tspan font-style="normal" class="text-inner-tspan" font-weight="normal">label</tspan></tspan></text></g><g class="label attribute-keys" transform="translate(-55.15442657470703, 29.75)" style=""><g><rect class="background" style="stroke: none"/></g><text xml:space="preserve" y="-10.1" style=""><tspan class="text-outer-tspan row" x="0" y="-0.1em" dy="1.1em"/></text></g><g class="label attribute-comment" transform="translate(-10.474403381347656, 29.75)" style=""><g><rect class="background" style="stroke: none"/></g><text xml:space="preserve" y="-10.1" style=""><tspan class="text-outer-tspan row" x="0" y="-0.1em" dy="1.1em"/></text></g><g class="label attribute-type" transform="translate(-213.30684661865234, 70.5)" style=""><g><rect class="background" style="stroke: none"/></g><text xml:space="preserve" y="-10.1" style=""><tspan class="text-outer-tspan row" x="0" y="-0.1em" dy="1.1em"><tspan font-style="normal" class="text-inner-tspan" font-weight="normal">TEXT</tspan></tspan></text></g><g class="label attribute-name" transform="translate(-152.13880157470703, 70.5)" style=""><g><rect class="background" style="stroke: none"/></g><text xml:space="preserve" y="-10.1" style=""><tspan class="text-outer-tspan row" x="0" y="-0.1em" dy="1.1em"><tspan font-style="normal" class="text-inner-tspan" font-weight="normal">definition</tspan></tspan></text></g><g class="label attribute-keys" transform="translate(-55.15442657470703, 70.5)" style=""><g><rect class="background" style="stroke: none"/></g><text xml:space="preserve" y="-10.1" style=""><tspan class="text-outer-tspan row" x="0" y="-0.1em" dy="1.1em"/></text></g><g class="label attribute-comment" transform="translate(-10.474403381347656, 70.5)" style=""><g><rect class="background" style="stroke: none"/></g><text xml:space="preserve" y="-10.1" style=""><tspan class="text-outer-tspan row" x="0" y="-0.1em" dy="1.1em"/></text></g><g class="divider"><path d="M-225.80684661865234 -61.12505 L-225.80684661865234 -61.12495 L225.80684661865234 -61.12495 L225.80684661865234 -61.12505" stroke="none" stroke-width="0" fill="#ECECFF" fill-rule="evenodd"/><path d="M-225.80684661865234 -61.12505 C-225.80684661865234 -61.12502759043514, -225.80684661865234 -61.125005180870275, -225.80684661865234 -61.12495 M-225.80684661865234 -61.12505 C-225.80684661865234 -61.125026931441845, -225.80684661865234 -61.12500386288368, -225.80684661865234 -61.12495 M-225.80684661865234 -61.12495 C-54.51552103667845 -61.12495, 116.77580454529544 -61.12495, 225.80684661865234 -61.12495 M-225.80684661865234 -61.12495 C-107.14159325974809 -61.12495, 11.52366009915616 -61.12495, 225.80684661865234 -61.12495 M225.80684661865234 -61.12495 C225.80684661865234 -61.124988641265, 225.80684661865234 -61.12502728253, 225.80684661865234 -61.12505 M225.80684661865234 -61.12495 C225.80684661865234 -61.12497407262823, 225.80684661865234 -61.124998145256455, 225.80684661865234 -61.12505 M225.80684661865234 -61.12505 C109.24053242451468 -61.12505, -7.325781769622978 -61.12505, -225.80684661865234 -61.12505 M225.80684661865234 -61.12505 C63.74771513208975 -61.12505, -98.31141635447284 -61.12505, -225.80684661865234 -61.12505" stroke="#9370DB" stroke-width="1.3" fill="none" stroke-dasharray="0 0"/></g><g class="divider"><path d="M-164.63885157470702 -61.125 L-164.63875157470704 -61.125 L-164.63875157470704 101.875 L-164.63885157470702 101.875" stroke="none" stroke-width="0" fill="#ECECFF" fill-rule="evenodd"/><path d="M-164.63885157470702 -61.125 C-164.6388163515899 -61.125, -164.6387811284728 -61.125, -164.63875157470704 -61.125 M-164.63885157470702 -61.125 C-164.63882140278173 -61.125, -164.63879123085644 -61.125, -164.63875157470704 -61.125 M-164.63875157470704 -61.125 C-164.63875157470704 -24.20230141542075, -164.63875157470704 12.720397169158502, -164.63875157470704 101.875 M-164.63875157470704 -61.125 C-164.63875157470704 -26.585331206143934, -164.63875157470704 7.954337587712132, -164.63875157470704 101.875 M-164.63875157470704 101.875 C-164.63877974432017 101.875, -164.6388079139333 101.875, -164.63885157470702 101.875 M-164.63875157470704 101.875 C-164.63878334434253 101.875, -164.63881511397804 101.875, -164.63885157470702 101.875 M-164.63885157470702 101.875 C-164.63885157470702 55.34318686320763, -164.63885157470702 8.811373726415255, -164.63885157470702 -61.125 M-164.63885157470702 101.875 C-164.63885157470702 56.452734849140406, -164.63885157470702 11.030469698280811, -164.63885157470702 -61.125" stroke="#9370DB" stroke-width="1.3" fill="none" stroke-dasharray="0 0"/></g><g class="divider"><path d="M-67.65447657470703 -61.125 L-67.65437657470703 -61.125 L-67.65437657470703 101.875 L-67.65447657470703 101.875" stroke="none" stroke-width="0" fill="#ECECFF" fill-rule="evenodd"/><path d="M-67.65447657470703 -61.125 C-67.65445363891116 -61.125, -67.65443070311531 -61.125, -67.65437657470703 -61.125 M-67.65447657470703 -61.125 C-67.65444375912753 -61.125, -67.65441094354804 -61.125, -67.65437657470703 -61.125 M-67.65437657470703 -61.125 C-67.65437657470703 -5.942535799974827, -67.65437657470703 49.239928400050346, -67.65437657470703 101.875 M-67.65437657470703 -61.125 C-67.65437657470703 -8.507778389824615, -67.65437657470703 44.10944322035077, -67.65437657470703 101.875 M-67.65437657470703 101.875 C-67.65440922184341 101.875, -67.65444186897977 101.875, -67.65447657470703 101.875 M-67.65437657470703 101.875 C-67.65441415884898 101.875, -67.65445174299093 101.875, -67.65447657470703 101.875 M-67.65447657470703 101.875 C-67.65447657470703 43.1364065345963, -67.65447657470703 -15.602186930807406, -67.65447657470703 -61.125 M-67.65447657470703 101.875 C-67.65447657470703 50.51261867946719, -67.65447657470703 -0.8497626410656238, -67.65447657470703 -61.125" stroke="#9370DB" stroke-width="1.3" fill="none" stroke-dasharray="0 0"/></g><g class="divider"><path d="M-22.974453381347658 -61.125 L-22.974353381347655 -61.125 L-22.974353381347655 101.875 L-22.974453381347658 101.875" stroke="none" stroke-width="0" fill="#ECECFF" fill-rule="evenodd"/><path d="M-22.974453381347658 -61.125 C-22.974422007014475 -61.125, -22.974390632681295 -61.125, -22.974353381347655 -61.125 M-22.974453381347658 -61.125 C-22.97442134279623 -61.125, -22.974389304244802 -61.125, -22.974353381347655 -61.125 M-22.974353381347655 -61.125 C-22.974353381347655 -10.940272435202353, -22.974353381347655 39.244455129595295, -22.974353381347655 101.875 M-22.974353381347655 -61.125 C-22.974353381347655 -8.902007106929318, -22.974353381347655 43.320985786141364, -22.974353381347655 101.875 M-22.974353381347655 101.875 C-22.97438225734129 101.875, -22.974411133334925 101.875, -22.974453381347658 101.875 M-22.974353381347655 101.875 C-22.974384888926313 101.875, -22.974416396504967 101.875, -22.974453381347658 101.875 M-22.974453381347658 101.875 C-22.974453381347658 45.47196140721337, -22.974453381347658 -10.931077185573258, -22.974453381347658 -61.125 M-22.974453381347658 101.875 C-22.974453381347658 40.59725047961405, -22.974453381347658 -20.680499040771906, -22.974453381347658 -61.125" stroke="#9370DB" stroke-width="1.3" fill="none" stroke-dasharray="0 0"/></g><g class="divider"><path d="M-225.80684661865234 -61.12505 L-225.80684661865234 -61.12495 L225.80684661865234 -61.12495 L225.80684661865234 -61.12505" stroke="none" stroke-width="0" fill="#ECECFF" fill-rule="evenodd"/><path d="M-225.80684661865234 -61.12505 C-225.80684661865234 -61.125016843987254, -225.80684661865234 -61.12498368797451, -225.80684661865234 -61.12495 M-225.80684661865234 -61.12505 C-225.80684661865234 -61.12501786166966, -225.80684661865234 -61.12498572333932, -225.80684661865234 -61.12495 M-225.80684661865234 -61.12495 C-77.1648484016857 -61.12495, 71.47714981528094 -61.12495, 225.80684661865234 -61.12495 M-225.80684661865234 -61.12495 C-46.81377579719543 -61.12495, 132.17929502426148 -61.12495, 225.80684661865234 -61.12495 M225.80684661865234 -61.12495 C225.80684661865234 -61.12498176883567, 225.80684661865234 -61.12501353767133, 225.80684661865234 -61.12505 M225.80684661865234 -61.12495 C225.80684661865234 -61.124988257493385, 225.80684661865234 -61.12502651498678, 225.80684661865234 -61.12505 M225.80684661865234 -61.12505 C78.56634042180215 -61.12505, -68.67416577504804 -61.12505, -225.80684661865234 -61.12505 M225.80684661865234 -61.12505 C77.88112092206975 -61.12505, -70.04460477451283 -61.12505, -225.80684661865234 -61.12505" stroke="#9370DB" stroke-width="1.3" fill="none" stroke-dasharray="0 0"/></g></g><g class="node default" id="my-svg-entity-concept_families-1" data-look="classic" transform="translate(1240.9187797550112, 130.25)"><g class="outer-path" style=""><path d="M-239.32588958740234 -122.25 L239.32588958740234 -122.25 L239.32588958740234 122.25 L-239.32588958740234 122.25" stroke="none" stroke-width="0" fill="#ECECFF"/><path d="M-239.32588958740234 -122.25 C-122.7664040871192 -122.25, -6.2069185868360535 -122.25, 239.32588958740234 -122.25 M-239.32588958740234 -122.25 C-57.878849469348324 -122.25, 123.5681906487057 -122.25, 239.32588958740234 -122.25 M239.32588958740234 -122.25 C239.32588958740234 -62.04058359950804, 239.32588958740234 -1.831167199016079, 239.32588958740234 122.25 M239.32588958740234 -122.25 C239.32588958740234 -44.39640974482619, 239.32588958740234 33.45718051034763, 239.32588958740234 122.25 M239.32588958740234 122.25 C91.87385076575839 122.25, -55.57818805588556 122.25, -239.32588958740234 122.25 M239.32588958740234 122.25 C118.56685781098676 122.25, -2.1921739654288217 122.25, -239.32588958740234 122.25 M-239.32588958740234 122.25 C-239.32588958740234 59.22215934042143, -239.32588958740234 -3.805681319157145, -239.32588958740234 -122.25 M-239.32588958740234 122.25 C-239.32588958740234 26.616281644836377, -239.32588958740234 -69.01743671032725, -239.32588958740234 -122.25" stroke="#9370DB" stroke-width="1.3" fill="none" stroke-dasharray="0 0"/></g><g style="" class="row-rect-odd"><path d="M-239.32588958740234 -81.5 L239.32588958740234 -81.5 L239.32588958740234 -40.75 L-239.32588958740234 -40.75" stroke="none" stroke-width="0" fill="hsl(240, 100%, 100%)"/><path d="M-239.32588958740234 -81.5 C-69.01409026088243 -81.5, 101.29770906563749 -81.5, 239.32588958740234 -81.5 M-239.32588958740234 -81.5 C-117.22429552241745 -81.5, 4.877298542567445 -81.5, 239.32588958740234 -81.5 M239.32588958740234 -81.5 C239.32588958740234 -72.44520082648745, 239.32588958740234 -63.390401652974916, 239.32588958740234 -40.75 M239.32588958740234 -81.5 C239.32588958740234 -72.62298899250655, 239.32588958740234 -63.745977985013084, 239.32588958740234 -40.75 M239.32588958740234 -40.75 C62.00823831135048 -40.75, -115.30941296470138 -40.75, -239.32588958740234 -40.75 M239.32588958740234 -40.75 C96.12201612954698 -40.75, -47.08185732830839 -40.75, -239.32588958740234 -40.75 M-239.32588958740234 -40.75 C-239.32588958740234 -54.94195114548779, -239.32588958740234 -69.13390229097558, -239.32588958740234 -81.5 M-239.32588958740234 -40.75 C-239.32588958740234 -55.001522197065746, -239.32588958740234 -69.25304439413149, -239.32588958740234 -81.5" stroke="#9370DB" stroke-width="1.3" fill="none" stroke-dasharray="0 0"/></g><g style="" class="row-rect-even"><path d="M-239.32588958740234 -40.75 L239.32588958740234 -40.75 L239.32588958740234 0 L-239.32588958740234 0" stroke="none" stroke-width="0" fill="hsl(240, 100%, 97.2745098039%)"/><path d="M-239.32588958740234 -40.75 C-89.23862230661388 -40.75, 60.84864497417459 -40.75, 239.32588958740234 -40.75 M-239.32588958740234 -40.75 C-48.03506196444147 -40.75, 143.2557656585194 -40.75, 239.32588958740234 -40.75 M239.32588958740234 -40.75 C239.32588958740234 -26.76637773759679, 239.32588958740234 -12.782755475193586, 239.32588958740234 0 M239.32588958740234 -40.75 C239.32588958740234 -27.3318308649609, 239.32588958740234 -13.913661729921795, 239.32588958740234 0 M239.32588958740234 0 C94.59126198617088 0, -50.14336561506059 0, -239.32588958740234 0 M239.32588958740234 0 C136.60057397902403 0, 33.875258370645724 0, -239.32588958740234 0 M-239.32588958740234 0 C-239.32588958740234 -14.56795964336436, -239.32588958740234 -29.13591928672872, -239.32588958740234 -40.75 M-239.32588958740234 0 C-239.32588958740234 -13.325065283195274, -239.32588958740234 -26.650130566390548, -239.32588958740234 -40.75" stroke="#9370DB" stroke-width="1.3" fill="none" stroke-dasharray="0 0"/></g><g style="" class="row-rect-odd"><path d="M-239.32588958740234 0 L239.32588958740234 0 L239.32588958740234 40.75 L-239.32588958740234 40.75" stroke="none" stroke-width="0" fill="hsl(240, 100%, 100%)"/><path d="M-239.32588958740234 0 C-139.41904100308398 0, -39.51219241876558 0, 239.32588958740234 0 M-239.32588958740234 0 C-105.41253212116541 0, 28.50082534507152 0, 239.32588958740234 0 M239.32588958740234 0 C239.32588958740234 9.482166991055738, 239.32588958740234 18.964333982111476, 239.32588958740234 40.75 M239.32588958740234 0 C239.32588958740234 14.28382412368919, 239.32588958740234 28.56764824737838, 239.32588958740234 40.75 M239.32588958740234 40.75 C81.00442053610263 40.75, -77.31704851519709 40.75, -239.32588958740234 40.75 M239.32588958740234 40.75 C99.30844893498883 40.75, -40.70899171742468 40.75, -239.32588958740234 40.75 M-239.32588958740234 40.75 C-239.32588958740234 30.559528866733327, -239.32588958740234 20.369057733466654, -239.32588958740234 0 M-239.32588958740234 40.75 C-239.32588958740234 25.847174136154003, -239.32588958740234 10.944348272308005, -239.32588958740234 0" stroke="#9370DB" stroke-width="1.3" fill="none" stroke-dasharray="0 0"/></g><g style="" class="row-rect-even"><path d="M-239.32588958740234 40.75 L239.32588958740234 40.75 L239.32588958740234 81.5 L-239.32588958740234 81.5" stroke="none" stroke-width="0" fill="hsl(240, 100%, 97.2745098039%)"/><path d="M-239.32588958740234 40.75 C-51.09483775249413 40.75, 137.13621408241409 40.75, 239.32588958740234 40.75 M-239.32588958740234 40.75 C-126.81787954231086 40.75, -14.309869497219381 40.75, 239.32588958740234 40.75 M239.32588958740234 40.75 C239.32588958740234 56.373160856456266, 239.32588958740234 71.99632171291253, 239.32588958740234 81.5 M239.32588958740234 40.75 C239.32588958740234 54.41685787703878, 239.32588958740234 68.08371575407756, 239.32588958740234 81.5 M239.32588958740234 81.5 C124.25305615254887 81.5, 9.180222717695386 81.5, -239.32588958740234 81.5 M239.32588958740234 81.5 C122.83329794368044 81.5, 6.340706299958526 81.5, -239.32588958740234 81.5 M-239.32588958740234 81.5 C-239.32588958740234 67.3620563749939, -239.32588958740234 53.2241127499878, -239.32588958740234 40.75 M-239.32588958740234 81.5 C-239.32588958740234 66.50618675645597, -239.32588958740234 51.51237351291196, -239.32588958740234 40.75" stroke="#9370DB" stroke-width="1.3" fill="none" stroke-dasharray="0 0"/></g><g style="" class="row-rect-odd"><path d="M-239.32588958740234 81.5 L239.32588958740234 81.5 L239.32588958740234 122.25 L-239.32588958740234 122.25" stroke="none" stroke-width="0" fill="hsl(240, 100%, 100%)"/><path d="M-239.32588958740234 81.5 C-128.71040242390745 81.5, -18.09491526041259 81.5, 239.32588958740234 81.5 M-239.32588958740234 81.5 C-59.6180312553721 81.5, 120.08982707665814 81.5, 239.32588958740234 81.5 M239.32588958740234 81.5 C239.32588958740234 92.35364858797132, 239.32588958740234 103.20729717594264, 239.32588958740234 122.25 M239.32588958740234 81.5 C239.32588958740234 96.79980860141791, 239.32588958740234 112.09961720283583, 239.32588958740234 122.25 M239.32588958740234 122.25 C86.58885099111427 122.25, -66.1481876051738 122.25, -239.32588958740234 122.25 M239.32588958740234 122.25 C143.00253999302998 122.25, 46.67919039865765 122.25, -239.32588958740234 122.25 M-239.32588958740234 122.25 C-239.32588958740234 107.42432577383313, -239.32588958740234 92.59865154766625, -239.32588958740234 81.5 M-239.32588958740234 122.25 C-239.32588958740234 107.4519662831054, -239.32588958740234 92.65393256621083, -239.32588958740234 81.5" stroke="#9370DB" stroke-width="1.3" fill="none" stroke-dasharray="0 0"/></g><g class="label name" transform="translate(-62.59375, -112.875)" style=""><g><rect class="background" style="stroke: none"/></g><text xml:space="preserve" y="-10.1" style=""><tspan class="text-outer-tspan row" x="0" y="-0.1em" dy="1.1em"><tspan font-style="normal" class="text-inner-tspan" font-weight="normal">concept_families</tspan></tspan></text></g><g class="label attribute-type" transform="translate(-226.82588958740234, -72.125)" style=""><g><rect class="background" style="stroke: none"/></g><text xml:space="preserve" y="-10.1" style=""><tspan class="text-outer-tspan row" x="0" y="-0.1em" dy="1.1em"><tspan font-style="normal" class="text-inner-tspan" font-weight="normal">TEXT</tspan></tspan></text></g><g class="label attribute-name" transform="translate(-165.65784454345703, -72.125)" style=""><g><rect class="background" style="stroke: none"/></g><text xml:space="preserve" y="-10.1" style=""><tspan class="text-outer-tspan row" x="0" y="-0.1em" dy="1.1em"><tspan font-style="normal" class="text-inner-tspan" font-weight="normal">id</tspan></tspan></text></g><g class="label attribute-keys" transform="translate(-68.67346954345703, -72.125)" style=""><g><rect class="background" style="stroke: none"/></g><text xml:space="preserve" y="-10.1" style=""><tspan class="text-outer-tspan row" x="0" y="-0.1em" dy="1.1em"><tspan font-style="normal" class="text-inner-tspan" font-weight="normal">PK</tspan></tspan></text></g><g class="label attribute-comment" transform="translate(-23.993446350097656, -72.125)" style=""><g><rect class="background" style="stroke: none"/></g><text xml:space="preserve" y="-10.1" style=""><tspan class="text-outer-tspan row" x="0" y="-0.1em" dy="1.1em"><tspan font-style="normal" class="text-inner-tspan" font-weight="normal">NEW</tspan><tspan font-style="normal" class="text-inner-tspan" font-weight="normal"> —</tspan><tspan font-style="normal" class="text-inner-tspan" font-weight="normal"> domain</tspan><tspan font-style="normal" class="text-inner-tspan" font-weight="normal"> or</tspan><tspan font-style="normal" class="text-inner-tspan" font-weight="normal"> domain.family</tspan></tspan></text></g><g class="label attribute-type" transform="translate(-226.82588958740234, -31.375)" style=""><g><rect class="background" style="stroke: none"/></g><text xml:space="preserve" y="-10.1" style=""><tspan class="text-outer-tspan row" x="0" y="-0.1em" dy="1.1em"><tspan font-style="normal" class="text-inner-tspan" font-weight="normal">TEXT</tspan></tspan></text></g><g class="label attribute-name" transform="translate(-165.65784454345703, -31.375)" style=""><g><rect class="background" style="stroke: none"/></g><text xml:space="preserve" y="-10.1" style=""><tspan class="text-outer-tspan row" x="0" y="-0.1em" dy="1.1em"><tspan font-style="normal" class="text-inner-tspan" font-weight="normal">parent_id</tspan></tspan></text></g><g class="label attribute-keys" transform="translate(-68.67346954345703, -31.375)" style=""><g><rect class="background" style="stroke: none"/></g><text xml:space="preserve" y="-10.1" style=""><tspan class="text-outer-tspan row" x="0" y="-0.1em" dy="1.1em"><tspan font-style="normal" class="text-inner-tspan" font-weight="normal">FK</tspan></tspan></text></g><g class="label attribute-comment" transform="translate(-23.993446350097656, -31.375)" style=""><g><rect class="background" style="stroke: none"/></g><text xml:space="preserve" y="-10.1" style=""><tspan class="text-outer-tspan row" x="0" y="-0.1em" dy="1.1em"><tspan font-style="normal" class="text-inner-tspan" font-weight="normal">NEW</tspan><tspan font-style="normal" class="text-inner-tspan" font-weight="normal"> —</tspan><tspan font-style="normal" class="text-inner-tspan" font-weight="normal"> NULL</tspan><tspan font-style="normal" class="text-inner-tspan" font-weight="normal"> for</tspan><tspan font-style="normal" class="text-inner-tspan" font-weight="normal"> domain</tspan><tspan font-style="normal" class="text-inner-tspan" font-weight="normal"> rows</tspan></tspan></text></g><g class="label attribute-type" transform="translate(-226.82588958740234, 9.375)" style=""><g><rect class="background" style="stroke: none"/></g><text xml:space="preserve" y="-10.1" style=""><tspan class="text-outer-tspan row" x="0" y="-0.1em" dy="1.1em"><tspan font-style="normal" class="text-inner-tspan" font-weight="normal">TEXT</tspan></tspan></text></g><g class="label attribute-name" transform="translate(-165.65784454345703, 9.375)" style=""><g><rect class="background" style="stroke: none"/></g><text xml:space="preserve" y="-10.1" style=""><tspan class="text-outer-tspan row" x="0" y="-0.1em" dy="1.1em"><tspan font-style="normal" class="text-inner-tspan" font-weight="normal">label</tspan></tspan></text></g><g class="label attribute-keys" transform="translate(-68.67346954345703, 9.375)" style=""><g><rect class="background" style="stroke: none"/></g><text xml:space="preserve" y="-10.1" style=""><tspan class="text-outer-tspan row" x="0" y="-0.1em" dy="1.1em"/></text></g><g class="label attribute-comment" transform="translate(-23.993446350097656, 9.375)" style=""><g><rect class="background" style="stroke: none"/></g><text xml:space="preserve" y="-10.1" style=""><tspan class="text-outer-tspan row" x="0" y="-0.1em" dy="1.1em"><tspan font-style="normal" class="text-inner-tspan" font-weight="normal">NEW</tspan></tspan></text></g><g class="label attribute-type" transform="translate(-226.82588958740234, 50.125)" style=""><g><rect class="background" style="stroke: none"/></g><text xml:space="preserve" y="-10.1" style=""><tspan class="text-outer-tspan row" x="0" y="-0.1em" dy="1.1em"><tspan font-style="normal" class="text-inner-tspan" font-weight="normal">TEXT</tspan></tspan></text></g><g class="label attribute-name" transform="translate(-165.65784454345703, 50.125)" style=""><g><rect class="background" style="stroke: none"/></g><text xml:space="preserve" y="-10.1" style=""><tspan class="text-outer-tspan row" x="0" y="-0.1em" dy="1.1em"><tspan font-style="normal" class="text-inner-tspan" font-weight="normal">definition</tspan></tspan></text></g><g class="label attribute-keys" transform="translate(-68.67346954345703, 50.125)" style=""><g><rect class="background" style="stroke: none"/></g><text xml:space="preserve" y="-10.1" style=""><tspan class="text-outer-tspan row" x="0" y="-0.1em" dy="1.1em"/></text></g><g class="label attribute-comment" transform="translate(-23.993446350097656, 50.125)" style=""><g><rect class="background" style="stroke: none"/></g><text xml:space="preserve" y="-10.1" style=""><tspan class="text-outer-tspan row" x="0" y="-0.1em" dy="1.1em"><tspan font-style="normal" class="text-inner-tspan" font-weight="normal">NEW</tspan></tspan></text></g><g class="label attribute-type" transform="translate(-226.82588958740234, 90.875)" style=""><g><rect class="background" style="stroke: none"/></g><text xml:space="preserve" y="-10.1" style=""><tspan class="text-outer-tspan row" x="0" y="-0.1em" dy="1.1em"><tspan font-style="normal" class="text-inner-tspan" font-weight="normal">TEXT</tspan></tspan></text></g><g class="label attribute-name" transform="translate(-165.65784454345703, 90.875)" style=""><g><rect class="background" style="stroke: none"/></g><text xml:space="preserve" y="-10.1" style=""><tspan class="text-outer-tspan row" x="0" y="-0.1em" dy="1.1em"><tspan font-style="normal" class="text-inner-tspan" font-weight="normal">aliases</tspan></tspan></text></g><g class="label attribute-keys" transform="translate(-68.67346954345703, 90.875)" style=""><g><rect class="background" style="stroke: none"/></g><text xml:space="preserve" y="-10.1" style=""><tspan class="text-outer-tspan row" x="0" y="-0.1em" dy="1.1em"/></text></g><g class="label attribute-comment" transform="translate(-23.993446350097656, 90.875)" style=""><g><rect class="background" style="stroke: none"/></g><text xml:space="preserve" y="-10.1" style=""><tspan class="text-outer-tspan row" x="0" y="-0.1em" dy="1.1em"><tspan font-style="normal" class="text-inner-tspan" font-weight="normal">NEW</tspan><tspan font-style="normal" class="text-inner-tspan" font-weight="normal"> —</tspan><tspan font-style="normal" class="text-inner-tspan" font-weight="normal"> JSON</tspan><tspan font-style="normal" class="text-inner-tspan" font-weight="normal"> array</tspan><tspan font-style="normal" class="text-inner-tspan" font-weight="normal"> of</tspan><tspan font-style="normal" class="text-inner-tspan" font-weight="normal"> strings</tspan></tspan></text></g><g class="divider"><path d="M-239.32588958740234 -81.50005 L-239.32588958740234 -81.49995 L239.32588958740234 -81.49995 L239.32588958740234 -81.50005" stroke="none" stroke-width="0" fill="#ECECFF" fill-rule="evenodd"/><path d="M-239.32588958740234 -81.50005 C-239.32588958740234 -81.50001246978705, -239.32588958740234 -81.49997493957409, -239.32588958740234 -81.49995 M-239.32588958740234 -81.50005 C-239.32588958740234 -81.50002475498742, -239.32588958740234 -81.49999950997486, -239.32588958740234 -81.49995 M-239.32588958740234 -81.49995 C-77.56606880324225 -81.49995, 84.19375198091785 -81.49995, 239.32588958740234 -81.49995 M-239.32588958740234 -81.49995 C-72.97635376867635 -81.49995, 93.37318205004965 -81.49995, 239.32588958740234 -81.49995 M239.32588958740234 -81.49995 C239.32588958740234 -81.49998050806276, 239.32588958740234 -81.50001101612554, 239.32588958740234 -81.50005 M239.32588958740234 -81.49995 C239.32588958740234 -81.4999809545684, 239.32588958740234 -81.5000119091368, 239.32588958740234 -81.50005 M239.32588958740234 -81.50005 C74.16898090126693 -81.50005, -90.98792778486848 -81.50005, -239.32588958740234 -81.50005 M239.32588958740234 -81.50005 C83.06240132804959 -81.50005, -73.20108693130317 -81.50005, -239.32588958740234 -81.50005" stroke="#9370DB" stroke-width="1.3" fill="none" stroke-dasharray="0 0"/></g><g class="divider"><path d="M-178.15789454345702 -81.5 L-178.15779454345704 -81.5 L-178.15779454345704 122.25 L-178.15789454345702 122.25" stroke="none" stroke-width="0" fill="#ECECFF" fill-rule="evenodd"/><path d="M-178.15789454345702 -81.5 C-178.15786281280393 -81.5, -178.1578310821508 -81.5, -178.15779454345704 -81.5 M-178.15789454345702 -81.5 C-178.157860531146 -81.5, -178.157826518835 -81.5, -178.15779454345704 -81.5 M-178.15779454345704 -81.5 C-178.15779454345704 -27.8138723970851, -178.15779454345704 25.872255205829802, -178.15779454345704 122.25 M-178.15779454345704 -81.5 C-178.15779454345704 -1.387749826484466, -178.15779454345704 78.72450034703107, -178.15779454345704 122.25 M-178.15779454345704 122.25 C-178.15781493561215 122.25, -178.15783532776726 122.25, -178.15789454345702 122.25 M-178.15779454345704 122.25 C-178.1578273041879 122.25, -178.15786006491874 122.25, -178.15789454345702 122.25 M-178.15789454345702 122.25 C-178.15789454345702 53.191508668805696, -178.15789454345702 -15.866982662388608, -178.15789454345702 -81.5 M-178.15789454345702 122.25 C-178.15789454345702 42.00915612875254, -178.15789454345702 -38.23168774249493, -178.15789454345702 -81.5" stroke="#9370DB" stroke-width="1.3" fill="none" stroke-dasharray="0 0"/></g><g class="divider"><path d="M-81.17351954345703 -81.5 L-81.17341954345703 -81.5 L-81.17341954345703 122.25 L-81.17351954345703 122.25" stroke="none" stroke-width="0" fill="#ECECFF" fill-rule="evenodd"/><path d="M-81.17351954345703 -81.5 C-81.17347989674843 -81.5, -81.17344025003982 -81.5, -81.17341954345703 -81.5 M-81.17351954345703 -81.5 C-81.17349129698374 -81.5, -81.17346305051045 -81.5, -81.17341954345703 -81.5 M-81.17341954345703 -81.5 C-81.17341954345703 -23.85742187421131, -81.17341954345703 33.78515625157738, -81.17341954345703 122.25 M-81.17341954345703 -81.5 C-81.17341954345703 -12.07639255707194, -81.17341954345703 57.34721488585612, -81.17341954345703 122.25 M-81.17341954345703 122.25 C-81.17344144298167 122.25, -81.17346334250632 122.25, -81.17351954345703 122.25 M-81.17341954345703 122.25 C-81.17344813383963 122.25, -81.17347672422223 122.25, -81.17351954345703 122.25 M-81.17351954345703 122.25 C-81.17351954345703 44.446553054451854, -81.17351954345703 -33.35689389109629, -81.17351954345703 -81.5 M-81.17351954345703 122.25 C-81.17351954345703 59.99761164055981, -81.17351954345703 -2.254776718880379, -81.17351954345703 -81.5" stroke="#9370DB" stroke-width="1.3" fill="none" stroke-dasharray="0 0"/></g><g class="divider"><path d="M-36.49349635009766 -81.5 L-36.493396350097655 -81.5 L-36.493396350097655 122.25 L-36.49349635009766 122.25" stroke="none" stroke-width="0" fill="#ECECFF" fill-rule="evenodd"/><path d="M-36.49349635009766 -81.5 C-36.49346631798926 -81.5, -36.49343628588087 -81.5, -36.493396350097655 -81.5 M-36.49349635009766 -81.5 C-36.493476154540126 -81.5, -36.4934559589826 -81.5, -36.493396350097655 -81.5 M-36.493396350097655 -81.5 C-36.493396350097655 -23.316060402309205, -36.493396350097655 34.86787919538159, -36.493396350097655 122.25 M-36.493396350097655 -81.5 C-36.493396350097655 -30.995850239489748, -36.493396350097655 19.508299521020504, -36.493396350097655 122.25 M-36.493396350097655 122.25 C-36.49341893072178 122.25, -36.49344151134591 122.25, -36.49349635009766 122.25 M-36.493396350097655 122.25 C-36.49342644567787 122.25, -36.493456541258084 122.25, -36.49349635009766 122.25 M-36.49349635009766 122.25 C-36.49349635009766 71.42849851880251, -36.49349635009766 20.60699703760504, -36.49349635009766 -81.5 M-36.49349635009766 122.25 C-36.49349635009766 54.17750535055903, -36.49349635009766 -13.894989298881939, -36.49349635009766 -81.5" stroke="#9370DB" stroke-width="1.3" fill="none" stroke-dasharray="0 0"/></g><g class="divider"><path d="M-239.32588958740234 -81.50005 L-239.32588958740234 -81.49995 L239.32588958740234 -81.49995 L239.32588958740234 -81.50005" stroke="none" stroke-width="0" fill="#ECECFF" fill-rule="evenodd"/><path d="M-239.32588958740234 -81.50005 C-239.32588958740234 -81.5000298462972, -239.32588958740234 -81.5000096925944, -239.32588958740234 -81.49995 M-239.32588958740234 -81.50005 C-239.32588958740234 -81.50001481416946, -239.32588958740234 -81.49997962833892, -239.32588958740234 -81.49995 M-239.32588958740234 -81.49995 C-62.91315963365636 -81.49995, 113.49957032008962 -81.49995, 239.32588958740234 -81.49995 M-239.32588958740234 -81.49995 C-70.45397194878919 -81.49995, 98.41794568982397 -81.49995, 239.32588958740234 -81.49995 M239.32588958740234 -81.49995 C239.32588958740234 -81.49998673052625, 239.32588958740234 -81.5000234610525, 239.32588958740234 -81.50005 M239.32588958740234 -81.49995 C239.32588958740234 -81.49997165330593, 239.32588958740234 -81.49999330661188, 239.32588958740234 -81.50005 M239.32588958740234 -81.50005 C90.7997354927113 -81.50005, -57.72641860197973 -81.50005, -239.32588958740234 -81.50005 M239.32588958740234 -81.50005 C139.60263370811214 -81.50005, 39.87937782882193 -81.50005, -239.32588958740234 -81.50005" stroke="#9370DB" stroke-width="1.3" fill="none" stroke-dasharray="0 0"/></g></g><g class="node default" id="my-svg-entity-concept_family_membership-2" data-look="classic" transform="translate(279.7257995605469, 440)"><g class="outer-path" style=""><path d="M-271.7258071899414 -81.5 L271.7258071899414 -81.5 L271.7258071899414 81.5 L-271.7258071899414 81.5" stroke="none" stroke-width="0" fill="#ECECFF"/><path d="M-271.7258071899414 -81.5 C-75.5722495697857 -81.5, 120.58130805037001 -81.5, 271.7258071899414 -81.5 M-271.7258071899414 -81.5 C-157.33581891603998 -81.5, -42.94583064213856 -81.5, 271.7258071899414 -81.5 M271.7258071899414 -81.5 C271.7258071899414 -22.37170965997965, 271.7258071899414 36.7565806800407, 271.7258071899414 81.5 M271.7258071899414 -81.5 C271.7258071899414 -29.145089669758313, 271.7258071899414 23.209820660483373, 271.7258071899414 81.5 M271.7258071899414 81.5 C145.1265189234187 81.5, 18.527230656895966 81.5, -271.7258071899414 81.5 M271.7258071899414 81.5 C56.86232834165784 81.5, -158.00115050662572 81.5, -271.7258071899414 81.5 M-271.7258071899414 81.5 C-271.7258071899414 23.635638617068473, -271.7258071899414 -34.228722765863054, -271.7258071899414 -81.5 M-271.7258071899414 81.5 C-271.7258071899414 42.26800501607497, -271.7258071899414 3.036010032149946, -271.7258071899414 -81.5" stroke="#9370DB" stroke-width="1.3" fill="none" stroke-dasharray="0 0"/></g><g style="" class="row-rect-odd"><path d="M-271.7258071899414 -40.75 L271.7258071899414 -40.75 L271.7258071899414 0 L-271.7258071899414 0" stroke="none" stroke-width="0" fill="hsl(240, 100%, 100%)"/><path d="M-271.7258071899414 -40.75 C-141.45463130984768 -40.75, -11.183455429753963 -40.75, 271.7258071899414 -40.75 M-271.7258071899414 -40.75 C-151.1294210984852 -40.75, -30.533035007029014 -40.75, 271.7258071899414 -40.75 M271.7258071899414 -40.75 C271.7258071899414 -25.171366372803508, 271.7258071899414 -9.592732745607016, 271.7258071899414 0 M271.7258071899414 -40.75 C271.7258071899414 -28.727186628414987, 271.7258071899414 -16.704373256829975, 271.7258071899414 0 M271.7258071899414 0 C89.76934436132532 0, -92.18711846729076 0, -271.7258071899414 0 M271.7258071899414 0 C149.48825207391377 0, 27.250696957886163 0, -271.7258071899414 0 M-271.7258071899414 0 C-271.7258071899414 -12.88801429517192, -271.7258071899414 -25.77602859034384, -271.7258071899414 -40.75 M-271.7258071899414 0 C-271.7258071899414 -12.153587782977082, -271.7258071899414 -24.307175565954164, -271.7258071899414 -40.75" stroke="#9370DB" stroke-width="1.3" fill="none" stroke-dasharray="0 0"/></g><g style="" class="row-rect-even"><path d="M-271.7258071899414 0 L271.7258071899414 0 L271.7258071899414 40.75 L-271.7258071899414 40.75" stroke="none" stroke-width="0" fill="hsl(240, 100%, 97.2745098039%)"/><path d="M-271.7258071899414 0 C-158.0127267084688 0, -44.299646226996146 0, 271.7258071899414 0 M-271.7258071899414 0 C-117.95081852200317 0, 35.82417014593506 0, 271.7258071899414 0 M271.7258071899414 0 C271.7258071899414 13.884997099898937, 271.7258071899414 27.769994199797875, 271.7258071899414 40.75 M271.7258071899414 0 C271.7258071899414 8.590480161757704, 271.7258071899414 17.180960323515407, 271.7258071899414 40.75 M271.7258071899414 40.75 C153.5245038676208 40.75, 35.32320054530021 40.75, -271.7258071899414 40.75 M271.7258071899414 40.75 C95.02988304205951 40.75, -81.66604110582239 40.75, -271.7258071899414 40.75 M-271.7258071899414 40.75 C-271.7258071899414 24.463781504952678, -271.7258071899414 8.177563009905356, -271.7258071899414 0 M-271.7258071899414 40.75 C-271.7258071899414 28.401141555719555, -271.7258071899414 16.052283111439113, -271.7258071899414 0" stroke="#9370DB" stroke-width="1.3" fill="none" stroke-dasharray="0 0"/></g><g style="" class="row-rect-odd"><path d="M-271.7258071899414 40.75 L271.7258071899414 40.75 L271.7258071899414 81.5 L-271.7258071899414 81.5" stroke="none" stroke-width="0" fill="hsl(240, 100%, 100%)"/><path d="M-271.7258071899414 40.75 C-65.25635237644997 40.75, 141.21310243704147 40.75, 271.7258071899414 40.75 M-271.7258071899414 40.75 C-155.38376954166324 40.75, -39.04173189338508 40.75, 271.7258071899414 40.75 M271.7258071899414 40.75 C271.7258071899414 49.70232753973201, 271.7258071899414 58.65465507946402, 271.7258071899414 81.5 M271.7258071899414 40.75 C271.7258071899414 49.36263681130038, 271.7258071899414 57.97527362260077, 271.7258071899414 81.5 M271.7258071899414 81.5 C132.11242261374306 81.5, -7.500961962455278 81.5, -271.7258071899414 81.5 M271.7258071899414 81.5 C79.44309433423007 81.5, -112.83961852148127 81.5, -271.7258071899414 81.5 M-271.7258071899414 81.5 C-271.7258071899414 71.18749802433575, -271.7258071899414 60.87499604867151, -271.7258071899414 40.75 M-271.7258071899414 81.5 C-271.7258071899414 71.70283187179773, -271.7258071899414 61.90566374359547, -271.7258071899414 40.75" stroke="#9370DB" stroke-width="1.3" fill="none" stroke-dasharray="0 0"/></g><g class="label name" transform="translate(-107.7890625, -72.125)" style=""><g><rect class="background" style="stroke: none"/></g><text xml:space="preserve" y="-10.1" style=""><tspan class="text-outer-tspan row" x="0" y="-0.1em" dy="1.1em"><tspan font-style="normal" class="text-inner-tspan" font-weight="normal">concept_family_membership</tspan></tspan></text></g><g class="label attribute-type" transform="translate(-259.2258071899414, -31.375)" style=""><g><rect class="background" style="stroke: none"/></g><text xml:space="preserve" y="-10.1" style=""><tspan class="text-outer-tspan row" x="0" y="-0.1em" dy="1.1em"><tspan font-style="normal" class="text-inner-tspan" font-weight="normal">TEXT</tspan></tspan></text></g><g class="label attribute-name" transform="translate(-168.30571746826172, -31.375)" style=""><g><rect class="background" style="stroke: none"/></g><text xml:space="preserve" y="-10.1" style=""><tspan class="text-outer-tspan row" x="0" y="-0.1em" dy="1.1em"><tspan font-style="normal" class="text-inner-tspan" font-weight="normal">concept_id</tspan></tspan></text></g><g class="label attribute-keys" transform="translate(-62.66509246826172, -31.375)" style=""><g><rect class="background" style="stroke: none"/></g><text xml:space="preserve" y="-10.1" style=""><tspan class="text-outer-tspan row" x="0" y="-0.1em" dy="1.1em"><tspan font-style="normal" class="text-inner-tspan" font-weight="normal">PK,FK</tspan></tspan></text></g><g class="label attribute-comment" transform="translate(4.510978698730469, -31.375)" style=""><g><rect class="background" style="stroke: none"/></g><text xml:space="preserve" y="-10.1" style=""><tspan class="text-outer-tspan row" x="0" y="-0.1em" dy="1.1em"><tspan font-style="normal" class="text-inner-tspan" font-weight="normal">NEW</tspan></tspan></text></g><g class="label attribute-type" transform="translate(-259.2258071899414, 9.375)" style=""><g><rect class="background" style="stroke: none"/></g><text xml:space="preserve" y="-10.1" style=""><tspan class="text-outer-tspan row" x="0" y="-0.1em" dy="1.1em"><tspan font-style="normal" class="text-inner-tspan" font-weight="normal">TEXT</tspan></tspan></text></g><g class="label attribute-name" transform="translate(-168.30571746826172, 9.375)" style=""><g><rect class="background" style="stroke: none"/></g><text xml:space="preserve" y="-10.1" style=""><tspan class="text-outer-tspan row" x="0" y="-0.1em" dy="1.1em"><tspan font-style="normal" class="text-inner-tspan" font-weight="normal">family_id</tspan></tspan></text></g><g class="label attribute-keys" transform="translate(-62.66509246826172, 9.375)" style=""><g><rect class="background" style="stroke: none"/></g><text xml:space="preserve" y="-10.1" style=""><tspan class="text-outer-tspan row" x="0" y="-0.1em" dy="1.1em"><tspan font-style="normal" class="text-inner-tspan" font-weight="normal">PK,FK</tspan></tspan></text></g><g class="label attribute-comment" transform="translate(4.510978698730469, 9.375)" style=""><g><rect class="background" style="stroke: none"/></g><text xml:space="preserve" y="-10.1" style=""><tspan class="text-outer-tspan row" x="0" y="-0.1em" dy="1.1em"><tspan font-style="normal" class="text-inner-tspan" font-weight="normal">NEW</tspan></tspan></text></g><g class="label attribute-type" transform="translate(-259.2258071899414, 50.125)" style=""><g><rect class="background" style="stroke: none"/></g><text xml:space="preserve" y="-10.1" style=""><tspan class="text-outer-tspan row" x="0" y="-0.1em" dy="1.1em"><tspan font-style="normal" class="text-inner-tspan" font-weight="normal">INTEGER</tspan></tspan></text></g><g class="label attribute-name" transform="translate(-168.30571746826172, 50.125)" style=""><g><rect class="background" style="stroke: none"/></g><text xml:space="preserve" y="-10.1" style=""><tspan class="text-outer-tspan row" x="0" y="-0.1em" dy="1.1em"><tspan font-style="normal" class="text-inner-tspan" font-weight="normal">is_primary</tspan></tspan></text></g><g class="label attribute-keys" transform="translate(-62.66509246826172, 50.125)" style=""><g><rect class="background" style="stroke: none"/></g><text xml:space="preserve" y="-10.1" style=""><tspan class="text-outer-tspan row" x="0" y="-0.1em" dy="1.1em"/></text></g><g class="label attribute-comment" transform="translate(4.510978698730469, 50.125)" style=""><g><rect class="background" style="stroke: none"/></g><text xml:space="preserve" y="-10.1" style=""><tspan class="text-outer-tspan row" x="0" y="-0.1em" dy="1.1em"><tspan font-style="normal" class="text-inner-tspan" font-weight="normal">NEW</tspan><tspan font-style="normal" class="text-inner-tspan" font-weight="normal"> —</tspan><tspan font-style="normal" class="text-inner-tspan" font-weight="normal"> 1=canonical,</tspan><tspan font-style="normal" class="text-inner-tspan" font-weight="normal"> 0=secondary</tspan></tspan></text></g><g class="divider"><path d="M-271.7258071899414 -40.75005 L-271.7258071899414 -40.74995 L271.7258071899414 -40.74995 L271.7258071899414 -40.75005" stroke="none" stroke-width="0" fill="#ECECFF" fill-rule="evenodd"/><path d="M-271.7258071899414 -40.75005 C-271.7258071899414 -40.750022238669764, -271.7258071899414 -40.74999447733953, -271.7258071899414 -40.74995 M-271.7258071899414 -40.75005 C-271.7258071899414 -40.75002423567042, -271.7258071899414 -40.749998471340845, -271.7258071899414 -40.74995 M-271.7258071899414 -40.74995 C-79.82882122180925 -40.74995, 112.0681647463229 -40.74995, 271.7258071899414 -40.74995 M-271.7258071899414 -40.74995 C-108.18898091788773 -40.74995, 55.34784535416594 -40.74995, 271.7258071899414 -40.74995 M271.7258071899414 -40.74995 C271.7258071899414 -40.74998431017875, 271.7258071899414 -40.7500186203575, 271.7258071899414 -40.75005 M271.7258071899414 -40.74995 C271.7258071899414 -40.74997017845501, 271.7258071899414 -40.749990356910025, 271.7258071899414 -40.75005 M271.7258071899414 -40.75005 C108.90241322324036 -40.75005, -53.92098074346069 -40.75005, -271.7258071899414 -40.75005 M271.7258071899414 -40.75005 C127.83425020840403 -40.75005, -16.057306773133348 -40.75005, -271.7258071899414 -40.75005" stroke="#9370DB" stroke-width="1.3" fill="none" stroke-dasharray="0 0"/></g><g class="divider"><path d="M-180.8057674682617 -40.75 L-180.80566746826173 -40.75 L-180.80566746826173 81.5 L-180.8057674682617 81.5" stroke="none" stroke-width="0" fill="#ECECFF" fill-rule="evenodd"/><path d="M-180.8057674682617 -40.75 C-180.80574033314872 -40.75, -180.80571319803573 -40.75, -180.80566746826173 -40.75 M-180.8057674682617 -40.75 C-180.8057382188184 -40.75, -180.80570896937508 -40.75, -180.80566746826173 -40.75 M-180.80566746826173 -40.75 C-180.80566746826173 1.2965528954330594, -180.80566746826173 43.34310579086612, -180.80566746826173 81.5 M-180.80566746826173 -40.75 C-180.80566746826173 -10.207275935874755, -180.80566746826173 20.33544812825049, -180.80566746826173 81.5 M-180.80566746826173 81.5 C-180.80570562420667 81.5, -180.8057437801516 81.5, -180.8057674682617 81.5 M-180.80566746826173 81.5 C-180.80570196308605 81.5, -180.8057364579104 81.5, -180.8057674682617 81.5 M-180.8057674682617 81.5 C-180.8057674682617 54.631978385470916, -180.8057674682617 27.763956770941824, -180.8057674682617 -40.75 M-180.8057674682617 81.5 C-180.8057674682617 52.32867871828009, -180.8057674682617 23.15735743656017, -180.8057674682617 -40.75" stroke="#9370DB" stroke-width="1.3" fill="none" stroke-dasharray="0 0"/></g><g class="divider"><path d="M-75.16514246826172 -40.75 L-75.16504246826172 -40.75 L-75.16504246826172 81.5 L-75.16514246826172 81.5" stroke="none" stroke-width="0" fill="#ECECFF" fill-rule="evenodd"/><path d="M-75.16514246826172 -40.75 C-75.16511528900435 -40.75, -75.16508810974699 -40.75, -75.16504246826172 -40.75 M-75.16514246826172 -40.75 C-75.16511311390788 -40.75, -75.16508375955404 -40.75, -75.16504246826172 -40.75 M-75.16504246826172 -40.75 C-75.16504246826172 5.6031540332030545, -75.16504246826172 51.95630806640611, -75.16504246826172 81.5 M-75.16504246826172 -40.75 C-75.16504246826172 -5.411221543306958, -75.16504246826172 29.927556913386084, -75.16504246826172 81.5 M-75.16504246826172 81.5 C-75.16506705901388 81.5, -75.16509164976604 81.5, -75.16514246826172 81.5 M-75.16504246826172 81.5 C-75.16507788223704 81.5, -75.16511329621237 81.5, -75.16514246826172 81.5 M-75.16514246826172 81.5 C-75.16514246826172 38.212081136885004, -75.16514246826172 -5.075837726229992, -75.16514246826172 -40.75 M-75.16514246826172 81.5 C-75.16514246826172 39.61540360703319, -75.16514246826172 -2.269192785933626, -75.16514246826172 -40.75" stroke="#9370DB" stroke-width="1.3" fill="none" stroke-dasharray="0 0"/></g><g class="divider"><path d="M-7.989071301269531 -40.75 L-7.988971301269531 -40.75 L-7.988971301269531 81.5 L-7.989071301269531 81.5" stroke="none" stroke-width="0" fill="#ECECFF" fill-rule="evenodd"/><path d="M-7.989071301269531 -40.75 C-7.989038235185519 -40.75, -7.989005169101508 -40.75, -7.988971301269531 -40.75 M-7.989071301269531 -40.75 C-7.989048058339519 -40.75, -7.9890248154095085 -40.75, -7.988971301269531 -40.75 M-7.988971301269531 -40.75 C-7.988971301269531 -9.874709936561466, -7.988971301269531 21.000580126877068, -7.988971301269531 81.5 M-7.988971301269531 -40.75 C-7.988971301269531 -16.089108643256615, -7.988971301269531 8.571782713486769, -7.988971301269531 81.5 M-7.988971301269531 81.5 C-7.98900030768623 81.5, -7.989029314102928 81.5, -7.989071301269531 81.5 M-7.988971301269531 81.5 C-7.98899850771173 81.5, -7.98902571415393 81.5, -7.989071301269531 81.5 M-7.989071301269531 81.5 C-7.989071301269531 47.727356106210955, -7.989071301269531 13.95471221242191, -7.989071301269531 -40.75 M-7.989071301269531 81.5 C-7.989071301269531 54.00344900892175, -7.989071301269531 26.506898017843497, -7.989071301269531 -40.75" stroke="#9370DB" stroke-width="1.3" fill="none" stroke-dasharray="0 0"/></g><g class="divider"><path d="M-271.7258071899414 -40.75005 L-271.7258071899414 -40.74995 L271.7258071899414 -40.74995 L271.7258071899414 -40.75005" stroke="none" stroke-width="0" fill="#ECECFF" fill-rule="evenodd"/><path d="M-271.7258071899414 -40.75005 C-271.7258071899414 -40.7500212327396, -271.7258071899414 -40.74999246547919, -271.7258071899414 -40.74995 M-271.7258071899414 -40.75005 C-271.7258071899414 -40.750028272948605, -271.7258071899414 -40.75000654589721, -271.7258071899414 -40.74995 M-271.7258071899414 -40.74995 C-96.1714796902188 -40.74995, 79.3828478095038 -40.74995, 271.7258071899414 -40.74995 M-271.7258071899414 -40.74995 C-78.68119807903429 -40.74995, 114.36341103187283 -40.74995, 271.7258071899414 -40.74995 M271.7258071899414 -40.74995 C271.7258071899414 -40.74997680119062, 271.7258071899414 -40.75000360238125, 271.7258071899414 -40.75005 M271.7258071899414 -40.74995 C271.7258071899414 -40.749971984977485, 271.7258071899414 -40.74999396995498, 271.7258071899414 -40.75005 M271.7258071899414 -40.75005 C124.70850917896189 -40.75005, -22.308788832017626 -40.75005, -271.7258071899414 -40.75005 M271.7258071899414 -40.75005 C88.63746402363364 -40.75005, -94.45087914267413 -40.75005, -271.7258071899414 -40.75005" stroke="#9370DB" stroke-width="1.3" fill="none" stroke-dasharray="0 0"/></g></g><g class="node default" id="my-svg-entity-concept_aliases-3" data-look="classic" transform="translate(838.9719848632812, 440)"><g class="outer-path" style=""><path d="M-147.5203857421875 -61.125 L147.5203857421875 -61.125 L147.5203857421875 61.125 L-147.5203857421875 61.125" stroke="none" stroke-width="0" fill="#ECECFF"/><path d="M-147.5203857421875 -61.125 C-35.660721281440885 -61.125, 76.19894317930573 -61.125, 147.5203857421875 -61.125 M-147.5203857421875 -61.125 C-29.90129640248857 -61.125, 87.71779293721036 -61.125, 147.5203857421875 -61.125 M147.5203857421875 -61.125 C147.5203857421875 -28.804059768228655, 147.5203857421875 3.516880463542691, 147.5203857421875 61.125 M147.5203857421875 -61.125 C147.5203857421875 -29.701006601062538, 147.5203857421875 1.722986797874924, 147.5203857421875 61.125 M147.5203857421875 61.125 C43.45881770732116 61.125, -60.60275032754518 61.125, -147.5203857421875 61.125 M147.5203857421875 61.125 C34.09283718171224 61.125, -79.33471137876302 61.125, -147.5203857421875 61.125 M-147.5203857421875 61.125 C-147.5203857421875 25.573709829446415, -147.5203857421875 -9.97758034110717, -147.5203857421875 -61.125 M-147.5203857421875 61.125 C-147.5203857421875 28.5466867174431, -147.5203857421875 -4.031626565113797, -147.5203857421875 -61.125" stroke="#9370DB" stroke-width="1.3" fill="none" stroke-dasharray="0 0"/></g><g style="" class="row-rect-odd"><path d="M-147.5203857421875 -20.375 L147.5203857421875 -20.375 L147.5203857421875 20.375 L-147.5203857421875 20.375" stroke="none" stroke-width="0" fill="hsl(240, 100%, 100%)"/><path d="M-147.5203857421875 -20.375 C-87.03632236020341 -20.375, -26.552258978219328 -20.375, 147.5203857421875 -20.375 M-147.5203857421875 -20.375 C-53.23630810606237 -20.375, 41.047769530062766 -20.375, 147.5203857421875 -20.375 M147.5203857421875 -20.375 C147.5203857421875 -4.583000377907361, 147.5203857421875 11.208999244185279, 147.5203857421875 20.375 M147.5203857421875 -20.375 C147.5203857421875 -8.934649808256315, 147.5203857421875 2.505700383487369, 147.5203857421875 20.375 M147.5203857421875 20.375 C44.627145765580124 20.375, -58.26609421102725 20.375, -147.5203857421875 20.375 M147.5203857421875 20.375 C83.46233688505677 20.375, 19.404288027926043 20.375, -147.5203857421875 20.375 M-147.5203857421875 20.375 C-147.5203857421875 12.017143011691793, -147.5203857421875 3.6592860233835864, -147.5203857421875 -20.375 M-147.5203857421875 20.375 C-147.5203857421875 9.703738687553091, -147.5203857421875 -0.9675226248938174, -147.5203857421875 -20.375" stroke="#9370DB" stroke-width="1.3" fill="none" stroke-dasharray="0 0"/></g><g style="" class="row-rect-even"><path d="M-147.5203857421875 20.375 L147.5203857421875 20.375 L147.5203857421875 61.125 L-147.5203857421875 61.125" stroke="none" stroke-width="0" fill="hsl(240, 100%, 97.2745098039%)"/><path d="M-147.5203857421875 20.375 C-79.00105552344822 20.375, -10.481725304708931 20.375, 147.5203857421875 20.375 M-147.5203857421875 20.375 C-58.587597100497575 20.375, 30.34519154119235 20.375, 147.5203857421875 20.375 M147.5203857421875 20.375 C147.5203857421875 33.884072449809096, 147.5203857421875 47.39314489961819, 147.5203857421875 61.125 M147.5203857421875 20.375 C147.5203857421875 36.491648649494316, 147.5203857421875 52.60829729898863, 147.5203857421875 61.125 M147.5203857421875 61.125 C50.98411383663209 61.125, -45.55215806892332 61.125, -147.5203857421875 61.125 M147.5203857421875 61.125 C86.50478346221615 61.125, 25.48918118224482 61.125, -147.5203857421875 61.125 M-147.5203857421875 61.125 C-147.5203857421875 49.5105865708489, -147.5203857421875 37.8961731416978, -147.5203857421875 20.375 M-147.5203857421875 61.125 C-147.5203857421875 51.091928312217426, -147.5203857421875 41.05885662443485, -147.5203857421875 20.375" stroke="#9370DB" stroke-width="1.3" fill="none" stroke-dasharray="0 0"/></g><g class="label name" transform="translate(-58.6171875, -51.75)" style=""><g><rect class="background" style="stroke: none"/></g><text xml:space="preserve" y="-10.1" style=""><tspan class="text-outer-tspan row" x="0" y="-0.1em" dy="1.1em"><tspan font-style="normal" class="text-inner-tspan" font-weight="normal">concept_aliases</tspan></tspan></text></g><g class="label attribute-type" transform="translate(-135.0203857421875, -11)" style=""><g><rect class="background" style="stroke: none"/></g><text xml:space="preserve" y="-10.1" style=""><tspan class="text-outer-tspan row" x="0" y="-0.1em" dy="1.1em"><tspan font-style="normal" class="text-inner-tspan" font-weight="normal">TEXT</tspan></tspan></text></g><g class="label attribute-name" transform="translate(-73.85234069824219, -11)" style=""><g><rect class="background" style="stroke: none"/></g><text xml:space="preserve" y="-10.1" style=""><tspan class="text-outer-tspan row" x="0" y="-0.1em" dy="1.1em"><tspan font-style="normal" class="text-inner-tspan" font-weight="normal">concept_id</tspan></tspan></text></g><g class="label attribute-keys" transform="translate(31.788284301757812, -11)" style=""><g><rect class="background" style="stroke: none"/></g><text xml:space="preserve" y="-10.1" style=""><tspan class="text-outer-tspan row" x="0" y="-0.1em" dy="1.1em"><tspan font-style="normal" class="text-inner-tspan" font-weight="normal">PK,FK</tspan></tspan></text></g><g class="label attribute-comment" transform="translate(98.96435546875, -11)" style=""><g><rect class="background" style="stroke: none"/></g><text xml:space="preserve" y="-10.1" style=""><tspan class="text-outer-tspan row" x="0" y="-0.1em" dy="1.1em"><tspan font-style="normal" class="text-inner-tspan" font-weight="normal">NEW</tspan></tspan></text></g><g class="label attribute-type" transform="translate(-135.0203857421875, 29.75)" style=""><g><rect class="background" style="stroke: none"/></g><text xml:space="preserve" y="-10.1" style=""><tspan class="text-outer-tspan row" x="0" y="-0.1em" dy="1.1em"><tspan font-style="normal" class="text-inner-tspan" font-weight="normal">TEXT</tspan></tspan></text></g><g class="label attribute-name" transform="translate(-73.85234069824219, 29.75)" style=""><g><rect class="background" style="stroke: none"/></g><text xml:space="preserve" y="-10.1" style=""><tspan class="text-outer-tspan row" x="0" y="-0.1em" dy="1.1em"><tspan font-style="normal" class="text-inner-tspan" font-weight="normal">alias</tspan></tspan></text></g><g class="label attribute-keys" transform="translate(31.788284301757812, 29.75)" style=""><g><rect class="background" style="stroke: none"/></g><text xml:space="preserve" y="-10.1" style=""><tspan class="text-outer-tspan row" x="0" y="-0.1em" dy="1.1em"><tspan font-style="normal" class="text-inner-tspan" font-weight="normal">PK</tspan></tspan></text></g><g class="label attribute-comment" transform="translate(98.96435546875, 29.75)" style=""><g><rect class="background" style="stroke: none"/></g><text xml:space="preserve" y="-10.1" style=""><tspan class="text-outer-tspan row" x="0" y="-0.1em" dy="1.1em"><tspan font-style="normal" class="text-inner-tspan" font-weight="normal">NEW</tspan></tspan></text></g><g class="divider"><path d="M-147.5203857421875 -20.37505 L-147.5203857421875 -20.37495 L147.5203857421875 -20.37495 L147.5203857421875 -20.37505" stroke="none" stroke-width="0" fill="#ECECFF" fill-rule="evenodd"/><path d="M-147.5203857421875 -20.37505 C-147.5203857421875 -20.375028899376733, -147.5203857421875 -20.37500779875347, -147.5203857421875 -20.37495 M-147.5203857421875 -20.37505 C-147.5203857421875 -20.375022442125914, -147.5203857421875 -20.374994884251826, -147.5203857421875 -20.37495 M-147.5203857421875 -20.37495 C-33.86116437068529 -20.37495, 79.79805700081693 -20.37495, 147.5203857421875 -20.37495 M-147.5203857421875 -20.37495 C-45.05249686418411 -20.37495, 57.415392013819286 -20.37495, 147.5203857421875 -20.37495 M147.5203857421875 -20.37495 C147.5203857421875 -20.374977523443775, 147.5203857421875 -20.375005046887548, 147.5203857421875 -20.37505 M147.5203857421875 -20.37495 C147.5203857421875 -20.37498140670302, 147.5203857421875 -20.375012813406045, 147.5203857421875 -20.37505 M147.5203857421875 -20.37505 C40.71262349511707 -20.37505, -66.09513875195336 -20.37505, -147.5203857421875 -20.37505 M147.5203857421875 -20.37505 C36.05439231179038 -20.37505, -75.41160111860674 -20.37505, -147.5203857421875 -20.37505" stroke="#9370DB" stroke-width="1.3" fill="none" stroke-dasharray="0 0"/></g><g class="divider"><path d="M-86.35239069824219 -20.375 L-86.35229069824219 -20.375 L-86.35229069824219 61.125 L-86.35239069824219 61.125" stroke="none" stroke-width="0" fill="#ECECFF" fill-rule="evenodd"/><path d="M-86.35239069824219 -20.375 C-86.35236510254101 -20.375, -86.35233950683983 -20.375, -86.35229069824219 -20.375 M-86.35239069824219 -20.375 C-86.35236737701405 -20.375, -86.3523440557859 -20.375, -86.35229069824219 -20.375 M-86.35229069824219 -20.375 C-86.35229069824219 5.079782734369317, -86.35229069824219 30.534565468738634, -86.35229069824219 61.125 M-86.35229069824219 -20.375 C-86.35229069824219 9.747804491640228, -86.35229069824219 39.870608983280455, -86.35229069824219 61.125 M-86.35229069824219 61.125 C-86.35231404042904 61.125, -86.3523373826159 61.125, -86.35239069824219 61.125 M-86.35229069824219 61.125 C-86.35232155903012 61.125, -86.35235241981805 61.125, -86.35239069824219 61.125 M-86.35239069824219 61.125 C-86.35239069824219 35.06332424410131, -86.35239069824219 9.001648488202612, -86.35239069824219 -20.375 M-86.35239069824219 61.125 C-86.35239069824219 35.18904787141068, -86.35239069824219 9.253095742821351, -86.35239069824219 -20.375" stroke="#9370DB" stroke-width="1.3" fill="none" stroke-dasharray="0 0"/></g><g class="divider"><path d="M19.28823430175781 -20.375 L19.288334301757814 -20.375 L19.288334301757814 61.125 L19.28823430175781 61.125" stroke="none" stroke-width="0" fill="#ECECFF" fill-rule="evenodd"/><path d="M19.28823430175781 -20.375 C19.288267914254533 -20.375, 19.28830152675126 -20.375, 19.288334301757814 -20.375 M19.28823430175781 -20.375 C19.288270530070562 -20.375, 19.288306758383314 -20.375, 19.288334301757814 -20.375 M19.288334301757814 -20.375 C19.288334301757814 0.486437444401286, 19.288334301757814 21.347874888802572, 19.288334301757814 61.125 M19.288334301757814 -20.375 C19.288334301757814 12.0853385971782, 19.288334301757814 44.5456771943564, 19.288334301757814 61.125 M19.288334301757814 61.125 C19.288298154137063 61.125, 19.288262006516312 61.125, 19.28823430175781 61.125 M19.288334301757814 61.125 C19.288306121561597 61.125, 19.288277941365376 61.125, 19.28823430175781 61.125 M19.28823430175781 61.125 C19.28823430175781 30.19454738550073, 19.28823430175781 -0.7359052289985399, 19.28823430175781 -20.375 M19.28823430175781 61.125 C19.28823430175781 35.495102230074146, 19.28823430175781 9.865204460148291, 19.28823430175781 -20.375" stroke="#9370DB" stroke-width="1.3" fill="none" stroke-dasharray="0 0"/></g><g class="divider"><path d="M86.46430546875 -20.375 L86.46440546875 -20.375 L86.46440546875 61.125 L86.46430546875 61.125" stroke="none" stroke-width="0" fill="#ECECFF" fill-rule="evenodd"/><path d="M86.46430546875 -20.375 C86.46433085068735 -20.375, 86.4643562326247 -20.375, 86.46440546875 -20.375 M86.46430546875 -20.375 C86.46432606177656 -20.375, 86.46434665480311 -20.375, 86.46440546875 -20.375 M86.46440546875 -20.375 C86.46440546875 7.617401049093761, 86.46440546875 35.60980209818752, 86.46440546875 61.125 M86.46440546875 -20.375 C86.46440546875 2.427915872373397, 86.46440546875 25.230831744746794, 86.46440546875 61.125 M86.46440546875 61.125 C86.46437845180134 61.125, 86.46435143485266 61.125, 86.46430546875 61.125 M86.46440546875 61.125 C86.46437628076157 61.125, 86.46434709277314 61.125, 86.46430546875 61.125 M86.46430546875 61.125 C86.46430546875 33.767485945149595, 86.46430546875 6.40997189029919, 86.46430546875 -20.375 M86.46430546875 61.125 C86.46430546875 34.83235921085337, 86.46430546875 8.539718421706738, 86.46430546875 -20.375" stroke="#9370DB" stroke-width="1.3" fill="none" stroke-dasharray="0 0"/></g><g class="divider"><path d="M-147.5203857421875 -20.37505 L-147.5203857421875 -20.37495 L147.5203857421875 -20.37495 L147.5203857421875 -20.37505" stroke="none" stroke-width="0" fill="#ECECFF" fill-rule="evenodd"/><path d="M-147.5203857421875 -20.37505 C-147.5203857421875 -20.375013145990994, -147.5203857421875 -20.37497629198199, -147.5203857421875 -20.37495 M-147.5203857421875 -20.37505 C-147.5203857421875 -20.375021490378508, -147.5203857421875 -20.374992980757014, -147.5203857421875 -20.37495 M-147.5203857421875 -20.37495 C-44.90330012233815 -20.37495, 57.713785497511196 -20.37495, 147.5203857421875 -20.37495 M-147.5203857421875 -20.37495 C-65.03274402329335 -20.37495, 17.454897695600806 -20.37495, 147.5203857421875 -20.37495 M147.5203857421875 -20.37495 C147.5203857421875 -20.374982592040993, 147.5203857421875 -20.375015184081988, 147.5203857421875 -20.37505 M147.5203857421875 -20.37495 C147.5203857421875 -20.37498902882652, 147.5203857421875 -20.375028057653036, 147.5203857421875 -20.37505 M147.5203857421875 -20.37505 C53.13122714295814 -20.37505, -41.25793145627122 -20.37505, -147.5203857421875 -20.37505 M147.5203857421875 -20.37505 C57.08042137140394 -20.37505, -33.35954299937961 -20.37505, -147.5203857421875 -20.37505" stroke="#9370DB" stroke-width="1.3" fill="none" stroke-dasharray="0 0"/></g></g><g class="label edgeLabel" id="entity-concept_families-1---entity-concept_families-1---1" transform="translate(1240.9187797550112, 440)"><rect width="0.1" height="0.1"/><g class="label" style="" transform="translate(0, 0)"><rect/><g><rect class="background" style="stroke: none"/><text xml:space="preserve" y="-10.1" style=""><tspan class="text-outer-tspan row" x="0" y="-0.1em" dy="1.1em"/></text></g></g></g><g class="label edgeLabel" id="entity-concept_families-1---entity-concept_families-1---2" transform="translate(1357.161367798224, 645.1499984748662)"><rect width="0.1" height="0.1"/><g class="label" style="" transform="translate(0, 0)"><rect/><g><rect class="background" style="stroke: none"/><text xml:space="preserve" y="-10.1" style=""><tspan class="text-outer-tspan row" x="0" y="-0.1em" dy="1.1em"/></text></g></g></g></g></g></g><defs><filter id="my-svg-drop-shadow" height="130%" width="130%"><feDropShadow dx="4" dy="4" stdDeviation="0" flood-opacity="0.06" flood-color="#000000"/></filter></defs><defs><filter id="my-svg-drop-shadow-small" height="150%" width="150%"><feDropShadow dx="2" dy="2" stdDeviation="0" flood-opacity="0.06" flood-color="#000000"/></filter></defs></svg>