<svg id="my-svg" width="100%" xmlns="http://www.w3.org/2000/svg" xmlns:xlink="http://www.w3.org/1999/xlink" class="erDiagram" style="max-width: 1918.15px; background-color: white;" viewBox="0 0 1918.14501953125 798.6499633789062" role="graphics-document document" aria-roledescription="er"><rect x="0" y="0" width="1918.14501953125" height="798.6499633789062" fill="white"/><style>#my-svg{font-family:"trebuchet ms",verdana,arial,sans-serif;font-size:16px;fill:#333;}@keyframes edge-animation-frame{from{stroke-dashoffset:0;}}@keyframes dash{to{stroke-dashoffset:0;}}#my-svg .edge-animation-slow{stroke-dasharray:9,5!important;stroke-dashoffset:900;animation:dash 50s linear infinite;stroke-linecap:round;}#my-svg .edge-animation-fast{stroke-dasharray:9,5!important;stroke-dashoffset:900;animation:dash 20s linear infinite;stroke-linecap:round;}#my-svg .error-icon{fill:#552222;}#my-svg .error-text{fill:#552222;stroke:#552222;}#my-svg .edge-thickness-normal{stroke-width:1px;}#my-svg .edge-thickness-thick{stroke-width:3.5px;}#my-svg .edge-pattern-solid{stroke-dasharray:0;}#my-svg .edge-thickness-invisible{stroke-width:0;fill:none;}#my-svg .edge-pattern-dashed{stroke-dasharray:3;}#my-svg .edge-pattern-dotted{stroke-dasharray:2;}#my-svg .marker{fill:#333333;stroke:#333333;}#my-svg .marker.cross{stroke:#333333;}#my-svg svg{font-family:"trebuchet ms",verdana,arial,sans-serif;font-size:16px;}#my-svg p{margin:0;}#my-svg .entityBox{fill:#ECECFF;stroke:#9370DB;}#my-svg .relationshipLabelBox{fill:hsl(80, 100%, 96.2745098039%);opacity:0.7;background-color:hsl(80, 100%, 96.2745098039%);}#my-svg .relationshipLabelBox rect{opacity:0.5;}#my-svg .labelBkg{background-color:rgba(248.6666666666, 255, 235.9999999999, 0.5);}#my-svg .edgeLabel{background-color:rgba(232,232,232, 0.8);}#my-svg .edgeLabel .label rect{fill:rgba(232,232,232, 0.8);}#my-svg .edgeLabel .label text{fill:#333;}#my-svg .edgeLabel .label{fill:#9370DB;font-size:14px;}#my-svg .label{font-family:"trebuchet ms",verdana,arial,sans-serif;color:#333;}#my-svg .edge-pattern-dashed{stroke-dasharray:8,8;}#my-svg .node rect,#my-svg .node circle,#my-svg .node ellipse,#my-svg .node polygon{fill:#ECECFF;stroke:#9370DB;stroke-width:1px;}#my-svg .relationshipLine{stroke:#333333;stroke-width:1px;fill:none;}#my-svg .marker{fill:none!important;stroke:#333333!important;stroke-width:1;}#my-svg [data-look=neo].labelBkg{background-color:rgba(248.6666666666, 255, 235.9999999999, 0.5);}#my-svg .node .neo-node{stroke:#9370DB;}#my-svg [data-look="neo"].node rect,#my-svg [data-look="neo"].cluster rect,#my-svg [data-look="neo"].node polygon{stroke:#9370DB;filter:drop-shadow(1px 2px 2px rgba(185, 185, 185, 1));}#my-svg [data-look="neo"].node path{stroke:#9370DB;stroke-width:1px;}#my-svg [data-look="neo"].node .outer-path{filter:drop-shadow(1px 2px 2px rgba(185, 185, 185, 1));}#my-svg [data-look="neo"].node .neo-line path{stroke:#9370DB;filter:none;}#my-svg [data-look="neo"].node circle{stroke:#9370DB;filter:drop-shadow(1px 2px 2px rgba(185, 185, 185, 1));}#my-svg [data-look="neo"].node circle .state-start{fill:#000000;}#my-svg [data-look="neo"].icon-shape .icon{fill:#9370DB;filter:drop-shadow(1px 2px 2px rgba(185, 185, 185, 1));}#my-svg [data-look="neo"].icon-shape .icon-neo path{stroke:#9370DB;filter:drop-shadow(1px 2px 2px rgba(185, 185, 185, 1));}#my-svg :root{--mermaid-font-family:"trebuchet ms",verdana,arial,sans-serif;}</style><g><defs><marker id="my-svg_er-onlyOneStart" class="marker onlyOne er" refX="0" refY="9" markerWidth="18" markerHeight="18" orient="auto"><path d="M9,0 L9,18 M15,0 L15,18"/></marker></defs><defs><marker id="my-svg_er-onlyOneEnd" class="marker onlyOne er" refX="18" refY="9" markerWidth="18" markerHeight="18" orient="auto"><path d="M3,0 L3,18 M9,0 L9,18"/></marker></defs><defs><marker id="my-svg_er-zeroOrOneStart" class="marker zeroOrOne er" refX="0" refY="9" markerWidth="30" markerHeight="18" orient="auto"><circle fill="white" cx="21" cy="9" r="6"/><path d="M9,0 L9,18"/></marker></defs><defs><marker id="my-svg_er-zeroOrOneEnd" class="marker zeroOrOne er" refX="30" refY="9" markerWidth="30" markerHeight="18" orient="auto"><circle fill="white" cx="9" cy="9" r="6"/><path d="M21,0 L21,18"/></marker></defs><defs><marker id="my-svg_er-oneOrMoreStart" class="marker oneOrMore er" refX="18" refY="18" markerWidth="45" markerHeight="36" orient="auto"><path d="M0,18 Q 18,0 36,18 Q 18,36 0,18 M42,9 L42,27"/></marker></defs><defs><marker id="my-svg_er-oneOrMoreEnd" class="marker oneOrMore er" refX="27" refY="18" markerWidth="45" markerHeight="36" orient="auto"><path d="M3,9 L3,27 M9,18 Q27,0 45,18 Q27,36 9,18"/></marker></defs><defs><marker id="my-svg_er-zeroOrMoreStart" class="marker zeroOrMore er" refX="18" refY="18" markerWidth="57" markerHeight="36" orient="auto"><circle fill="white" cx="48" cy="18" r="6"/><path d="M0,18 Q18,0 36,18 Q18,36 0,18"/></marker></defs><defs><marker id="my-svg_er-zeroOrMoreEnd" class="marker zeroOrMore er" refX="39" refY="18" markerWidth="57" markerHeight="36" orient="auto"><circle fill="white" cx="9" cy="18" r="6"/><path d="M21,18 Q39,0 57,18 Q39,36 21,18"/></marker></defs><g class="root"><g class="clusters"/><g class="edgePaths"><path d="M1550.441,241.604L1594.021,259.045C1637.6,276.486,1724.76,311.368,1768.34,361.405C1811.919,411.442,1811.919,476.633,1811.919,509.229L1811.919,541.825" id="my-svg-entity-nodes-0-cyclic-special-1" class="edge-thickness-normal edge-pattern-solid relationshipLine" style="undefined;;;undefined" data-edge="true" data-et="edge" data-id="entity-nodes-0-cyclic-special-1" data-points="W3sieCI6MTU1MC40NDA4MTg3ODY2MjEsInkiOjI0MS42MDM1NDkyMTM1MzQ4Mn0seyJ4IjoxODExLjkxOTQ3NjMxOTEwNDQsInkiOjM0Ni4yNX0seyJ4IjoxODExLjkxOTQ3NjMxOTEwNDQsInkiOjU0MS44MjQ5OTk5OTkyNTQ5fV0=" data-look="classic" marker-start="url(#my-svg_er-onlyOneStart)"/><path d="M1811.919,541.925L1811.919,574.521C1811.919,607.117,1811.919,672.308,1820.097,713.738C1828.275,755.167,1844.63,772.833,1852.808,781.667L1860.986,790.5" id="my-svg-entity-nodes-0-cyclic-special-mid" class="edge-thickness-normal edge-pattern-solid relationshipLine" style="undefined;;;undefined" data-edge="true" data-et="edge" data-id="entity-nodes-0-cyclic-special-mid" data-points="W3sieCI6MTgxMS45MTk0NzYzMTkxMDQ0LCJ5Ijo1NDEuOTI1MDAwMDAwNzQ1MX0seyJ4IjoxODExLjkxOTQ3NjMxOTEwNDQsInkiOjczNy41fSx7IngiOjE4NjAuOTg1ODM5MTIxODUzOCwieSI6NzkwLjV9XQ==" data-look="classic"/><path d="M1861.078,790.5L1869.256,781.667C1877.434,772.833,1893.789,755.167,1901.967,713.729C1910.145,672.292,1910.145,607.083,1910.145,541.875C1910.145,476.667,1910.145,411.458,1850.194,358.876C1790.243,306.294,1670.342,266.337,1610.391,246.359L1550.441,226.381" id="my-svg-entity-nodes-0-cyclic-special-2" class="edge-thickness-normal edge-pattern-solid relationshipLine" style="undefined;;;undefined" data-edge="true" data-et="edge" data-id="entity-nodes-0-cyclic-special-2" data-points="W3sieCI6MTg2MS4wNzg0MTcxNjYyNTc0LCJ5Ijo3OTAuNX0seyJ4IjoxOTEwLjE0NDc3OTk2OTAwNjgsInkiOjczNy41fSx7IngiOjE5MTAuMTQ0Nzc5OTY5MDA2OCwieSI6NTQxLjg3NX0seyJ4IjoxOTEwLjE0NDc3OTk2OTAwNjgsInkiOjM0Ni4yNX0seyJ4IjoxNTUwLjQ0MDgxODc4NjYyMSwieSI6MjI2LjM4MDUwNTg1MzMwNzN9XQ==" data-look="classic" marker-end="url(#my-svg_er-zeroOrMoreEnd)"/><path d="M1095.787,196.383L971.697,221.361C847.607,246.339,599.426,296.294,477.438,330.106C355.45,363.917,359.654,381.583,361.756,390.417L363.858,399.25" id="my-svg-id_entity-nodes-0_entity-edges-1_1" class="edge-thickness-normal edge-pattern-solid relationshipLine" style="undefined;;;undefined" data-edge="true" data-et="edge" data-id="id_entity-nodes-0_entity-edges-1_1" data-points="W3sieCI6MTA5NS43ODcxMDE3NDU2MDU1LCJ5IjoxOTYuMzgzMDU0ODkyMDYwNDR9LHsieCI6MzUxLjI0NTM2MTMyODEyNSwieSI6MzQ2LjI1fSx7IngiOjM2My44NTgyNjA2ODkxNDczNiwieSI6Mzk5LjI1fV0=" data-look="classic" marker-start="url(#my-svg_er-onlyOneStart)" marker-end="url(#my-svg_er-zeroOrMoreEnd)"/><path d="M1095.787,222.507L1030.564,243.131C965.342,263.755,834.896,305.002,755.827,334.46C676.757,363.917,649.064,381.583,635.218,390.417L621.371,399.25" id="my-svg-id_entity-nodes-0_entity-edges-1_2" class="edge-thickness-normal edge-pattern-solid relationshipLine" style="undefined;;;undefined" data-edge="true" data-et="edge" data-id="id_entity-nodes-0_entity-edges-1_2" data-points="W3sieCI6MTA5NS43ODcxMDE3NDU2MDU1LCJ5IjoyMjIuNTA3MTAxMDE3NjI0NTZ9LHsieCI6NzA0LjQ1MDY3NTk2NDM1NTUsInkiOjM0Ni4yNX0seyJ4Ijo2MjEuMzcwODg5NDQzMTAyLCJ5IjozOTkuMjV9XQ==" data-look="classic" marker-start="url(#my-svg_er-onlyOneStart)" marker-end="url(#my-svg_er-zeroOrMoreEnd)"/><path d="M1161.94,293.25L1151.957,302.083C1141.975,310.917,1122.011,328.583,1112.029,353.042C1102.047,377.5,1102.047,408.75,1102.047,424.375L1102.047,440" id="my-svg-id_entity-nodes-0_entity-chunk_embeddings-2_3" class="edge-thickness-normal edge-pattern-solid relationshipLine" style="undefined;;;undefined" data-edge="true" data-et="edge" data-id="id_entity-nodes-0_entity-chunk_embeddings-2_3" data-points="W3sieCI6MTE2MS45Mzk2MjE0Mzk2ODA5LCJ5IjoyOTMuMjV9LHsieCI6MTEwMi4wNDY2MTU2MDA1ODYsInkiOjM0Ni4yNX0seyJ4IjoxMTAyLjA0NjYxNTYwMDU4NiwieSI6NDQwfV0=" data-look="classic" marker-start="url(#my-svg_er-onlyOneStart)" marker-end="url(#my-svg_er-onlyOneEnd)"/><path d="M1484.288,293.25L1494.27,302.083C1504.253,310.917,1524.217,328.583,1534.199,359.833C1544.181,391.083,1544.181,435.917,1544.181,458.333L1544.181,480.75" id="my-svg-id_entity-nodes-0_entity-tagging_progress-3_4" class="edge-thickness-normal edge-pattern-solid relationshipLine" style="undefined;;;undefined" data-edge="true" data-et="edge" data-id="id_entity-nodes-0_entity-tagging_progress-3_4" data-points="W3sieCI6MTQ4NC4yODgyOTkwOTI1NDU3LCJ5IjoyOTMuMjV9LHsieCI6MTU0NC4xODEzMDQ5MzE2NDA2LCJ5IjozNDYuMjV9LHsieCI6MTU0NC4xODEzMDQ5MzE2NDA2LCJ5Ijo0ODAuNzV9XQ==" data-look="classic" marker-start="url(#my-svg_er-onlyOneStart)" marker-end="url(#my-svg_er-onlyOneEnd)"/></g><g class="edgeLabels"><g class="edgeLabel"><g class="label" data-id="entity-nodes-0-cyclic-special-1" transform="translate(0, 0)"><text xml:space="preserve" y="-10.1" text-anchor="middle"><tspan class="text-outer-tspan row" x="0" y="-0.1em" dy="1.1em" text-anchor="middle"/></text></g></g><g><rect class="background" style="stroke: none"/></g><g class="edgeLabel" transform="translate(1811.9194763191044, 737.5)"><g class="label" data-id="entity-nodes-0-cyclic-special-mid" transform="translate(0, -8.500000953674316)"><g><rect class="background" style="" x="-78.1328125" y="-3" width="156.4506072998047" height="26"/><text xml:space="preserve" y="-10.1" text-anchor="middle" style=""><tspan class="text-outer-tspan row" x="0" y="-0.1em" dy="1.1em" text-anchor="middle"><tspan font-style="normal" class="text-inner-tspan" font-weight="normal">tradition_id</tspan><tspan font-style="normal" class="text-inner-tspan" font-weight="normal"> (self-ref)</tspan></tspan></text></g></g></g><g class="edgeLabel"><g class="label" data-id="entity-nodes-0-cyclic-special-2" transform="translate(0, 0)"><text xml:space="preserve" y="-10.1" text-anchor="middle"><tspan class="text-outer-tspan row" x="0" y="-0.1em" dy="1.1em" text-anchor="middle"/></text></g></g><g><rect class="background" style="stroke: none"/></g><g class="edgeLabel" transform="translate(696.81178, 276.6918)"><g class="label" data-id="id_entity-nodes-0_entity-edges-1_1" transform="translate(0, -8.500000953674316)"><g><rect class="background" style="" x="-37.6484375" y="-3" width="75.296875" height="26"/><text xml:space="preserve" y="-10.1" text-anchor="middle" style=""><tspan class="text-outer-tspan row" x="0" y="-0.1em" dy="1.1em" text-anchor="middle"><tspan font-style="normal" class="text-inner-tspan" font-weight="normal">source_id</tspan></tspan></text></g></g></g><g class="edgeLabel" transform="translate(853.13878, 299.23394)"><g class="label" data-id="id_entity-nodes-0_entity-edges-1_2" transform="translate(0, -8.500000953674316)"><g><rect class="background" style="" x="-35.4609375" y="-3" width="70.921875" height="26"/><text xml:space="preserve" y="-10.1" text-anchor="middle" style=""><tspan class="text-outer-tspan row" x="0" y="-0.1em" dy="1.1em" text-anchor="middle"><tspan font-style="normal" class="text-inner-tspan" font-weight="normal">target_id</tspan></tspan></text></g></g></g><g class="edgeLabel" transform="translate(1102.046615600586, 346.25)"><g class="label" data-id="id_entity-nodes-0_entity-chunk_embeddings-2_3" transform="translate(0, -8.500000953674316)"><g><rect class="background" style="" x="-35.484375" y="-3" width="70.96875" height="26"/><text xml:space="preserve" y="-10.1" text-anchor="middle" style=""><tspan class="text-outer-tspan row" x="0" y="-0.1em" dy="1.1em" text-anchor="middle"><tspan font-style="normal" class="text-inner-tspan" font-weight="normal">chunk_id</tspan></tspan></text></g></g></g><g class="edgeLabel" transform="translate(1544.1813049316406, 346.25)"><g class="label" data-id="id_entity-nodes-0_entity-tagging_progress-3_4" transform="translate(0, -8.500000953674316)"><g><rect class="background" style="" x="-35.484375" y="-3" width="70.96875" height="26"/><text xml:space="preserve" y="-10.1" text-anchor="middle" style=""><tspan class="text-outer-tspan row" x="0" y="-0.1em" dy="1.1em" text-anchor="middle"><tspan font-style="normal" class="text-inner-tspan" font-weight="normal">chunk_id</tspan></tspan></text></g></g></g></g><g class="nodes"><g class="node default" id="my-svg-entity-nodes-0" data-look="classic" transform="translate(1323.1139602661133, 150.625)"><g class="outer-path" style=""><path d="M-227.3268585205078 -142.625 L227.3268585205078 -142.625 L227.3268585205078 142.625 L-227.3268585205078 142.625" stroke="none" stroke-width="0" fill="#ECECFF"/><path d="M-227.3268585205078 -142.625 C-108.42054115366035 -142.625, 10.485776213187108 -142.625, 227.3268585205078 -142.625 M-227.3268585205078 -142.625 C-119.48980713879558 -142.625, -11.652755757083355 -142.625, 227.3268585205078 -142.625 M227.3268585205078 -142.625 C227.3268585205078 -42.53651181859888, 227.3268585205078 57.551976362802236, 227.3268585205078 142.625 M227.3268585205078 -142.625 C227.3268585205078 -62.383198210619796, 227.3268585205078 17.85860357876041, 227.3268585205078 142.625 M227.3268585205078 142.625 C47.20952639677367 142.625, -132.90780572696048 142.625, -227.3268585205078 142.625 M227.3268585205078 142.625 C122.53629417870427 142.625, 17.745729836900722 142.625, -227.3268585205078 142.625 M-227.3268585205078 142.625 C-227.3268585205078 82.12124958170227, -227.3268585205078 21.61749916340453, -227.3268585205078 -142.625 M-227.3268585205078 142.625 C-227.3268585205078 59.01230634343453, -227.3268585205078 -24.600387313130938, -227.3268585205078 -142.625" stroke="#9370DB" stroke-width="1.3" fill="none" stroke-dasharray="0 0"/></g><g style="" class="row-rect-odd"><path d="M-227.3268585205078 -101.875 L227.3268585205078 -101.875 L227.3268585205078 -61.125 L-227.3268585205078 -61.125" stroke="none" stroke-width="0" fill="hsl(240, 100%, 100%)"/><path d="M-227.3268585205078 -101.875 C-84.58672773121492 -101.875, 58.15340305807797 -101.875, 227.3268585205078 -101.875 M-227.3268585205078 -101.875 C-95.29628506970536 -101.875, 36.73428838109709 -101.875, 227.3268585205078 -101.875 M227.3268585205078 -101.875 C227.3268585205078 -87.76091186308739, 227.3268585205078 -73.64682372617479, 227.3268585205078 -61.125 M227.3268585205078 -101.875 C227.3268585205078 -87.73250565723282, 227.3268585205078 -73.59001131446563, 227.3268585205078 -61.125 M227.3268585205078 -61.125 C123.08780536968504 -61.125, 18.848752218862273 -61.125, -227.3268585205078 -61.125 M227.3268585205078 -61.125 C125.16520861121496 -61.125, 23.003558701922117 -61.125, -227.3268585205078 -61.125 M-227.3268585205078 -61.125 C-227.3268585205078 -76.78681265465755, -227.3268585205078 -92.44862530931512, -227.3268585205078 -101.875 M-227.3268585205078 -61.125 C-227.3268585205078 -76.88326257947882, -227.3268585205078 -92.64152515895765, -227.3268585205078 -101.875" stroke="#9370DB" stroke-width="1.3" fill="none" stroke-dasharray="0 0"/></g><g style="" class="row-rect-even"><path d="M-227.3268585205078 -61.125 L227.3268585205078 -61.125 L227.3268585205078 -20.375 L-227.3268585205078 -20.375" stroke="none" stroke-width="0" fill="hsl(240, 100%, 97.2745098039%)"/><path d="M-227.3268585205078 -61.125 C-133.78867506953497 -61.125, -40.25049161856211 -61.125, 227.3268585205078 -61.125 M-227.3268585205078 -61.125 C-112.66591159499492 -61.125, 1.9950353305179647 -61.125, 227.3268585205078 -61.125 M227.3268585205078 -61.125 C227.3268585205078 -46.7293227621583, 227.3268585205078 -32.333645524316594, 227.3268585205078 -20.375 M227.3268585205078 -61.125 C227.3268585205078 -45.319011273837226, 227.3268585205078 -29.513022547674456, 227.3268585205078 -20.375 M227.3268585205078 -20.375 C118.99879158410397 -20.375, 10.670724647700126 -20.375, -227.3268585205078 -20.375 M227.3268585205078 -20.375 C83.4819932010941 -20.375, -60.362872118319615 -20.375, -227.3268585205078 -20.375 M-227.3268585205078 -20.375 C-227.3268585205078 -33.23371068393965, -227.3268585205078 -46.0924213678793, -227.3268585205078 -61.125 M-227.3268585205078 -20.375 C-227.3268585205078 -31.53770522491378, -227.3268585205078 -42.70041044982756, -227.3268585205078 -61.125" stroke="#9370DB" stroke-width="1.3" fill="none" stroke-dasharray="0 0"/></g><g style="" class="row-rect-odd"><path d="M-227.3268585205078 -20.375 L227.3268585205078 -20.375 L227.3268585205078 20.375 L-227.3268585205078 20.375" stroke="none" stroke-width="0" fill="hsl(240, 100%, 100%)"/><path d="M-227.3268585205078 -20.375 C-96.57975399205091 -20.375, 34.16735053640599 -20.375, 227.3268585205078 -20.375 M-227.3268585205078 -20.375 C-80.00372308368182 -20.375, 67.31941235314417 -20.375, 227.3268585205078 -20.375 M227.3268585205078 -20.375 C227.3268585205078 -8.684106742727204, 227.3268585205078 3.006786514545592, 227.3268585205078 20.375 M227.3268585205078 -20.375 C227.3268585205078 -6.942259834917591, 227.3268585205078 6.490480330164818, 227.3268585205078 20.375 M227.3268585205078 20.375 C67.55883421479476 20.375, -92.2091900909183 20.375, -227.3268585205078 20.375 M227.3268585205078 20.375 C96.23065293952035 20.375, -34.865552641467104 20.375, -227.3268585205078 20.375 M-227.3268585205078 20.375 C-227.3268585205078 7.181376167821648, -227.3268585205078 -6.012247664356703, -227.3268585205078 -20.375 M-227.3268585205078 20.375 C-227.3268585205078 8.741913318861519, -227.3268585205078 -2.8911733622769624, -227.3268585205078 -20.375" stroke="#9370DB" stroke-width="1.3" fill="none" stroke-dasharray="0 0"/></g><g style="" class="row-rect-even"><path d="M-227.3268585205078 20.375 L227.3268585205078 20.375 L227.3268585205078 61.125 L-227.3268585205078 61.125" stroke="none" stroke-width="0" fill="hsl(240, 100%, 97.2745098039%)"/><path d="M-227.3268585205078 20.375 C-58.36150654175262 20.375, 110.60384543700258 20.375, 227.3268585205078 20.375 M-227.3268585205078 20.375 C-63.39307013645717 20.375, 100.54071824759347 20.375, 227.3268585205078 20.375 M227.3268585205078 20.375 C227.3268585205078 30.258571340177866, 227.3268585205078 40.14214268035573, 227.3268585205078 61.125 M227.3268585205078 20.375 C227.3268585205078 29.032102586134464, 227.3268585205078 37.68920517226893, 227.3268585205078 61.125 M227.3268585205078 61.125 C131.90545880132208 61.125, 36.484059082136326 61.125, -227.3268585205078 61.125 M227.3268585205078 61.125 C120.67887681100981 61.125, 14.030895101511817 61.125, -227.3268585205078 61.125 M-227.3268585205078 61.125 C-227.3268585205078 52.834200804202695, -227.3268585205078 44.54340160840539, -227.3268585205078 20.375 M-227.3268585205078 61.125 C-227.3268585205078 48.700798283289515, -227.3268585205078 36.27659656657903, -227.3268585205078 20.375" stroke="#9370DB" stroke-width="1.3" fill="none" stroke-dasharray="0 0"/></g><g style="" class="row-rect-odd"><path d="M-227.3268585205078 61.125 L227.3268585205078 61.125 L227.3268585205078 101.875 L-227.3268585205078 101.875" stroke="none" stroke-width="0" fill="hsl(240, 100%, 100%)"/><path d="M-227.3268585205078 61.125 C-60.23553734615663 61.125, 106.85578382819455 61.125, 227.3268585205078 61.125 M-227.3268585205078 61.125 C-48.52478487922781 61.125, 130.2772887620522 61.125, 227.3268585205078 61.125 M227.3268585205078 61.125 C227.3268585205078 74.98481557295453, 227.3268585205078 88.84463114590906, 227.3268585205078 101.875 M227.3268585205078 61.125 C227.3268585205078 71.69346162946117, 227.3268585205078 82.26192325892234, 227.3268585205078 101.875 M227.3268585205078 101.875 C133.3042857938923 101.875, 39.2817130672768 101.875, -227.3268585205078 101.875 M227.3268585205078 101.875 C111.88665356163096 101.875, -3.553551397245883 101.875, -227.3268585205078 101.875 M-227.3268585205078 101.875 C-227.3268585205078 90.21634581594722, -227.3268585205078 78.55769163189446, -227.3268585205078 61.125 M-227.3268585205078 101.875 C-227.3268585205078 90.45234933688958, -227.3268585205078 79.02969867377917, -227.3268585205078 61.125" stroke="#9370DB" stroke-width="1.3" fill="none" stroke-dasharray="0 0"/></g><g style="" class="row-rect-even"><path d="M-227.3268585205078 101.875 L227.3268585205078 101.875 L227.3268585205078 142.625 L-227.3268585205078 142.625" stroke="none" stroke-width="0" fill="hsl(240, 100%, 97.2745098039%)"/><path d="M-227.3268585205078 101.875 C-96.15928242829406 101.875, 35.00829366391969 101.875, 227.3268585205078 101.875 M-227.3268585205078 101.875 C-84.87119681288917 101.875, 57.58446489472948 101.875, 227.3268585205078 101.875 M227.3268585205078 101.875 C227.3268585205078 116.53914972553926, 227.3268585205078 131.20329945107852, 227.3268585205078 142.625 M227.3268585205078 101.875 C227.3268585205078 111.21848243988279, 227.3268585205078 120.5619648797656, 227.3268585205078 142.625 M227.3268585205078 142.625 C90.34928282607885 142.625, -46.628292868350115 142.625, -227.3268585205078 142.625 M227.3268585205078 142.625 C62.730872718422404 142.625, -101.865113083663 142.625, -227.3268585205078 142.625 M-227.3268585205078 142.625 C-227.3268585205078 129.66048830657778, -227.3268585205078 116.69597661315555, -227.3268585205078 101.875 M-227.3268585205078 142.625 C-227.3268585205078 128.39695403213943, -227.3268585205078 114.16890806427884, -227.3268585205078 101.875" stroke="#9370DB" stroke-width="1.3" fill="none" stroke-dasharray="0 0"/></g><g class="label name" transform="translate(-23.0546875, -133.25)" style=""><g><rect class="background" style="stroke: none"/></g><text xml:space="preserve" y="-10.1" style=""><tspan class="text-outer-tspan row" x="0" y="-0.1em" dy="1.1em"><tspan font-style="normal" class="text-inner-tspan" font-weight="normal">nodes</tspan></tspan></text></g><g class="label attribute-type" transform="translate(-214.8268585205078, -92.5)" style=""><g><rect class="background" style="stroke: none"/></g><text xml:space="preserve" y="-10.1" style=""><tspan class="text-outer-tspan row" x="0" y="-0.1em" dy="1.1em"><tspan font-style="normal" class="text-inner-tspan" font-weight="normal">TEXT</tspan></tspan></text></g><g class="label attribute-name" transform="translate(-153.6588134765625, -92.5)" style=""><g><rect class="background" style="stroke: none"/></g><text xml:space="preserve" y="-10.1" style=""><tspan class="text-outer-tspan row" x="0" y="-0.1em" dy="1.1em"><tspan font-style="normal" class="text-inner-tspan" font-weight="normal">id</tspan></tspan></text></g><g class="label attribute-keys" transform="translate(-17.8775634765625, -92.5)" style=""><g><rect class="background" style="stroke: none"/></g><text xml:space="preserve" y="-10.1" style=""><tspan class="text-outer-tspan row" x="0" y="-0.1em" dy="1.1em"><tspan font-style="normal" class="text-inner-tspan" font-weight="normal">PK</tspan></tspan></text></g><g class="label attribute-comment" transform="translate(26.802459716796875, -92.5)" style=""><g><rect class="background" style="stroke: none"/></g><text xml:space="preserve" y="-10.1" style=""><tspan class="text-outer-tspan row" x="0" y="-0.1em" dy="1.1em"/></text></g><g class="label attribute-type" transform="translate(-214.8268585205078, -51.75)" style=""><g><rect class="background" style="stroke: none"/></g><text xml:space="preserve" y="-10.1" style=""><tspan class="text-outer-tspan row" x="0" y="-0.1em" dy="1.1em"><tspan font-style="normal" class="text-inner-tspan" font-weight="normal">TEXT</tspan></tspan></text></g><g class="label attribute-name" transform="translate(-153.6588134765625, -51.75)" style=""><g><rect class="background" style="stroke: none"/></g><text xml:space="preserve" y="-10.1" style=""><tspan class="text-outer-tspan row" x="0" y="-0.1em" dy="1.1em"><tspan font-style="normal" class="text-inner-tspan" font-weight="normal">type</tspan></tspan></text></g><g class="label attribute-keys" transform="translate(-17.8775634765625, -51.75)" style=""><g><rect class="background" style="stroke: none"/></g><text xml:space="preserve" y="-10.1" style=""><tspan class="text-outer-tspan row" x="0" y="-0.1em" dy="1.1em"/></text></g><g class="label attribute-comment" transform="translate(26.802459716796875, -51.75)" style=""><g><rect class="background" style="stroke: none"/></g><text xml:space="preserve" y="-10.1" style=""><tspan class="text-outer-tspan row" x="0" y="-0.1em" dy="1.1em"><tspan font-style="normal" class="text-inner-tspan" font-weight="normal">tradition|concept|chunk</tspan></tspan></text></g><g class="label attribute-type" transform="translate(-214.8268585205078, -11)" style=""><g><rect class="background" style="stroke: none"/></g><text xml:space="preserve" y="-10.1" style=""><tspan class="text-outer-tspan row" x="0" y="-0.1em" dy="1.1em"><tspan font-style="normal" class="text-inner-tspan" font-weight="normal">TEXT</tspan></tspan></text></g><g class="label attribute-name" transform="translate(-153.6588134765625, -11)" style=""><g><rect class="background" style="stroke: none"/></g><text xml:space="preserve" y="-10.1" style=""><tspan class="text-outer-tspan row" x="0" y="-0.1em" dy="1.1em"><tspan font-style="normal" class="text-inner-tspan" font-weight="normal">tradition_id</tspan></tspan></text></g><g class="label attribute-keys" transform="translate(-17.8775634765625, -11)" style=""><g><rect class="background" style="stroke: none"/></g><text xml:space="preserve" y="-10.1" style=""><tspan class="text-outer-tspan row" x="0" y="-0.1em" dy="1.1em"><tspan font-style="normal" class="text-inner-tspan" font-weight="normal">FK</tspan></tspan></text></g><g class="label attribute-comment" transform="translate(26.802459716796875, -11)" style=""><g><rect class="background" style="stroke: none"/></g><text xml:space="preserve" y="-10.1" style=""><tspan class="text-outer-tspan row" x="0" y="-0.1em" dy="1.1em"/></text></g><g class="label attribute-type" transform="translate(-214.8268585205078, 29.75)" style=""><g><rect class="background" style="stroke: none"/></g><text xml:space="preserve" y="-10.1" style=""><tspan class="text-outer-tspan row" x="0" y="-0.1em" dy="1.1em"><tspan font-style="normal" class="text-inner-tspan" font-weight="normal">TEXT</tspan></tspan></text></g><g class="label attribute-name" transform="translate(-153.6588134765625, 29.75)" style=""><g><rect class="background" style="stroke: none"/></g><text xml:space="preserve" y="-10.1" style=""><tspan class="text-outer-tspan row" x="0" y="-0.1em" dy="1.1em"><tspan font-style="normal" class="text-inner-tspan" font-weight="normal">label</tspan></tspan></text></g><g class="label attribute-keys" transform="translate(-17.8775634765625, 29.75)" style=""><g><rect class="background" style="stroke: none"/></g><text xml:space="preserve" y="-10.1" style=""><tspan class="text-outer-tspan row" x="0" y="-0.1em" dy="1.1em"/></text></g><g class="label attribute-comment" transform="translate(26.802459716796875, 29.75)" style=""><g><rect class="background" style="stroke: none"/></g><text xml:space="preserve" y="-10.1" style=""><tspan class="text-outer-tspan row" x="0" y="-0.1em" dy="1.1em"/></text></g><g class="label attribute-type" transform="translate(-214.8268585205078, 70.5)" style=""><g><rect class="background" style="stroke: none"/></g><text xml:space="preserve" y="-10.1" style=""><tspan class="text-outer-tspan row" x="0" y="-0.1em" dy="1.1em"><tspan font-style="normal" class="text-inner-tspan" font-weight="normal">TEXT</tspan></tspan></text></g><g class="label attribute-name" transform="translate(-153.6588134765625, 70.5)" style=""><g><rect class="background" style="stroke: none"/></g><text xml:space="preserve" y="-10.1" style=""><tspan class="text-outer-tspan row" x="0" y="-0.1em" dy="1.1em"><tspan font-style="normal" class="text-inner-tspan" font-weight="normal">definition</tspan></tspan></text></g><g class="label attribute-keys" transform="translate(-17.8775634765625, 70.5)" style=""><g><rect class="background" style="stroke: none"/></g><text xml:space="preserve" y="-10.1" style=""><tspan class="text-outer-tspan row" x="0" y="-0.1em" dy="1.1em"/></text></g><g class="label attribute-comment" transform="translate(26.802459716796875, 70.5)" style=""><g><rect class="background" style="stroke: none"/></g><text xml:space="preserve" y="-10.1" style=""><tspan class="text-outer-tspan row" x="0" y="-0.1em" dy="1.1em"><tspan font-style="normal" class="text-inner-tspan" font-weight="normal">concepts</tspan><tspan font-style="normal" class="text-inner-tspan" font-weight="normal"> only</tspan></tspan></text></g><g class="label attribute-type" transform="translate(-214.8268585205078, 111.25)" style=""><g><rect class="background" style="stroke: none"/></g><text xml:space="preserve" y="-10.1" style=""><tspan class="text-outer-tspan row" x="0" y="-0.1em" dy="1.1em"><tspan font-style="normal" class="text-inner-tspan" font-weight="normal">TEXT</tspan></tspan></text></g><g class="label attribute-name" transform="translate(-153.6588134765625, 111.25)" style=""><g><rect class="background" style="stroke: none"/></g><text xml:space="preserve" y="-10.1" style=""><tspan class="text-outer-tspan row" x="0" y="-0.1em" dy="1.1em"><tspan font-style="normal" class="text-inner-tspan" font-weight="normal">metadata_json</tspan></tspan></text></g><g class="label attribute-keys" transform="translate(-17.8775634765625, 111.25)" style=""><g><rect class="background" style="stroke: none"/></g><text xml:space="preserve" y="-10.1" style=""><tspan class="text-outer-tspan row" x="0" y="-0.1em" dy="1.1em"/></text></g><g class="label attribute-comment" transform="translate(26.802459716796875, 111.25)" style=""><g><rect class="background" style="stroke: none"/></g><text xml:space="preserve" y="-10.1" style=""><tspan class="text-outer-tspan row" x="0" y="-0.1em" dy="1.1em"/></text></g><g class="divider"><path d="M-227.3268585205078 -101.87505 L-227.3268585205078 -101.87495 L227.3268585205078 -101.87495 L227.3268585205078 -101.87505" stroke="none" stroke-width="0" fill="#ECECFF" fill-rule="evenodd"/><path d="M-227.3268585205078 -101.87505 C-227.3268585205078 -101.87501057479913, -227.3268585205078 -101.87497114959827, -227.3268585205078 -101.87495 M-227.3268585205078 -101.87505 C-227.3268585205078 -101.87501569311033, -227.3268585205078 -101.87498138622067, -227.3268585205078 -101.87495 M-227.3268585205078 -101.87495 C-124.80526284773502 -101.87495, -22.283667174962233 -101.87495, 227.3268585205078 -101.87495 M-227.3268585205078 -101.87495 C-128.25054155840223 -101.87495, -29.174224596296682 -101.87495, 227.3268585205078 -101.87495 M227.3268585205078 -101.87495 C227.3268585205078 -101.8749783114935, 227.3268585205078 -101.87500662298702, 227.3268585205078 -101.87505 M227.3268585205078 -101.87495 C227.3268585205078 -101.87498336264352, 227.3268585205078 -101.87501672528704, 227.3268585205078 -101.87505 M227.3268585205078 -101.87505 C60.766745682005876 -101.87505, -105.79336715649606 -101.87505, -227.3268585205078 -101.87505 M227.3268585205078 -101.87505 C54.77582295352295 -101.87505, -117.77521261346192 -101.87505, -227.3268585205078 -101.87505" stroke="#9370DB" stroke-width="1.3" fill="none" stroke-dasharray="0 0"/></g><g class="divider"><path d="M-166.1588634765625 -101.875 L-166.1587634765625 -101.875 L-166.1587634765625 142.625 L-166.1588634765625 142.625" stroke="none" stroke-width="0" fill="#ECECFF" fill-rule="evenodd"/><path d="M-166.1588634765625 -101.875 C-166.15883971131638 -101.875, -166.15881594607023 -101.875, -166.1587634765625 -101.875 M-166.1588634765625 -101.875 C-166.15883973678237 -101.875, -166.15881599700228 -101.875, -166.1587634765625 -101.875 M-166.1587634765625 -101.875 C-166.1587634765625 -15.79649641745047, -166.1587634765625 70.28200716509906, -166.1587634765625 142.625 M-166.1587634765625 -101.875 C-166.1587634765625 -34.22826446088331, -166.1587634765625 33.41847107823338, -166.1587634765625 142.625 M-166.1587634765625 142.625 C-166.15880080016785 142.625, -166.1588381237732 142.625, -166.1588634765625 142.625 M-166.1587634765625 142.625 C-166.15878722302614 142.625, -166.15881096948976 142.625, -166.1588634765625 142.625 M-166.1588634765625 142.625 C-166.1588634765625 60.62492860305019, -166.1588634765625 -21.375142793899613, -166.1588634765625 -101.875 M-166.1588634765625 142.625 C-166.1588634765625 72.52026040678385, -166.1588634765625 2.4155208135676958, -166.1588634765625 -101.875" stroke="#9370DB" stroke-width="1.3" fill="none" stroke-dasharray="0 0"/></g><g class="divider"><path d="M-30.3776134765625 -101.875 L-30.3775134765625 -101.875 L-30.3775134765625 142.625 L-30.3776134765625 142.625" stroke="none" stroke-width="0" fill="#ECECFF" fill-rule="evenodd"/><path d="M-30.3776134765625 -101.875 C-30.37758379032628 -101.875, -30.37755410409006 -101.875, -30.3775134765625 -101.875 M-30.3776134765625 -101.875 C-30.377588244349784 -101.875, -30.377563012137067 -101.875, -30.3775134765625 -101.875 M-30.3775134765625 -101.875 C-30.3775134765625 -51.13284468384348, -30.3775134765625 -0.39068936768696005, -30.3775134765625 142.625 M-30.3775134765625 -101.875 C-30.3775134765625 -48.00173989172261, -30.3775134765625 5.871520216554785, -30.3775134765625 142.625 M-30.3775134765625 142.625 C-30.377546589079856 142.625, -30.377579701597213 142.625, -30.3776134765625 142.625 M-30.3775134765625 142.625 C-30.377538482279384 142.625, -30.37756348799627 142.625, -30.3776134765625 142.625 M-30.3776134765625 142.625 C-30.3776134765625 69.56401069299666, -30.3776134765625 -3.4969786140066788, -30.3776134765625 -101.875 M-30.3776134765625 142.625 C-30.3776134765625 49.37803502699849, -30.3776134765625 -43.86892994600302, -30.3776134765625 -101.875" stroke="#9370DB" stroke-width="1.3" fill="none" stroke-dasharray="0 0"/></g><g class="divider"><path d="M14.302409716796875 -101.875 L14.302509716796875 -101.875 L14.302509716796875 142.625 L14.302409716796875 142.625" stroke="none" stroke-width="0" fill="#ECECFF" fill-rule="evenodd"/><path d="M14.302409716796875 -101.875 C14.302448885334526 -101.875, 14.302488053872176 -101.875, 14.302509716796875 -101.875 M14.302409716796875 -101.875 C14.30244511211718 -101.875, 14.302480507437485 -101.875, 14.302509716796875 -101.875 M14.302509716796875 -101.875 C14.302509716796875 -23.808929993720028, 14.302509716796875 54.257140012559944, 14.302509716796875 142.625 M14.302509716796875 -101.875 C14.302509716796875 -12.127170433256083, 14.302509716796875 77.62065913348783, 14.302509716796875 142.625 M14.302509716796875 142.625 C14.302489064709867 142.625, 14.302468412622861 142.625, 14.302409716796875 142.625 M14.302509716796875 142.625 C14.302483910124224 142.625, 14.302458103451572 142.625, 14.302409716796875 142.625 M14.302409716796875 142.625 C14.302409716796875 75.75435826915272, 14.302409716796875 8.883716538305436, 14.302409716796875 -101.875 M14.302409716796875 142.625 C14.302409716796875 63.66831285555331, 14.302409716796875 -15.28837428889338, 14.302409716796875 -101.875" stroke="#9370DB" stroke-width="1.3" fill="none" stroke-dasharray="0 0"/></g><g class="divider"><path d="M-227.3268585205078 -101.87505 L-227.3268585205078 -101.87495 L227.3268585205078 -101.87495 L227.3268585205078 -101.87505" stroke="none" stroke-width="0" fill="#ECECFF" fill-rule="evenodd"/><path d="M-227.3268585205078 -101.87505 C-227.3268585205078 -101.8750152532953, -227.3268585205078 -101.87498050659059, -227.3268585205078 -101.87495 M-227.3268585205078 -101.87505 C-227.3268585205078 -101.87502940151387, -227.3268585205078 -101.87500880302773, -227.3268585205078 -101.87495 M-227.3268585205078 -101.87495 C-110.69250641562462 -101.87495, 5.941845689258571 -101.87495, 227.3268585205078 -101.87495 M-227.3268585205078 -101.87495 C-112.55920774786942 -101.87495, 2.208443024768968 -101.87495, 227.3268585205078 -101.87495 M227.3268585205078 -101.87495 C227.3268585205078 -101.87498734648094, 227.3268585205078 -101.87502469296186, 227.3268585205078 -101.87505 M227.3268585205078 -101.87495 C227.3268585205078 -101.8749878808752, 227.3268585205078 -101.87502576175041, 227.3268585205078 -101.87505 M227.3268585205078 -101.87505 C120.5053341088989 -101.87505, 13.683809697289973 -101.87505, -227.3268585205078 -101.87505 M227.3268585205078 -101.87505 C85.8962882916814 -101.87505, -55.53428193714501 -101.87505, -227.3268585205078 -101.87505" stroke="#9370DB" stroke-width="1.3" fill="none" stroke-dasharray="0 0"/></g></g><g class="node default" id="my-svg-entity-edges-1" data-look="classic" transform="translate(397.800048828125, 541.875)"><g class="outer-path" style=""><path d="M-389.80005645751953 -142.625 L389.80005645751953 -142.625 L389.80005645751953 142.625 L-389.80005645751953 142.625" stroke="none" stroke-width="0" fill="#ECECFF"/><path d="M-389.80005645751953 -142.625 C-135.8362858665192 -142.625, 118.12748472448112 -142.625, 389.80005645751953 -142.625 M-389.80005645751953 -142.625 C-176.28461871280246 -142.625, 37.23081903191462 -142.625, 389.80005645751953 -142.625 M389.80005645751953 -142.625 C389.80005645751953 -52.574785678343844, 389.80005645751953 37.47542864331231, 389.80005645751953 142.625 M389.80005645751953 -142.625 C389.80005645751953 -85.17384298328128, 389.80005645751953 -27.722685966562537, 389.80005645751953 142.625 M389.80005645751953 142.625 C149.6133390054735 142.625, -90.57337844657252 142.625, -389.80005645751953 142.625 M389.80005645751953 142.625 C193.03560258714194 142.625, -3.728851283235656 142.625, -389.80005645751953 142.625 M-389.80005645751953 142.625 C-389.80005645751953 46.614363345020195, -389.80005645751953 -49.39627330995961, -389.80005645751953 -142.625 M-389.80005645751953 142.625 C-389.80005645751953 58.959459684848596, -389.80005645751953 -24.706080630302807, -389.80005645751953 -142.625" stroke="#9370DB" stroke-width="1.3" fill="none" stroke-dasharray="0 0"/></g><g style="" class="row-rect-odd"><path d="M-389.80005645751953 -101.875 L389.80005645751953 -101.875 L389.80005645751953 -61.125 L-389.80005645751953 -61.125" stroke="none" stroke-width="0" fill="hsl(240, 100%, 100%)"/><path d="M-389.80005645751953 -101.875 C-95.12718134792624 -101.875, 199.54569376166705 -101.875, 389.80005645751953 -101.875 M-389.80005645751953 -101.875 C-84.9560764732035 -101.875, 219.88790351111254 -101.875, 389.80005645751953 -101.875 M389.80005645751953 -101.875 C389.80005645751953 -89.00505950147016, 389.80005645751953 -76.13511900294033, 389.80005645751953 -61.125 M389.80005645751953 -101.875 C389.80005645751953 -91.93213687700076, 389.80005645751953 -81.98927375400153, 389.80005645751953 -61.125 M389.80005645751953 -61.125 C97.42789801106375 -61.125, -194.94426043539204 -61.125, -389.80005645751953 -61.125 M389.80005645751953 -61.125 C138.00500902202128 -61.125, -113.79003841347696 -61.125, -389.80005645751953 -61.125 M-389.80005645751953 -61.125 C-389.80005645751953 -77.41047454134966, -389.80005645751953 -93.69594908269931, -389.80005645751953 -101.875 M-389.80005645751953 -61.125 C-389.80005645751953 -70.54318380095096, -389.80005645751953 -79.96136760190191, -389.80005645751953 -101.875" stroke="#9370DB" stroke-width="1.3" fill="none" stroke-dasharray="0 0"/></g><g style="" class="row-rect-even"><path d="M-389.80005645751953 -61.125 L389.80005645751953 -61.125 L389.80005645751953 -20.375 L-389.80005645751953 -20.375" stroke="none" stroke-width="0" fill="hsl(240, 100%, 97.2745098039%)"/><path d="M-389.80005645751953 -61.125 C-150.5526704489438 -61.125, 88.69471555963196 -61.125, 389.80005645751953 -61.125 M-389.80005645751953 -61.125 C-178.5012889638664 -61.125, 32.79747852978676 -61.125, 389.80005645751953 -61.125 M389.80005645751953 -61.125 C389.80005645751953 -47.81559348370096, 389.80005645751953 -34.506186967401916, 389.80005645751953 -20.375 M389.80005645751953 -61.125 C389.80005645751953 -45.92277490886757, 389.80005645751953 -30.720549817735137, 389.80005645751953 -20.375 M389.80005645751953 -20.375 C194.78425160887622 -20.375, -0.23155323976709496 -20.375, -389.80005645751953 -20.375 M389.80005645751953 -20.375 C143.22299556843384 -20.375, -103.35406532065184 -20.375, -389.80005645751953 -20.375 M-389.80005645751953 -20.375 C-389.80005645751953 -31.59322238393201, -389.80005645751953 -42.81144476786402, -389.80005645751953 -61.125 M-389.80005645751953 -20.375 C-389.80005645751953 -32.63399072558861, -389.80005645751953 -44.89298145117722, -389.80005645751953 -61.125" stroke="#9370DB" stroke-width="1.3" fill="none" stroke-dasharray="0 0"/></g><g style="" class="row-rect-odd"><path d="M-389.80005645751953 -20.375 L389.80005645751953 -20.375 L389.80005645751953 20.375 L-389.80005645751953 20.375" stroke="none" stroke-width="0" fill="hsl(240, 100%, 100%)"/><path d="M-389.80005645751953 -20.375 C-220.15600050540831 -20.375, -50.5119445532971 -20.375, 389.80005645751953 -20.375 M-389.80005645751953 -20.375 C-206.6248208161191 -20.375, -23.449585174718663 -20.375, 389.80005645751953 -20.375 M389.80005645751953 -20.375 C389.80005645751953 -5.462982569733178, 389.80005645751953 9.449034860533644, 389.80005645751953 20.375 M389.80005645751953 -20.375 C389.80005645751953 -6.768636394141241, 389.80005645751953 6.837727211717517, 389.80005645751953 20.375 M389.80005645751953 20.375 C202.0555791757755 20.375, 14.31110189403148 20.375, -389.80005645751953 20.375 M389.80005645751953 20.375 C90.76132900985777 20.375, -208.27739843780398 20.375, -389.80005645751953 20.375 M-389.80005645751953 20.375 C-389.80005645751953 5.184684734731293, -389.80005645751953 -10.005630530537413, -389.80005645751953 -20.375 M-389.80005645751953 20.375 C-389.80005645751953 9.25164978855769, -389.80005645751953 -1.8717004228846186, -389.80005645751953 -20.375" stroke="#9370DB" stroke-width="1.3" fill="none" stroke-dasharray="0 0"/></g><g style="" class="row-rect-even"><path d="M-389.80005645751953 20.375 L389.80005645751953 20.375 L389.80005645751953 61.125 L-389.80005645751953 61.125" stroke="none" stroke-width="0" fill="hsl(240, 100%, 97.2745098039%)"/><path d="M-389.80005645751953 20.375 C-174.40449830221257 20.375, 40.991059853094384 20.375, 389.80005645751953 20.375 M-389.80005645751953 20.375 C-223.68354182958888 20.375, -57.56702720165822 20.375, 389.80005645751953 20.375 M389.80005645751953 20.375 C389.80005645751953 35.966743151668375, 389.80005645751953 51.55848630333675, 389.80005645751953 61.125 M389.80005645751953 20.375 C389.80005645751953 30.395609538550627, 389.80005645751953 40.41621907710125, 389.80005645751953 61.125 M389.80005645751953 61.125 C113.8380520289017 61.125, -162.12395239971613 61.125, -389.80005645751953 61.125 M389.80005645751953 61.125 C214.39387822961714 61.125, 38.98770000171476 61.125, -389.80005645751953 61.125 M-389.80005645751953 61.125 C-389.80005645751953 48.96436963734335, -389.80005645751953 36.8037392746867, -389.80005645751953 20.375 M-389.80005645751953 61.125 C-389.80005645751953 46.85160610637729, -389.80005645751953 32.57821221275458, -389.80005645751953 20.375" stroke="#9370DB" stroke-width="1.3" fill="none" stroke-dasharray="0 0"/></g><g style="" class="row-rect-odd"><path d="M-389.80005645751953 61.125 L389.80005645751953 61.125 L389.80005645751953 101.875 L-389.80005645751953 101.875" stroke="none" stroke-width="0" fill="hsl(240, 100%, 100%)"/><path d="M-389.80005645751953 61.125 C-153.6838849120733 61.125, 82.43228663337294 61.125, 389.80005645751953 61.125 M-389.80005645751953 61.125 C-194.99297212778325 61.125, -0.18588779804696287 61.125, 389.80005645751953 61.125 M389.80005645751953 61.125 C389.80005645751953 69.71627549380837, 389.80005645751953 78.30755098761674, 389.80005645751953 101.875 M389.80005645751953 61.125 C389.80005645751953 72.52572842681053, 389.80005645751953 83.92645685362108, 389.80005645751953 101.875 M389.80005645751953 101.875 C131.62013036572841 101.875, -126.5597957260627 101.875, -389.80005645751953 101.875 M389.80005645751953 101.875 C150.69981353023275 101.875, -88.40042939705404 101.875, -389.80005645751953 101.875 M-389.80005645751953 101.875 C-389.80005645751953 88.07124103902316, -389.80005645751953 74.26748207804633, -389.80005645751953 61.125 M-389.80005645751953 101.875 C-389.80005645751953 86.00583460184242, -389.80005645751953 70.13666920368485, -389.80005645751953 61.125" stroke="#9370DB" stroke-width="1.3" fill="none" stroke-dasharray="0 0"/></g><g style="" class="row-rect-even"><path d="M-389.80005645751953 101.875 L389.80005645751953 101.875 L389.80005645751953 142.625 L-389.80005645751953 142.625" stroke="none" stroke-width="0" fill="hsl(240, 100%, 97.2745098039%)"/><path d="M-389.80005645751953 101.875 C-137.2051953722775 101.875, 115.38966571296453 101.875, 389.80005645751953 101.875 M-389.80005645751953 101.875 C-202.5996797900966 101.875, -15.399303122673643 101.875, 389.80005645751953 101.875 M389.80005645751953 101.875 C389.80005645751953 111.14828408523591, 389.80005645751953 120.42156817047184, 389.80005645751953 142.625 M389.80005645751953 101.875 C389.80005645751953 110.67299134406926, 389.80005645751953 119.47098268813852, 389.80005645751953 142.625 M389.80005645751953 142.625 C223.88408821455906 142.625, 57.96811997159858 142.625, -389.80005645751953 142.625 M389.80005645751953 142.625 C134.49971370883233 142.625, -120.80062903985487 142.625, -389.80005645751953 142.625 M-389.80005645751953 142.625 C-389.80005645751953 126.47222623898563, -389.80005645751953 110.31945247797125, -389.80005645751953 101.875 M-389.80005645751953 142.625 C-389.80005645751953 127.96063641492596, -389.80005645751953 113.29627282985192, -389.80005645751953 101.875" stroke="#9370DB" stroke-width="1.3" fill="none" stroke-dasharray="0 0"/></g><g class="label name" transform="translate(-22.703125, -133.25)" style=""><g><rect class="background" style="stroke: none"/></g><text xml:space="preserve" y="-10.1" style=""><tspan class="text-outer-tspan row" x="0" y="-0.1em" dy="1.1em"><tspan font-style="normal" class="text-inner-tspan" font-weight="normal">edges</tspan></tspan></text></g><g class="label attribute-type" transform="translate(-377.30005645751953, -92.5)" style=""><g><rect class="background" style="stroke: none"/></g><text xml:space="preserve" y="-10.1" style=""><tspan class="text-outer-tspan row" x="0" y="-0.1em" dy="1.1em"><tspan font-style="normal" class="text-inner-tspan" font-weight="normal">INTEGER</tspan></tspan></text></g><g class="label attribute-name" transform="translate(-286.37996673583984, -92.5)" style=""><g><rect class="background" style="stroke: none"/></g><text xml:space="preserve" y="-10.1" style=""><tspan class="text-outer-tspan row" x="0" y="-0.1em" dy="1.1em"><tspan font-style="normal" class="text-inner-tspan" font-weight="normal">id</tspan></tspan></text></g><g class="label attribute-keys" transform="translate(-173.02059173583984, -92.5)" style=""><g><rect class="background" style="stroke: none"/></g><text xml:space="preserve" y="-10.1" style=""><tspan class="text-outer-tspan row" x="0" y="-0.1em" dy="1.1em"><tspan font-style="normal" class="text-inner-tspan" font-weight="normal">PK</tspan></tspan></text></g><g class="label attribute-comment" transform="translate(-128.34056854248047, -92.5)" style=""><g><rect class="background" style="stroke: none"/></g><text xml:space="preserve" y="-10.1" style=""><tspan class="text-outer-tspan row" x="0" y="-0.1em" dy="1.1em"/></text></g><g class="label attribute-type" transform="translate(-377.30005645751953, -51.75)" style=""><g><rect class="background" style="stroke: none"/></g><text xml:space="preserve" y="-10.1" style=""><tspan class="text-outer-tspan row" x="0" y="-0.1em" dy="1.1em"><tspan font-style="normal" class="text-inner-tspan" font-weight="normal">TEXT</tspan></tspan></text></g><g class="label attribute-name" transform="translate(-286.37996673583984, -51.75)" style=""><g><rect class="background" style="stroke: none"/></g><text xml:space="preserve" y="-10.1" style=""><tspan class="text-outer-tspan row" x="0" y="-0.1em" dy="1.1em"><tspan font-style="normal" class="text-inner-tspan" font-weight="normal">source_id</tspan></tspan></text></g><g class="label attribute-keys" transform="translate(-173.02059173583984, -51.75)" style=""><g><rect class="background" style="stroke: none"/></g><text xml:space="preserve" y="-10.1" style=""><tspan class="text-outer-tspan row" x="0" y="-0.1em" dy="1.1em"><tspan font-style="normal" class="text-inner-tspan" font-weight="normal">FK</tspan></tspan></text></g><g class="label attribute-comment" transform="translate(-128.34056854248047, -51.75)" style=""><g><rect class="background" style="stroke: none"/></g><text xml:space="preserve" y="-10.1" style=""><tspan class="text-outer-tspan row" x="0" y="-0.1em" dy="1.1em"/></text></g><g class="label attribute-type" transform="translate(-377.30005645751953, -11)" style=""><g><rect class="background" style="stroke: none"/></g><text xml:space="preserve" y="-10.1" style=""><tspan class="text-outer-tspan row" x="0" y="-0.1em" dy="1.1em"><tspan font-style="normal" class="text-inner-tspan" font-weight="normal">TEXT</tspan></tspan></text></g><g class="label attribute-name" transform="translate(-286.37996673583984, -11)" style=""><g><rect class="background" style="stroke: none"/></g><text xml:space="preserve" y="-10.1" style=""><tspan class="text-outer-tspan row" x="0" y="-0.1em" dy="1.1em"><tspan font-style="normal" class="text-inner-tspan" font-weight="normal">target_id</tspan></tspan></text></g><g class="label attribute-keys" transform="translate(-173.02059173583984, -11)" style=""><g><rect class="background" style="stroke: none"/></g><text xml:space="preserve" y="-10.1" style=""><tspan class="text-outer-tspan row" x="0" y="-0.1em" dy="1.1em"><tspan font-style="normal" class="text-inner-tspan" font-weight="normal">FK</tspan></tspan></text></g><g class="label attribute-comment" transform="translate(-128.34056854248047, -11)" style=""><g><rect class="background" style="stroke: none"/></g><text xml:space="preserve" y="-10.1" style=""><tspan class="text-outer-tspan row" x="0" y="-0.1em" dy="1.1em"/></text></g><g class="label attribute-type" transform="translate(-377.30005645751953, 29.75)" style=""><g><rect class="background" style="stroke: none"/></g><text xml:space="preserve" y="-10.1" style=""><tspan class="text-outer-tspan row" x="0" y="-0.1em" dy="1.1em"><tspan font-style="normal" class="text-inner-tspan" font-weight="normal">TEXT</tspan></tspan></text></g><g class="label attribute-name" transform="translate(-286.37996673583984, 29.75)" style=""><g><rect class="background" style="stroke: none"/></g><text xml:space="preserve" y="-10.1" style=""><tspan class="text-outer-tspan row" x="0" y="-0.1em" dy="1.1em"><tspan font-style="normal" class="text-inner-tspan" font-weight="normal">type</tspan></tspan></text></g><g class="label attribute-keys" transform="translate(-173.02059173583984, 29.75)" style=""><g><rect class="background" style="stroke: none"/></g><text xml:space="preserve" y="-10.1" style=""><tspan class="text-outer-tspan row" x="0" y="-0.1em" dy="1.1em"/></text></g><g class="label attribute-comment" transform="translate(-128.34056854248047, 29.75)" style=""><g><rect class="background" style="stroke: none"/></g><text xml:space="preserve" y="-10.1" style=""><tspan class="text-outer-tspan row" x="0" y="-0.1em" dy="1.1em"><tspan font-style="normal" class="text-inner-tspan" font-weight="normal">BELONGS_TO|EXPRESSES|PARALLELS|CONTRASTS|DERIVES_FROM</tspan></tspan></text></g><g class="label attribute-type" transform="translate(-377.30005645751953, 70.5)" style=""><g><rect class="background" style="stroke: none"/></g><text xml:space="preserve" y="-10.1" style=""><tspan class="text-outer-tspan row" x="0" y="-0.1em" dy="1.1em"><tspan font-style="normal" class="text-inner-tspan" font-weight="normal">TEXT</tspan></tspan></text></g><g class="label attribute-name" transform="translate(-286.37996673583984, 70.5)" style=""><g><rect class="background" style="stroke: none"/></g><text xml:space="preserve" y="-10.1" style=""><tspan class="text-outer-tspan row" x="0" y="-0.1em" dy="1.1em"><tspan font-style="normal" class="text-inner-tspan" font-weight="normal">tier</tspan></tspan></text></g><g class="label attribute-keys" transform="translate(-173.02059173583984, 70.5)" style=""><g><rect class="background" style="stroke: none"/></g><text xml:space="preserve" y="-10.1" style=""><tspan class="text-outer-tspan row" x="0" y="-0.1em" dy="1.1em"/></text></g><g class="label attribute-comment" transform="translate(-128.34056854248047, 70.5)" style=""><g><rect class="background" style="stroke: none"/></g><text xml:space="preserve" y="-10.1" style=""><tspan class="text-outer-tspan row" x="0" y="-0.1em" dy="1.1em"><tspan font-style="normal" class="text-inner-tspan" font-weight="normal">verified|proposed|inferred</tspan></tspan></text></g><g class="label attribute-type" transform="translate(-377.30005645751953, 111.25)" style=""><g><rect class="background" style="stroke: none"/></g><text xml:space="preserve" y="-10.1" style=""><tspan class="text-outer-tspan row" x="0" y="-0.1em" dy="1.1em"><tspan font-style="normal" class="text-inner-tspan" font-weight="normal">TEXT</tspan></tspan></text></g><g class="label attribute-name" transform="translate(-286.37996673583984, 111.25)" style=""><g><rect class="background" style="stroke: none"/></g><text xml:space="preserve" y="-10.1" style=""><tspan class="text-outer-tspan row" x="0" y="-0.1em" dy="1.1em"><tspan font-style="normal" class="text-inner-tspan" font-weight="normal">justification</tspan></tspan></text></g><g class="label attribute-keys" transform="translate(-173.02059173583984, 111.25)" style=""><g><rect class="background" style="stroke: none"/></g><text xml:space="preserve" y="-10.1" style=""><tspan class="text-outer-tspan row" x="0" y="-0.1em" dy="1.1em"/></text></g><g class="label attribute-comment" transform="translate(-128.34056854248047, 111.25)" style=""><g><rect class="background" style="stroke: none"/></g><text xml:space="preserve" y="-10.1" style=""><tspan class="text-outer-tspan row" x="0" y="-0.1em" dy="1.1em"/></text></g><g class="divider"><path d="M-389.80005645751953 -101.87505 L-389.80005645751953 -101.87495 L389.80005645751953 -101.87495 L389.80005645751953 -101.87505" stroke="none" stroke-width="0" fill="#ECECFF" fill-rule="evenodd"/><path d="M-389.80005645751953 -101.87505 C-389.80005645751953 -101.87502522338308, -389.80005645751953 -101.87500044676617, -389.80005645751953 -101.87495 M-389.80005645751953 -101.87505 C-389.80005645751953 -101.87501566013606, -389.80005645751953 -101.87498132027213, -389.80005645751953 -101.87495 M-389.80005645751953 -101.87495 C-103.83925366457066 -101.87495, 182.1215491283782 -101.87495, 389.80005645751953 -101.87495 M-389.80005645751953 -101.87495 C-177.93610696540995 -101.87495, 33.927842526699635 -101.87495, 389.80005645751953 -101.87495 M389.80005645751953 -101.87495 C389.80005645751953 -101.87497972873969, 389.80005645751953 -101.87500945747938, 389.80005645751953 -101.87505 M389.80005645751953 -101.87495 C389.80005645751953 -101.87497115928477, 389.80005645751953 -101.87499231856955, 389.80005645751953 -101.87505 M389.80005645751953 -101.87505 C172.78085614482535 -101.87505, -44.23834416786883 -101.87505, -389.80005645751953 -101.87505 M389.80005645751953 -101.87505 C202.19210090809915 -101.87505, 14.584145358678768 -101.87505, -389.80005645751953 -101.87505" stroke="#9370DB" stroke-width="1.3" fill="none" stroke-dasharray="0 0"/></g><g class="divider"><path d="M-298.88001673583983 -101.875 L-298.87991673583986 -101.875 L-298.87991673583986 142.625 L-298.88001673583983 142.625" stroke="none" stroke-width="0" fill="#ECECFF" fill-rule="evenodd"/><path d="M-298.88001673583983 -101.875 C-298.87999384863974 -101.875, -298.8799709614397 -101.875, -298.87991673583986 -101.875 M-298.88001673583983 -101.875 C-298.8799893994923 -101.875, -298.8799620631447 -101.875, -298.87991673583986 -101.875 M-298.87991673583986 -101.875 C-298.87991673583986 -27.16281306079918, -298.87991673583986 47.54937387840164, -298.87991673583986 142.625 M-298.87991673583986 -101.875 C-298.87991673583986 -47.464075499374566, -298.87991673583986 6.946849001250868, -298.87991673583986 142.625 M-298.87991673583986 142.625 C-298.8799395186093 142.625, -298.87996230137884 142.625, -298.88001673583983 142.625 M-298.87991673583986 142.625 C-298.879940462485 142.625, -298.87996418913013 142.625, -298.88001673583983 142.625 M-298.88001673583983 142.625 C-298.88001673583983 61.19769161388399, -298.88001673583983 -20.22961677223202, -298.88001673583983 -101.875 M-298.88001673583983 142.625 C-298.88001673583983 57.91118414782919, -298.88001673583983 -26.80263170434162, -298.88001673583983 -101.875" stroke="#9370DB" stroke-width="1.3" fill="none" stroke-dasharray="0 0"/></g><g class="divider"><path d="M-185.52064173583983 -101.875 L-185.52054173583986 -101.875 L-185.52054173583986 142.625 L-185.52064173583983 142.625" stroke="none" stroke-width="0" fill="#ECECFF" fill-rule="evenodd"/><path d="M-185.52064173583983 -101.875 C-185.5206163100016 -101.875, -185.52059088416337 -101.875, -185.52054173583986 -101.875 M-185.52064173583983 -101.875 C-185.52061270440106 -101.875, -185.52058367296226 -101.875, -185.52054173583986 -101.875 M-185.52054173583986 -101.875 C-185.52054173583986 -38.604985093798575, -185.52054173583986 24.66502981240285, -185.52054173583986 142.625 M-185.52054173583986 -101.875 C-185.52054173583986 -9.714339877402509, -185.52054173583986 82.44632024519498, -185.52054173583986 142.625 M-185.52054173583986 142.625 C-185.52056678700697 142.625, -185.52059183817408 142.625, -185.52064173583983 142.625 M-185.52054173583986 142.625 C-185.5205697290597 142.625, -185.52059772227955 142.625, -185.52064173583983 142.625 M-185.52064173583983 142.625 C-185.52064173583983 78.10962841952268, -185.52064173583983 13.594256839045357, -185.52064173583983 -101.875 M-185.52064173583983 142.625 C-185.52064173583983 51.29771227585239, -185.52064173583983 -40.02957544829522, -185.52064173583983 -101.875" stroke="#9370DB" stroke-width="1.3" fill="none" stroke-dasharray="0 0"/></g><g class="divider"><path d="M-140.84061854248046 -101.875 L-140.84051854248048 -101.875 L-140.84051854248048 142.625 L-140.84061854248046 142.625" stroke="none" stroke-width="0" fill="#ECECFF" fill-rule="evenodd"/><path d="M-140.84061854248046 -101.875 C-140.84059657595964 -101.875, -140.84057460943882 -101.875, -140.84051854248048 -101.875 M-140.84061854248046 -101.875 C-140.84059662302715 -101.875, -140.84057470357385 -101.875, -140.84051854248048 -101.875 M-140.84051854248048 -101.875 C-140.84051854248048 -17.13745840464324, -140.84051854248048 67.60008319071352, -140.84051854248048 142.625 M-140.84051854248048 -101.875 C-140.84051854248048 -37.265363008406425, -140.84051854248048 27.34427398318715, -140.84051854248048 142.625 M-140.84051854248048 142.625 C-140.84055243612076 142.625, -140.84058632976104 142.625, -140.84061854248046 142.625 M-140.84051854248048 142.625 C-140.84054321032218 142.625, -140.84056787816388 142.625, -140.84061854248046 142.625 M-140.84061854248046 142.625 C-140.84061854248046 62.56581660416495, -140.84061854248046 -17.4933667916701, -140.84061854248046 -101.875 M-140.84061854248046 142.625 C-140.84061854248046 53.818889093978285, -140.84061854248046 -34.98722181204343, -140.84061854248046 -101.875" stroke="#9370DB" stroke-width="1.3" fill="none" stroke-dasharray="0 0"/></g><g class="divider"><path d="M-389.80005645751953 -101.87505 L-389.80005645751953 -101.87495 L389.80005645751953 -101.87495 L389.80005645751953 -101.87505" stroke="none" stroke-width="0" fill="#ECECFF" fill-rule="evenodd"/><path d="M-389.80005645751953 -101.87505 C-389.80005645751953 -101.87502586347678, -389.80005645751953 -101.87500172695354, -389.80005645751953 -101.87495 M-389.80005645751953 -101.87505 C-389.80005645751953 -101.875025538507, -389.80005645751953 -101.875001077014, -389.80005645751953 -101.87495 M-389.80005645751953 -101.87495 C-133.3104100204916 -101.87495, 123.17923641653636 -101.87495, 389.80005645751953 -101.87495 M-389.80005645751953 -101.87495 C-133.50806048912926 -101.87495, 122.783935479261 -101.87495, 389.80005645751953 -101.87495 M389.80005645751953 -101.87495 C389.80005645751953 -101.87497324743599, 389.80005645751953 -101.874996494872, 389.80005645751953 -101.87505 M389.80005645751953 -101.87495 C389.80005645751953 -101.87498850091418, 389.80005645751953 -101.87502700182836, 389.80005645751953 -101.87505 M389.80005645751953 -101.87505 C132.20216638385733 -101.87505, -125.39572368980487 -101.87505, -389.80005645751953 -101.87505 M389.80005645751953 -101.87505 C78.23652197696737 -101.87505, -233.3270125035848 -101.87505, -389.80005645751953 -101.87505" stroke="#9370DB" stroke-width="1.3" fill="none" stroke-dasharray="0 0"/></g></g><g class="node default" id="my-svg-entity-chunk_embeddings-2" data-look="classic" transform="translate(1102.046615600586, 541.875)"><g class="outer-path" style=""><path d="M-174.44651794433594 -101.875 L174.44651794433594 -101.875 L174.44651794433594 101.875 L-174.44651794433594 101.875" stroke="none" stroke-width="0" fill="#ECECFF"/><path d="M-174.44651794433594 -101.875 C-103.21582299597802 -101.875, -31.985128047620094 -101.875, 174.44651794433594 -101.875 M-174.44651794433594 -101.875 C-59.168115417069146 -101.875, 56.110287110197646 -101.875, 174.44651794433594 -101.875 M174.44651794433594 -101.875 C174.44651794433594 -49.68694564392408, 174.44651794433594 2.501108712151833, 174.44651794433594 101.875 M174.44651794433594 -101.875 C174.44651794433594 -27.483784842824974, 174.44651794433594 46.90743031435005, 174.44651794433594 101.875 M174.44651794433594 101.875 C75.41490142651948 101.875, -23.61671509129698 101.875, -174.44651794433594 101.875 M174.44651794433594 101.875 C87.70234881242727 101.875, 0.9581796805186116 101.875, -174.44651794433594 101.875 M-174.44651794433594 101.875 C-174.44651794433594 43.31933902417632, -174.44651794433594 -15.236321951647355, -174.44651794433594 -101.875 M-174.44651794433594 101.875 C-174.44651794433594 30.110405467502588, -174.44651794433594 -41.654189064994824, -174.44651794433594 -101.875" stroke="#9370DB" stroke-width="1.3" fill="none" stroke-dasharray="0 0"/></g><g style="" class="row-rect-odd"><path d="M-174.44651794433594 -61.125 L174.44651794433594 -61.125 L174.44651794433594 -20.375 L-174.44651794433594 -20.375" stroke="none" stroke-width="0" fill="hsl(240, 100%, 100%)"/><path d="M-174.44651794433594 -61.125 C-50.088058326866374 -61.125, 74.27040129060319 -61.125, 174.44651794433594 -61.125 M-174.44651794433594 -61.125 C-99.23689539241859 -61.125, -24.02727284050124 -61.125, 174.44651794433594 -61.125 M174.44651794433594 -61.125 C174.44651794433594 -51.96021282092366, 174.44651794433594 -42.795425641847324, 174.44651794433594 -20.375 M174.44651794433594 -61.125 C174.44651794433594 -51.89913409299795, 174.44651794433594 -42.673268185995894, 174.44651794433594 -20.375 M174.44651794433594 -20.375 C98.11171335428854 -20.375, 21.776908764241142 -20.375, -174.44651794433594 -20.375 M174.44651794433594 -20.375 C39.602299341877625 -20.375, -95.24191926058069 -20.375, -174.44651794433594 -20.375 M-174.44651794433594 -20.375 C-174.44651794433594 -31.870225778435273, -174.44651794433594 -43.365451556870546, -174.44651794433594 -61.125 M-174.44651794433594 -20.375 C-174.44651794433594 -31.090369215107884, -174.44651794433594 -41.80573843021577, -174.44651794433594 -61.125" stroke="#9370DB" stroke-width="1.3" fill="none" stroke-dasharray="0 0"/></g><g style="" class="row-rect-even"><path d="M-174.44651794433594 -20.375 L174.44651794433594 -20.375 L174.44651794433594 20.375 L-174.44651794433594 20.375" stroke="none" stroke-width="0" fill="hsl(240, 100%, 97.2745098039%)"/><path d="M-174.44651794433594 -20.375 C-48.96274896784415 -20.375, 76.52102000864764 -20.375, 174.44651794433594 -20.375 M-174.44651794433594 -20.375 C-71.91073980402213 -20.375, 30.62503833629168 -20.375, 174.44651794433594 -20.375 M174.44651794433594 -20.375 C174.44651794433594 -12.019326828520391, 174.44651794433594 -3.6636536570407827, 174.44651794433594 20.375 M174.44651794433594 -20.375 C174.44651794433594 -4.310866089119994, 174.44651794433594 11.753267821760012, 174.44651794433594 20.375 M174.44651794433594 20.375 C47.76307793077707 20.375, -78.92036208278179 20.375, -174.44651794433594 20.375 M174.44651794433594 20.375 C95.64421851838911 20.375, 16.841919092442282 20.375, -174.44651794433594 20.375 M-174.44651794433594 20.375 C-174.44651794433594 10.706725178460598, -174.44651794433594 1.0384503569211958, -174.44651794433594 -20.375 M-174.44651794433594 20.375 C-174.44651794433594 6.216453478447635, -174.44651794433594 -7.94209304310473, -174.44651794433594 -20.375" stroke="#9370DB" stroke-width="1.3" fill="none" stroke-dasharray="0 0"/></g><g style="" class="row-rect-odd"><path d="M-174.44651794433594 20.375 L174.44651794433594 20.375 L174.44651794433594 61.125 L-174.44651794433594 61.125" stroke="none" stroke-width="0" fill="hsl(240, 100%, 100%)"/><path d="M-174.44651794433594 20.375 C-97.1786117494679 20.375, -19.910705554599872 20.375, 174.44651794433594 20.375 M-174.44651794433594 20.375 C-80.04484008068889 20.375, 14.356837782958166 20.375, 174.44651794433594 20.375 M174.44651794433594 20.375 C174.44651794433594 33.080706007714085, 174.44651794433594 45.78641201542817, 174.44651794433594 61.125 M174.44651794433594 20.375 C174.44651794433594 32.96027891676154, 174.44651794433594 45.54555783352308, 174.44651794433594 61.125 M174.44651794433594 61.125 C102.46892168479323 61.125, 30.491325425250523 61.125, -174.44651794433594 61.125 M174.44651794433594 61.125 C41.5460401862662 61.125, -91.35443757180354 61.125, -174.44651794433594 61.125 M-174.44651794433594 61.125 C-174.44651794433594 52.70615268877184, -174.44651794433594 44.287305377543674, -174.44651794433594 20.375 M-174.44651794433594 61.125 C-174.44651794433594 47.78255523799129, -174.44651794433594 34.44011047598258, -174.44651794433594 20.375" stroke="#9370DB" stroke-width="1.3" fill="none" stroke-dasharray="0 0"/></g><g style="" class="row-rect-even"><path d="M-174.44651794433594 61.125 L174.44651794433594 61.125 L174.44651794433594 101.875 L-174.44651794433594 101.875" stroke="none" stroke-width="0" fill="hsl(240, 100%, 97.2745098039%)"/><path d="M-174.44651794433594 61.125 C-87.53581999051892 61.125, -0.6251220367018959 61.125, 174.44651794433594 61.125 M-174.44651794433594 61.125 C-59.996829253250965 61.125, 54.45285943783401 61.125, 174.44651794433594 61.125 M174.44651794433594 61.125 C174.44651794433594 75.73876543219569, 174.44651794433594 90.35253086439138, 174.44651794433594 101.875 M174.44651794433594 61.125 C174.44651794433594 69.49764064386781, 174.44651794433594 77.87028128773562, 174.44651794433594 101.875 M174.44651794433594 101.875 C68.15595044419653 101.875, -38.13461705594287 101.875, -174.44651794433594 101.875 M174.44651794433594 101.875 C87.11096903045565 101.875, -0.22457988342463864 101.875, -174.44651794433594 101.875 M-174.44651794433594 101.875 C-174.44651794433594 89.03279780816231, -174.44651794433594 76.19059561632464, -174.44651794433594 61.125 M-174.44651794433594 101.875 C-174.44651794433594 91.73011787292438, -174.44651794433594 81.58523574584878, -174.44651794433594 61.125" stroke="#9370DB" stroke-width="1.3" fill="none" stroke-dasharray="0 0"/></g><g class="label name" transform="translate(-73.5234375, -92.5)" style=""><g><rect class="background" style="stroke: none"/></g><text xml:space="preserve" y="-10.1" style=""><tspan class="text-outer-tspan row" x="0" y="-0.1em" dy="1.1em"><tspan font-style="normal" class="text-inner-tspan" font-weight="normal">chunk_embeddings</tspan></tspan></text></g><g class="label attribute-type" transform="translate(-161.94651794433594, -51.75)" style=""><g><rect class="background" style="stroke: none"/></g><text xml:space="preserve" y="-10.1" style=""><tspan class="text-outer-tspan row" x="0" y="-0.1em" dy="1.1em"><tspan font-style="normal" class="text-inner-tspan" font-weight="normal">TEXT</tspan></tspan></text></g><g class="label attribute-name" transform="translate(-71.02642822265625, -51.75)" style=""><g><rect class="background" style="stroke: none"/></g><text xml:space="preserve" y="-10.1" style=""><tspan class="text-outer-tspan row" x="0" y="-0.1em" dy="1.1em"><tspan font-style="normal" class="text-inner-tspan" font-weight="normal">chunk_id</tspan></tspan></text></g><g class="label attribute-keys" transform="translate(20.94232177734375, -51.75)" style=""><g><rect class="background" style="stroke: none"/></g><text xml:space="preserve" y="-10.1" style=""><tspan class="text-outer-tspan row" x="0" y="-0.1em" dy="1.1em"><tspan font-style="normal" class="text-inner-tspan" font-weight="normal">PK,FK</tspan></tspan></text></g><g class="label attribute-comment" transform="translate(88.11839294433594, -51.75)" style=""><g><rect class="background" style="stroke: none"/></g><text xml:space="preserve" y="-10.1" style=""><tspan class="text-outer-tspan row" x="0" y="-0.1em" dy="1.1em"/></text></g><g class="label attribute-type" transform="translate(-161.94651794433594, -11)" style=""><g><rect class="background" style="stroke: none"/></g><text xml:space="preserve" y="-10.1" style=""><tspan class="text-outer-tspan row" x="0" y="-0.1em" dy="1.1em"><tspan font-style="normal" class="text-inner-tspan" font-weight="normal">INTEGER</tspan></tspan></text></g><g class="label attribute-name" transform="translate(-71.02642822265625, -11)" style=""><g><rect class="background" style="stroke: none"/></g><text xml:space="preserve" y="-10.1" style=""><tspan class="text-outer-tspan row" x="0" y="-0.1em" dy="1.1em"><tspan font-style="normal" class="text-inner-tspan" font-weight="normal">dim</tspan></tspan></text></g><g class="label attribute-keys" transform="translate(20.94232177734375, -11)" style=""><g><rect class="background" style="stroke: none"/></g><text xml:space="preserve" y="-10.1" style=""><tspan class="text-outer-tspan row" x="0" y="-0.1em" dy="1.1em"/></text></g><g class="label attribute-comment" transform="translate(88.11839294433594, -11)" style=""><g><rect class="background" style="stroke: none"/></g><text xml:space="preserve" y="-10.1" style=""><tspan class="text-outer-tspan row" x="0" y="-0.1em" dy="1.1em"/></text></g><g class="label attribute-type" transform="translate(-161.94651794433594, 29.75)" style=""><g><rect class="background" style="stroke: none"/></g><text xml:space="preserve" y="-10.1" style=""><tspan class="text-outer-tspan row" x="0" y="-0.1em" dy="1.1em"><tspan font-style="normal" class="text-inner-tspan" font-weight="normal">TEXT</tspan></tspan></text></g><g class="label attribute-name" transform="translate(-71.02642822265625, 29.75)" style=""><g><rect class="background" style="stroke: none"/></g><text xml:space="preserve" y="-10.1" style=""><tspan class="text-outer-tspan row" x="0" y="-0.1em" dy="1.1em"><tspan font-style="normal" class="text-inner-tspan" font-weight="normal">model</tspan></tspan></text></g><g class="label attribute-keys" transform="translate(20.94232177734375, 29.75)" style=""><g><rect class="background" style="stroke: none"/></g><text xml:space="preserve" y="-10.1" style=""><tspan class="text-outer-tspan row" x="0" y="-0.1em" dy="1.1em"/></text></g><g class="label attribute-comment" transform="translate(88.11839294433594, 29.75)" style=""><g><rect class="background" style="stroke: none"/></g><text xml:space="preserve" y="-10.1" style=""><tspan class="text-outer-tspan row" x="0" y="-0.1em" dy="1.1em"/></text></g><g class="label attribute-type" transform="translate(-161.94651794433594, 70.5)" style=""><g><rect class="background" style="stroke: none"/></g><text xml:space="preserve" y="-10.1" style=""><tspan class="text-outer-tspan row" x="0" y="-0.1em" dy="1.1em"><tspan font-style="normal" class="text-inner-tspan" font-weight="normal">BLOB</tspan></tspan></text></g><g class="label attribute-name" transform="translate(-71.02642822265625, 70.5)" style=""><g><rect class="background" style="stroke: none"/></g><text xml:space="preserve" y="-10.1" style=""><tspan class="text-outer-tspan row" x="0" y="-0.1em" dy="1.1em"><tspan font-style="normal" class="text-inner-tspan" font-weight="normal">vector</tspan></tspan></text></g><g class="label attribute-keys" transform="translate(20.94232177734375, 70.5)" style=""><g><rect class="background" style="stroke: none"/></g><text xml:space="preserve" y="-10.1" style=""><tspan class="text-outer-tspan row" x="0" y="-0.1em" dy="1.1em"/></text></g><g class="label attribute-comment" transform="translate(88.11839294433594, 70.5)" style=""><g><rect class="background" style="stroke: none"/></g><text xml:space="preserve" y="-10.1" style=""><tspan class="text-outer-tspan row" x="0" y="-0.1em" dy="1.1em"><tspan font-style="normal" class="text-inner-tspan" font-weight="normal">float32</tspan><tspan font-style="normal" class="text-inner-tspan" font-weight="normal"> LE</tspan></tspan></text></g><g class="divider"><path d="M-174.44651794433594 -61.12505 L-174.44651794433594 -61.12495 L174.44651794433594 -61.12495 L174.44651794433594 -61.12505" stroke="none" stroke-width="0" fill="#ECECFF" fill-rule="evenodd"/><path d="M-174.44651794433594 -61.12505 C-174.44651794433594 -61.12502579645003, -174.44651794433594 -61.12500159290007, -174.44651794433594 -61.12495 M-174.44651794433594 -61.12505 C-174.44651794433594 -61.125013712380614, -174.44651794433594 -61.12497742476122, -174.44651794433594 -61.12495 M-174.44651794433594 -61.12495 C-70.19487707189658 -61.12495, 34.05676380054277 -61.12495, 174.44651794433594 -61.12495 M-174.44651794433594 -61.12495 C-94.28147654953786 -61.12495, -14.116435154739776 -61.12495, 174.44651794433594 -61.12495 M174.44651794433594 -61.12495 C174.44651794433594 -61.12497115012097, 174.44651794433594 -61.12499230024194, 174.44651794433594 -61.12505 M174.44651794433594 -61.12495 C174.44651794433594 -61.124980778466714, 174.44651794433594 -61.12501155693343, 174.44651794433594 -61.12505 M174.44651794433594 -61.12505 C78.09753610657854 -61.12505, -18.251445731178848 -61.12505, -174.44651794433594 -61.12505 M174.44651794433594 -61.12505 C83.29282661163523 -61.12505, -7.860864721065468 -61.12505, -174.44651794433594 -61.12505" stroke="#9370DB" stroke-width="1.3" fill="none" stroke-dasharray="0 0"/></g><g class="divider"><path d="M-83.52647822265625 -61.125 L-83.52637822265625 -61.125 L-83.52637822265625 101.875 L-83.52647822265625 101.875" stroke="none" stroke-width="0" fill="#ECECFF" fill-rule="evenodd"/><path d="M-83.52647822265625 -61.125 C-83.52643828243856 -61.125, -83.52639834222089 -61.125, -83.52637822265625 -61.125 M-83.52647822265625 -61.125 C-83.52644207753525 -61.125, -83.52640593241426 -61.125, -83.52637822265625 -61.125 M-83.52637822265625 -61.125 C-83.52637822265625 -3.5555255941545454, -83.52637822265625 54.01394881169091, -83.52637822265625 101.875 M-83.52637822265625 -61.125 C-83.52637822265625 -27.321249100104076, -83.52637822265625 6.482501799791848, -83.52637822265625 101.875 M-83.52637822265625 101.875 C-83.52640886652361 101.875, -83.52643951039099 101.875, -83.52647822265625 101.875 M-83.52637822265625 101.875 C-83.52639865022394 101.875, -83.52641907779164 101.875, -83.52647822265625 101.875 M-83.52647822265625 101.875 C-83.52647822265625 62.16905211023459, -83.52647822265625 22.463104220469177, -83.52647822265625 -61.125 M-83.52647822265625 101.875 C-83.52647822265625 54.466464008082916, -83.52647822265625 7.057928016165832, -83.52647822265625 -61.125" stroke="#9370DB" stroke-width="1.3" fill="none" stroke-dasharray="0 0"/></g><g class="divider"><path d="M8.44227177734375 -61.125 L8.44237177734375 -61.125 L8.44237177734375 101.875 L8.44227177734375 101.875" stroke="none" stroke-width="0" fill="#ECECFF" fill-rule="evenodd"/><path d="M8.44227177734375 -61.125 C8.442298963286646 -61.125, 8.442326149229542 -61.125, 8.44237177734375 -61.125 M8.44227177734375 -61.125 C8.442294882460363 -61.125, 8.442317987576974 -61.125, 8.44237177734375 -61.125 M8.44237177734375 -61.125 C8.44237177734375 -14.49323851681983, 8.44237177734375 32.13852296636034, 8.44237177734375 101.875 M8.44237177734375 -61.125 C8.44237177734375 -14.841789848414066, 8.44237177734375 31.441420303171867, 8.44237177734375 101.875 M8.44237177734375 101.875 C8.442335427575859 101.875, 8.44229907780797 101.875, 8.44227177734375 101.875 M8.44237177734375 101.875 C8.44233589586978 101.875, 8.44230001439581 101.875, 8.44227177734375 101.875 M8.44227177734375 101.875 C8.44227177734375 44.77819271067653, 8.44227177734375 -12.318614578646944, 8.44227177734375 -61.125 M8.44227177734375 101.875 C8.44227177734375 37.976812490580606, 8.44227177734375 -25.921375018838788, 8.44227177734375 -61.125" stroke="#9370DB" stroke-width="1.3" fill="none" stroke-dasharray="0 0"/></g><g class="divider"><path d="M75.61834294433594 -61.125 L75.61844294433594 -61.125 L75.61844294433594 101.875 L75.61834294433594 101.875" stroke="none" stroke-width="0" fill="#ECECFF" fill-rule="evenodd"/><path d="M75.61834294433594 -61.125 C75.61836422293382 -61.125, 75.61838550153172 -61.125, 75.61844294433594 -61.125 M75.61834294433594 -61.125 C75.61836983276261 -61.125, 75.61839672118927 -61.125, 75.61844294433594 -61.125 M75.61844294433594 -61.125 C75.61844294433594 -22.09703026345158, 75.61844294433594 16.930939473096842, 75.61844294433594 101.875 M75.61844294433594 -61.125 C75.61844294433594 -17.721015620681676, 75.61844294433594 25.682968758636648, 75.61844294433594 101.875 M75.61844294433594 101.875 C75.61841468510526 101.875, 75.61838642587458 101.875, 75.61834294433594 101.875 M75.61844294433594 101.875 C75.61842225089494 101.875, 75.61840155745395 101.875, 75.61834294433594 101.875 M75.61834294433594 101.875 C75.61834294433594 45.079661024988674, 75.61834294433594 -11.715677950022652, 75.61834294433594 -61.125 M75.61834294433594 101.875 C75.61834294433594 46.858787214678685, 75.61834294433594 -8.15742557064263, 75.61834294433594 -61.125" stroke="#9370DB" stroke-width="1.3" fill="none" stroke-dasharray="0 0"/></g><g class="divider"><path d="M-174.44651794433594 -61.12505 L-174.44651794433594 -61.12495 L174.44651794433594 -61.12495 L174.44651794433594 -61.12505" stroke="none" stroke-width="0" fill="#ECECFF" fill-rule="evenodd"/><path d="M-174.44651794433594 -61.12505 C-174.44651794433594 -61.125015117864265, -174.44651794433594 -61.12498023572852, -174.44651794433594 -61.12495 M-174.44651794433594 -61.12505 C-174.44651794433594 -61.12501420759281, -174.44651794433594 -61.12497841518562, -174.44651794433594 -61.12495 M-174.44651794433594 -61.12495 C-56.02732903092031 -61.12495, 62.39185988249531 -61.12495, 174.44651794433594 -61.12495 M-174.44651794433594 -61.12495 C-87.88803735371299 -61.12495, -1.3295567630900393 -61.12495, 174.44651794433594 -61.12495 M174.44651794433594 -61.12495 C174.44651794433594 -61.12498530348188, 174.44651794433594 -61.12502060696376, 174.44651794433594 -61.12505 M174.44651794433594 -61.12495 C174.44651794433594 -61.12498229778939, 174.44651794433594 -61.12501459557877, 174.44651794433594 -61.12505 M174.44651794433594 -61.12505 C49.08256911674344 -61.12505, -76.28137971084905 -61.12505, -174.44651794433594 -61.12505 M174.44651794433594 -61.12505 C102.94258586487888 -61.12505, 31.43865378542182 -61.12505, -174.44651794433594 -61.12505" stroke="#9370DB" stroke-width="1.3" fill="none" stroke-dasharray="0 0"/></g></g><g class="node default" id="my-svg-entity-tagging_progress-3" data-look="classic" transform="translate(1544.1813049316406, 541.875)"><g class="outer-path" style=""><path d="M-127.68817138671875 -61.125 L127.68817138671875 -61.125 L127.68817138671875 61.125 L-127.68817138671875 61.125" stroke="none" stroke-width="0" fill="#ECECFF"/><path d="M-127.68817138671875 -61.125 C-40.221077230305895 -61.125, 47.24601692610696 -61.125, 127.68817138671875 -61.125 M-127.68817138671875 -61.125 C-50.38934918015491 -61.125, 26.909473026408932 -61.125, 127.68817138671875 -61.125 M127.68817138671875 -61.125 C127.68817138671875 -14.96092141339986, 127.68817138671875 31.20315717320028, 127.68817138671875 61.125 M127.68817138671875 -61.125 C127.68817138671875 -27.463429397288103, 127.68817138671875 6.198141205423795, 127.68817138671875 61.125 M127.68817138671875 61.125 C66.01297924313451 61.125, 4.337787099550255 61.125, -127.68817138671875 61.125 M127.68817138671875 61.125 C74.44089000593175 61.125, 21.193608625144748 61.125, -127.68817138671875 61.125 M-127.68817138671875 61.125 C-127.68817138671875 18.013778388901763, -127.68817138671875 -25.097443222196475, -127.68817138671875 -61.125 M-127.68817138671875 61.125 C-127.68817138671875 15.91633710763898, -127.68817138671875 -29.29232578472204, -127.68817138671875 -61.125" stroke="#9370DB" stroke-width="1.3" fill="none" stroke-dasharray="0 0"/></g><g style="" class="row-rect-odd"><path d="M-127.68817138671875 -20.375 L127.68817138671875 -20.375 L127.68817138671875 20.375 L-127.68817138671875 20.375" stroke="none" stroke-width="0" fill="hsl(240, 100%, 100%)"/><path d="M-127.68817138671875 -20.375 C-32.189308234779205 -20.375, 63.30955491716034 -20.375, 127.68817138671875 -20.375 M-127.68817138671875 -20.375 C-74.22220499743139 -20.375, -20.756238608144017 -20.375, 127.68817138671875 -20.375 M127.68817138671875 -20.375 C127.68817138671875 -5.026011311989464, 127.68817138671875 10.322977376021072, 127.68817138671875 20.375 M127.68817138671875 -20.375 C127.68817138671875 -9.37230347035936, 127.68817138671875 1.6303930592812783, 127.68817138671875 20.375 M127.68817138671875 20.375 C63.81531447906719 20.375, -0.05754242858436953 20.375, -127.68817138671875 20.375 M127.68817138671875 20.375 C53.065206887690735 20.375, -21.55775761133728 20.375, -127.68817138671875 20.375 M-127.68817138671875 20.375 C-127.68817138671875 5.494703159673648, -127.68817138671875 -9.385593680652704, -127.68817138671875 -20.375 M-127.68817138671875 20.375 C-127.68817138671875 11.012900452164839, -127.68817138671875 1.650800904329678, -127.68817138671875 -20.375" stroke="#9370DB" stroke-width="1.3" fill="none" stroke-dasharray="0 0"/></g><g style="" class="row-rect-even"><path d="M-127.68817138671875 20.375 L127.68817138671875 20.375 L127.68817138671875 61.125 L-127.68817138671875 61.125" stroke="none" stroke-width="0" fill="hsl(240, 100%, 97.2745098039%)"/><path d="M-127.68817138671875 20.375 C-43.82359780884438 20.375, 40.040975769029984 20.375, 127.68817138671875 20.375 M-127.68817138671875 20.375 C-41.02350060606899 20.375, 45.641170174580765 20.375, 127.68817138671875 20.375 M127.68817138671875 20.375 C127.68817138671875 36.41930468192177, 127.68817138671875 52.46360936384355, 127.68817138671875 61.125 M127.68817138671875 20.375 C127.68817138671875 30.206657420700466, 127.68817138671875 40.03831484140093, 127.68817138671875 61.125 M127.68817138671875 61.125 C64.26690740505109 61.125, 0.8456434233834074 61.125, -127.68817138671875 61.125 M127.68817138671875 61.125 C31.149701759284937 61.125, -65.38876786814888 61.125, -127.68817138671875 61.125 M-127.68817138671875 61.125 C-127.68817138671875 47.78529399379261, -127.68817138671875 34.44558798758521, -127.68817138671875 20.375 M-127.68817138671875 61.125 C-127.68817138671875 47.187645486443635, -127.68817138671875 33.25029097288727, -127.68817138671875 20.375" stroke="#9370DB" stroke-width="1.3" fill="none" stroke-dasharray="0 0"/></g><g class="label name" transform="translate(-65.84375, -51.75)" style=""><g><rect class="background" style="stroke: none"/></g><text xml:space="preserve" y="-10.1" style=""><tspan class="text-outer-tspan row" x="0" y="-0.1em" dy="1.1em"><tspan font-style="normal" class="text-inner-tspan" font-weight="normal">tagging_progress</tspan></tspan></text></g><g class="label attribute-type" transform="translate(-115.18817138671875, -11)" style=""><g><rect class="background" style="stroke: none"/></g><text xml:space="preserve" y="-10.1" style=""><tspan class="text-outer-tspan row" x="0" y="-0.1em" dy="1.1em"><tspan font-style="normal" class="text-inner-tspan" font-weight="normal">TEXT</tspan></tspan></text></g><g class="label attribute-name" transform="translate(-54.02012634277344, -11)" style=""><g><rect class="background" style="stroke: none"/></g><text xml:space="preserve" y="-10.1" style=""><tspan class="text-outer-tspan row" x="0" y="-0.1em" dy="1.1em"><tspan font-style="normal" class="text-inner-tspan" font-weight="normal">chunk_id</tspan></tspan></text></g><g class="label attribute-keys" transform="translate(73.01210021972656, -11)" style=""><g><rect class="background" style="stroke: none"/></g><text xml:space="preserve" y="-10.1" style=""><tspan class="text-outer-tspan row" x="0" y="-0.1em" dy="1.1em"><tspan font-style="normal" class="text-inner-tspan" font-weight="normal">PK,FK</tspan></tspan></text></g><g class="label attribute-comment" transform="translate(140.18817138671875, -11)" style=""><g><rect class="background" style="stroke: none"/></g><text xml:space="preserve" y="-10.1" style=""><tspan class="text-outer-tspan row" x="0" y="-0.1em" dy="1.1em"/></text></g><g class="label attribute-type" transform="translate(-115.18817138671875, 29.75)" style=""><g><rect class="background" style="stroke: none"/></g><text xml:space="preserve" y="-10.1" style=""><tspan class="text-outer-tspan row" x="0" y="-0.1em" dy="1.1em"><tspan font-style="normal" class="text-inner-tspan" font-weight="normal">TEXT</tspan></tspan></text></g><g class="label attribute-name" transform="translate(-54.02012634277344, 29.75)" style=""><g><rect class="background" style="stroke: none"/></g><text xml:space="preserve" y="-10.1" style=""><tspan class="text-outer-tspan row" x="0" y="-0.1em" dy="1.1em"><tspan font-style="normal" class="text-inner-tspan" font-weight="normal">completed_at</tspan></tspan></text></g><g class="label attribute-keys" transform="translate(73.01210021972656, 29.75)" style=""><g><rect class="background" style="stroke: none"/></g><text xml:space="preserve" y="-10.1" style=""><tspan class="text-outer-tspan row" x="0" y="-0.1em" dy="1.1em"/></text></g><g class="label attribute-comment" transform="translate(140.18817138671875, 29.75)" style=""><g><rect class="background" style="stroke: none"/></g><text xml:space="preserve" y="-10.1" style=""><tspan class="text-outer-tspan row" x="0" y="-0.1em" dy="1.1em"/></text></g><g class="divider"><path d="M-127.68817138671875 -20.37505 L-127.68817138671875 -20.37495 L127.68817138671875 -20.37495 L127.68817138671875 -20.37505" stroke="none" stroke-width="0" fill="#ECECFF" fill-rule="evenodd"/><path d="M-127.68817138671875 -20.37505 C-127.68817138671875 -20.37501549943094, -127.68817138671875 -20.37498099886188, -127.68817138671875 -20.37495 M-127.68817138671875 -20.37505 C-127.68817138671875 -20.37501689409352, -127.68817138671875 -20.374983788187038, -127.68817138671875 -20.37495 M-127.68817138671875 -20.37495 C-50.79128427310859 -20.37495, 26.105602840501575 -20.37495, 127.68817138671875 -20.37495 M-127.68817138671875 -20.37495 C-57.399690760549944 -20.37495, 12.888789865618861 -20.37495, 127.68817138671875 -20.37495 M127.68817138671875 -20.37495 C127.68817138671875 -20.37498094058195, 127.68817138671875 -20.375011881163903, 127.68817138671875 -20.37505 M127.68817138671875 -20.37495 C127.68817138671875 -20.374970899109783, 127.68817138671875 -20.374991798219572, 127.68817138671875 -20.37505 M127.68817138671875 -20.37505 C51.665168917529286 -20.37505, -24.35783355166018 -20.37505, -127.68817138671875 -20.37505 M127.68817138671875 -20.37505 C45.304387788275974 -20.37505, -37.0793958101668 -20.37505, -127.68817138671875 -20.37505" stroke="#9370DB" stroke-width="1.3" fill="none" stroke-dasharray="0 0"/></g><g class="divider"><path d="M-66.52017634277344 -20.375 L-66.52007634277344 -20.375 L-66.52007634277344 61.125 L-66.52017634277344 61.125" stroke="none" stroke-width="0" fill="#ECECFF" fill-rule="evenodd"/><path d="M-66.52017634277344 -20.375 C-66.52014945878422 -20.375, -66.520122574795 -20.375, -66.52007634277344 -20.375 M-66.52017634277344 -20.375 C-66.52015290400884 -20.375, -66.52012946524425 -20.375, -66.52007634277344 -20.375 M-66.52007634277344 -20.375 C-66.52007634277344 4.8668021914908515, -66.52007634277344 30.108604382981703, -66.52007634277344 61.125 M-66.52007634277344 -20.375 C-66.52007634277344 0.32641969075652, -66.52007634277344 21.02783938151304, -66.52007634277344 61.125 M-66.52007634277344 61.125 C-66.52009826758558 61.125, -66.52012019239771 61.125, -66.52017634277344 61.125 M-66.52007634277344 61.125 C-66.52011631963836 61.125, -66.52015629650329 61.125, -66.52017634277344 61.125 M-66.52017634277344 61.125 C-66.52017634277344 38.63901195805952, -66.52017634277344 16.15302391611904, -66.52017634277344 -20.375 M-66.52017634277344 61.125 C-66.52017634277344 37.31528485942336, -66.52017634277344 13.505569718846722, -66.52017634277344 -20.375" stroke="#9370DB" stroke-width="1.3" fill="none" stroke-dasharray="0 0"/></g><g class="divider"><path d="M60.51205021972656 -20.375 L60.512150219726564 -20.375 L60.512150219726564 61.125 L60.51205021972656 61.125" stroke="none" stroke-width="0" fill="#ECECFF" fill-rule="evenodd"/><path d="M60.51205021972656 -20.375 C60.512074985176234 -20.375, 60.5120997506259 -20.375, 60.512150219726564 -20.375 M60.51205021972656 -20.375 C60.512076861315286 -20.375, 60.51210350290402 -20.375, 60.512150219726564 -20.375 M60.512150219726564 -20.375 C60.512150219726564 10.163478330720608, 60.512150219726564 40.701956661441216, 60.512150219726564 61.125 M60.512150219726564 -20.375 C60.512150219726564 10.509472058648775, 60.512150219726564 41.39394411729755, 60.512150219726564 61.125 M60.512150219726564 61.125 C60.512113021187105 61.125, 60.512075822647645 61.125, 60.51205021972656 61.125 M60.512150219726564 61.125 C60.51212098014822 61.125, 60.51209174056988 61.125, 60.51205021972656 61.125 M60.51205021972656 61.125 C60.51205021972656 44.28448358493278, 60.51205021972656 27.44396716986556, 60.51205021972656 -20.375 M60.51205021972656 61.125 C60.51205021972656 40.975420262284494, 60.51205021972656 20.82584052456899, 60.51205021972656 -20.375" stroke="#9370DB" stroke-width="1.3" fill="none" stroke-dasharray="0 0"/></g><g class="divider"><path d="M-127.68817138671875 -20.37505 L-127.68817138671875 -20.37495 L127.68817138671875 -20.37495 L127.68817138671875 -20.37505" stroke="none" stroke-width="0" fill="#ECECFF" fill-rule="evenodd"/><path d="M-127.68817138671875 -20.37505 C-127.68817138671875 -20.37502869529449, -127.68817138671875 -20.37500739058898, -127.68817138671875 -20.37495 M-127.68817138671875 -20.37505 C-127.68817138671875 -20.375011909633578, -127.68817138671875 -20.374973819267158, -127.68817138671875 -20.37495 M-127.68817138671875 -20.37495 C-34.239454712395116 -20.37495, 59.20926196192852 -20.37495, 127.68817138671875 -20.37495 M-127.68817138671875 -20.37495 C-53.31024483007141 -20.37495, 21.067681726575927 -20.37495, 127.68817138671875 -20.37495 M127.68817138671875 -20.37495 C127.68817138671875 -20.374975506842347, 127.68817138671875 -20.375001013684695, 127.68817138671875 -20.37505 M127.68817138671875 -20.37495 C127.68817138671875 -20.374971332758182, 127.68817138671875 -20.374992665516363, 127.68817138671875 -20.37505 M127.68817138671875 -20.37505 C63.089750264328245 -20.37505, -1.5086708580622599 -20.37505, -127.68817138671875 -20.37505 M127.68817138671875 -20.37505 C46.38230065693685 -20.37505, -34.92357007284505 -20.37505, -127.68817138671875 -20.37505" stroke="#9370DB" stroke-width="1.3" fill="none" stroke-dasharray="0 0"/></g></g><g class="label edgeLabel" id="entity-nodes-0---entity-nodes-0---1" transform="translate(1811.9194763191044, 541.875)"><rect width="0.1" height="0.1"/><g class="label" style="" transform="translate(0, 0)"><rect/><g><rect class="background" style="stroke: none"/><text xml:space="preserve" y="-10.1" style=""><tspan class="text-outer-tspan row" x="0" y="-0.1em" dy="1.1em"/></text></g></g></g><g class="label edgeLabel" id="entity-nodes-0---entity-nodes-0---2" transform="translate(1861.0321281440556, 790.5500000007451)"><rect width="0.1" height="0.1"/><g class="label" style="" transform="translate(0, 0)"><rect/><g><rect class="background" style="stroke: none"/><text xml:space="preserve" y="-10.1" style=""><tspan class="text-outer-tspan row" x="0" y="-0.1em" dy="1.1em"/></text></g></g></g></g></g></g><defs><filter id="my-svg-drop-shadow" height="130%" width="130%"><feDropShadow dx="4" dy="4" stdDeviation="0" flood-opacity="0.06" flood-color="#000000"/></filter></defs><defs><filter id="my-svg-drop-shadow-small" height="150%" width="150%"><feDropShadow dx="2" dy="2" stdDeviation="0" flood-opacity="0.06" flood-color="#000000"/></filter></defs></svg>